<svg width="34" height="46" viewBox="0 0 34 46" fill="none" xmlns="http://www.w3.org/2000/svg">
<path d="M33.15 8.91667H33.1318C33.1029 8.73967 33.0208 8.57433 32.8948 8.44393L32.8934 8.44258L25.6207 1.10924L25.6207 1.10924L25.6199 1.1085C25.4911 0.980359 25.3265 0.896927 25.15 0.867932V0.85H25H3.18182C1.8928 0.85 0.85 1.90329 0.85 3.2V42.8C0.85 44.0967 1.8928 45.15 3.18182 45.15H30.8182C32.1072 45.15 33.15 44.0967 33.15 42.8V9.06667V8.91667ZM28.0585 22.2665V22.1165H27.9085H13.3631H13.2131V22.2665V23.7332V23.8832H13.3631H27.9085H28.0585V23.7332V22.2665ZM28.0585 14.9335V14.7835H27.9085H13.3631H13.2131V14.9335V16.4001V16.5501H13.3631H27.9085H28.0585V16.4001V14.9335ZM28.0585 29.6V29.45H27.9085H13.3631H13.2131V29.6V31.0667V31.2167H13.3631H27.9085H28.0585V31.0667V29.6ZM28.0585 36.9335V36.7835H27.9085H13.3631H13.2131V36.9335V38.4001V38.5501H13.3631H27.9085H28.0585V38.4001V36.9335ZM25.8773 7.6V3.86787L30.1571 8.18333H26.4545C26.1369 8.18333 25.8773 7.92332 25.8773 7.6ZM31.3955 42.8C31.3955 43.1233 31.1358 43.3833 30.8182 43.3833H3.18182C2.8642 43.3833 2.60455 43.1233 2.60455 42.8V3.2C2.60455 2.87668 2.8642 2.61667 3.18182 2.61667H24.1227V7.6C24.1227 8.89671 25.1655 9.95 26.4545 9.95H31.3955V42.8ZM8.27245 20.65C6.98344 20.65 5.94063 21.7033 5.94063 23C5.94063 24.2967 6.98344 25.35 8.27245 25.35C9.56147 25.35 10.6043 24.2967 10.6043 23C10.6043 21.7033 9.56147 20.65 8.27245 20.65ZM8.27245 23.5833C7.95483 23.5833 7.69518 23.3233 7.69518 23C7.69518 22.6767 7.95483 22.4167 8.27245 22.4167C8.59007 22.4167 8.84973 22.6767 8.84973 23C8.84973 23.3233 8.59007 23.5833 8.27245 23.5833ZM8.27245 13.3165C6.98344 13.3165 5.94063 14.3698 5.94063 15.6665C5.94063 16.9632 6.98344 18.0165 8.27245 18.0165C9.56147 18.0165 10.6043 16.9632 10.6043 15.6665C10.6043 14.3698 9.56147 13.3165 8.27245 13.3165ZM8.27245 16.2499C7.95483 16.2499 7.69518 15.9898 7.69518 15.6665C7.69518 15.3432 7.95483 15.0832 8.27245 15.0832C8.59008 15.0832 8.84973 15.3432 8.84973 15.6665C8.84973 15.9898 8.59007 16.2499 8.27245 16.2499ZM8.27245 27.9835C6.98344 27.9835 5.94063 29.0368 5.94063 30.3335C5.94063 31.6302 6.98344 32.6835 8.27245 32.6835C9.56147 32.6835 10.6043 31.6302 10.6043 30.3335C10.6043 29.0368 9.56147 27.9835 8.27245 27.9835ZM8.27245 30.9168C7.95483 30.9168 7.69518 30.6568 7.69518 30.3335C7.69518 30.0102 7.95483 29.7501 8.27245 29.7501C8.59007 29.7501 8.84973 30.0102 8.84973 30.3335C8.84973 30.6568 8.59008 30.9168 8.27245 30.9168ZM8.27245 35.3165C6.98344 35.3165 5.94063 36.3698 5.94063 37.6665C5.94063 38.9632 6.98344 40.0165 8.27245 40.0165C9.56147 40.0165 10.6043 38.9632 10.6043 37.6665C10.6043 36.3698 9.56147 35.3165 8.27245 35.3165ZM8.27245 38.2499C7.95483 38.2499 7.69518 37.9898 7.69518 37.6665C7.69518 37.3432 7.95483 37.0832 8.27245 37.0832C8.59008 37.0832 8.84973 37.3432 8.84973 37.6665C8.84973 37.9898 8.59008 38.2499 8.27245 38.2499Z" fill="white" stroke="white" stroke-width="0.3"/>
</svg>
