<svg width="36" height="44" viewBox="0 0 36 44" fill="none" xmlns="http://www.w3.org/2000/svg">
<path d="M31.5823 2.61637H24.5971C24.2465 1.11977 22.8807 0 21.253 0H14.5721C12.9443 0 11.5785 1.11977 11.228 2.61637H4.41755C1.9816 2.61637 0 4.56363 0 6.95717V39.6592C0 42.0528 1.98169 44 4.41755 44H31.5824C34.0184 44 36 42.0527 36 39.6592V6.95717C35.9999 4.56355 34.0182 2.61637 31.5823 2.61637ZM13.7607 3.37271C13.7607 2.93305 14.1247 2.57529 14.5721 2.57529H21.253C21.7003 2.57529 22.0644 2.93297 22.0644 3.37271V4.95027C22.0644 5.38993 21.7004 5.74768 21.253 5.74768H14.5721C14.1248 5.74768 13.7607 5.39001 13.7607 4.95027V3.37271ZM31.5824 41.4247H4.41746C3.42666 41.4247 2.62074 40.6327 2.62074 39.6592V6.95717C2.62074 5.98358 3.42675 5.19167 4.41746 5.19167H11.1496C11.276 6.93904 12.7623 8.32306 14.572 8.32306H21.2529C23.0628 8.32306 24.549 6.93904 24.6753 5.19167H31.5822C32.573 5.19167 33.3789 5.98367 33.3789 6.95717V39.6592C33.379 40.6328 32.5731 41.4247 31.5824 41.4247Z" fill="white"/>
<path d="M29.3616 14.1602H16.5918C15.8681 14.1602 15.2813 14.7368 15.2813 15.4479C15.2813 16.159 15.8681 16.7356 16.5918 16.7356H29.3616C30.0853 16.7356 30.672 16.159 30.672 15.4479C30.672 14.7368 30.0854 14.1602 29.3616 14.1602Z" fill="white"/>
<path d="M12.759 12.2962C12.213 11.8297 11.3852 11.8862 10.9103 12.423L7.98449 15.7291L6.90405 14.6427C6.39819 14.1339 5.56849 14.1248 5.051 14.6218C4.53326 15.1188 4.5239 15.934 5.02966 16.4426L7.10345 18.5279C7.11482 18.5393 7.12715 18.549 7.13878 18.56C7.15295 18.5732 7.16598 18.587 7.18076 18.5997C7.18478 18.6031 7.18907 18.6059 7.19309 18.6093C7.20708 18.621 7.22169 18.6316 7.23595 18.6427C7.2551 18.6574 7.27425 18.672 7.29393 18.6854C7.30958 18.6962 7.32568 18.7061 7.34159 18.716C7.36136 18.7283 7.38121 18.7403 7.40141 18.7514C7.41751 18.7603 7.43369 18.7686 7.45004 18.7768C7.47147 18.7874 7.49289 18.7974 7.51467 18.8068C7.5305 18.8136 7.54633 18.8203 7.56233 18.8265C7.5856 18.8354 7.60904 18.8435 7.63265 18.851C7.64787 18.8559 7.663 18.8609 7.6783 18.8653C7.70384 18.8725 7.72946 18.8784 7.75526 18.884C7.76926 18.8871 7.78316 18.8906 7.79716 18.8932C7.82593 18.8986 7.8547 18.9023 7.88374 18.9057C7.89528 18.9071 7.90674 18.9091 7.91829 18.9102C7.95869 18.9139 7.99927 18.916 8.03976 18.916C8.03985 18.916 8.03994 18.916 8.04003 18.916C8.04011 18.916 8.0402 18.916 8.04038 18.916C8.08402 18.916 8.12783 18.9135 8.1713 18.9093C8.1838 18.9081 8.19614 18.9057 8.20864 18.9041C8.23978 18.9001 8.27065 18.8958 8.30152 18.8897C8.31674 18.8867 8.33178 18.8826 8.34683 18.879C8.37437 18.8724 8.40184 18.8656 8.42904 18.8574C8.44557 18.8523 8.46174 18.8465 8.47801 18.8408C8.50311 18.832 8.52804 18.8229 8.5527 18.8126C8.57002 18.8054 8.58698 18.7976 8.60395 18.7896C8.62669 18.7789 8.64908 18.7677 8.67138 18.7556C8.68922 18.746 8.70671 18.736 8.72412 18.7255C8.74458 18.7131 8.7647 18.7 8.78446 18.6865C8.80221 18.6744 8.81988 18.6622 8.83702 18.6492C8.85583 18.635 8.8741 18.6198 8.89221 18.6045C8.90891 18.5904 8.92562 18.5765 8.94162 18.5615C8.94634 18.5571 8.95142 18.5534 8.95605 18.549C8.97057 18.535 8.98325 18.5199 8.99698 18.5056C9.00748 18.4945 9.01893 18.4846 9.02917 18.4731L12.8876 14.113C13.3629 13.5762 13.3051 12.7629 12.759 12.2962Z" fill="white"/>
<path d="M29.3616 23.1293H16.5918C15.8681 23.1293 15.2813 23.7058 15.2813 24.417C15.2813 25.1281 15.8681 25.7046 16.5918 25.7046H29.3616C30.0853 25.7046 30.672 25.1281 30.672 24.417C30.6721 23.7057 30.0854 23.1293 29.3616 23.1293Z" fill="white"/>
<path d="M29.3616 32.0571H16.5918C15.8681 32.0571 15.2813 32.6336 15.2813 33.3448C15.2813 34.0559 15.8681 34.6325 16.5918 34.6325H29.3616C30.0853 34.6325 30.672 34.0559 30.672 33.3448C30.672 32.6336 30.0854 32.0571 29.3616 32.0571Z" fill="white"/>
<path d="M11.5225 23.1293H6.18794C5.46424 23.1293 4.87749 23.7058 4.87749 24.417C4.87749 25.1281 5.46424 25.7046 6.18794 25.7046H11.5226C12.2463 25.7046 12.833 25.1281 12.833 24.417C12.8329 23.7057 12.2462 23.1293 11.5225 23.1293Z" fill="white"/>
<path d="M11.5225 31.8967H6.18794C5.46424 31.8967 4.87749 32.4733 4.87749 33.1844C4.87749 33.8955 5.46424 34.4721 6.18794 34.4721H11.5226C12.2463 34.4721 12.833 33.8955 12.833 33.1844C12.833 32.4733 12.2462 31.8967 11.5225 31.8967Z" fill="white"/>
</svg>
