<svg width="36" height="44" viewBox="0 0 36 44" fill="none" xmlns="http://www.w3.org/2000/svg">
<path d="M34.7082 41.4205H32.5011V3.16516C32.5011 1.41986 31.079 0 29.331 0H13.85C12.102 0 10.6799 1.41986 10.6799 3.16516V20.7063L6.66666 20.709C4.91986 20.7101 3.49876 22.1299 3.49876 23.8741V41.4204H1.29174C0.578306 41.4204 0 41.9979 0 42.7102C0 43.4224 0.578306 44 1.29174 44H34.7083C35.4217 44 36 43.4225 36 42.7103C36 41.998 35.4216 41.4205 34.7082 41.4205ZM29.9177 41.4204H6.08233V23.874C6.08233 23.5513 6.34527 23.2886 6.66847 23.2884L29.9177 23.2849V41.4204ZM29.9177 20.7054H13.2635V3.16516C13.2635 2.84221 13.5267 2.5795 13.8501 2.5795H29.3311C29.6546 2.5795 29.9177 2.84221 29.9177 3.16516V20.7054Z" fill="white"/>
<path d="M26.4926 25.0798H9.55896C8.73424 25.0798 8.06323 25.7498 8.06323 26.5733V38.3279C8.06323 39.1513 8.73415 39.8213 9.55896 39.8213H26.4926C27.3173 39.8213 27.9882 39.1513 27.9882 38.3279V26.5733C27.9883 25.7498 27.3173 25.0798 26.4926 25.0798ZM12.3681 37.2419H10.6468V27.6593H12.3681V37.2419ZM16.7433 37.2419H14.9517V27.6593H16.7433V37.2419ZM21.0994 37.2419H19.3268V27.6593H21.0994V37.2419ZM25.4048 37.2419H23.6829V27.6593H25.4048V37.2419Z" fill="white"/>
<path d="M19.4557 3.80351H16.3158C15.4733 3.80351 14.7877 4.48791 14.7877 5.32916V9.82867C14.7877 10.6698 15.4732 11.3543 16.3158 11.3543H19.4557C20.2981 11.3543 20.9837 10.6699 20.9837 9.82867V5.32916C20.9836 4.48791 20.2981 3.80351 19.4557 3.80351ZM18.4001 8.77465H17.3712V6.38301H18.4001V8.77465Z" fill="white"/>
<path d="M26.8617 3.71757H23.7219C22.8794 3.71757 22.1938 4.40198 22.1938 5.24322V9.74274C22.1938 10.5839 22.8793 11.2684 23.7219 11.2684H26.8617C27.7042 11.2684 28.3898 10.584 28.3898 9.74274V5.24313C28.3897 4.40198 27.7042 3.71757 26.8617 3.71757ZM25.8062 8.68862H24.7773V6.29698H25.8062V8.68862Z" fill="white"/>
<path d="M19.4557 12.23H16.3158C15.4733 12.23 14.7877 12.9144 14.7877 13.7557V18.2551C14.7877 19.0963 15.4732 19.7808 16.3158 19.7808H19.4557C20.2981 19.7808 20.9837 19.0963 20.9837 18.2551V13.7557C20.9836 12.9144 20.2981 12.23 19.4557 12.23ZM18.4001 17.2011H17.3712V14.8094H18.4001V17.2011Z" fill="white"/>
<path d="M26.8617 12.144H23.7219C22.8794 12.144 22.1938 12.8284 22.1938 13.6696V18.1692C22.1938 19.0103 22.8793 19.6948 23.7219 19.6948H26.8617C27.7042 19.6948 28.3898 19.0104 28.3898 18.1692V13.6696C28.3897 12.8284 27.7042 12.144 26.8617 12.144ZM25.8062 17.1151H24.7773V14.7235H25.8062V17.1151Z" fill="white"/>
</svg>
