<svg width="50" height="50" viewBox="0 0 50 50" fill="none" xmlns="http://www.w3.org/2000/svg">
<path d="M46.133 3.86687C42.133 -0.132833 36.0741 -1.11397 31.0612 1.31827C29.3457 0.100245 26.9463 0.258173 25.4097 1.79473C23.8499 3.35456 23.7267 5.75361 24.9333 7.44657C24.8696 7.57704 24.8089 7.70864 24.7502 7.84063L0.653926 23.8688C-0.0197476 24.317 -0.202853 25.2268 0.245373 25.9005C0.692836 26.573 1.60226 26.7581 2.27708 26.3091L23.6615 12.0849C23.3845 15.3922 24.3626 18.7484 26.5038 21.424L6.29089 41.6369C5.71831 42.2091 5.71831 43.1368 6.29089 43.7094C6.86271 44.2812 7.79083 44.2816 8.36303 43.7094L28.5763 23.4957C30.9555 25.3996 33.8722 26.385 36.8153 26.385C37.1739 26.385 37.5328 26.3686 37.891 26.3392L23.6905 47.7236C23.2426 48.398 23.4261 49.3074 24.1005 49.7553C24.7731 50.202 25.6829 50.0208 26.1319 49.3448L42.123 25.2642C42.2672 25.2009 42.4103 25.1345 42.5526 25.0655C44.2791 26.2927 46.6766 26.1187 48.2056 24.5902C49.7417 23.0536 49.8997 20.6542 48.6816 18.9387C51.1139 13.9258 50.1331 7.86695 46.133 3.86687ZM44.0605 5.93939C46.9047 8.78324 47.7852 12.9645 46.4714 16.6392L33.3607 3.52851C37.0354 2.21473 41.2167 3.09516 44.0605 5.93939ZM27.1439 9.74569L32.663 15.2648L28.5939 19.3339C26.5278 16.5759 25.9922 12.9668 27.1439 9.74569ZM30.666 21.406L34.7351 17.3369L40.2546 22.856C37.0331 24.0077 33.424 23.4721 30.666 21.406ZM46.133 22.5176C45.5616 23.0891 44.6323 23.0891 44.0605 22.5176L27.4823 5.93939C26.9093 5.36642 26.9093 4.43984 27.4823 3.86687C28.0548 3.29428 28.9818 3.29428 29.5548 3.86687L46.133 20.4455C46.7041 21.0166 46.7041 21.9466 46.133 22.5176Z" fill="white"/>
</svg>
