<svg width="39" height="34" viewBox="0 0 39 34" fill="none" xmlns="http://www.w3.org/2000/svg">
<path d="M35.4098 0H18.2762C16.2966 0 14.686 1.60553 14.686 3.57884V14.5352L11.5046 12.9581C11.3972 12.9047 11.288 12.8543 11.1779 12.8065C12.1119 11.8346 12.6877 10.5176 12.6877 9.06871C12.6877 6.08634 10.2537 3.65982 7.26192 3.65982C4.26979 3.65982 1.83586 6.08634 1.83586 9.06871C1.83586 10.6894 2.55563 12.1451 3.69225 13.1372C1.59901 14.3112 0 16.6013 0 19.4383V23.0982C0 24.6737 1.02624 26.0147 2.44762 26.4913V32.858C2.44762 33.4868 2.9591 33.9969 3.59019 33.9969H10.933C11.5641 33.9969 12.0756 33.4868 12.0756 32.858V20.0609L15.7337 21.8839C17.1336 22.5815 19.0326 22.1656 19.8913 20.5773H23.9879L19.65 32.4685C19.4342 33.0596 19.7404 33.7134 20.3334 33.9281C21.0112 34.174 21.6141 33.7501 21.7977 33.2471L26.4194 20.5773H27.2204L31.8895 33.2507C32.0669 33.7315 32.6652 34.1799 33.3561 33.9269C33.9483 33.7101 34.2523 33.0558 34.0345 32.4653L29.6547 20.5773H35.4098C37.351 20.5773 39 19.0163 39 16.9985V3.57884C39 1.56074 37.351 0 35.4098 0ZM4.12102 9.06871C4.12102 7.34217 5.5299 5.93775 7.26162 5.93775C8.99364 5.93775 10.4025 7.34217 10.4025 9.06871C10.4025 10.795 8.99364 12.1994 7.26162 12.1994C5.5299 12.1994 4.12102 10.795 4.12102 9.06871ZM17.9385 19.3594C17.9355 19.3677 17.9325 19.3763 17.9298 19.3849C17.8519 19.6018 17.6757 19.7845 17.46 19.8729C17.2318 19.9654 16.975 19.9556 16.7557 19.8465C14.583 18.763 11.4436 17.1996 11.4436 17.1996C10.6855 16.8217 9.79047 17.3722 9.79047 18.2184V31.719H4.73277V25.538C4.73277 24.9092 4.22099 24.3991 3.59019 24.3991C2.87043 24.3991 2.28516 23.8156 2.28516 23.0982V19.4383C2.28516 16.6553 4.55841 14.4776 7.26162 14.4776H8.27119C9.03708 14.4776 9.80207 14.6568 10.4855 14.997C10.4855 14.997 16.1529 17.8064 17.5963 18.523C17.9054 18.6761 18.0524 19.0355 17.9385 19.3594ZM36.7148 16.9985C36.7148 17.3464 36.5795 17.6729 36.3331 17.9185C36.0906 18.1606 35.7541 18.2994 35.4098 18.2994H20.1397C20.1376 18.2931 20.1362 18.2869 20.1341 18.281L22.9697 12.628C23.2518 12.0653 23.0232 11.3813 22.4588 11.0999C21.8947 10.8187 21.2082 11.0465 20.9258 11.6091L18.5074 16.4305C18.0566 16.2065 17.5326 15.9464 16.9712 15.6682V3.57884C16.9712 2.86165 17.5564 2.27793 18.2762 2.27793H35.4098C35.7541 2.27793 36.0906 2.41674 36.3334 2.65936C36.5795 2.90436 36.7148 3.23092 36.7148 3.57884V16.9985Z" fill="white"/>
<path d="M32.9622 4.87975H20.7238C20.0927 4.87975 19.5812 5.38962 19.5812 6.01872C19.5812 6.64782 20.0927 7.15768 20.7238 7.15768H32.9622C33.593 7.15768 34.1048 6.64782 34.1048 6.01872C34.1048 5.38962 33.5933 4.87975 32.9622 4.87975Z" fill="white"/>
<path d="M32.9622 9.14969H26.8428C26.2121 9.14969 25.7003 9.65955 25.7003 10.2887C25.7003 10.9178 26.2121 11.4276 26.8428 11.4276H32.9622C33.593 11.4276 34.1048 10.9178 34.1048 10.2887C34.1048 9.65955 33.5933 9.14969 32.9622 9.14969Z" fill="white"/>
<path d="M32.9622 13.4196H26.8428C26.2121 13.4196 25.7003 13.9295 25.7003 14.5586C25.7003 15.1874 26.2121 15.6975 26.8428 15.6975H32.9622C33.593 15.6975 34.1048 15.1874 34.1048 14.5586C34.1048 13.9295 33.5933 13.4196 32.9622 13.4196Z" fill="white"/>
</svg>
