<svg width="42" height="42" viewBox="0 0 42 42" fill="none" xmlns="http://www.w3.org/2000/svg">
<path d="M41.9864 18.31L40.6767 4.17547C40.5365 2.66281 39.3368 1.46327 37.8241 1.32316L23.6883 0.0135239C22.7509 -0.0730192 21.8304 0.258716 21.1642 0.924811L0.923307 21.168C-0.307769 22.399 -0.307769 24.4019 0.923307 25.6328L16.3688 41.0768C16.9843 41.6923 17.7929 42 18.6014 42C19.4099 42 20.2185 41.6923 20.8341 41.0767L41.075 20.8337C41.7412 20.1677 42.0733 19.2478 41.9864 18.31ZM19.0931 39.3361C18.8221 39.6071 18.3809 39.6071 18.1097 39.3361L2.66425 23.8921C2.3932 23.6209 2.3932 23.1799 2.66434 22.9087L18.1402 7.43113L34.569 23.8585L19.0931 39.3361ZM39.3341 19.093L36.3099 22.1175L19.881 5.6901L22.9053 2.66552C23.0366 2.53419 23.2127 2.46183 23.3964 2.46183C23.4179 2.46183 23.4395 2.46282 23.4611 2.46487L37.5969 3.77442C37.9301 3.80526 38.1943 4.0694 38.2252 4.40253L39.5348 18.537C39.554 18.7437 39.4808 18.9462 39.3341 19.093Z" fill="white"/>
<path d="M34.9877 7.01245C34.381 6.40574 33.5744 6.07171 32.7164 6.07171C31.8584 6.07171 31.0518 6.40582 30.4452 7.01236C29.8385 7.61899 29.5044 8.4256 29.5044 9.2834C29.5044 10.1412 29.8386 10.9479 30.4452 11.5544C31.0714 12.1806 31.894 12.4936 32.7165 12.4936C33.539 12.4936 34.3615 12.1806 34.9877 11.5544C36.24 10.3022 36.24 8.26466 34.9877 7.01245ZM33.2467 9.81374C32.9543 10.1061 32.4785 10.106 32.1861 9.81374C32.0444 9.67207 31.9664 9.48372 31.9664 9.28349C31.9664 9.08325 32.0444 8.8949 32.1861 8.75332C32.3278 8.61165 32.5162 8.53364 32.7163 8.53364C32.9167 8.53364 33.105 8.61165 33.2466 8.75332C33.5391 9.04559 33.5391 9.52138 33.2467 9.81374Z" fill="white"/>
<path d="M26.9031 20.8579C26.869 20.5325 26.745 20.2629 26.5313 20.0493C26.2452 19.7632 25.9234 19.6844 25.5667 19.8127L10.0482 25.2905C9.9032 25.3399 9.78744 25.4085 9.70007 25.4958C9.50597 25.6899 9.40662 25.9449 9.40203 26.2605C9.39751 26.5763 9.51196 26.8508 9.74536 27.0843C10.0597 27.3987 10.3958 27.4918 10.753 27.3639L26.2857 21.9002C26.4013 21.8606 26.5125 21.7875 26.6194 21.6807C26.8426 21.4575 26.9373 21.1832 26.9031 20.8579Z" fill="white"/>
<path d="M21.2749 16.9336C21.2014 16.2295 20.8425 15.555 20.198 14.9105C19.5483 14.2608 18.8748 13.9032 18.1782 13.8372C17.4814 13.7715 16.7931 14.0783 16.1137 14.7576L14.0461 16.8251C13.3666 17.5046 13.0596 18.1928 13.1256 18.8894C13.1913 19.5861 13.5493 20.2593 14.199 20.9091C14.8436 21.5536 15.5179 21.9125 16.2222 21.9858C16.9261 22.0591 17.6183 21.756 18.2979 21.0766L20.3655 19.0091C21.0448 18.3297 21.3478 17.6377 21.2749 16.9336ZM18.9676 17.6114L16.9 19.6788C16.4341 20.1447 15.9558 20.1324 15.4657 19.6424C14.9852 19.1619 14.978 18.6887 15.4439 18.2228L17.5115 16.1553C17.9775 15.6894 18.4507 15.6967 18.9312 16.1772C19.4213 16.6671 19.4336 17.1455 18.9676 17.6114Z" fill="white"/>
<path d="M23.1678 28.2027C23.0943 27.4986 22.7354 26.8241 22.0909 26.1797C21.4412 25.53 20.7677 25.1723 20.0711 25.1064C19.3742 25.0406 18.686 25.3475 18.0067 26.0268L15.939 28.0942C15.2594 28.7737 14.9524 29.4618 15.0186 30.1586C15.0843 30.8554 15.4422 31.5285 16.092 32.1782C16.7365 32.8227 17.4109 33.1817 18.1152 33.255C18.8192 33.3281 19.5112 33.0251 20.1909 32.3456L22.2585 30.2781C22.9378 29.5988 23.2409 28.9069 23.1678 28.2027ZM20.8606 28.8805L18.7929 30.9479C18.327 31.4138 17.8487 31.4015 17.3586 30.9115C16.8781 30.431 16.8708 29.9579 17.3367 29.4918L19.4044 27.4244C19.8703 26.9586 20.3436 26.9659 20.8241 27.4463C21.3142 27.9364 21.3265 28.4146 20.8606 28.8805Z" fill="white"/>
</svg>
