<svg width="21" height="16" viewBox="0 0 21 16" fill="none" xmlns="http://www.w3.org/2000/svg">
<path d="M19.635 5.86826L16.046 1.97934C15.3358 1.2791 14.1789 1.27817 13.462 1.98498C13.2348 2.20897 13.0802 2.4772 13 2.76335C12.286 2.22406 11.2561 2.2777 10.5984 2.92619C10.3721 3.15017 10.2175 3.41841 10.1354 3.70358C9.42142 3.16619 8.39145 3.21886 7.73473 3.86735C7.51231 4.08666 7.3596 4.34828 7.27655 4.62688L5.58508 2.9591C4.8749 2.25887 3.71799 2.25794 3.00114 2.96475C2.29002 3.66498 2.29002 4.80569 3.00114 5.50685L9.49967 11.9144L5.64522 12.511C4.60379 12.6579 3.81821 13.5501 3.81821 14.5882C3.81821 15.3666 4.46061 16 5.25003 16H14.2504C15.6527 16 16.9709 15.4616 17.9627 14.4838L19.4641 13.0033C20.455 12.0273 21 10.7285 21 9.34777C21 8.05835 20.5151 6.82261 19.635 5.86826ZM18.7893 12.3379L17.2878 13.8183C16.4764 14.6183 15.3978 15.0588 14.2504 15.0588H5.24999C4.98653 15.0588 4.7727 14.848 4.7727 14.5882C4.7727 14.0159 5.20605 13.5237 5.78737 13.4418L10.5744 12.7002C10.752 12.6729 10.898 12.5496 10.9544 12.3811C11.0097 12.2136 10.9649 12.0282 10.8379 11.903L3.67597 4.84142C3.33712 4.50732 3.33712 3.9633 3.68076 3.62355C3.85065 3.45697 4.07308 3.37319 4.2955 3.37319C4.51793 3.37319 4.74031 3.45697 4.91024 3.62448L9.68585 8.3332C9.87199 8.51673 10.1746 8.51673 10.3607 8.3332C10.4533 8.24095 10.5001 8.12051 10.5001 8.00002C10.5001 7.87954 10.4534 7.7591 10.3598 7.66685L8.40966 5.74402C8.07081 5.40992 8.07081 4.86683 8.41538 4.52708C8.75329 4.19391 9.30597 4.19391 9.64388 4.52708L11.595 6.45083C11.7811 6.63436 12.0837 6.63436 12.2698 6.45083C12.3624 6.35858 12.4092 6.23814 12.4092 6.11766C12.4092 5.99717 12.3625 5.87673 12.2689 5.78448L11.2733 4.80282C10.9344 4.46872 10.9344 3.92563 11.279 3.58588C11.6169 3.2527 12.1696 3.2527 12.5075 3.58588L13.5079 4.57222C13.5098 4.57314 13.5088 4.57314 13.5088 4.57314L13.5098 4.57407C13.5107 4.575 13.5107 4.575 13.5107 4.575C13.5116 4.57592 13.5116 4.57592 13.5116 4.57592H13.5126C13.5135 4.57592 13.5135 4.57685 13.5135 4.57685C13.7006 4.75191 13.9965 4.74816 14.1788 4.56745C14.365 4.38392 14.365 4.08556 14.1788 3.90203L14.1378 3.86157C13.9736 3.6997 13.8829 3.48414 13.8829 3.25544C13.8829 3.02673 13.9726 2.81214 14.1426 2.64463C14.4824 2.31145 15.0322 2.31238 15.3558 2.62862L18.9296 6.50157C19.6484 7.28188 20.0455 8.2927 20.0455 9.34777C20.0455 10.4772 19.5997 11.5388 18.7893 12.3379Z" fill="#282828"/>
<path d="M8.20526 2.49697C7.51038 0.980734 5.97547 0 4.29546 0C1.92723 0 0 1.90023 0 4.23529C0 5.89177 0.994622 7.40518 2.5324 8.0913C2.59634 8.11954 2.66318 8.13273 2.72905 8.13273C2.9104 8.13273 3.08414 8.02918 3.16432 7.85602C3.2722 7.61885 3.16526 7.34024 2.9257 7.23295C1.7287 6.6993 0.954576 5.52282 0.954576 4.23529C0.954576 2.41884 2.4532 0.941161 4.2955 0.941161C5.60132 0.941161 6.79452 1.70444 7.33575 2.88467C7.44363 3.12185 7.72713 3.22822 7.96669 3.11995C8.20719 3.0127 8.31408 2.73414 8.20526 2.49697Z" fill="#282828"/>
</svg>
