<svg width="159" height="92" viewBox="0 0 159 92" fill="none" xmlns="http://www.w3.org/2000/svg">
<path d="M62.6915 11.1284V74.8716C62.6915 78.122 65.3271 80.7666 68.5668 80.7666H82.576C85.8157 80.7666 88.4514 78.1224 88.4514 74.8716V11.1281C88.4514 7.87764 85.8157 5.23312 82.576 5.23312H68.5668C65.3271 5.23343 62.6915 7.87764 62.6915 11.1284ZM82.576 9.97953C83.1987 9.97953 83.7053 10.4949 83.7053 11.1284V74.8716C83.7053 75.5051 83.1987 76.0205 82.576 76.0205H68.5668C67.9441 76.0205 67.4376 75.5051 67.4376 74.8716V11.1281C67.4376 10.4946 67.9441 9.97921 68.5668 9.97921H82.576V9.97953ZM37.0458 5.23344C33.8061 5.23344 31.1704 7.87764 31.1704 11.1284V74.8716C31.1704 78.122 33.8061 80.7666 37.0458 80.7666H51.055C54.2947 80.7666 56.9303 78.1224 56.9303 74.8716V11.1281C56.9303 7.87764 54.2947 5.23312 51.055 5.23312H37.0458V5.23344ZM51.0553 9.97953C51.678 9.97953 52.1846 10.4949 52.1846 11.1284V74.8716C52.1846 75.5051 51.678 76.0205 51.0553 76.0205H37.0461C36.4234 76.0205 35.9168 75.5051 35.9168 74.8716V11.1281C35.9168 10.4946 36.4234 9.97921 37.0461 9.97921H51.0553V9.97953ZM90.2444 -2.12206C90.2444 3.77986 91.6774 9.35273 94.2128 14.2687V74.8716C94.2128 78.1217 96.8488 80.7663 100.088 80.7663H114.096C117.335 80.7663 119.971 78.122 119.971 74.8716V33.2259C121.97 33.5727 124.025 33.7552 126.122 33.7552C133.792 33.7552 140.907 31.3344 146.746 27.2183L146.746 74.8716C146.746 75.5051 146.239 76.0201 145.616 76.0201H131.609C130.986 76.0201 130.479 75.5051 130.479 74.8716V40.8133C130.479 39.5024 129.417 38.4403 128.106 38.4403C126.796 38.4403 125.733 39.5024 125.733 40.8133V74.8716C125.733 78.1217 128.369 80.7662 131.609 80.7662H145.616C148.856 80.7662 151.492 78.122 151.492 74.8716L151.492 23.2224C153.727 20.9854 155.668 18.4557 157.254 15.6967L157.254 78.4217C157.254 82.9232 153.592 86.585 149.09 86.585H33.5739C29.0727 86.585 25.4106 82.9232 25.4106 78.4217V7.57832C25.4106 3.07681 29.0727 -0.584961 33.5739 -0.584961H83.1357C84.4463 -0.584961 85.5088 -1.64714 85.5088 -2.95801C85.5088 -4.26888 84.4463 -5.33105 83.1357 -5.33105H33.5739C26.4557 -5.33105 20.6645 0.460125 20.6645 7.57832V20.2558H9.39696C4.21548 20.2558 0 24.4712 0 29.6527V56.347C0 61.5284 4.21548 65.7439 9.39696 65.7439H20.6645V78.4217C20.6645 85.5399 26.4557 91.3311 33.5739 91.3311H149.091C156.209 91.3311 162 85.5399 162 78.4217L162 7.57832C162 6.34686 161.825 5.13218 161.482 3.958C161.821 1.98109 162 -0.0499191 162 -2.12206C162 -21.905 145.905 -38 126.122 -38C106.339 -38 90.2444 -21.9054 90.2444 -2.12206ZM9.39696 60.9981C6.83249 60.9981 4.74609 58.9118 4.74609 56.3473V29.653C4.74609 27.0886 6.83249 25.0022 9.39696 25.0022H20.6645V60.9981H9.39696ZM115.226 74.8716C115.226 75.5051 114.719 76.0202 114.096 76.0202H100.089C99.4658 76.0202 98.9592 75.5051 98.9592 74.8716V21.2911C103.237 26.2479 108.847 30.0239 115.226 32.0618V74.8716ZM157.254 -2.12206C157.254 15.0439 143.288 29.0098 126.122 29.0098C108.956 29.0098 94.9905 15.0439 94.9905 -2.12206C94.9905 -19.288 108.956 -33.2539 126.122 -33.2539C143.288 -33.2539 157.254 -19.288 157.254 -2.12206Z" fill="#D8D8D8"/>
<path fill-rule="evenodd" clip-rule="evenodd" d="M117.3 -7.73298C118.188 -8.24764 119.076 -8.7623 119.965 -9.27639C119.859 -9.52578 119.753 -9.77569 119.646 -10.0261C118.163 -13.5144 116.64 -17.0966 115.25 -20.6838C114.677 -22.1604 114.873 -23.8197 115.773 -25.1223C117.601 -27.7678 121.109 -27.9241 123.476 -25.6729C127.416 -21.9249 131.327 -18.2278 135.238 -14.5302C137.501 -12.3905 139.764 -10.2506 142.034 -8.10062C143.228 -6.96884 143.818 -5.43205 143.651 -3.88388C143.485 -2.35057 142.594 -0.99065 141.206 -0.152805C138.706 1.35659 136.189 2.79199 133.685 4.22018C133.228 4.48082 132.772 4.74121 132.316 5.00176C132.525 5.49538 132.742 6.00404 132.963 6.52421C134.294 9.65539 135.803 13.2033 137.037 16.393C137.95 18.754 136.904 21.3745 134.603 22.4883C132.795 23.3634 130.717 23.1878 128.813 21.3862C128.239 20.8432 127.663 20.2984 127.085 19.7522C121.507 14.475 115.791 9.06743 110.249 3.81081C109.041 2.66478 108.454 1.11756 108.639 -0.434093C108.826 -2.0041 109.776 -3.3887 111.246 -4.23382C113.266 -5.39584 115.283 -6.56441 117.3 -7.73298ZM118.449 5.08994C116.492 3.21105 114.737 1.52549 113.515 0.366734C113.252 0.116455 113.261 0.0819626 113.611 -0.118954C115.563 -1.2412 117.511 -2.36994 119.459 -3.49861L119.665 -3.6181C121.056 -4.42398 122.447 -5.22986 123.839 -6.03353C125.115 -6.77108 125.589 -8.16707 125.022 -9.50768C124.694 -10.2824 124.364 -11.0591 124.033 -11.8375C122.548 -15.33 121.048 -18.8572 119.675 -22.3978C119.675 -22.4247 119.722 -22.4927 119.847 -22.5193C120.269 -22.2568 126.51 -16.3158 132.433 -10.6784C134.708 -8.51287 136.936 -6.39211 138.769 -4.65527C138.996 -4.44075 139.007 -4.36892 138.753 -4.2161C136.293 -2.73376 133.803 -1.31307 131.319 0.104752C130.361 0.651333 129.404 1.19749 128.449 1.74658C126.97 2.59771 126.785 4.10317 127.257 5.21755C127.602 6.03048 127.962 6.87415 128.332 7.73886C129.754 11.0677 131.309 14.7082 132.61 18.1054C132.631 18.1595 132.572 18.1978 132.534 18.2158C132.258 18.3495 124.417 10.8205 118.449 5.08994Z" fill="#D8D8D8"/>
</svg>
