<svg width="146" height="95" viewBox="0 0 146 95" fill="none" xmlns="http://www.w3.org/2000/svg">
<path d="M48.4971 0.713638C27.7293 0.713638 10.8337 17.6093 10.8337 38.377C10.8337 46.6939 13.4907 54.5785 18.5175 61.178C19.3382 62.2561 20.877 62.4637 21.9544 61.6433C23.0318 60.8226 23.2401 59.2838 22.4194 58.2064C18.0489 52.4675 15.7384 45.6106 15.7384 38.377C15.7384 20.3141 30.4338 5.61841 48.4971 5.61841C66.5604 5.61841 81.2557 20.3137 81.2557 38.377C81.2557 56.4403 66.5604 71.1357 48.4971 71.1357C41.3704 71.1357 34.5956 68.8873 28.9048 64.6339C27.8205 63.823 26.283 64.045 25.4724 65.13C24.6615 66.2146 24.8835 67.7517 25.9685 68.5623C32.5134 73.4547 40.3035 76.0405 48.4971 76.0405C69.2648 76.0405 86.1605 59.1448 86.1605 38.377C86.1605 17.6093 69.2648 0.713638 48.4971 0.713638Z" fill="#D8D8D8"/>
<path d="M64.4922 38.377C64.4922 29.5573 57.3168 22.3819 48.4971 22.3819C39.6773 22.3819 32.502 29.5573 32.502 38.377C32.502 47.1968 39.6773 54.3721 48.4971 54.3721C57.3168 54.3721 64.4922 47.1965 64.4922 38.377ZM37.4067 38.377C37.4067 32.2618 42.3818 27.2867 48.4971 27.2867C54.6123 27.2867 59.5874 32.2618 59.5874 38.377C59.5874 44.4923 54.6123 49.4674 48.4971 49.4674C42.3818 49.4674 37.4067 44.4923 37.4067 38.377Z" fill="#D8D8D8"/>
<path d="M164.964 14.7681C166.318 14.7681 167.416 13.6704 167.416 12.3157V-4.95988C167.416 -12.286 161.456 -18.2463 154.13 -18.2463H151.165V-24.0123C151.165 -26.807 148.892 -29.0806 146.097 -29.0806H129.661C126.866 -29.0806 124.592 -26.807 124.592 -24.0123V-18.2463H118.663V-24.0123C118.663 -26.807 116.389 -29.0806 113.594 -29.0806H97.158C94.3632 -29.0806 92.0897 -26.807 92.0897 -24.0123V-18.2463H42.8239V-23.2632L131.636 -54.347C133.076 -52.4724 135.338 -51.2609 137.879 -51.2609C142.218 -51.2609 145.749 -54.7914 145.749 -59.1305C145.749 -63.4695 142.218 -67 137.879 -67C133.54 -67 130.009 -63.4699 130.009 -59.1308C130.009 -59.0788 130.012 -59.0275 130.013 -58.9761L41.0637 -27.8439C40.175 -28.6123 39.0201 -29.0809 37.7556 -29.0809H21.3191C18.5243 -29.0809 16.2508 -26.8074 16.2508 -24.0126V-18.2466H13.2864C5.96028 -18.2462 0 -12.2863 0 -4.95988V81.7136C0 89.0397 5.96028 95 13.2864 95H154.13C161.456 95 167.416 89.0397 167.416 81.7136V22.1256C167.416 20.7709 166.318 19.6732 164.964 19.6732C163.609 19.6732 162.511 20.7709 162.511 22.1256V81.7136C162.511 86.3352 158.751 90.0952 154.13 90.0952H96.9945V-13.3415H154.13C158.751 -13.3415 162.511 -9.58148 162.511 -4.95988V12.3157C162.511 13.6701 163.609 14.7681 164.964 14.7681ZM137.879 -62.0952C139.514 -62.0952 140.844 -60.7654 140.844 -59.1308C140.844 -57.4959 139.514 -56.166 137.879 -56.166C136.244 -56.166 134.914 -57.4959 134.914 -59.1308C134.914 -60.7651 136.244 -62.0952 137.879 -62.0952ZM21.1556 -24.0123C21.1556 -24.1022 21.2288 -24.1758 21.3191 -24.1758H37.7556C37.7932 -24.1758 37.8266 -24.1608 37.8544 -24.1392C37.856 -24.1339 37.857 -24.1287 37.8589 -24.1235C37.8756 -24.0757 37.9001 -24.0329 37.9194 -23.9871V-18.2463H21.1556V-24.0123ZM13.2864 90.0952C8.66477 90.0952 4.90477 86.3352 4.90477 81.7136V-4.95988C4.90477 -9.58148 8.66477 -13.3415 13.2864 -13.3415H92.09V90.0952H13.2864ZM96.9945 -18.2463V-24.0123C96.9945 -24.1022 97.0677 -24.1758 97.158 -24.1758H113.594C113.685 -24.1758 113.758 -24.1022 113.758 -24.0123V-18.2463H96.9945ZM129.497 -18.2463V-24.0123C129.497 -24.1022 129.57 -24.1758 129.661 -24.1758H146.097C146.187 -24.1758 146.261 -24.1022 146.261 -24.0123V-18.2463H129.497Z" fill="#D8D8D8"/>
<path d="M156.583 -2.34399C156.583 -5.13874 154.309 -7.41226 151.514 -7.41226H107.992C105.198 -7.41226 102.924 -5.13874 102.924 -2.34399V8.67538C102.924 11.4701 105.198 13.7437 107.992 13.7437H151.514C154.309 13.7437 156.583 11.4701 156.583 8.67538V-2.34399ZM151.678 8.67538C151.678 8.7653 151.605 8.83888 151.514 8.83888H107.992C107.902 8.83888 107.829 8.7653 107.829 8.67538V-2.34399C107.829 -2.43392 107.902 -2.50749 107.992 -2.50749H151.514C151.605 -2.50749 151.678 -2.43392 151.678 -2.34399V8.67538Z" fill="#D8D8D8"/>
<path d="M113.502 40.8291C119.335 40.8291 124.08 36.0836 124.08 30.2508C124.08 24.4181 119.335 19.6729 113.502 19.6729C107.669 19.6729 102.924 24.4181 102.924 30.2508C102.924 36.0836 107.669 40.8291 113.502 40.8291ZM113.502 24.578C116.63 24.578 119.175 27.1229 119.175 30.2511C119.175 33.3794 116.63 35.9247 113.502 35.9247C110.374 35.9247 107.829 33.3797 107.829 30.2511C107.829 27.1229 110.374 24.578 113.502 24.578Z" fill="#D8D8D8"/>
<path d="M146.005 19.6732C140.172 19.6732 135.427 24.4184 135.427 30.2511C135.427 36.0839 140.172 40.8294 146.005 40.8294C151.837 40.8294 156.583 36.0839 156.583 30.2511C156.583 24.4181 151.837 19.6732 146.005 19.6732ZM146.005 35.9243C142.876 35.9243 140.331 33.3794 140.331 30.2508C140.331 27.1229 142.876 24.5776 146.005 24.5776C149.133 24.5776 151.678 27.1226 151.678 30.2508C151.678 33.3794 149.133 35.9243 146.005 35.9243Z" fill="#D8D8D8"/>
<path d="M154.13 46.7586H105.376C104.022 46.7586 102.924 47.8563 102.924 49.211C102.924 50.5657 104.022 51.6634 105.376 51.6634H154.13C155.485 51.6634 156.583 50.5657 156.583 49.211C156.583 47.8563 155.485 46.7586 154.13 46.7586Z" fill="#D8D8D8"/>
<path d="M154.13 57.5923H105.376C104.022 57.5923 102.924 58.69 102.924 60.0447C102.924 61.3994 104.022 62.4971 105.376 62.4971H154.13C155.485 62.4971 156.583 61.3994 156.583 60.0447C156.583 58.69 155.485 57.5923 154.13 57.5923Z" fill="#D8D8D8"/>
<path d="M154.13 68.4266H105.376C104.022 68.4266 102.924 69.5243 102.924 70.879C102.924 72.2337 104.022 73.3314 105.376 73.3314H154.13C155.485 73.3314 156.583 72.2337 156.583 70.879C156.583 69.5243 155.485 68.4266 154.13 68.4266Z" fill="#D8D8D8"/>
</svg>
