<svg width="138" height="162" viewBox="0 0 138 162" fill="none" xmlns="http://www.w3.org/2000/svg">
<path d="M107.677 13.8659C140.785 13.8659 167.721 40.6734 167.721 73.6245C167.721 106.576 140.785 133.383 107.677 133.383C74.5686 133.383 47.6326 106.575 47.6326 73.6245C47.6326 40.6737 74.5682 13.8659 107.677 13.8659ZM107.677 128.226C137.929 128.226 162.54 103.732 162.54 73.6245C162.54 43.517 137.928 19.0222 107.677 19.0222C77.4255 19.0222 52.8139 43.5167 52.8139 73.6245C52.8139 103.732 77.4251 128.226 107.677 128.226Z" fill="#D8D8D8"/>
<path d="M108.031 54.0924C118.852 54.0924 127.656 62.8544 127.656 73.6245C127.656 84.3945 118.852 93.1565 108.031 93.1565C97.2094 93.1565 88.4055 84.3945 88.4055 73.6245C88.4055 62.8544 97.2094 54.0924 108.031 54.0924ZM108.031 88.0002C115.995 88.0002 122.475 81.5515 122.475 73.6245C122.475 65.6974 115.995 59.2487 108.031 59.2487C100.066 59.2487 93.5864 65.6977 93.5864 73.6245C93.5864 81.5512 100.066 88.0002 108.031 88.0002Z" fill="#D8D8D8"/>
<path d="M12.2739 50.145C19.042 50.145 24.5482 55.625 24.5482 62.3609C24.5482 66.4244 22.5423 70.0287 19.4665 72.2507L22.6458 126.099C23.0069 132.241 28.1324 137.052 34.3143 137.052H38.3283V135.873C38.3283 133.483 40.2816 131.539 42.6821 131.539H48.2536V127.706C48.2536 125.087 49.9176 122.855 52.2456 121.983C40.7273 108.858 34.3104 92.2628 34.0623 74.6794C34.0421 73.2558 35.1856 72.0852 36.616 72.0654C36.6284 72.065 36.6409 72.065 36.653 72.065C38.0667 72.065 39.2226 73.1957 39.2426 74.6069C39.7598 111.234 69.6642 141.14 106.273 142.07C106.276 142.07 106.279 142.07 106.283 142.07C106.864 142.085 107.446 142.092 108.031 142.092C108.615 142.092 109.197 142.085 109.778 142.07C109.784 142.07 109.791 142.07 109.797 142.07C146.398 141.135 176.298 111.234 176.819 74.6136C176.839 73.2021 177.995 72.0717 179.409 72.0717C179.421 72.0717 179.434 72.0717 179.446 72.0721C180.877 72.0923 182.02 73.2626 182 74.6865C181.75 92.2674 175.333 108.86 163.817 121.983C166.144 122.855 167.808 125.088 167.808 127.706V155.243C167.808 158.969 164.763 162 161.019 162H55.0434C51.3199 162 48.2896 159 48.2576 155.302H42.6831C40.2823 155.302 38.3293 153.358 38.3293 150.969V150.467H34.3154C21.0049 150.467 9.96873 140.108 9.19096 126.884L5.99104 72.8493C2.40581 70.7136 0 66.8121 0 62.3609C0 55.625 5.5062 50.145 12.2739 50.145ZM53.4346 155.243C53.4346 156.126 54.1558 156.843 55.0424 156.843H161.019C161.906 156.843 162.627 156.126 162.627 155.243V127.706C162.627 127.175 162.193 126.743 161.659 126.743H159.249C159.222 126.768 159.194 126.793 159.167 126.819C158.796 127.172 158.422 127.521 158.045 127.866C157.979 127.927 157.913 127.987 157.847 128.047C157.472 128.387 157.095 128.723 156.715 129.055C156.644 129.117 156.572 129.179 156.501 129.241C156.124 129.567 155.744 129.889 155.361 130.208C155.284 130.272 155.207 130.336 155.129 130.399C154.75 130.712 154.369 131.02 153.984 131.324C153.9 131.391 153.816 131.457 153.732 131.523C153.352 131.821 152.97 132.115 152.585 132.405C152.493 132.474 152.402 132.542 152.311 132.611C151.93 132.894 151.548 133.175 151.163 133.451C151.064 133.522 150.965 133.592 150.866 133.662C150.485 133.932 150.103 134.199 149.719 134.461C149.612 134.533 149.505 134.605 149.398 134.677C149.018 134.934 148.637 135.187 148.252 135.435C148.138 135.509 148.023 135.582 147.909 135.656C147.529 135.898 147.149 136.137 146.765 136.373C146.642 136.448 146.519 136.522 146.396 136.597C146.019 136.826 145.64 137.052 145.259 137.273C145.127 137.35 144.994 137.426 144.862 137.501C144.486 137.716 144.109 137.929 143.73 138.138C143.59 138.215 143.45 138.29 143.309 138.366C142.936 138.569 142.561 138.769 142.184 138.964C142.034 139.042 141.883 139.118 141.733 139.195C141.363 139.384 140.993 139.571 140.62 139.753C140.459 139.832 140.298 139.908 140.137 139.985C139.771 140.161 139.404 140.335 139.035 140.505C138.866 140.583 138.696 140.658 138.527 140.734C138.163 140.898 137.799 141.061 137.433 141.219C137.254 141.296 137.075 141.37 136.896 141.446C136.536 141.598 136.176 141.748 135.814 141.894C135.625 141.97 135.435 142.044 135.246 142.118C134.891 142.258 134.536 142.397 134.178 142.531C133.979 142.606 133.779 142.678 133.579 142.751C133.229 142.879 132.879 143.006 132.527 143.129C132.318 143.202 132.107 143.271 131.898 143.343C131.552 143.46 131.206 143.576 130.858 143.689C130.64 143.759 130.42 143.825 130.201 143.894C129.86 144 129.519 144.106 129.176 144.208C128.947 144.275 128.716 144.339 128.486 144.405C128.151 144.5 127.815 144.596 127.478 144.687C127.24 144.752 126.999 144.812 126.76 144.874C126.429 144.959 126.1 145.046 125.768 145.127C125.518 145.187 125.268 145.244 125.018 145.302C124.693 145.378 124.369 145.455 124.043 145.526C123.784 145.583 123.523 145.635 123.263 145.688C122.944 145.755 122.626 145.822 122.306 145.884C122.036 145.937 121.764 145.984 121.493 146.033C121.181 146.09 120.87 146.149 120.558 146.202C120.275 146.25 119.992 146.292 119.709 146.336C119.405 146.384 119.102 146.434 118.797 146.478C118.504 146.521 118.209 146.557 117.915 146.596C117.619 146.635 117.323 146.677 117.026 146.713C116.717 146.75 116.407 146.781 116.098 146.814C115.813 146.844 115.53 146.878 115.245 146.905C114.92 146.936 114.594 146.961 114.268 146.987C113.996 147.01 113.725 147.036 113.453 147.055C113.106 147.08 112.756 147.098 112.408 147.118C112.156 147.133 111.906 147.151 111.654 147.163C111.261 147.181 110.867 147.193 110.474 147.205C110.264 147.212 110.055 147.223 109.846 147.228C109.242 147.242 108.637 147.25 108.03 147.25C107.424 147.25 106.819 147.242 106.215 147.228C106.006 147.223 105.798 147.212 105.589 147.205C105.195 147.193 104.8 147.181 104.407 147.163C104.158 147.151 103.911 147.133 103.663 147.118C103.311 147.098 102.958 147.08 102.607 147.055C102.334 147.035 102.063 147.009 101.79 146.987C101.466 146.96 101.141 146.935 100.817 146.904C100.528 146.877 100.241 146.843 99.9529 146.812C99.6471 146.779 99.3407 146.748 99.0354 146.712C98.7357 146.675 98.4379 146.633 98.1389 146.594C97.8474 146.556 97.5556 146.519 97.2648 146.477C96.9573 146.433 96.6513 146.383 96.3445 146.334C96.064 146.29 95.7832 146.248 95.5035 146.201C95.1889 146.148 94.8757 146.089 94.5622 146.032C94.2931 145.983 94.0233 145.936 93.7553 145.884C93.4325 145.821 93.1112 145.753 92.7898 145.686C92.5328 145.633 92.2755 145.582 92.0192 145.526C91.69 145.454 91.3626 145.376 91.0352 145.3C90.7882 145.242 90.5408 145.186 90.2944 145.126C89.9599 145.045 89.6269 144.958 89.2938 144.871C89.0574 144.81 88.82 144.751 88.5843 144.687C88.2441 144.595 87.9053 144.498 87.5666 144.401C87.3398 144.337 87.1127 144.274 86.8866 144.207C86.5404 144.105 86.1963 143.997 85.8518 143.89C85.6364 143.823 85.4203 143.758 85.2052 143.688C84.8533 143.575 84.5035 143.456 84.1534 143.338C83.9479 143.269 83.7421 143.201 83.5374 143.13C83.1808 143.005 82.8268 142.876 82.4724 142.747C82.2765 142.675 82.0803 142.605 81.8851 142.532C81.5243 142.396 81.1657 142.256 80.807 142.115C80.6211 142.042 80.4348 141.97 80.2496 141.895C79.8842 141.748 79.5206 141.596 79.1573 141.443C78.9817 141.369 78.8057 141.296 78.6308 141.22C78.2612 141.061 77.8936 140.897 77.5264 140.731C77.3608 140.657 77.1944 140.583 77.0295 140.507C76.6562 140.335 76.2848 140.159 75.9144 139.981C75.7579 139.906 75.6012 139.831 75.4451 139.755C75.0687 139.571 74.6944 139.382 74.3208 139.191C74.1736 139.116 74.0265 139.042 73.8797 138.966C73.5 138.769 73.1229 138.567 72.7468 138.363C72.6089 138.289 72.4702 138.215 72.3327 138.139C71.9513 137.929 71.5723 137.715 71.1945 137.498C71.0644 137.424 70.9343 137.35 70.8049 137.275C70.4213 137.052 70.0403 136.825 69.6606 136.594C69.5398 136.521 69.4185 136.448 69.298 136.374C68.9131 136.138 68.5302 135.897 68.1492 135.653C68.0365 135.581 67.9234 135.509 67.8111 135.436C67.4254 135.187 67.0423 134.933 66.6608 134.676C66.5553 134.605 66.4493 134.534 66.3441 134.462C65.9584 134.199 65.5749 133.932 65.1938 133.661C65.0957 133.591 64.9976 133.522 64.8998 133.452C64.5142 133.175 64.131 132.894 63.7499 132.61C63.6589 132.542 63.5676 132.474 63.4769 132.406C63.0923 132.116 62.7102 131.821 62.3305 131.524C62.2452 131.457 62.1602 131.39 62.0753 131.323C61.6928 131.02 61.3132 130.713 60.9357 130.402C60.8557 130.336 60.7761 130.27 60.6961 130.204C60.3161 129.888 59.9386 129.568 59.5643 129.244C59.49 129.179 59.4157 129.115 59.3417 129.05C58.965 128.722 58.591 128.389 58.2199 128.052C58.1495 127.988 58.0795 127.924 58.0095 127.859C57.6369 127.519 57.2673 127.174 56.9008 126.825C56.8716 126.797 56.8417 126.77 56.8126 126.742H54.4025C53.869 126.742 53.4353 127.174 53.4353 127.705V134.117H53.4346V155.243ZM43.5092 150.146H48.2536V136.696H43.5092V150.146ZM14.3623 126.582C14.9801 137.084 23.7442 145.311 34.3147 145.311H38.3286V142.209H34.3147C25.3925 142.209 17.9952 135.265 17.4737 126.401L14.4028 74.3907C14.3868 74.3936 14.3701 74.395 14.3541 74.3978C14.1263 74.4367 13.897 74.47 13.6649 74.4962C13.6475 74.4979 13.6304 74.5008 13.6133 74.5025C13.3624 74.5298 13.1093 74.5503 12.8537 74.562C12.8317 74.563 12.8093 74.5627 12.7872 74.5637C12.617 74.5708 12.4464 74.5768 12.2739 74.5768C12.2309 74.5768 12.189 74.574 12.146 74.5736C12.0653 74.5729 11.9849 74.5698 11.9043 74.5676C11.7457 74.563 11.5882 74.5556 11.4311 74.545C11.3806 74.5415 11.3298 74.5418 11.2797 74.5376L14.3623 126.582ZM12.2739 69.4202C12.4997 69.4202 12.7222 69.4071 12.9422 69.3866C12.9724 69.3837 13.0027 69.3816 13.0325 69.3784C13.2515 69.3551 13.4676 69.3225 13.6802 69.2797C13.6976 69.2762 13.715 69.2723 13.7324 69.2684C14.1675 69.1775 14.5877 69.0462 14.9893 68.88C15.0149 68.8694 15.0405 68.8591 15.0661 68.8481C17.5928 67.767 19.3669 65.2668 19.3669 62.3609C19.3669 58.4683 16.1848 55.3013 12.2736 55.3013C8.36238 55.3013 5.18059 58.4683 5.18059 62.3609C5.18094 66.2532 8.36308 69.4202 12.2739 69.4202Z" fill="#D8D8D8"/>
<path d="M34.9631 62.057C37.6799 44.9279 46.4827 29.2248 59.7498 17.841C73.1581 6.33614 90.3048 0 108.031 0C125.756 0 142.901 6.33508 156.308 17.8381C169.575 29.2202 178.379 44.9208 181.097 62.0478C181.32 63.4544 180.356 64.7747 178.943 64.9969C177.529 65.2191 176.203 64.2589 175.98 62.8527C170.673 29.4211 142.096 5.15665 108.031 5.15665C73.9607 5.15665 45.3836 29.425 40.0804 62.8612C39.8792 64.1316 38.7772 65.0376 37.5249 65.0376C37.3906 65.0376 37.2544 65.0273 37.1179 65.0058C35.7049 64.7836 34.7398 63.4636 34.9631 62.057Z" fill="#D8D8D8"/>
</svg>
