<svg width="147" height="162" viewBox="0 0 147 162" fill="none" xmlns="http://www.w3.org/2000/svg">
<path d="M105.145 18.638C104.823 17.8868 104.23 17.2493 103.443 16.9351C88.5265 10.9857 72.1867 11.2002 57.4323 17.5401C55.8269 18.2301 55.0846 20.0909 55.7747 21.6964C55.7747 21.6964 70.747 56.5384 70.7654 56.5808C71.4219 58.1084 73.396 58.8941 74.9214 58.2385C78.8043 56.57 83.1036 56.5134 87.0293 58.0793C88.5534 58.6871 90.5335 57.8354 91.1407 56.3128C91.1407 56.3128 105.188 21.1006 105.209 21.0462C105.518 20.2726 105.47 19.3974 105.145 18.638ZM86.3528 51.2367C82.7439 50.3596 79.0024 50.409 75.4184 51.3803L72.9002 45.5202C78.0636 43.9426 83.5127 43.8708 88.7164 45.3123L86.3528 51.2367ZM91.0726 39.4047C84.2832 37.3772 77.1223 37.4714 70.3892 39.6765L67.8823 33.8426C76.18 30.9965 85.0555 30.8801 93.4254 33.5066L91.0726 39.4047ZM95.776 27.6141C85.8276 24.3801 75.2371 24.5197 65.3773 28.0137L62.8742 22.1887C74.2946 18.0419 86.5996 17.8802 98.1253 21.7252L95.776 27.6141Z" fill="#D8D8D8"/>
<path d="M106.561 123.851L91.5706 88.9662C90.8809 87.3611 89.0191 86.6195 87.4146 87.3086C83.5314 88.9764 79.2321 89.0336 75.3067 87.4677C73.7203 86.8349 71.8234 87.6585 71.195 89.2342C71.195 89.2342 57.1412 124.464 57.1267 124.501C56.4897 126.098 57.3061 127.979 58.8932 128.612C66.1028 131.488 73.644 132.923 81.1792 132.923C89.2334 132.923 97.2805 131.282 104.903 128.007C106.509 127.317 107.251 125.456 106.561 123.851ZM75.9832 94.3107C79.5918 95.1874 83.3333 95.1381 86.9176 94.167L89.4359 100.027C84.2718 101.604 78.8226 101.676 73.6197 100.235L75.9832 94.3107ZM71.2634 106.143C78.0528 108.17 85.2137 108.076 91.9469 105.871L94.4537 111.705C86.1557 114.55 77.2802 114.667 68.9106 112.041L71.2634 106.143ZM64.2107 123.822L66.56 117.933C76.5084 121.167 87.0989 121.028 96.9587 117.534L99.4618 123.359C88.0418 127.506 75.7361 127.667 64.2107 123.822Z" fill="#D8D8D8"/>
<path d="M8.07435 136.688C9.82182 136.688 11.2384 135.271 11.2384 133.523C11.2384 131.776 9.82182 130.359 8.07435 130.359C6.32689 130.359 4.91029 131.776 4.91029 133.523C4.91029 135.271 6.32689 136.688 8.07435 136.688Z" fill="#D8D8D8"/>
<path d="M153.7 146.5C153.69 146.489 153.68 146.477 153.671 146.465L133.877 122.953C146.832 109.364 153.944 91.6154 153.944 72.7734C153.944 53.3347 146.374 35.06 132.629 21.3147C118.883 7.56939 100.607 0 81.1676 0C61.7279 0 43.4526 7.5697 29.7066 21.3147C15.9607 35.0597 8.39098 53.3347 8.39098 72.7734C8.39098 80.4722 9.58289 87.9866 11.8711 95.1111C9.91416 95.231 7.45031 95.6585 5.1127 97.0988C1.7145 99.1924 0.159042 103.046 0.164105 106.945C0.155245 111.096 1.53668 115.238 4.97032 117.763C6.84724 119.107 9.27597 120.033 9.59649 122.588C9.80849 124.28 11.3257 125.379 12.9953 125.34C14.7656 125.297 16.0828 123.541 15.8778 121.835C15.4557 118.325 13.2772 115.593 10.3182 113.716C10.3182 113.716 6.49286 111.375 6.49286 106.946C6.49286 102.706 10.583 101.199 14.2337 101.429C17.6076 109.306 22.3897 116.587 28.4591 122.954L8.66531 146.465C8.65582 146.477 8.64569 146.489 8.6362 146.501C6.32738 149.325 5.84518 153.279 7.40823 156.575C8.97032 159.87 12.3372 162 15.9851 162H146.35C149.998 162 153.365 159.87 154.927 156.575C156.491 153.279 156.008 149.324 153.7 146.5ZM14.7194 72.7734C14.7194 36.1355 44.5281 6.32812 81.1676 6.32812C117.807 6.32812 147.616 36.1355 147.616 72.7734C147.616 90.2542 140.827 106.177 129.751 118.052L101.24 84.1862C101.24 84.1862 132.889 96.8102 132.897 96.8137C134.482 97.4455 136.368 96.6539 137.009 95.0472C142.959 80.1315 142.744 63.7926 136.404 49.0392C135.714 47.4337 133.854 46.6924 132.248 47.3815L97.3616 62.3716C95.7561 63.0617 95.0138 64.9224 95.7036 66.5279C97.2901 70.22 97.4157 74.289 96.0782 78.0546L90.5728 71.5151C89.9548 66.875 85.9741 63.2831 81.1679 63.2831C76.3617 63.2831 72.381 66.8753 71.763 71.5151L66.2579 78.0543C64.9698 74.4327 65.0359 70.5149 66.4731 66.9123C67.0992 65.3426 66.3224 63.4455 64.7066 62.8013C64.7066 62.8013 29.4709 48.7465 29.4383 48.7335C27.8522 48.1007 25.9556 48.9243 25.3269 50.5C19.3769 65.4157 19.5921 81.7546 25.9319 96.508C26.585 98.028 28.5609 98.8219 30.0885 98.166L60.23 85.2145L32.585 118.052C21.5086 106.177 14.7194 90.2542 14.7194 72.7734ZM81.1676 82.264C84.0975 82.264 86.7212 80.9288 88.4636 78.8358L125.208 122.482C113.475 132.889 98.0475 139.219 81.1676 139.219C64.2876 139.219 48.8606 132.889 37.1273 122.482L73.8719 78.8358C75.614 80.9288 78.2377 82.264 81.1676 82.264ZM78.0051 72.7734C78.0051 71.0294 79.4239 69.611 81.1679 69.611C82.9119 69.611 84.3307 71.0294 84.3307 72.7734C84.3307 74.5175 82.9119 75.9359 81.1679 75.9359C79.4239 75.9359 78.0051 74.5175 78.0051 72.7734ZM102.562 67.024L108.423 64.5057C110 69.6685 110.072 75.1183 108.631 80.321L102.706 77.9577C103.583 74.3494 103.534 70.6083 102.562 67.024ZM114.267 61.9951L120.101 59.4882C122.947 67.7859 123.064 76.6608 120.437 85.0304L114.539 82.6776C116.566 75.8888 116.472 68.7279 114.267 61.9951ZM125.929 56.9835L131.755 54.4804C135.902 65.9001 136.064 78.2046 132.218 89.73L126.329 87.3806C129.564 77.4322 129.424 66.8437 125.929 56.9835ZM59.7732 78.5229L53.9127 81.0411C52.3354 75.8783 52.2642 70.4282 53.7048 65.2259L59.6295 67.5891C58.7524 71.1974 58.8018 74.9386 59.7732 78.5229ZM48.069 83.5518L42.2348 86.0587C39.3887 77.761 39.2719 68.8861 41.8987 60.5165L47.7969 62.8693C45.769 69.6578 45.8633 76.8187 48.069 83.5518ZM36.4059 88.5634L30.5802 91.0665C26.4331 79.6467 26.2714 67.3423 30.1167 55.8169L36.006 58.1662C32.7717 68.1147 32.9112 78.7032 36.4059 88.5634ZM149.209 153.864C148.688 154.962 147.566 155.672 146.35 155.672H15.9851C14.7691 155.672 13.6468 154.962 13.1257 153.863C12.6074 152.77 12.7637 151.46 13.5231 150.52L33.0292 127.35C46.3325 139.114 63.2546 145.547 81.1676 145.547C99.0806 145.547 116.003 139.114 129.306 127.35L148.812 150.52C149.571 151.46 149.728 152.77 149.209 153.864Z" fill="#D8D8D8"/>
</svg>
