<svg width="144" height="161" viewBox="0 0 144 161" fill="none" xmlns="http://www.w3.org/2000/svg">
<path d="M174.103 53.0988H145.578V47.1579H157.637C159.087 47.1579 160.262 45.9763 160.262 44.5192V12.3587C160.262 4.99258 154.301 -1 146.973 -1H131.945C130.495 -1 129.32 0.181583 129.32 1.63869C129.32 3.09581 130.495 4.27739 131.945 4.27739H146.973C151.406 4.27739 155.012 7.90264 155.012 12.3587V41.8805H145.578V20.1082C145.578 18.6511 144.403 17.4695 142.953 17.4695H33.7726C32.3229 17.4695 31.148 18.6511 31.148 20.1082V41.8802H21.7141V12.3587C21.7141 7.9023 25.3201 4.27739 29.7524 4.27739H123.196C124.645 4.27739 125.82 3.09581 125.82 1.63869C125.82 0.181583 124.645 -1 123.196 -1H29.7524C22.4255 -1 16.4647 4.99258 16.4647 12.3587V44.5192C16.4647 45.9763 17.6397 47.1579 19.0894 47.1579H31.148V53.0988H2.62469C1.17497 53.0988 0 54.2804 0 55.7375V83.9608C0 85.4179 1.17497 86.5995 2.62469 86.5995H9.90229L11.5712 102.56C11.7227 104.01 13.0075 105.06 14.4558 104.909C15.8972 104.756 16.9431 103.458 16.7919 102.009L15.1807 86.6005H31.1476V104.543C31.1476 106 32.3226 107.181 33.7723 107.181H52.6687C54.1185 107.181 55.2934 106 55.2934 104.543V86.6002H121.432V104.542C121.432 105.999 122.607 107.181 124.056 107.181H142.953C144.403 107.181 145.578 105.999 145.578 104.542V86.6002H161.545L154.318 155.723H22.4086L17.9003 112.612C17.7484 111.163 16.4578 110.111 15.0157 110.263C13.5742 110.415 12.5284 111.714 12.6795 113.163L17.4346 158.637C17.5751 159.98 18.7014 161 20.0448 161H156.681C158.024 161 159.151 159.98 159.291 158.637L166.824 86.5995H174.103C175.552 86.5995 176.727 85.4179 176.727 83.9608V55.7375C176.728 54.2804 175.553 53.0988 174.103 53.0988ZM36.3973 22.7469H140.329V30.6622H128.256C126.806 30.6622 125.632 31.8438 125.632 33.3009V53.0984H51.0951V33.3009C51.0951 31.8438 49.9201 30.6622 48.4704 30.6622H36.3977L36.3973 22.7469ZM140.329 35.9396V53.0984H130.881V35.9396H140.329ZM36.3973 35.94H45.8454V53.0988H36.3973V35.94ZM50.0444 101.904H36.397V86.6002H50.0444V101.904ZM50.0444 81.3228H36.397V77.101H50.0444V81.3228ZM126.682 101.904V86.6002H140.329V101.904H126.682ZM126.682 81.3228V77.101H140.329V81.3228H126.682ZM171.479 81.3221H145.578V74.4623C145.578 73.0052 144.403 71.8237 142.953 71.8237H124.057C122.607 71.8237 121.432 73.0052 121.432 74.4623V81.3218H55.2938V74.4623C55.2938 73.0052 54.1188 71.8237 52.6691 71.8237H33.7726C32.3229 71.8237 31.148 73.0052 31.148 74.4623V81.3218H5.24937V58.3758H171.479V81.3221Z" fill="#D8D8D8"/>
</svg>
