<svg width="155" height="162" viewBox="0 0 155 162" fill="none" xmlns="http://www.w3.org/2000/svg">
<path d="M116.766 61.8888C115.242 61.8888 114.007 63.1236 114.007 64.6472V126.603C114.007 131.369 110.13 135.246 105.365 135.246H14.1592C9.39382 135.246 5.51671 131.369 5.51671 126.603V107.505C5.51671 105.981 4.2816 104.746 2.75835 104.746C1.23511 104.746 0 105.981 0 107.505V126.603C0 134.41 6.35174 140.762 14.1588 140.762H105.364C113.171 140.762 119.523 134.41 119.523 126.603V64.6472C119.524 63.1236 118.289 61.8888 116.766 61.8888Z" fill="#D8D8D8"/>
<path d="M105.365 21.2384H14.1592C6.35211 21.2384 0.000367047 27.5902 0.000367047 35.3972V96.4716C0.000367047 97.9948 1.23511 99.2299 2.75872 99.2299C4.28196 99.2299 5.51708 97.9952 5.51708 96.4716V35.3972C5.51708 30.6319 9.39419 26.7548 14.1596 26.7548H105.365C110.13 26.7548 114.008 30.6319 114.008 35.3972V53.6141C114.008 55.1374 115.242 56.3725 116.766 56.3725C118.29 56.3725 119.524 55.1374 119.524 53.6141V35.3972C119.524 27.5902 113.172 21.2384 105.365 21.2384Z" fill="#D8D8D8"/>
<path d="M185.17 91.1784C186.693 91.1784 187.928 89.9436 187.928 88.42V13.791C187.928 6.18657 181.742 0 174.137 0H139.645C132.041 0 125.854 6.18657 125.854 13.791V148.209C125.854 155.813 132.041 162 139.645 162H174.137C181.742 162 187.928 155.813 187.928 148.209V99.4531C187.928 97.9298 186.693 96.6947 185.17 96.6947C183.646 96.6947 182.411 97.9298 182.411 99.4531V148.209C182.411 152.772 178.7 156.484 174.137 156.484H139.645C135.082 156.484 131.37 152.772 131.37 148.209V13.791C131.37 9.22828 135.083 5.51634 139.645 5.51634H174.137C178.7 5.51634 182.411 9.22828 182.411 13.791V88.42C182.412 89.9436 183.647 91.1784 185.17 91.1784Z" fill="#D8D8D8"/>
<path d="M140.901 21.2828H145.023C146.547 21.2828 147.781 20.0477 147.781 18.5245C147.781 17.0012 146.547 15.7661 145.023 15.7661H140.901C139.377 15.7661 138.142 17.0009 138.142 18.5245C138.142 20.0481 139.377 21.2828 140.901 21.2828Z" fill="#D8D8D8"/>
<path d="M172.881 15.7665H168.759C167.236 15.7665 166.001 17.0012 166.001 18.5248C166.001 20.0484 167.236 21.2832 168.759 21.2832H172.881C174.405 21.2832 175.64 20.0481 175.64 18.5248C175.64 17.0016 174.405 15.7665 172.881 15.7665Z" fill="#D8D8D8"/>
<path d="M140.901 40.4085H145.023C146.547 40.4085 147.781 39.1734 147.781 37.6502C147.781 36.1269 146.547 34.8918 145.023 34.8918H140.901C139.377 34.8918 138.142 36.1269 138.142 37.6502C138.142 39.1734 139.377 40.4085 140.901 40.4085Z" fill="#D8D8D8"/>
<path d="M154.83 40.4085H158.952C160.476 40.4085 161.711 39.1734 161.711 37.6502C161.711 36.1269 160.476 34.8918 158.952 34.8918H154.83C153.306 34.8918 152.071 36.1269 152.071 37.6502C152.071 39.1734 153.306 40.4085 154.83 40.4085Z" fill="#D8D8D8"/>
<path d="M172.881 34.8918H168.759C167.236 34.8918 166.001 36.1269 166.001 37.6502C166.001 39.1734 167.236 40.4085 168.759 40.4085H172.881C174.405 40.4085 175.64 39.1734 175.64 37.6502C175.64 36.1269 174.405 34.8918 172.881 34.8918Z" fill="#D8D8D8"/>
<path d="M140.901 51.1487H145.023C146.547 51.1487 147.781 49.9139 147.781 48.3903C147.781 46.8671 146.547 45.632 145.023 45.632H140.901C139.377 45.632 138.142 46.8671 138.142 48.3903C138.142 49.9136 139.377 51.1487 140.901 51.1487Z" fill="#D8D8D8"/>
<path d="M154.83 51.1487H158.952C160.476 51.1487 161.711 49.9139 161.711 48.3903C161.711 46.8671 160.476 45.632 158.952 45.632H154.83C153.306 45.632 152.071 46.8671 152.071 48.3903C152.071 49.9136 153.306 51.1487 154.83 51.1487Z" fill="#D8D8D8"/>
<path d="M172.881 45.632H168.759C167.236 45.632 166.001 46.8671 166.001 48.3903C166.001 49.9136 167.236 51.1487 168.759 51.1487H172.881C174.405 51.1487 175.64 49.9139 175.64 48.3903C175.64 46.8671 174.405 45.632 172.881 45.632Z" fill="#D8D8D8"/>
<path d="M145.023 113.112H140.901C139.377 113.112 138.142 114.347 138.142 115.87C138.142 117.394 139.377 118.629 140.901 118.629H145.023C146.547 118.629 147.781 117.394 147.781 115.87C147.781 114.347 146.546 113.112 145.023 113.112Z" fill="#D8D8D8"/>
<path d="M172.881 113.112H168.759C167.236 113.112 166.001 114.347 166.001 115.87C166.001 117.394 167.236 118.629 168.759 118.629H172.881C174.405 118.629 175.64 117.394 175.64 115.87C175.64 114.347 174.405 113.112 172.881 113.112Z" fill="#D8D8D8"/>
<path d="M145.023 125.985H140.901C139.377 125.985 138.142 127.22 138.142 128.743C138.142 130.266 139.377 131.501 140.901 131.501H145.023C146.547 131.501 147.781 130.266 147.781 128.743C147.781 127.219 146.546 125.985 145.023 125.985Z" fill="#D8D8D8"/>
<path d="M158.952 125.985H154.83C153.306 125.985 152.071 127.22 152.071 128.743C152.071 130.266 153.306 131.501 154.83 131.501H158.952C160.476 131.501 161.711 130.266 161.711 128.743C161.71 127.219 160.476 125.985 158.952 125.985Z" fill="#D8D8D8"/>
<path d="M172.881 125.985H168.759C167.236 125.985 166.001 127.22 166.001 128.743C166.001 130.266 167.236 131.501 168.759 131.501H172.881C174.405 131.501 175.64 130.266 175.64 128.743C175.64 127.219 174.405 125.985 172.881 125.985Z" fill="#D8D8D8"/>
<path d="M145.023 136.725H140.901C139.377 136.725 138.142 137.96 138.142 139.483C138.142 141.006 139.377 142.242 140.901 142.242H145.023C146.547 142.242 147.781 141.006 147.781 139.483C147.781 137.96 146.546 136.725 145.023 136.725Z" fill="#D8D8D8"/>
<path d="M158.952 136.725H154.83C153.306 136.725 152.071 137.96 152.071 139.483C152.071 141.006 153.306 142.242 154.83 142.242H158.952C160.476 142.242 161.711 141.006 161.711 139.483C161.71 137.96 160.476 136.725 158.952 136.725Z" fill="#D8D8D8"/>
<path d="M172.881 136.725H168.759C167.236 136.725 166.001 137.96 166.001 139.483C166.001 141.006 167.236 142.242 168.759 142.242H172.881C174.405 142.242 175.64 141.006 175.64 139.483C175.64 137.96 174.405 136.725 172.881 136.725Z" fill="#D8D8D8"/>
<path d="M140.901 61.8888H145.023C146.547 61.8888 147.781 60.6537 147.781 59.1305C147.781 57.6072 146.547 56.3721 145.023 56.3721H140.901C139.377 56.3721 138.142 57.6072 138.142 59.1305C138.142 60.6541 139.377 61.8888 140.901 61.8888Z" fill="#D8D8D8"/>
<path d="M154.83 61.8888H158.952C160.476 61.8888 161.711 60.6537 161.711 59.1305C161.711 57.6072 160.476 56.3721 158.952 56.3721H154.83C153.306 56.3721 152.071 57.6072 152.071 59.1305C152.071 60.6541 153.306 61.8888 154.83 61.8888Z" fill="#D8D8D8"/>
<path d="M172.881 56.3725H168.759C167.236 56.3725 166.001 57.6076 166.001 59.1308C166.001 60.6541 167.236 61.8892 168.759 61.8892H172.881C174.405 61.8892 175.64 60.6541 175.64 59.1308C175.64 57.6072 174.405 56.3725 172.881 56.3725Z" fill="#D8D8D8"/>
<path d="M140.901 72.629H145.023C146.547 72.629 147.781 71.3942 147.781 69.8706C147.781 68.3474 146.547 67.1122 145.023 67.1122H140.901C139.377 67.1122 138.142 68.3474 138.142 69.8706C138.142 71.3938 139.377 72.629 140.901 72.629Z" fill="#D8D8D8"/>
<path d="M154.83 72.629H158.952C160.476 72.629 161.711 71.3942 161.711 69.8706C161.711 68.3474 160.476 67.1122 158.952 67.1122H154.83C153.306 67.1122 152.071 68.3474 152.071 69.8706C152.071 71.3938 153.306 72.629 154.83 72.629Z" fill="#D8D8D8"/>
<path d="M172.881 67.1122H168.759C167.236 67.1122 166.001 68.3474 166.001 69.8706C166.001 71.3938 167.236 72.629 168.759 72.629H172.881C174.405 72.629 175.64 71.3942 175.64 69.8706C175.64 68.3474 174.405 67.1122 172.881 67.1122Z" fill="#D8D8D8"/>
<path d="M170.813 93.9367C170.813 86.2603 164.568 80.015 156.891 80.015C149.215 80.015 142.969 86.2603 142.969 93.9367C142.969 101.614 149.215 107.859 156.891 107.859C164.568 107.859 170.813 101.614 170.813 93.9367ZM156.891 102.342C152.256 102.342 148.485 98.5714 148.485 93.9364C148.485 89.3017 152.256 85.531 156.891 85.531C161.526 85.531 165.296 89.3017 165.296 93.9364C165.297 98.5714 161.526 102.342 156.891 102.342Z" fill="#D8D8D8"/>
<path d="M84.7107 62.4919C83.2649 62.0107 81.7038 62.7939 81.2234 64.2401L73.5414 87.3651L65.4833 64.1509C64.9838 62.7117 63.4117 61.9505 61.9729 62.4497C60.5337 62.9492 59.7721 64.5209 60.2716 65.9601L70.3584 95.0188C70.8433 96.3835 72.1375 97.2963 73.5844 97.2963C73.5921 97.2963 73.6002 97.2959 73.6079 97.2959C75.0639 97.286 76.3574 96.3534 76.8324 94.956L86.4589 65.9788C86.939 64.5337 86.1561 62.9723 84.7107 62.4919Z" fill="#D8D8D8"/>
<path d="M54.7233 65.0557C54.7233 63.5324 53.4882 62.2973 51.965 62.2973H35.6832C34.1599 62.2973 32.9248 63.5324 32.9248 65.0557C32.9248 66.5789 34.1599 67.814 35.6832 67.814H41.0329V94.5383C41.0329 96.0616 42.268 97.2967 43.7912 97.2967C45.3145 97.2967 46.5496 96.0616 46.5496 94.5383V67.814H51.965C53.4882 67.8137 54.7233 66.5789 54.7233 65.0557Z" fill="#D8D8D8"/>
<path d="M43.7718 119.114C42.2485 119.114 41.0134 120.349 41.0134 121.873C41.0134 123.396 42.2482 124.631 43.7718 124.631H47.8941C49.4173 124.631 50.6524 123.396 50.6524 121.873C50.6524 120.349 49.4177 119.114 47.8941 119.114H43.7718Z" fill="#D8D8D8"/>
<path d="M54.9428 121.872C54.9428 123.396 56.1779 124.631 57.7012 124.631H61.8235C63.3467 124.631 64.5818 123.396 64.5818 121.872C64.5818 120.349 63.3471 119.114 61.8235 119.114H57.7012C56.1776 119.114 54.9428 120.349 54.9428 121.872Z" fill="#D8D8D8"/>
<path d="M71.6302 119.114C70.107 119.114 68.8719 120.349 68.8719 121.873C68.8719 123.396 70.107 124.631 71.6302 124.631H75.7525C77.2758 124.631 78.5109 123.396 78.5109 121.873C78.5109 120.349 77.2758 119.114 75.7525 119.114H71.6302Z" fill="#D8D8D8"/>
<path d="M23.3467 40.628C24.87 40.628 26.1051 39.3933 26.1051 37.8697C26.1051 36.3464 24.87 35.1113 23.3467 35.1113H19.2244C17.7012 35.1113 16.4661 36.3464 16.4661 37.8697C16.4661 39.3929 17.7008 40.628 19.2244 40.628H23.3467Z" fill="#D8D8D8"/>
<path d="M102.315 40.628C103.839 40.628 105.073 39.3933 105.073 37.8697C105.073 36.3464 103.839 35.1113 102.315 35.1113H98.1926C96.669 35.1113 95.4343 36.3464 95.4343 37.8697C95.4343 39.3929 96.669 40.628 98.1926 40.628H102.315Z" fill="#D8D8D8"/>
</svg>
