<svg width="102" height="162" viewBox="0 0 102 162" fill="none" xmlns="http://www.w3.org/2000/svg">
<path d="M35.5195 59.5527C36.6225 58.2276 38.5822 58.0362 39.9203 59.1306C41.2659 60.2317 41.4705 62.2216 40.378 63.5771C40.3405 63.6239 40.2946 63.6774 40.2543 63.722C39.6329 64.4089 38.7802 64.7576 37.9244 64.7576C37.1689 64.7576 36.411 64.4858 35.8079 63.9346C34.5504 62.7854 34.4314 60.8471 35.5195 59.5527Z" fill="#D8D8D8"/>
<path d="M60.3789 122.28C59.1349 122.359 57.9004 122.398 56.6741 122.398C42.5996 122.398 29.7898 117.251 20.2883 107.7C17.7884 105.187 15.3414 100.194 17.881 90.6814C19.6282 84.1384 23.487 76.382 29.0401 68.2501C30.024 66.8095 31.9831 66.4431 33.4163 67.4325C34.8497 68.4213 35.2139 70.3912 34.2299 71.8318C29.0763 79.3787 25.5257 86.4637 23.9619 92.3213C22.5886 97.4677 22.865 101.34 24.741 103.226C27.5742 106.074 34.6281 105.225 43.6081 100.955C50.3233 97.7622 57.607 92.9484 64.8558 86.9636C60.5854 81.7144 60.2668 74.2817 63.8983 68.7064L47.5166 52.2393C46.0765 52.9734 44.4983 53.3426 42.9194 53.3426C40.3197 53.3426 37.7201 52.3478 35.7411 50.3589C31.7836 46.3801 31.7836 39.9067 35.7411 35.9282C39.699 31.9501 46.1395 31.9498 50.0973 35.9282C53.2781 39.1259 53.9004 43.9343 51.968 47.7647L68.3485 64.2305C70.8317 62.5896 73.7366 61.7071 76.7776 61.7071C80.3596 61.7071 83.7541 62.9297 86.4913 65.1765C92.3645 57.9599 97.0923 50.7155 100.238 44.0305C104.485 35.0028 105.33 27.913 102.497 25.0651C98.2592 20.8047 83.3805 24.5547 64.1548 39.8957C62.7931 40.9819 60.813 40.7534 59.7324 39.3847C58.6514 38.0159 58.879 36.0257 60.2404 34.9392C69.6793 27.4074 78.8928 21.9459 86.8841 19.1451C98.2957 15.1451 104.092 17.7213 106.945 20.5879L106.948 20.5901C117.277 30.973 122.428 45.2847 121.452 60.8889C120.486 76.3434 113.609 91.2329 102.088 102.815C100.044 104.869 97.8953 106.773 95.6601 108.526C95.6683 108.55 95.6787 108.573 95.6863 108.597L104.449 136.664H111.943C124.105 136.664 134 146.61 134 158.836C134 160.583 132.59 162 130.852 162H44.6645C42.9263 162 41.5168 160.583 41.5168 158.836C41.5168 146.61 51.4118 136.664 63.5738 136.664H73.894V119.861C69.4867 121.171 64.9581 121.991 60.3789 122.28ZM45.6459 40.4022C44.8942 39.6463 43.9071 39.2685 42.9194 39.2685C41.932 39.2685 40.9445 39.6463 40.1929 40.4019C38.6896 41.9131 38.6896 44.3722 40.1929 45.8833C41.6959 47.3945 44.1429 47.3945 45.6459 45.8833C47.1495 44.3725 47.1495 41.9134 45.6459 40.4022ZM76.7776 68.0346C74.3495 68.0346 72.0665 68.9845 70.3491 70.7095L70.3463 70.7127L70.3431 70.7155C67.0548 74.0242 66.8212 79.2547 69.6377 82.839C71.8128 80.8829 73.9727 78.8307 76.1008 76.6918C78.2951 74.4861 80.3974 72.246 82.3981 69.9903C80.8013 68.7238 78.8428 68.0346 76.7776 68.0346ZM90.2619 112.356C87.034 114.415 83.6638 116.176 80.1897 117.622V136.664H97.8516L90.2619 112.356ZM63.5744 142.992C55.9608 142.992 49.5906 148.446 48.1285 155.672H127.39C125.927 148.446 119.557 142.992 111.943 142.992H63.5744ZM97.6366 98.3397C108.073 87.8486 114.3 74.4074 115.17 60.4918C115.747 51.2581 113.909 42.5592 109.912 35.0904C109.25 38.5895 107.924 42.4959 105.929 46.7357C100.792 57.6521 91.78 69.8799 80.552 81.1664C69.3236 92.4533 57.1594 101.513 46.2997 106.675C42.09 108.677 38.2108 110.008 34.7348 110.675C53.6954 120.877 79.6366 116.434 97.6366 98.3397Z" fill="#D8D8D8"/>
<path d="M42.8716 16.8913C44.6097 16.8913 46.0192 18.3079 46.0192 20.0554C46.0192 21.8029 44.6097 23.2195 42.8716 23.2195C31.969 23.2195 23.0992 32.1355 23.0992 43.0948C23.0992 44.8424 21.6896 46.2589 19.9515 46.2589C18.2133 46.2589 16.8038 44.8424 16.8038 43.0948C16.8035 28.6462 28.4977 16.8913 42.8716 16.8913Z" fill="#D8D8D8"/>
<path d="M42.8716 0C44.6097 0 46.0192 1.41655 46.0192 3.16406C46.0192 4.91157 44.6097 6.32812 42.8716 6.32812C22.7035 6.32812 6.29535 22.8214 6.29535 43.0948C6.29535 44.8424 4.88582 46.2589 3.14767 46.2589C1.40953 46.2589 0 44.8424 0 43.0948C0 19.3324 19.2319 0 42.8716 0Z" fill="#D8D8D8"/>
</svg>
