<svg width="124" height="135" viewBox="0 0 124 135" fill="none" xmlns="http://www.w3.org/2000/svg">
<path d="M163.16 90.8182C161.122 90.8182 159.469 92.4676 159.469 94.5C159.469 96.5324 161.122 98.1818 163.16 98.1818C165.198 98.1818 166.852 96.5324 166.852 94.5C166.852 92.4676 165.198 90.8182 163.16 90.8182Z" fill="#D8D8D8"/>
<path d="M148.395 90.8182C146.357 90.8182 144.703 92.4676 144.703 94.5C144.703 96.5324 146.357 98.1818 148.395 98.1818C150.432 98.1818 152.086 96.5324 152.086 94.5C152.086 92.4676 150.432 90.8182 148.395 90.8182Z" fill="#D8D8D8"/>
<path d="M133.629 90.8182C131.591 90.8182 129.938 92.4676 129.938 94.5C129.938 96.5324 131.591 98.1818 133.629 98.1818C135.667 98.1818 137.32 96.5324 137.32 94.5C137.32 92.4676 135.667 90.8182 133.629 90.8182Z" fill="#D8D8D8"/>
<path d="M87.1172 90.8182C85.0795 90.8182 83.4258 92.4676 83.4258 94.5C83.4258 96.5324 85.0795 98.1818 87.1172 98.1818C89.1548 98.1818 90.8086 96.5324 90.8086 94.5C90.8086 92.4676 89.1548 90.8182 87.1172 90.8182Z" fill="#D8D8D8"/>
<path d="M171.659 54.0368C170.216 46.844 164.516 41.1048 157.254 39.6405V-15.9545C157.254 -17.9876 155.601 -19.6364 153.562 -19.6364C151.524 -19.6364 149.871 -17.9876 149.871 -15.9545V39.6405C142.647 41.0971 136.934 46.7954 135.475 54H53.5254C52.0654 46.7951 46.3519 41.0971 39.1289 39.6405V-15.9545C39.1289 -17.9876 37.4759 -19.6364 35.4375 -19.6364C33.3991 -19.6364 31.7461 -17.9876 31.7461 -15.9545V39.6405C24.5397 41.0934 18.7944 46.7888 17.3411 54.0368C7.68182 54.6145 0 62.6324 0 72.4091V116.591C0 126.742 8.27982 135 18.457 135H170.543C180.72 135 189 126.742 189 116.591V72.4091C189 62.6324 181.318 54.6145 171.659 54.0368ZM153.562 46.6364C158.477 46.6364 162.524 49.8049 164.008 54H143.117C144.602 49.8009 148.653 46.6364 153.562 46.6364ZM35.4375 46.6364C40.3519 46.6364 44.3995 49.8049 45.8834 54H24.9916C26.4774 49.8009 30.5276 46.6364 35.4375 46.6364ZM18.457 61.3636C36.7398 61.3636 152.534 61.3636 170.543 61.3636C175.355 61.3636 179.458 64.442 180.982 68.7273H8.01773C9.54155 64.442 13.6449 61.3636 18.457 61.3636ZM170.543 127.636H18.457C13.6449 127.636 9.54155 124.521 8.01773 120.236H180.982C179.458 124.521 175.355 127.636 170.543 127.636ZM181.617 112.909H7.38281V76.0909H181.617V112.909Z" fill="#D8D8D8"/>
<path d="M72.3516 90.8182H25.8398C23.8014 90.8182 22.1484 92.4669 22.1484 94.5C22.1484 96.5331 23.8014 98.1818 25.8398 98.1818H72.3516C74.39 98.1818 76.043 96.5331 76.043 94.5C76.043 92.4669 74.39 90.8182 72.3516 90.8182Z" fill="#D8D8D8"/>
<path d="M139.539 -3.86456C129.135 -18.3514 112.299 -27 94.5 -27C76.7011 -27 59.8646 -18.3514 49.4612 -3.86456C48.274 -2.21142 48.6553 0.0886097 50.3128 1.27268C51.9713 2.45749 54.2766 2.07642 55.4634 0.423288C64.4837 -12.1376 79.0766 -19.6364 94.5 -19.6364C109.923 -19.6364 124.516 -12.1376 133.537 0.423288C134.718 2.06796 137.021 2.46228 138.687 1.27268C140.344 0.0886097 140.726 -2.21142 139.539 -3.86456Z" fill="#D8D8D8"/>
<path d="M127.527 4.69236C119.897 -5.93079 107.551 -12.2727 94.5 -12.2727C81.4494 -12.2727 69.1028 -5.93079 61.4734 4.69199C60.2858 6.34476 60.6668 8.64479 62.3246 9.82886C63.982 11.0133 66.2881 10.6333 67.4748 8.97984C73.7214 0.283381 83.8241 -4.90909 94.5 -4.90909C105.176 -4.90909 115.279 0.283377 121.525 8.9802C122.708 10.6282 125.013 11.017 126.675 9.82923C128.333 8.64515 128.714 6.34512 127.527 4.69236Z" fill="#D8D8D8"/>
<path d="M115.518 13.2478C110.662 6.48945 102.805 2.45455 94.5 2.45455C86.1947 2.45455 78.3375 6.48945 73.4819 13.2474C72.2943 14.9002 72.6749 17.2002 74.3324 18.385C75.9894 19.5687 78.2955 19.1891 79.4834 17.5367C82.9555 12.7036 88.5694 9.81818 94.5 9.81818C100.431 9.81818 106.045 12.7036 109.517 17.5371C110.696 19.1785 112.999 19.5772 114.668 18.3854C116.325 17.2006 116.706 14.9006 115.518 13.2478Z" fill="#D8D8D8"/>
<path d="M94.5 17.1818C88.3937 17.1818 83.4258 22.1368 83.4258 28.2273C83.4258 34.3177 88.3937 39.2727 94.5 39.2727C100.606 39.2727 105.574 34.3177 105.574 28.2273C105.574 22.1368 100.606 17.1818 94.5 17.1818ZM94.5 31.9091C92.4646 31.9091 90.8086 30.2574 90.8086 28.2273C90.8086 26.1971 92.4646 24.5455 94.5 24.5455C96.5354 24.5455 98.1914 26.1971 98.1914 28.2273C98.1914 30.2574 96.5354 31.9091 94.5 31.9091Z" fill="#D8D8D8"/>
</svg>
