<svg width="118" height="124" viewBox="0 0 118 124" fill="none" xmlns="http://www.w3.org/2000/svg">
<path d="M119.249 13.4955C119.813 8.32322 119.813 3.0782 119.249 -2.0943C119.082 -3.62491 117.843 -4.78813 116.304 -4.86039C109.707 -5.16986 103.02 -5.32685 96.4276 -5.32685C89.8355 -5.32685 83.1483 -5.16986 76.5513 -4.86039C75.0119 -4.78813 73.7732 -3.62464 73.6064 -2.09403C73.0424 3.0782 73.0424 8.32322 73.6064 13.4952C73.7732 15.0258 75.0116 16.1893 76.5516 16.2621C83.1464 16.5715 89.8336 16.7283 96.4276 16.7283C103.022 16.7283 109.709 16.5713 116.304 16.2621C117.843 16.1893 119.082 15.0261 119.249 13.4955ZM115.353 12.3168C109.068 12.6 102.705 12.7437 96.4276 12.7437C90.1501 12.7437 83.7869 12.6 77.5022 12.3168C77.0725 7.92264 77.0725 3.47905 77.5022 -0.915399C83.7893 -1.19857 90.152 -1.34228 96.4279 -1.34228C102.704 -1.34228 109.066 -1.19857 115.353 -0.915399C115.783 3.47905 115.783 7.9229 115.353 12.3168Z" fill="#D8D8D8"/>
<path d="M24.2877 75.5586C30.9867 75.8728 37.7326 76.0301 44.4787 76.0301C51.2248 76.0301 57.9707 75.8728 64.6697 75.5586C69.5249 75.3309 73.4303 71.6664 73.956 66.8456C74.5722 61.1947 74.5722 55.4641 73.956 49.8132C73.4303 44.9927 69.5249 41.3282 64.6697 41.1005C51.272 40.4718 37.6857 40.4718 24.288 41.1005C19.4328 41.3282 15.5274 44.9927 15.0017 49.8132C14.3854 55.4641 14.3854 61.1947 15.0017 66.8456C15.5271 71.6667 19.4325 75.3309 24.2877 75.5586ZM18.9745 66.415C18.97 66.3723 18.9668 66.3295 18.9622 66.2867H24.5307V71.5806C24.5123 71.5798 24.494 71.5793 24.4756 71.5782C21.5997 71.4436 19.286 69.272 18.9745 66.415ZM18.642 54.3567H24.5307V62.3022H18.642C18.5013 59.6567 18.5013 57.0024 18.642 54.3567ZM36.4966 54.3567V62.3022H28.5272V54.3567H36.4966ZM28.5272 50.3721V44.9146C31.1788 44.8157 33.8362 44.744 36.4966 44.6946V50.3721H28.5272ZM60.4312 54.3567V62.3022H52.4592V54.3567H60.4312ZM52.4592 50.3721V44.6946C55.1206 44.744 57.7789 44.8157 60.4312 44.9146V50.3721H52.4592ZM70.3151 62.3024H64.4277V54.3569H70.3151C70.4558 57.0024 70.4558 59.6567 70.3151 62.3024ZM60.4312 71.7445C57.7786 71.8436 55.1206 71.9151 52.4592 71.9645V66.2867H60.4312V71.7445ZM48.4627 62.3024H40.4931V54.3569H48.4627V62.3024ZM36.4966 66.287V71.9647C33.836 71.9153 31.1788 71.8436 28.5272 71.7448V66.287H36.4966ZM40.4931 72.0224V66.2867H48.4627V72.0224C45.8066 72.0471 43.1492 72.0471 40.4931 72.0224ZM64.4816 71.5785C64.4637 71.5793 64.4456 71.5798 64.4277 71.5806V66.2867H69.9952C69.9906 66.3295 69.9877 66.3723 69.9829 66.415C69.6712 69.272 67.3577 71.4436 64.4816 71.5785ZM69.9829 50.2441C69.9874 50.2868 69.9906 50.3296 69.9952 50.3724H64.4277V45.0787C64.4456 45.0795 64.4637 45.0801 64.4816 45.0809C67.3577 45.2158 69.6712 47.3871 69.9829 50.2441ZM48.4627 44.6367V50.3721H40.4931V44.6367C41.8215 44.6245 43.15 44.6136 44.4784 44.6136C45.8069 44.6136 47.1348 44.6245 48.4627 44.6367ZM24.4756 45.0809C24.494 45.0801 24.5123 45.0795 24.5307 45.0785V50.3721H18.9622C18.9668 50.3293 18.9697 50.2866 18.9745 50.2438C19.286 47.3871 21.5997 45.2158 24.4756 45.0809Z" fill="#D8D8D8"/>
<path d="M131.331 89.0588C130.542 85.9142 128.238 83.4265 125.311 82.31C126.945 68.0607 126.67 53.6413 124.481 39.4222C123.75 34.6673 119.713 31.0268 114.883 30.7656C110.856 30.5465 106.823 30.355 102.784 30.1908V23.3557C104.481 23.3307 106.176 23.2975 107.867 23.2526C108.97 23.2234 109.841 22.3077 109.811 21.208C109.782 20.108 108.857 19.2425 107.761 19.2694C97.3502 19.5462 86.8076 19.4383 76.4257 18.9493C73.5501 18.8143 71.2356 16.6422 70.9223 13.7861C70.3385 8.42177 70.3385 2.98045 70.9223 -2.3849C71.2356 -5.2429 73.5499 -7.41396 76.426 -7.54731C89.6985 -8.17076 103.158 -8.17076 116.431 -7.54731C119.306 -7.41423 121.619 -5.2437 121.931 -2.3857C122.517 2.98071 122.517 8.42151 121.931 13.7858C121.619 16.6427 119.306 18.8143 116.423 18.9495C116.164 18.9626 115.907 18.9729 115.647 18.9833C114.544 19.0274 113.686 19.9542 113.73 21.0536C113.774 22.1531 114.71 23.0095 115.807 22.9646C116.08 22.9538 116.35 22.9426 116.617 22.9293C121.473 22.7014 125.378 19.0369 125.903 14.2167C126.521 8.56655 126.521 2.83541 125.903 -2.81683C125.378 -7.63949 121.472 -11.3029 116.617 -11.5276C103.22 -12.1575 89.6345 -12.1575 76.239 -11.5276C71.3848 -11.3029 67.4778 -7.64002 66.9489 -2.81657C66.334 2.83541 66.334 8.56602 66.9489 14.2172C67.4775 19.0375 71.384 22.7014 76.2371 22.9291C80.8254 23.145 85.4448 23.2818 90.0699 23.3501V29.7666C66.0833 29.1352 41.9757 29.4667 18.1184 30.7651C13.2874 31.0262 9.25035 34.6668 8.51952 39.4212C6.33022 53.6408 6.05526 68.0601 7.68877 82.3095C4.76225 83.4257 2.45813 85.9134 1.66895 89.058C-0.556316 97.9221 -0.556316 106.911 1.66895 115.775C2.72696 119.99 6.50634 123.027 10.8593 123.159C29.3195 123.719 47.9098 124 66.5 124C85.0902 124 103.68 123.719 122.141 123.159C126.494 123.027 130.273 119.99 131.331 115.775C133.556 106.912 133.556 97.9226 131.331 89.0588ZM94.0667 23.3897C94.8668 23.3942 95.6669 23.4037 96.467 23.4037C97.2407 23.4037 98.0142 23.4003 98.7876 23.396V30.042C97.2146 29.9852 95.641 29.9331 94.0667 29.8845V23.3897ZM12.4702 40.026C12.9162 37.1253 15.3826 34.904 18.3358 34.7444C50.2954 33.005 82.7053 33.005 114.666 34.7444C117.618 34.904 120.085 37.125 120.531 40.0263C122.655 53.8275 122.932 67.8213 121.365 81.6523C84.9541 80.5624 48.0462 80.5624 11.6355 81.6523C10.0686 67.8216 10.3451 53.8278 12.4702 40.026ZM127.454 114.808C126.828 117.302 124.593 119.098 122.019 119.177C85.1792 120.296 47.8205 120.295 10.9811 119.177C8.40682 119.099 6.17196 117.302 5.54584 114.808C3.48177 106.586 3.48177 98.248 5.54584 90.026C6.17169 87.5319 8.40682 85.7357 10.9808 85.6573C29.4005 85.0979 47.9503 84.8182 66.4997 84.8182C85.0492 84.8182 103.599 85.0979 122.019 85.6573C124.593 85.7354 126.828 87.5319 127.454 90.026C129.518 98.248 129.518 106.586 127.454 114.808Z" fill="#D8D8D8"/>
<path d="M121.937 88.3461C103.569 87.7885 84.9179 87.5059 66.4974 87.5059C55.8443 87.5059 45.071 87.6007 34.4765 87.7877C33.3729 87.8074 32.4945 88.7148 32.5139 89.8151C32.5334 90.9153 33.4464 91.7816 34.5473 91.7718C45.1181 91.585 55.8677 91.4905 66.5001 91.4905C84.6475 91.4905 103.022 91.7657 121.121 92.3078C122.7 99.0213 122.7 105.818 121.122 112.524C103.049 113.068 84.6749 113.344 66.5001 113.344C48.3276 113.344 29.9553 113.068 11.8785 112.524C10.3004 105.812 10.3007 99.0157 11.8791 92.3076C16.6541 92.1636 21.6018 92.0363 26.5969 91.928C27.7002 91.9041 28.5752 90.9929 28.5512 89.8929C28.5275 88.7929 27.6251 87.9131 26.5101 87.9445C21.2608 88.0579 16.0637 88.1931 11.0579 88.3461C9.69005 88.3913 8.49988 89.3489 8.16231 90.6803C6.20881 98.4682 6.20881 106.366 8.16417 114.162C8.50361 115.493 9.69804 116.448 11.0627 116.486C29.4001 117.045 48.0519 117.329 66.4995 117.329C84.9472 117.329 103.599 117.045 121.93 116.486C123.301 116.448 124.496 115.492 124.837 114.154C126.791 106.366 126.791 98.4682 124.836 90.6749C124.5 89.3491 123.31 88.3915 121.937 88.3461Z" fill="#D8D8D8"/>
<path d="M74.4204 102.417C74.4204 98.0629 70.8675 94.5206 66.5001 94.5206C62.1327 94.5206 58.5798 98.0629 58.5798 102.417C58.5798 106.771 62.1327 110.314 66.5001 110.314C70.8675 110.314 74.4204 106.771 74.4204 102.417ZM62.5765 102.417C62.5765 100.26 64.3366 98.5052 66.5003 98.5052C68.664 98.5052 70.4241 100.26 70.4241 102.417C70.4241 104.574 68.664 106.329 66.5003 106.329C64.3366 106.329 62.5765 104.574 62.5765 102.417Z" fill="#D8D8D8"/>
<path d="M78.8781 53.4198H79.5881V70.7285C79.5881 71.4109 79.9385 72.0458 80.5167 72.4113C81.0948 72.7765 81.8203 72.8212 82.4393 72.53L86.966 70.3993L91.493 72.53C92.033 72.7842 92.6589 72.7842 93.199 72.53L97.7257 70.3993L102.252 72.53C102.792 72.7842 103.418 72.7842 103.958 72.53L108.485 70.3993L113.012 72.53C113.283 72.6575 113.575 72.7207 113.865 72.7207C114.238 72.7207 114.61 72.6166 114.935 72.4113C115.513 72.046 115.863 71.4109 115.863 70.7285V53.4198H116.573C117.677 53.4198 118.572 52.5277 118.572 51.4275C118.572 50.3272 117.677 49.4352 116.573 49.4352H78.8781C77.7745 49.4352 76.8798 50.3272 76.8798 51.4275C76.8798 52.5277 77.7745 53.4198 78.8781 53.4198ZM111.867 53.4198V67.5846L109.339 66.3946C108.799 66.1404 108.173 66.1401 107.633 66.3946L103.106 68.5253L98.5791 66.3946C98.3089 66.2673 98.0177 66.2039 97.726 66.2039C97.4342 66.2039 97.143 66.2673 96.8728 66.3946L92.3461 68.5253L87.8191 66.3946C87.279 66.1404 86.6532 66.1404 86.1131 66.3946L83.5847 67.5846V53.4198H111.867Z" fill="#D8D8D8"/>
<path d="M105.268 60.3218H107.792C108.895 60.3218 109.79 59.4298 109.79 58.3296C109.79 57.2293 108.895 56.3373 107.792 56.3373H105.268C104.164 56.3373 103.269 57.2293 103.269 58.3296C103.269 59.4298 104.164 60.3218 105.268 60.3218Z" fill="#D8D8D8"/>
<path d="M87.6598 60.3218H99.9443C101.048 60.3218 101.943 59.4298 101.943 58.3296C101.943 57.2293 101.048 56.3373 99.9443 56.3373H87.6598C86.5562 56.3373 85.6615 57.2293 85.6615 58.3296C85.6615 59.4298 86.5562 60.3218 87.6598 60.3218Z" fill="#D8D8D8"/>
</svg>
