<svg width="120" height="162" viewBox="0 0 120 162" fill="none" xmlns="http://www.w3.org/2000/svg">
<path d="M24.9434 20.2954C26.3453 20.2954 27.4821 19.1584 27.4821 17.7562V1.69557C27.4821 -2.50475 30.8986 -5.92184 35.0982 -5.92184H107.306C111.506 -5.92184 114.922 -2.50475 114.922 1.69557V70.4205C114.922 71.8227 116.059 72.9597 117.461 72.9597C118.864 72.9597 120 71.8227 120 70.4205V1.69557C120 -5.30485 114.306 -11 107.306 -11H35.0982C28.099 -11 22.4049 -5.30485 22.4049 1.69557V17.7562C22.4046 19.1584 23.5414 20.2954 24.9434 20.2954Z" fill="#D8D8D8"/>
<path d="M2.53879 123.726C3.94079 123.726 5.07759 122.59 5.07759 121.187V110.903L15.7392 106.752C16.7145 106.372 17.357 105.433 17.357 104.386V86.2838C17.357 84.8815 16.2206 83.7445 14.8182 83.7445H7.61604C6.21608 83.7445 5.07725 82.6055 5.07725 81.2053V60.8957L26.1562 49.429C26.9734 48.9847 27.4818 48.1288 27.4818 47.1986V27.9128C27.4818 26.5106 26.345 25.3736 24.943 25.3736C23.541 25.3736 22.4042 26.5106 22.4042 27.9128V45.6893L1.32564 57.1559C0.508433 57.6002 0 58.4561 0 59.3863V81.2053C0 85.4056 3.41648 88.8227 7.61604 88.8227H12.2795V102.65L1.61787 106.8C0.642551 107.18 0 108.12 0 109.167V121.187C0 122.59 1.1368 123.726 2.53879 123.726Z" fill="#D8D8D8"/>
<path d="M120 80.5771C120 79.1749 118.864 78.0379 117.461 78.0379C116.059 78.0379 114.922 79.1746 114.922 80.5771V140.952C96.986 135.538 78.5273 132.792 60 132.792C41.4727 132.792 23.0137 135.538 5.07759 140.952V131.344C5.07759 129.942 3.94113 128.805 2.53879 128.805C1.1368 128.805 0 129.942 0 131.344V149.304C0 156.305 5.69413 162 12.6933 162H107.306C114.306 162 120 156.305 120 149.304V80.5771H120ZM107.306 156.922H12.6936C8.49406 156.922 5.07759 153.505 5.07759 149.304V146.27C22.9981 140.702 41.4649 137.871 60 137.871C78.5354 137.871 97.0019 140.702 114.922 146.27V149.304C114.922 153.505 111.506 156.922 107.306 156.922Z" fill="#D8D8D8"/>
<path d="M44.9 6.67472C40.7004 6.67472 37.284 10.0918 37.284 14.2921V31.3772C37.284 35.5775 40.7004 38.9946 44.9 38.9946H97.5042C101.703 38.9946 105.12 35.5775 105.12 31.3772V14.2921C105.12 10.0918 101.703 6.67472 97.5042 6.67472H44.9ZM49.8357 33.9165H44.9C43.5 33.9165 42.3612 32.7774 42.3612 31.3772V14.2921C42.3612 12.8919 43.5 11.7529 44.9 11.7529H49.8357V33.9165ZM62.3874 33.9165H54.9129V11.7529H62.3874V33.9165ZM74.9395 33.9165H67.465V11.7529H74.9395V33.9165ZM87.4916 33.9165H80.0171V11.7529H87.4916V33.9165ZM100.043 14.2921V31.3772C100.043 32.7771 98.9042 33.9165 97.5042 33.9165H92.5685V11.7529H97.5042C98.9045 11.7529 100.043 12.8919 100.043 14.2921Z" fill="#D8D8D8"/>
</svg>
