<svg width="125" height="162" viewBox="0 0 125 162" fill="none" xmlns="http://www.w3.org/2000/svg">
<path d="M97.6859 90.9099C98.1352 91.2647 98.6695 91.4368 99.2 91.4368C99.9266 91.4368 100.646 91.1142 101.13 90.4956C105.329 85.1289 107.548 78.6843 107.548 71.8586C107.548 55.2129 94.0685 41.6706 77.4997 41.6706C60.9308 41.6706 47.4509 55.2129 47.4509 71.8586C47.4509 78.6843 49.6706 85.1292 53.8697 90.4956C54.7069 91.5659 56.2487 91.7509 57.3134 90.9102C58.3785 90.0692 58.563 88.5202 57.7261 87.4506C54.2131 82.9607 52.356 77.5693 52.356 71.8586C52.356 57.9304 63.6352 46.5984 77.4997 46.5984C91.3642 46.5984 102.643 57.93 102.643 71.8586C102.643 77.5693 100.786 82.9607 97.2732 87.4506C96.4364 88.5199 96.6212 90.0692 97.6859 90.9099Z" fill="#D8D8D8"/>
<path d="M132.301 16.8042C117.663 2.09868 98.2013 -6 77.5 -6C56.7987 -6 37.3372 2.09868 22.6993 16.8042C8.06141 31.5098 0 51.0613 0 71.8583C0 94.3439 9.6801 115.729 26.558 130.531C27.5786 131.426 29.1273 131.32 30.0187 130.296C30.9095 129.27 30.8042 127.714 29.7839 126.819C13.9731 112.953 4.90513 92.9207 4.90513 71.8583C4.90513 52.3777 12.4564 34.0634 26.1675 20.2885C39.8787 6.51367 58.1091 -1.0722 77.5 -1.0722C96.8909 -1.0722 115.121 6.514 128.832 20.2885C142.544 34.063 150.095 52.3777 150.095 71.8583C150.095 92.9207 141.027 112.953 125.216 126.819C124.196 127.714 124.091 129.27 124.981 130.296C125.466 130.853 126.146 131.139 126.83 131.139C127.402 131.139 127.977 130.939 128.442 130.531C145.32 115.729 155 94.3439 155 71.858C155 51.0613 146.939 31.5098 132.301 16.8042Z" fill="#D8D8D8"/>
<path d="M133.616 71.8583C133.616 59.9991 129.99 48.6513 123.13 39.0414C122.341 37.935 120.808 37.6817 119.708 38.4747C118.608 39.2678 118.355 40.8072 119.144 41.913C125.402 50.6806 128.71 61.0355 128.71 71.858C128.71 88.326 120.765 103.925 107.456 113.586C106.358 114.383 106.111 115.923 106.904 117.027C107.384 117.693 108.133 118.048 108.894 118.048C109.391 118.048 109.894 117.896 110.328 117.58C117.382 112.46 123.237 105.669 127.26 97.9395C131.418 89.9506 133.616 80.932 133.616 71.8583Z" fill="#D8D8D8"/>
<path d="M116.034 34.2628C116.962 33.271 116.914 31.7118 115.928 30.7798C105.484 20.9157 91.8364 15.4829 77.5 15.4829C46.5578 15.4829 21.3841 40.7727 21.3841 71.8583C21.3841 80.932 23.5819 89.9506 27.7401 97.9399C31.763 105.669 37.6177 112.461 44.6713 117.581C45.1056 117.896 45.6079 118.048 46.1059 118.048C46.8662 118.048 47.6163 117.693 48.0957 117.027C48.8891 115.924 48.6422 114.384 47.5441 113.587C34.2348 103.926 26.2892 88.3264 26.2892 71.8583C26.2892 43.4899 49.2622 20.4107 77.5 20.4107C90.5829 20.4107 103.037 25.3681 112.568 34.3696C113.554 35.3016 115.107 35.2536 116.034 34.2628Z" fill="#D8D8D8"/>
<path d="M82.6193 66.9H72.3804C69.8725 66.9 67.6698 68.6874 67.142 71.1504L53.1313 136.552C52.8462 137.883 53.6889 139.193 55.0129 139.479C55.1869 139.517 55.3606 139.535 55.5316 139.535C56.6624 139.535 57.679 138.745 57.9266 137.589L71.9373 72.1872C71.9821 71.9786 72.1681 71.8274 72.38 71.8274H82.619C82.8309 71.8274 83.0173 71.9786 83.0618 72.1872L87.635 93.5357C87.9198 94.8659 89.2246 95.7112 90.5486 95.426C91.8727 95.1399 92.7154 93.8294 92.4302 92.4989L87.857 71.1504C87.3299 68.6878 85.1271 66.9 82.6193 66.9Z" fill="#D8D8D8"/>
<path d="M110.054 157.072H106.264L94.6307 102.768C94.3455 101.437 93.0404 100.592 91.717 100.877C90.393 101.164 89.5506 102.474 89.8354 103.805L101.247 157.072H96.2291L79.8979 80.8358C79.655 79.7008 78.656 78.8903 77.5003 78.8903C76.3447 78.8903 75.3457 79.7008 75.1027 80.8358L58.7716 157.072H53.754L55.7278 147.858C56.0129 146.527 55.1702 145.217 53.8462 144.931C52.5224 144.646 51.2177 145.49 50.9325 146.821L48.7363 157.072H45.8417C44.4869 157.072 43.3891 158.175 43.3891 159.536C43.3891 160.897 44.4869 162 45.8417 162H110.054C111.408 162 112.506 160.897 112.506 159.536C112.506 158.175 111.408 157.072 110.054 157.072ZM73.0533 120.387L81.8018 113.148L85.4162 130.02L73.0533 120.387ZM84.8358 135.804L66.0168 146.67L70.7031 124.793L84.8358 135.804ZM77.5 93.0653L80.6403 107.725L73.0062 114.042L77.5 93.0653ZM64.6273 153.156L87.5385 139.928L91.2111 157.072H63.7882L64.6273 153.156Z" fill="#D8D8D8"/>
</svg>
