<svg width="123" height="124" viewBox="0 0 123 124" fill="none" xmlns="http://www.w3.org/2000/svg">
<path d="M113.273 46.4726C111.526 46.4726 110.109 45.056 110.109 43.3085V8.85564C110.109 -5.51711 98.5855 -17.3219 84.421 -17.4592C84.3346 -17.4602 84.2485 -17.4608 84.1622 -17.4608C77.2901 -17.4608 70.8199 -14.7964 65.9179 -9.94142C60.9531 -5.02478 58.2188 1.51882 58.2188 8.4845V60.4425C58.2188 71.2086 49.5881 80.1309 38.9797 80.3321C33.6754 80.4347 28.6623 78.4388 24.8689 74.7166C21.0742 70.9934 18.9844 66.0224 18.9844 60.7188V21.7989C17.9618 22.0074 16.9037 22.1172 15.8203 22.1172C14.7369 22.1172 13.6789 22.0074 12.6562 21.7989V60.3476C12.6562 74.7204 24.1801 86.5255 38.3446 86.6628C45.3106 86.7289 51.8843 84.0604 56.8478 79.145C61.8125 74.228 64.5469 67.6841 64.5469 60.7188V48.6804C64.5469 46.9329 65.9634 45.5164 67.7109 45.5164C69.4585 45.5164 70.875 46.9329 70.875 48.6804V60.7188C70.875 69.3861 67.4746 77.5269 61.3005 83.6411C55.1278 89.7544 46.9597 93.0741 38.2829 92.9906C20.6632 92.8197 6.32812 78.1758 6.32812 60.3476V18.9446C2.48822 16.0555 0 11.4616 0 6.29688V-17.0643C0 -20.2341 2.57839 -22.8125 5.74815 -22.8125H6.32812V-28.5078C6.32812 -33.7418 10.5863 -38 15.8203 -38C21.0543 -38 25.3125 -33.7418 25.3125 -28.5078V-22.8125H25.8925C29.0619 -22.8125 31.6406 -20.2341 31.6406 -17.0643V6.29688C31.6406 11.4616 29.1524 16.0555 25.3125 18.9446V60.7188C25.3125 64.3093 26.729 67.6762 29.3008 70.1999C31.8716 72.7219 35.2682 74.067 38.8597 74.0053C46.045 73.8689 51.8906 67.7847 51.8906 60.4425V8.4845C51.8906 -0.183121 55.291 -8.32364 61.4651 -14.4379C67.5619 -20.4759 75.6097 -23.7889 84.1606 -23.7889C84.2672 -23.7889 84.3757 -23.7883 84.4827 -23.7873C102.102 -23.6162 116.438 -8.9729 116.438 8.85564V43.3085C116.438 45.056 115.021 46.4726 113.273 46.4726ZM18.9844 -28.5078C18.9844 -30.2525 17.565 -31.6719 15.8203 -31.6719C14.0756 -31.6719 12.6562 -30.2525 12.6562 -28.5078V-22.8125H18.9844V-28.5078ZM25.3125 -4.24989H15.8203C14.0728 -4.24989 12.6562 -5.66676 12.6562 -7.41396C12.6562 -9.16115 14.0728 -10.578 15.8203 -10.578H25.3125V-16.4844H6.32812V6.29688C6.32812 11.5309 10.5863 15.7891 15.8203 15.7891C21.0543 15.7891 25.3125 11.5309 25.3125 6.29688V-4.24989Z" fill="#D8D8D8"/>
<path d="M115.51 57.5768C114.922 58.1654 114.106 58.5039 113.273 58.5039C112.441 58.5039 111.625 58.1654 111.036 57.5768C110.448 56.9883 110.109 56.172 110.109 55.3398C110.109 54.5077 110.448 53.6914 111.036 53.1029C111.625 52.5143 112.441 52.1758 113.273 52.1758C114.106 52.1758 114.922 52.5143 115.51 53.1029C116.099 53.6914 116.438 54.5077 116.438 55.3398C116.438 56.172 116.099 56.9883 115.51 57.5768Z" fill="#D8D8D8"/>
<path d="M69.9479 38.5925C69.3594 39.181 68.5431 39.5195 67.7109 39.5195C66.8788 39.5195 66.0625 39.1813 65.4739 38.5925C64.8854 38.0039 64.5469 37.1876 64.5469 36.3555C64.5469 35.5233 64.8854 34.707 65.4739 34.1188C66.0625 33.5303 66.8788 33.1914 67.7109 33.1914C68.5431 33.1914 69.3594 33.53 69.9479 34.1188C70.5364 34.707 70.875 35.5233 70.875 36.3555C70.875 37.1876 70.5364 38.0039 69.9479 38.5925Z" fill="#D8D8D8"/>
<path d="M117.017 108.812H116.438V114.508C116.438 119.742 112.179 124 106.945 124C101.711 124 97.4531 119.742 97.4531 114.508V108.812H96.8732C93.7034 108.812 91.125 106.234 91.125 103.064V79.7031C91.125 74.5384 93.6132 69.9442 97.4534 67.0551C97.4534 67.0523 97.4531 67.0497 97.4531 67.0469V8.4845C97.4531 4.89393 96.0366 1.52737 93.4648 -0.996605C90.8943 -3.51868 87.5107 -4.86942 83.9059 -4.80202C76.7206 -4.66565 70.875 1.41852 70.875 8.76073V23.3828C70.875 25.13 69.4585 26.5469 67.7109 26.5469C65.9634 26.5469 64.5469 25.13 64.5469 23.3828V8.76073C64.5469 -2.00531 73.1775 -10.928 83.786 -11.1289C83.9138 -11.1314 84.041 -11.1327 84.1685 -11.1327C89.3322 -11.1327 94.1948 -9.14565 97.8967 -5.51331C101.691 -1.79015 103.781 3.18122 103.781 8.4845V64.2011C104.804 63.9926 105.862 63.8828 106.945 63.8828C115.669 63.8828 122.766 70.9798 122.766 79.7031V103.064C122.766 106.234 120.187 108.812 117.017 108.812ZM103.781 114.508C103.781 116.252 105.201 117.672 106.945 117.672C108.69 117.672 110.109 116.252 110.109 114.508V108.812H103.781V114.508ZM116.438 79.7031C116.438 74.4691 112.179 70.2109 106.945 70.2109C101.711 70.2109 97.4531 74.4691 97.4531 79.7031V90.2499H106.945C108.693 90.2499 110.109 91.6664 110.109 93.414C110.109 95.1615 108.693 96.578 106.945 96.578H97.4531V102.484H116.438V79.7031Z" fill="#D8D8D8"/>
</svg>
