<svg width="138" height="162" viewBox="0 0 138 162" fill="none" xmlns="http://www.w3.org/2000/svg">
<path d="M89.1 62.1H72.9C70.7517 62.1 68.6915 62.9534 67.1724 64.4724C65.6534 65.9915 64.8 68.0518 64.8 70.2C64.8 72.3483 65.6534 74.4085 67.1724 75.9276C68.6915 77.4466 70.7517 78.3 72.9 78.3H89.1C91.2483 78.3 93.3085 77.4466 94.8276 75.9276C96.3466 74.4085 97.2 72.3483 97.2 70.2C97.2 68.0518 96.3466 65.9915 94.8276 64.4724C93.3085 62.9534 91.2483 62.1 89.1 62.1ZM89.1 72.9H72.9C72.1839 72.9 71.4972 72.6155 70.9908 72.1092C70.4845 71.6028 70.2 70.9161 70.2 70.2C70.2 69.4839 70.4845 68.7972 70.9908 68.2908C71.4972 67.7845 72.1839 67.5 72.9 67.5H89.1C89.8161 67.5 90.5028 67.7845 91.0092 68.2908C91.5155 68.7972 91.8 69.4839 91.8 70.2C91.8 70.9161 91.5155 71.6028 91.0092 72.1092C90.5028 72.6155 89.8161 72.9 89.1 72.9Z" fill="#D8D8D8"/>
<path d="M89.1 83.7H72.9C70.7517 83.7 68.6915 84.5534 67.1724 86.0724C65.6534 87.5915 64.8 89.6517 64.8 91.8C64.8 93.9483 65.6534 96.0085 67.1724 97.5276C68.6915 99.0466 70.7517 99.9 72.9 99.9H89.1C91.2483 99.9 93.3085 99.0466 94.8276 97.5276C96.3466 96.0085 97.2 93.9483 97.2 91.8C97.2 89.6517 96.3466 87.5915 94.8276 86.0724C93.3085 84.5534 91.2483 83.7 89.1 83.7ZM89.1 94.5H72.9C72.1839 94.5 71.4972 94.2155 70.9908 93.7092C70.4845 93.2028 70.2 92.5161 70.2 91.8C70.2 91.0839 70.4845 90.3972 70.9908 89.8908C71.4972 89.3845 72.1839 89.1 72.9 89.1H89.1C89.8161 89.1 90.5028 89.3845 91.0092 89.8908C91.5155 90.3972 91.8 91.0839 91.8 91.8C91.8 92.5161 91.5155 93.2028 91.0092 93.7092C90.5028 94.2155 89.8161 94.5 89.1 94.5Z" fill="#D8D8D8"/>
<path d="M32.4 10.8H37.8V16.2H32.4V10.8Z" fill="#D8D8D8"/>
<path d="M32.4 21.6H37.8V27H32.4V21.6Z" fill="#D8D8D8"/>
<path d="M32.4 37.8H37.8V43.2H32.4V37.8Z" fill="#D8D8D8"/>
<path d="M32.4 48.6H37.8V54H32.4V48.6Z" fill="#D8D8D8"/>
<path d="M32.4 64.8H37.8V70.2H32.4V64.8Z" fill="#D8D8D8"/>
<path d="M32.4 75.6H37.8V81H32.4V75.6Z" fill="#D8D8D8"/>
<path d="M32.4 118.8H37.8V151.2H32.4V118.8Z" fill="#D8D8D8"/>
<path d="M32.4 108H37.8V113.4H32.4V108Z" fill="#D8D8D8"/>
<path d="M124.2 10.8H129.6V16.2H124.2V10.8Z" fill="#D8D8D8"/>
<path d="M124.2 21.6H129.6V27H124.2V21.6Z" fill="#D8D8D8"/>
<path d="M124.2 37.8H129.6V43.2H124.2V37.8Z" fill="#D8D8D8"/>
<path d="M124.2 48.6H129.6V54H124.2V48.6Z" fill="#D8D8D8"/>
<path d="M124.2 64.8H129.6V70.2H124.2V64.8Z" fill="#D8D8D8"/>
<path d="M124.2 75.6H129.6V81H124.2V75.6Z" fill="#D8D8D8"/>
<path d="M124.2 118.8H129.6V151.2H124.2V118.8Z" fill="#D8D8D8"/>
<path d="M124.2 108H129.6V113.4H124.2V108Z" fill="#D8D8D8"/>
<path d="M140.4 2.7C140.4 1.98392 140.116 1.29716 139.609 0.790812C139.103 0.284463 138.416 0 137.7 0H116.1C115.384 0 114.697 0.284463 114.191 0.790812C113.684 1.29716 113.4 1.98392 113.4 2.7V15.5628L100.931 40.5H61.0686L48.6 15.5628V2.7C48.6 1.98392 48.3155 1.29716 47.8092 0.790812C47.3028 0.284463 46.6161 0 45.9 0H24.3C23.5839 0 22.8972 0.284463 22.3908 0.790812C21.8845 1.29716 21.6 1.98392 21.6 2.7V40.5H0V72.9H2.7C4.84825 72.9 6.90852 73.7534 8.42756 75.2724C9.94661 76.7915 10.8 78.8517 10.8 81C10.8 83.1483 9.94661 85.2085 8.42756 86.7276C6.90852 88.2466 4.84825 89.1 2.7 89.1H0V121.5H21.6V159.3C21.6 160.016 21.8845 160.703 22.3908 161.209C22.8972 161.716 23.5839 162 24.3 162H45.9C46.6161 162 47.3028 161.716 47.8092 161.209C48.3155 160.703 48.6 160.016 48.6 159.3V146.437L61.0686 121.5H100.931L113.4 146.437V159.3C113.4 160.016 113.684 160.703 114.191 161.209C114.697 161.716 115.384 162 116.1 162H137.7C138.416 162 139.103 161.716 139.609 161.209C140.116 160.703 140.4 160.016 140.4 159.3V121.5H162V89.1H159.3C157.152 89.1 155.091 88.2466 153.572 86.7276C152.053 85.2085 151.2 83.1483 151.2 81C151.2 78.8517 152.053 76.7915 153.572 75.2724C155.091 73.7534 157.152 72.9 159.3 72.9H162V40.5H140.4V2.7ZM21.6 116.1H5.4V110.7H21.6V116.1ZM21.6 62.1H16.2V67.5H21.6V94.5H16.2V99.9H21.6V105.3H5.4V94.23C8.45178 93.6103 11.1955 91.9546 13.1662 89.5435C15.137 87.1324 16.2135 84.1141 16.2135 81C16.2135 77.8859 15.137 74.8676 13.1662 72.4565C11.1955 70.0454 8.45178 68.3897 5.4 67.77V56.7H21.6V62.1ZM21.6 51.3H5.4V45.9H21.6V51.3ZM43.2 156.6H27V5.4H43.2V156.6ZM48.6 27.6372L55.0314 40.5H48.6V27.6372ZM48.6 67.5H56.7C57.4161 67.5 58.1028 67.7845 58.6092 68.2908C59.1155 68.7972 59.4 69.4839 59.4 70.2C59.4 70.9161 59.1155 71.6028 58.6092 72.1092C58.1028 72.6155 57.4161 72.9 56.7 72.9H48.6V67.5ZM48.6 89.1H56.7C57.4161 89.1 58.1028 89.3845 58.6092 89.8908C59.1155 90.3972 59.4 91.0839 59.4 91.8C59.4 92.5161 59.1155 93.2028 58.6092 93.7092C58.1028 94.2155 57.4161 94.5 56.7 94.5H48.6V89.1ZM48.6 134.363V121.5H55.0314L48.6 134.363ZM113.4 134.363L106.969 121.5H113.4V134.363ZM113.4 116.1H48.6V110.7H113.4V116.1ZM113.4 94.5H105.3C104.584 94.5 103.897 94.2155 103.391 93.7092C102.884 93.2028 102.6 92.5161 102.6 91.8C102.6 91.0839 102.884 90.3972 103.391 89.8908C103.897 89.3845 104.584 89.1 105.3 89.1H113.4V94.5ZM113.4 72.9H105.3C104.584 72.9 103.897 72.6155 103.391 72.1092C102.884 71.6028 102.6 70.9161 102.6 70.2C102.6 69.4839 102.884 68.7972 103.391 68.2908C103.897 67.7845 104.584 67.5 105.3 67.5H113.4V72.9ZM113.4 62.1H105.3C103.152 62.1 101.091 62.9534 99.5724 64.4724C98.0534 65.9915 97.2 68.0518 97.2 70.2C97.2 72.3483 98.0534 74.4085 99.5724 75.9276C101.091 77.4466 103.152 78.3 105.3 78.3H113.4V83.7H105.3C103.152 83.7 101.091 84.5534 99.5724 86.0724C98.0534 87.5915 97.2 89.6517 97.2 91.8C97.2 93.9483 98.0534 96.0085 99.5724 97.5276C101.091 99.0466 103.152 99.9 105.3 99.9H113.4V105.3H48.6V99.9H56.7C58.8483 99.9 60.9085 99.0466 62.4276 97.5276C63.9466 96.0085 64.8 93.9483 64.8 91.8C64.8 89.6517 63.9466 87.5915 62.4276 86.0724C60.9085 84.5534 58.8483 83.7 56.7 83.7H48.6V78.3H56.7C58.8483 78.3 60.9085 77.4466 62.4276 75.9276C63.9466 74.4085 64.8 72.3483 64.8 70.2C64.8 68.0518 63.9466 65.9915 62.4276 64.4724C60.9085 62.9534 58.8483 62.1 56.7 62.1H48.6V56.7H113.4V62.1ZM113.4 51.3H48.6V45.9H113.4V51.3ZM113.4 40.5H106.969L113.4 27.6372V40.5ZM135 156.6H118.8V5.4H135V156.6ZM156.6 116.1H140.4V110.7H156.6V116.1ZM156.6 67.77C153.548 68.3897 150.805 70.0454 148.834 72.4565C146.863 74.8676 145.786 77.8859 145.786 81C145.786 84.1141 146.863 87.1324 148.834 89.5435C150.805 91.9546 153.548 93.6103 156.6 94.23V105.3H140.4V99.9H145.8V94.5H140.4V67.5H145.8V62.1H140.4V56.7H156.6V67.77ZM156.6 45.9V51.3H140.4V45.9H156.6Z" fill="#D8D8D8"/>
</svg>
