<svg width="155" height="127" viewBox="0 0 155 127" fill="none" xmlns="http://www.w3.org/2000/svg">
<path d="M143.911 -35H18.0889C8.11482 -35 0 -26.8855 0 -16.9111V108.911C0 118.886 8.11482 127 18.0889 127H143.911C153.886 127 162 118.886 162 108.911V-16.9111C162 -26.8855 153.885 -35 143.911 -35ZM156.83 108.911C156.83 116.035 151.035 121.83 143.911 121.83H18.0889C10.9653 121.83 5.17021 116.035 5.17021 108.911V-16.9111C5.17021 -24.0347 10.9653 -29.8298 18.0889 -29.8298H143.911C151.035 -29.8298 156.83 -24.0347 156.83 -16.9111V108.911Z" fill="#D8D8D8"/>
<path d="M138.045 -13.6298H23.9553C22.5273 -13.6298 21.3702 -12.4723 21.3702 -11.0447V103.045C21.3702 104.472 22.5273 105.63 23.9553 105.63H37.7426C39.1706 105.63 40.3277 104.472 40.3277 103.045C40.3277 101.617 39.1706 100.46 37.7426 100.46H26.5404V-8.45958H135.46V-4.15106C135.46 -2.7234 136.617 -1.56596 138.045 -1.56596C139.473 -1.56596 140.63 -2.7234 140.63 -4.15106V-11.0447C140.63 -12.4723 139.473 -13.6298 138.045 -13.6298Z" fill="#D8D8D8"/>
<path d="M138.045 3.60426C136.617 3.60426 135.46 4.76169 135.46 6.18936V100.46H48.083C46.655 100.46 45.4979 101.617 45.4979 103.045C45.4979 104.472 46.655 105.63 48.083 105.63H138.045C139.473 105.63 140.63 104.472 140.63 103.045V6.18936C140.63 4.76169 139.473 3.60426 138.045 3.60426Z" fill="#D8D8D8"/>
<path d="M81 94.2553C107.608 94.2553 129.255 72.608 129.255 46C129.255 19.392 107.608 -2.25532 81 -2.25532C54.392 -2.25532 32.7447 19.392 32.7447 46C32.7447 72.608 54.392 94.2553 81 94.2553ZM78.4149 2.99451V10.6702C78.4149 12.0979 79.572 13.2553 81 13.2553C82.428 13.2553 83.5851 12.0979 83.5851 10.6702V2.99451C106.143 4.33636 124.085 23.1108 124.085 46C124.085 68.8892 106.143 87.6636 83.5851 89.0055V81.3298C83.5851 79.9021 82.428 78.7447 81 78.7447C79.572 78.7447 78.4149 79.9021 78.4149 81.3298V89.0055C55.8569 87.6636 37.9149 68.8892 37.9149 46C37.9149 23.1108 55.8569 4.33636 78.4149 2.99451Z" fill="#D8D8D8"/>
<path d="M59.9876 53.7553C64.2637 53.7553 67.7429 50.2765 67.7429 46C67.7429 41.7235 64.2637 38.2447 59.9876 38.2447C55.7115 38.2447 52.2322 41.7235 52.2322 46C52.2322 50.2765 55.7115 53.7553 59.9876 53.7553ZM59.9876 43.4149C61.4132 43.4149 62.5727 44.5744 62.5727 46C62.5727 47.4256 61.4132 48.5851 59.9876 48.5851C58.562 48.5851 57.4025 47.4256 57.4025 46C57.4025 44.5744 58.562 43.4149 59.9876 43.4149Z" fill="#D8D8D8"/>
<path d="M102.012 53.7553C106.289 53.7553 109.768 50.2765 109.768 46C109.768 41.7235 106.289 38.2447 102.012 38.2447C97.7363 38.2447 94.2571 41.7235 94.2571 46C94.2571 50.2765 97.7363 53.7553 102.012 53.7553ZM102.012 43.4149C103.438 43.4149 104.598 44.5744 104.598 46C104.598 47.4256 103.438 48.5851 102.012 48.5851C100.587 48.5851 99.4273 47.4256 99.4273 46C99.4273 44.5744 100.587 43.4149 102.012 43.4149Z" fill="#D8D8D8"/>
</svg>
