<svg width="132" height="160" viewBox="0 0 132 160" fill="none" xmlns="http://www.w3.org/2000/svg">
<path d="M20.9032 149.548H15.6774V144.323H20.9032V149.548Z" fill="#D8D8D8"/>
<path d="M31.3548 149.548H26.129V144.323H31.3548V149.548Z" fill="#D8D8D8"/>
<path d="M156.774 144.323V160H141.097V144.323H135.871V125.416L138.484 120.19V107.742H141.097V97.2903H146.323V34.5807C146.323 17.2911 132.257 3.22581 114.968 3.22581H52.2581C34.9685 3.22581 20.9032 17.2911 20.9032 34.5807V71.1613H26.129V37.1936C26.129 21.3463 39.0237 8.45161 54.871 8.45161H91.4516C107.299 8.45161 120.194 21.3463 120.194 37.1936V97.2903H125.419V107.742H128.032V120.19L130.645 125.416V144.323H125.419V160H109.742V144.323H104.516V125.416L107.129 120.19V107.742H109.742V97.2903H114.968V37.1936C114.968 24.2257 104.417 13.6774 91.4516 13.6774H54.871C41.9057 13.6774 31.3548 24.2257 31.3548 37.1936V71.1613H36.5806V86.8387H40.8083L47.0323 99.2866V139.097H41.8064V160H5.22581V139.097H0V99.2866L6.22394 86.8387H10.4516V71.1613H15.6774V34.5807C15.6774 14.409 32.0865 -2 52.2581 -2H114.968C135.139 -2 151.548 14.409 151.548 34.5807V97.2903H156.774V107.742H159.387V120.19L162 125.416V144.323H156.774ZM114.968 154.774H120.194V144.323H114.968V154.774ZM109.742 139.097H125.419V126.649L122.806 121.423V112.968H112.355V121.423L109.742 126.649V139.097ZM120.194 107.742V102.516H114.968V107.742H120.194ZM10.4516 154.774H36.5806V139.097H10.4516V154.774ZM41.8064 133.871V102.516H5.22581V133.871H41.8064ZM6.84058 97.2903H40.1917L37.5788 92.0645H9.45348L6.84058 97.2903ZM31.3548 86.8387V76.3871H15.6774V86.8387H31.3548ZM146.323 154.774H151.548V144.323H146.323V154.774ZM151.548 102.516H146.323V107.742H151.548V102.516ZM156.774 126.649L154.161 121.423V112.968H143.71V121.423L141.097 126.649V139.097H156.774V126.649Z" fill="#D8D8D8"/>
<path d="M36.5806 128.645H10.4516V107.742H36.5806V128.645ZM31.3548 112.968H15.6774V123.419H31.3548V112.968Z" fill="#D8D8D8"/>
</svg>
