<svg width="77" height="77" viewBox="0 0 77 77" fill="none" xmlns="http://www.w3.org/2000/svg">
<path d="M69.451 45.3656H69.2927V13.0114C69.2927 5.85455 63.5025 0.0527344 56.334 0.0527344H13.406C6.26068 0.0527344 0.447266 5.86557 0.447266 13.0114V64.2867C0.447266 66.1811 2.66281 67.1946 4.09906 65.9973L17.7895 54.589H31.451V73.8262C31.451 75.056 32.4477 76.0527 33.6776 76.0527H69.451C73.315 76.0527 76.4473 72.9263 76.4473 69.0565V52.3619C76.4473 48.5042 73.3086 45.3656 69.451 45.3656ZM43.3753 71.5996H35.9041V54.5884H43.3753V71.5996ZM43.3753 35.6679V50.1353H16.983C16.4623 50.1353 15.9578 50.318 15.5577 50.6519L4.90039 59.5327V13.0114C4.90039 8.32117 8.7157 4.50586 13.406 4.50586H56.334C61.0312 4.50586 64.8396 8.30609 64.8396 13.0114V45.3656H57.3684V45.205C57.3684 38.7079 52.1116 33.4413 45.6018 33.4413C44.372 33.4413 43.3753 34.438 43.3753 35.6679ZM71.9941 69.0565C71.9941 70.4608 70.8577 71.5996 69.451 71.5996H47.8284V38.2371C49.4751 38.7607 52.9153 40.7855 52.9153 45.205V47.5922C52.9153 48.822 53.912 49.8187 55.1418 49.8187H69.451C70.853 49.8187 71.9941 50.9598 71.9941 52.3619V69.0565Z" fill="#A0E786"/>
<path d="M59.753 17.7818C59.753 16.5519 58.7563 15.5552 57.5264 15.5552H14.5984C13.3692 15.5552 12.3719 16.5519 12.3719 17.7818C12.3719 19.011 13.3692 20.0083 14.5984 20.0083H57.5264C58.7563 20.0083 59.753 19.011 59.753 17.7818Z" fill="#A0E786"/>
<path d="M43.2173 25.0942H14.5984C13.3692 25.0942 12.3719 26.091 12.3719 27.3208C12.3719 28.5506 13.3692 29.5474 14.5984 29.5474H43.2173C44.4471 29.5474 45.4439 28.5506 45.4439 27.3208C45.4439 26.091 44.4471 25.0942 43.2173 25.0942Z" fill="#A0E786"/>
<path d="M33.8362 34.6337H14.5984C13.3692 34.6337 12.3719 35.6304 12.3719 36.8602C12.3719 38.0895 13.3692 39.0868 14.5984 39.0868H33.8362C35.066 39.0868 36.0627 38.0895 36.0627 36.8602C36.0627 35.6304 35.066 34.6337 33.8362 34.6337Z" fill="#A0E786"/>
</svg>
