<svg width="68" height="84" viewBox="0 0 68 84" fill="none" xmlns="http://www.w3.org/2000/svg">
<g filter="url(#filter0_d)">
<path d="M57.0037 45.3129H56.8454V12.9587C56.8454 5.80182 51.0552 0 43.8867 0H0.95871C-6.18658 0 -12 5.81284 -12 12.9587V64.234C-12 66.1283 -9.78445 67.1419 -8.34821 65.9445L5.34225 54.5363H19.0037V73.7734C19.0037 75.0033 20.0005 76 21.2303 76H57.0037C60.8677 76 64 72.8735 64 69.0037V52.3091C64 48.4515 60.8614 45.3129 57.0037 45.3129ZM30.928 71.5469H23.4568V54.5357H30.928V71.5469ZM30.928 35.6151V50.0826H4.53571C4.01501 50.0826 3.51056 50.2652 3.11047 50.5992L-7.54688 59.4799V12.9587C-7.54688 8.26843 -3.73157 4.45312 0.95871 4.45312H43.8867C48.584 4.45312 52.3923 8.25336 52.3923 12.9587V45.3129H44.9211V45.1523C44.9211 38.6552 39.6644 33.3886 33.1546 33.3886C31.9247 33.3886 30.928 34.3853 30.928 35.6151ZM59.5469 69.0037C59.5469 70.4081 58.4104 71.5469 57.0037 71.5469H35.3811V38.1844C37.0279 38.708 40.468 40.7328 40.468 45.1523V47.5394C40.468 48.7693 41.4648 49.766 42.6946 49.766H57.0037C58.4058 49.766 59.5469 50.9071 59.5469 52.3091V69.0037Z" fill="#A0E786"/>
<path d="M47.3057 17.729C47.3057 16.4992 46.309 15.5025 45.0792 15.5025H2.15117C0.921923 15.5025 -0.0753918 16.4992 -0.0753918 17.729C-0.0753918 18.9583 0.921923 19.9556 2.15117 19.9556H45.0792C46.309 19.9556 47.3057 18.9583 47.3057 17.729Z" fill="#A0E786"/>
<path d="M30.77 25.0415H2.15117C0.921923 25.0415 -0.0753918 26.0382 -0.0753918 27.2681C-0.0753918 28.4979 0.921923 29.4946 2.15117 29.4946H30.77C31.9999 29.4946 32.9966 28.4979 32.9966 27.2681C32.9966 26.0382 31.9999 25.0415 30.77 25.0415Z" fill="#A0E786"/>
<path d="M21.3889 34.5809H2.15117C0.921923 34.5809 -0.0753918 35.5777 -0.0753918 36.8075C-0.0753918 38.0367 0.921923 39.0341 2.15117 39.0341H21.3889C22.6187 39.0341 23.6155 38.0367 23.6155 36.8075C23.6155 35.5777 22.6187 34.5809 21.3889 34.5809Z" fill="#A0E786"/>
</g>
<defs>
<filter id="filter0_d" x="-16" y="0" width="84" height="84" filterUnits="userSpaceOnUse" color-interpolation-filters="sRGB">
<feFlood flood-opacity="0" result="BackgroundImageFix"/>
<feColorMatrix in="SourceAlpha" type="matrix" values="0 0 0 0 0 0 0 0 0 0 0 0 0 0 0 0 0 0 127 0"/>
<feOffset dy="4"/>
<feGaussianBlur stdDeviation="2"/>
<feColorMatrix type="matrix" values="0 0 0 0 0 0 0 0 0 0 0 0 0 0 0 0 0 0 0.25 0"/>
<feBlend mode="normal" in2="BackgroundImageFix" result="effect1_dropShadow"/>
<feBlend mode="normal" in="SourceGraphic" in2="effect1_dropShadow" result="shape"/>
</filter>
</defs>
</svg>
