<svg width="19" height="22" viewBox="0 0 19 22" fill="none" xmlns="http://www.w3.org/2000/svg">
<g opacity="0.4">
<path fill-rule="evenodd" clip-rule="evenodd" d="M3 5C2.44772 5 2 5.44772 2 6V19C2 19.5523 2.44772 20 3 20H16C16.5523 20 17 19.5523 17 19V6C17 5.44772 16.5523 5 16 5H3ZM0 6C0 4.34315 1.34315 3 3 3H16C17.6569 3 19 4.34315 19 6V19C19 20.6569 17.6569 22 16 22H3C1.34315 22 0 20.6569 0 19V6Z" fill="#282828"/>
<path d="M5 1C5 0.447715 5.44772 0 6 0C6.55228 0 7 0.447715 7 1V5C7 5.55228 6.55228 6 6 6C5.44772 6 5 5.55228 5 5V1Z" fill="#282828"/>
<path d="M12 1C12 0.447715 12.4477 0 13 0C13.5523 0 14 0.447715 14 1V5C14 5.55228 13.5523 6 13 6C12.4477 6 12 5.55228 12 5V1Z" fill="#282828"/>
<path d="M4 10C4 9.44772 4.44772 9 5 9C5.55228 9 6 9.44772 6 10C6 10.5523 5.55228 11 5 11C4.44772 11 4 10.5523 4 10Z" fill="#282828"/>
<path d="M7 10C7 9.44772 7.44772 9 8 9C8.55228 9 9 9.44772 9 10C9 10.5523 8.55228 11 8 11C7.44772 11 7 10.5523 7 10Z" fill="#282828"/>
<path d="M10 10C10 9.44772 10.4477 9 11 9C11.5523 9 12 9.44772 12 10C12 10.5523 11.5523 11 11 11C10.4477 11 10 10.5523 10 10Z" fill="#282828"/>
<path d="M13 10C13 9.44772 13.4477 9 14 9C14.5523 9 15 9.44772 15 10C15 10.5523 14.5523 11 14 11C13.4477 11 13 10.5523 13 10Z" fill="#282828"/>
<path d="M4 13C4 12.4477 4.44772 12 5 12C5.55228 12 6 12.4477 6 13C6 13.5523 5.55228 14 5 14C4.44772 14 4 13.5523 4 13Z" fill="#282828"/>
<path d="M7 13C7 12.4477 7.44772 12 8 12C8.55228 12 9 12.4477 9 13C9 13.5523 8.55228 14 8 14C7.44772 14 7 13.5523 7 13Z" fill="#282828"/>
<path d="M10 13C10 12.4477 10.4477 12 11 12C11.5523 12 12 12.4477 12 13C12 13.5523 11.5523 14 11 14C10.4477 14 10 13.5523 10 13Z" fill="#282828"/>
<path d="M13 13C13 12.4477 13.4477 12 14 12C14.5523 12 15 12.4477 15 13C15 13.5523 14.5523 14 14 14C13.4477 14 13 13.5523 13 13Z" fill="#282828"/>
<path d="M4 16C4 15.4477 4.44772 15 5 15C5.55228 15 6 15.4477 6 16C6 16.5523 5.55228 17 5 17C4.44772 17 4 16.5523 4 16Z" fill="#282828"/>
<path d="M7 16C7 15.4477 7.44772 15 8 15C8.55228 15 9 15.4477 9 16C9 16.5523 8.55228 17 8 17C7.44772 17 7 16.5523 7 16Z" fill="#282828"/>
<path d="M10 16C10 15.4477 10.4477 15 11 15C11.5523 15 12 15.4477 12 16C12 16.5523 11.5523 17 11 17C10.4477 17 10 16.5523 10 16Z" fill="#282828"/>
<path d="M13 16C13 15.4477 13.4477 15 14 15C14.5523 15 15 15.4477 15 16C15 16.5523 14.5523 17 14 17C13.4477 17 13 16.5523 13 16Z" fill="#282828"/>
</g>
</svg>
