<svg width="22" height="22" viewBox="0 0 22 22" fill="none" xmlns="http://www.w3.org/2000/svg">
<g opacity="0.4">
<path d="M11.1181 7C11.6063 7 12.0039 7.04398 12.311 7.13193C12.626 7.21189 12.9213 7.37181 13.1968 7.61169C13.7323 8.09145 14 8.74313 14 9.56672C14 10.2784 13.7835 10.8541 13.3504 11.2939C12.8701 11.7656 12.2047 12.0015 11.3543 12.0015H10.3622V12.7571H12.5354V13.8366H10.3622V15H8.82677V13.8366H8V12.7571H8.82677V12.0015H8V10.6942H8.82677V7H11.1181ZM10.3622 8.34333V10.6942H10.9882C11.437 10.6942 11.7717 10.6102 11.9921 10.4423C12.2756 10.2184 12.4173 9.90655 12.4173 9.50675C12.4173 9.11494 12.2717 8.81109 11.9803 8.5952C11.7441 8.42729 11.3819 8.34333 10.8937 8.34333H10.3622Z" fill="black"/>
<path fill-rule="evenodd" clip-rule="evenodd" d="M11 2C6.02944 2 2 6.02944 2 11C2 15.9706 6.02944 20 11 20C15.9706 20 20 15.9706 20 11C20 6.02944 15.9706 2 11 2ZM0 11C0 4.92487 4.92487 0 11 0C17.0751 0 22 4.92487 22 11C22 17.0751 17.0751 22 11 22C4.92487 22 0 17.0751 0 11Z" fill="black"/>
</g>
</svg>
