<svg width="79" height="79" viewBox="0 0 79 79" fill="none" xmlns="http://www.w3.org/2000/svg">
<path d="M65.2227 15.125C64.3817 15.125 63.6992 15.8075 63.6992 16.6484C63.6992 17.4894 64.3817 18.1719 65.2227 18.1719C66.0636 18.1719 66.7461 17.4894 66.7461 16.6484C66.7461 15.8075 66.0636 15.125 65.2227 15.125Z" fill="#56973D"/>
<path d="M65.2227 45.5938C64.3817 45.5938 63.6992 46.2762 63.6992 47.1172C63.6992 47.9581 64.3817 48.6406 65.2227 48.6406C66.0636 48.6406 66.7461 47.9581 66.7461 47.1172C66.7461 46.2762 66.0636 45.5938 65.2227 45.5938Z" fill="#56973D"/>
<path d="M11.5977 30.3594C10.7567 30.3594 10.0742 31.0419 10.0742 31.8828C10.0742 32.7238 10.7567 33.4062 11.5977 33.4062C12.4386 33.4062 13.1211 32.7238 13.1211 31.8828C13.1211 31.0419 12.4386 30.3594 11.5977 30.3594Z" fill="#56973D"/>
<path d="M78.3853 45.9469L69.2447 38.3297C68.9709 38.1015 68.626 37.9766 68.2695 37.9766H44.5039V25.7891H68.2695C68.626 25.7891 68.9709 25.6641 69.2447 25.4359L78.3853 17.8187C78.7327 17.5293 78.9336 17.1006 78.9336 16.6484C78.9336 16.1963 78.7328 15.7676 78.3853 15.4781L69.2447 7.86095C68.9709 7.63273 68.626 7.50781 68.2695 7.50781H44.5039V5.07031C44.5039 3.85004 44.0284 2.70243 43.1648 1.8388C42.3013 0.975465 41.1539 0.5 39.9336 0.5C37.4135 0.5 35.3633 2.55024 35.3633 5.07031V22.7422H11.5977C11.2413 22.7422 10.8963 22.8671 10.6224 23.0953L1.48173 30.7125C1.13438 31.002 0.933594 31.4307 0.933594 31.8828C0.933594 32.335 1.13438 32.7637 1.48173 33.0531L10.6224 40.6703C10.8963 40.8985 11.2413 41.0234 11.5977 41.0234H35.3633V66.3125H26.896C24.9245 66.3125 23.1817 67.5689 22.5592 69.4383L20.5543 75.4531H15.5586C14.7172 75.4531 14.0352 76.1352 14.0352 76.9766C14.0352 77.818 14.7172 78.5 15.5586 78.5C15.9487 78.5 65.246 78.5 65.5273 78.5C66.3686 78.5 67.0508 77.818 67.0508 76.9766C67.0508 76.1352 66.3686 75.4531 65.5273 75.4531H59.3128L57.3081 69.4389C56.6856 67.5689 54.9426 66.3125 52.9712 66.3125H44.5039V56.2578H68.2695C68.626 56.2578 68.9709 56.1329 69.2447 55.9047L78.3853 48.2875C78.7327 47.998 78.9336 47.5693 78.9336 47.1172C78.9336 46.665 78.7328 46.2363 78.3853 45.9469ZM44.5039 10.5547H67.718L75.0305 16.6484L67.718 22.7422H44.5039V10.5547ZM38.4102 5.07031C38.4102 4.23029 39.0936 3.54688 39.9336 3.54688C40.34 3.54688 40.7226 3.70546 41.0104 3.99339C41.2984 4.28132 41.457 4.66371 41.457 5.07031V66.3125H38.4102V5.07031ZM12.1493 37.9766L4.83679 31.8828L12.1493 25.7891H35.3633V37.9766H12.1493ZM52.9712 69.3594C53.6287 69.3594 54.2097 69.778 54.4174 70.4019L56.1012 75.4531H23.766L25.45 70.4013C25.6575 69.7782 26.2387 69.3594 26.896 69.3594H52.9712ZM67.718 53.2109H44.5039V41.0234H67.718L75.0305 47.1172L67.718 53.2109Z" fill="#56973D"/>
<path d="M59.1289 15.125H49.0742C48.233 15.125 47.5508 15.807 47.5508 16.6484C47.5508 17.4898 48.233 18.1719 49.0742 18.1719H59.1289C59.9701 18.1719 60.6523 17.4898 60.6523 16.6484C60.6523 15.807 59.9701 15.125 59.1289 15.125Z" fill="#56973D"/>
<path d="M59.1289 45.5938H49.0742C48.233 45.5938 47.5508 46.2758 47.5508 47.1172C47.5508 47.9586 48.233 48.6406 49.0742 48.6406H59.1289C59.9701 48.6406 60.6523 47.9586 60.6523 47.1172C60.6523 46.2758 59.9701 45.5938 59.1289 45.5938Z" fill="#56973D"/>
<path d="M30.793 30.3594H17.6914C16.85 30.3594 16.168 31.0414 16.168 31.8828C16.168 32.7242 16.85 33.4062 17.6914 33.4062H30.793C31.6344 33.4062 32.3164 32.7242 32.3164 31.8828C32.3164 31.0414 31.6344 30.3594 30.793 30.3594Z" fill="#56973D"/>
</svg>
