<svg width="80" height="80" viewBox="0 0 80 80" fill="none" xmlns="http://www.w3.org/2000/svg">
<mask id="path-1-outside-1" maskUnits="userSpaceOnUse" x="-0.5" y="-0.496094" width="81" height="81" fill="black">
<rect fill="white" x="-0.5" y="-0.496094" width="81" height="81"/>
<path d="M31.7875 5.12772H34.0994V7.43955H31.7875V5.12772Z"/>
<path d="M36.4102 5.12772H38.7221V7.43955H36.4102V5.12772Z"/>
<path d="M31.7875 9.75236H34.0994V12.0642H31.7875V9.75236Z"/>
<path d="M36.4102 9.75236H38.7221V12.0642H36.4102V9.75236Z"/>
<path d="M39.6461 18.8457H41.958V21.1575H39.6461V18.8457Z"/>
<path d="M44.2716 18.8457H46.5835V21.1575H44.2716V18.8457Z"/>
<path d="M39.6461 23.4689H41.958V25.7807H39.6461V23.4689Z"/>
<path d="M44.2716 23.4689H46.5835V25.7807H44.2716V23.4689Z"/>
<path d="M39.6461 27.938H41.958V30.2498H39.6461V27.938Z"/>
<path d="M44.2716 27.938H46.5835V30.2498H44.2716V27.938Z"/>
<path d="M39.6461 32.4075H41.958V34.7193H39.6461V32.4075Z"/>
<path d="M44.2716 32.4075H46.5835V34.7193H44.2716V32.4075Z"/>
<path d="M7.22634 36.4672L10.8048 34.66L11.8474 36.7244L8.26898 38.5317L7.22634 36.4672Z"/>
<path d="M9.31215 40.5965L12.8906 38.7892L13.9333 40.8537L10.3548 42.661L9.31215 40.5965Z"/>
<path d="M11.3288 44.587L14.9073 42.7797L15.9499 44.8442L12.3715 46.6514L11.3288 44.587Z"/>
<path d="M79.5 34.5742L66.7034 28.1079L58.7117 44.7609C56.584 43.6081 54.3567 42.6581 52.054 41.9194V14.2209H44.1938V0.503906H26.4697V42.3923C24.6677 43.046 22.9161 43.832 21.227 44.7453L13.469 28.1018L0.670498 34.5691L9.82925 54.013C3.79223 61.1275 0.5 70.0562 0.5 79.4919H2.81183C2.81183 78.5109 2.85071 77.5389 2.92586 76.5769L15.4771 76.6432L19.1807 72.7915L25.539 74.748L28.2974 67.6548L23.3063 59.7379L20.3046 58.6464V54.3983L15.024 51.9823C21.6202 45.9988 30.3694 42.3483 39.9554 42.3483C47.7506 42.3483 54.9912 44.764 60.972 48.8834L45.9182 50.0244L40.8536 57.9832L48.2836 67.4867L55.1478 68.2493L60.1377 76.2023L69.9955 75.8372L71.444 70.0432L75.4648 68.5876C76.5264 72.0372 77.0991 75.6988 77.0991 79.492H79.411C79.411 70.0656 76.1252 61.1454 70.0995 54.0341L79.5 34.5742ZM17.9929 55.8828V60.2656L21.7728 61.64L25.7207 67.9023L24.1637 71.906L18.5004 70.1636L14.498 74.3262L3.18122 74.2663C4.30218 66.3399 7.93341 59.2103 13.2438 53.7103L17.9929 55.8828ZM12.0562 51.5927C11.8712 51.7777 11.6898 51.9655 11.5089 52.1536L3.72018 35.6183L12.3818 31.2415L19.2196 45.9107C16.6509 47.5034 14.2468 49.4021 12.0562 51.5927ZM34.3299 40.4339C32.4441 40.7015 30.591 41.1039 28.7815 41.6353V2.81574H41.882V14.2209H34.3299V40.4339ZM49.7423 41.2545C46.5823 40.4515 43.3009 40.0365 39.9556 40.0365C38.8431 40.0365 37.7382 40.0849 36.6419 40.1755V16.5327H49.7423V41.2545ZM60.7168 45.9263L67.767 31.2355L76.4304 35.6134L68.4277 52.1799C68.2385 51.9829 68.0482 51.7865 67.8546 51.5927C65.6714 49.4094 63.2758 47.5159 60.7168 45.9263ZM74.7145 66.4004L69.4996 68.2884L68.1738 73.5913L61.3863 73.8426L56.5125 66.075L49.5056 65.2964L43.6811 57.8463L47.2473 52.2423L63.7471 50.9915C68.6176 55.0642 72.4315 60.3591 74.7145 66.4004Z"/>
<path d="M68.3668 36.6756L69.4095 34.6112L72.9879 36.4184L71.9453 38.4829L68.3668 36.6756Z"/>
<path d="M66.2809 40.8027L67.3235 38.7382L70.9019 40.5454L69.8592 42.6099L66.2809 40.8027Z"/>
<path d="M64.2674 44.7899L65.3101 42.7254L68.8886 44.5327L67.8459 46.5971L64.2674 44.7899Z"/>
<path d="M60.7505 23.0398V25.3518H66.2657V19.8365H63.9538V21.3129L59.4343 16.7934L57.7996 18.4282L62.4112 23.0398H60.7505Z"/>
<path d="M18.6961 23.0398H17.0354L21.6471 18.4282L20.0123 16.7934L15.4928 21.3129V19.8365H13.1809V25.3518H18.6961V23.0398Z"/>
<path d="M37.4289 48.3603L28.0325 47.6087L25.226 53.0214L31.8143 64.1175L37.8015 63.1197L35.0279 57.2461L38.4456 55.6797L37.4289 48.3603ZM31.9387 56.1186L34.4053 61.3419L32.9946 61.577L27.8696 52.9454L29.3785 50.0355L35.3943 50.5169L35.9189 54.2945L31.9387 56.1186Z"/>
</mask>
<path d="M31.7875 5.12772H34.0994V7.43955H31.7875V5.12772Z" fill="#56973D"/>
<path d="M36.4102 5.12772H38.7221V7.43955H36.4102V5.12772Z" fill="#56973D"/>
<path d="M31.7875 9.75236H34.0994V12.0642H31.7875V9.75236Z" fill="#56973D"/>
<path d="M36.4102 9.75236H38.7221V12.0642H36.4102V9.75236Z" fill="#56973D"/>
<path d="M39.6461 18.8457H41.958V21.1575H39.6461V18.8457Z" fill="#56973D"/>
<path d="M44.2716 18.8457H46.5835V21.1575H44.2716V18.8457Z" fill="#56973D"/>
<path d="M39.6461 23.4689H41.958V25.7807H39.6461V23.4689Z" fill="#56973D"/>
<path d="M44.2716 23.4689H46.5835V25.7807H44.2716V23.4689Z" fill="#56973D"/>
<path d="M39.6461 27.938H41.958V30.2498H39.6461V27.938Z" fill="#56973D"/>
<path d="M44.2716 27.938H46.5835V30.2498H44.2716V27.938Z" fill="#56973D"/>
<path d="M39.6461 32.4075H41.958V34.7193H39.6461V32.4075Z" fill="#56973D"/>
<path d="M44.2716 32.4075H46.5835V34.7193H44.2716V32.4075Z" fill="#56973D"/>
<path d="M7.22634 36.4672L10.8048 34.66L11.8474 36.7244L8.26898 38.5317L7.22634 36.4672Z" fill="#56973D"/>
<path d="M9.31215 40.5965L12.8906 38.7892L13.9333 40.8537L10.3548 42.661L9.31215 40.5965Z" fill="#56973D"/>
<path d="M11.3288 44.587L14.9073 42.7797L15.9499 44.8442L12.3715 46.6514L11.3288 44.587Z" fill="#56973D"/>
<path d="M79.5 34.5742L66.7034 28.1079L58.7117 44.7609C56.584 43.6081 54.3567 42.6581 52.054 41.9194V14.2209H44.1938V0.503906H26.4697V42.3923C24.6677 43.046 22.9161 43.832 21.227 44.7453L13.469 28.1018L0.670498 34.5691L9.82925 54.013C3.79223 61.1275 0.5 70.0562 0.5 79.4919H2.81183C2.81183 78.5109 2.85071 77.5389 2.92586 76.5769L15.4771 76.6432L19.1807 72.7915L25.539 74.748L28.2974 67.6548L23.3063 59.7379L20.3046 58.6464V54.3983L15.024 51.9823C21.6202 45.9988 30.3694 42.3483 39.9554 42.3483C47.7506 42.3483 54.9912 44.764 60.972 48.8834L45.9182 50.0244L40.8536 57.9832L48.2836 67.4867L55.1478 68.2493L60.1377 76.2023L69.9955 75.8372L71.444 70.0432L75.4648 68.5876C76.5264 72.0372 77.0991 75.6988 77.0991 79.492H79.411C79.411 70.0656 76.1252 61.1454 70.0995 54.0341L79.5 34.5742ZM17.9929 55.8828V60.2656L21.7728 61.64L25.7207 67.9023L24.1637 71.906L18.5004 70.1636L14.498 74.3262L3.18122 74.2663C4.30218 66.3399 7.93341 59.2103 13.2438 53.7103L17.9929 55.8828ZM12.0562 51.5927C11.8712 51.7777 11.6898 51.9655 11.5089 52.1536L3.72018 35.6183L12.3818 31.2415L19.2196 45.9107C16.6509 47.5034 14.2468 49.4021 12.0562 51.5927ZM34.3299 40.4339C32.4441 40.7015 30.591 41.1039 28.7815 41.6353V2.81574H41.882V14.2209H34.3299V40.4339ZM49.7423 41.2545C46.5823 40.4515 43.3009 40.0365 39.9556 40.0365C38.8431 40.0365 37.7382 40.0849 36.6419 40.1755V16.5327H49.7423V41.2545ZM60.7168 45.9263L67.767 31.2355L76.4304 35.6134L68.4277 52.1799C68.2385 51.9829 68.0482 51.7865 67.8546 51.5927C65.6714 49.4094 63.2758 47.5159 60.7168 45.9263ZM74.7145 66.4004L69.4996 68.2884L68.1738 73.5913L61.3863 73.8426L56.5125 66.075L49.5056 65.2964L43.6811 57.8463L47.2473 52.2423L63.7471 50.9915C68.6176 55.0642 72.4315 60.3591 74.7145 66.4004Z" fill="#56973D"/>
<path d="M68.3668 36.6756L69.4095 34.6112L72.9879 36.4184L71.9453 38.4829L68.3668 36.6756Z" fill="#56973D"/>
<path d="M66.2809 40.8027L67.3235 38.7382L70.9019 40.5454L69.8592 42.6099L66.2809 40.8027Z" fill="#56973D"/>
<path d="M64.2674 44.7899L65.3101 42.7254L68.8886 44.5327L67.8459 46.5971L64.2674 44.7899Z" fill="#56973D"/>
<path d="M60.7505 23.0398V25.3518H66.2657V19.8365H63.9538V21.3129L59.4343 16.7934L57.7996 18.4282L62.4112 23.0398H60.7505Z" fill="#56973D"/>
<path d="M18.6961 23.0398H17.0354L21.6471 18.4282L20.0123 16.7934L15.4928 21.3129V19.8365H13.1809V25.3518H18.6961V23.0398Z" fill="#56973D"/>
<path d="M37.4289 48.3603L28.0325 47.6087L25.226 53.0214L31.8143 64.1175L37.8015 63.1197L35.0279 57.2461L38.4456 55.6797L37.4289 48.3603ZM31.9387 56.1186L34.4053 61.3419L32.9946 61.577L27.8696 52.9454L29.3785 50.0355L35.3943 50.5169L35.9189 54.2945L31.9387 56.1186Z" fill="#56973D"/>
<path d="M31.7875 5.12772H34.0994V7.43955H31.7875V5.12772Z" stroke="#56973D" stroke-width="0.4" mask="url(#path-1-outside-1)"/>
<path d="M36.4102 5.12772H38.7221V7.43955H36.4102V5.12772Z" stroke="#56973D" stroke-width="0.4" mask="url(#path-1-outside-1)"/>
<path d="M31.7875 9.75236H34.0994V12.0642H31.7875V9.75236Z" stroke="#56973D" stroke-width="0.4" mask="url(#path-1-outside-1)"/>
<path d="M36.4102 9.75236H38.7221V12.0642H36.4102V9.75236Z" stroke="#56973D" stroke-width="0.4" mask="url(#path-1-outside-1)"/>
<path d="M39.6461 18.8457H41.958V21.1575H39.6461V18.8457Z" stroke="#56973D" stroke-width="0.4" mask="url(#path-1-outside-1)"/>
<path d="M44.2716 18.8457H46.5835V21.1575H44.2716V18.8457Z" stroke="#56973D" stroke-width="0.4" mask="url(#path-1-outside-1)"/>
<path d="M39.6461 23.4689H41.958V25.7807H39.6461V23.4689Z" stroke="#56973D" stroke-width="0.4" mask="url(#path-1-outside-1)"/>
<path d="M44.2716 23.4689H46.5835V25.7807H44.2716V23.4689Z" stroke="#56973D" stroke-width="0.4" mask="url(#path-1-outside-1)"/>
<path d="M39.6461 27.938H41.958V30.2498H39.6461V27.938Z" stroke="#56973D" stroke-width="0.4" mask="url(#path-1-outside-1)"/>
<path d="M44.2716 27.938H46.5835V30.2498H44.2716V27.938Z" stroke="#56973D" stroke-width="0.4" mask="url(#path-1-outside-1)"/>
<path d="M39.6461 32.4075H41.958V34.7193H39.6461V32.4075Z" stroke="#56973D" stroke-width="0.4" mask="url(#path-1-outside-1)"/>
<path d="M44.2716 32.4075H46.5835V34.7193H44.2716V32.4075Z" stroke="#56973D" stroke-width="0.4" mask="url(#path-1-outside-1)"/>
<path d="M7.22634 36.4672L10.8048 34.66L11.8474 36.7244L8.26898 38.5317L7.22634 36.4672Z" stroke="#56973D" stroke-width="0.4" mask="url(#path-1-outside-1)"/>
<path d="M9.31215 40.5965L12.8906 38.7892L13.9333 40.8537L10.3548 42.661L9.31215 40.5965Z" stroke="#56973D" stroke-width="0.4" mask="url(#path-1-outside-1)"/>
<path d="M11.3288 44.587L14.9073 42.7797L15.9499 44.8442L12.3715 46.6514L11.3288 44.587Z" stroke="#56973D" stroke-width="0.4" mask="url(#path-1-outside-1)"/>
<path d="M79.5 34.5742L66.7034 28.1079L58.7117 44.7609C56.584 43.6081 54.3567 42.6581 52.054 41.9194V14.2209H44.1938V0.503906H26.4697V42.3923C24.6677 43.046 22.9161 43.832 21.227 44.7453L13.469 28.1018L0.670498 34.5691L9.82925 54.013C3.79223 61.1275 0.5 70.0562 0.5 79.4919H2.81183C2.81183 78.5109 2.85071 77.5389 2.92586 76.5769L15.4771 76.6432L19.1807 72.7915L25.539 74.748L28.2974 67.6548L23.3063 59.7379L20.3046 58.6464V54.3983L15.024 51.9823C21.6202 45.9988 30.3694 42.3483 39.9554 42.3483C47.7506 42.3483 54.9912 44.764 60.972 48.8834L45.9182 50.0244L40.8536 57.9832L48.2836 67.4867L55.1478 68.2493L60.1377 76.2023L69.9955 75.8372L71.444 70.0432L75.4648 68.5876C76.5264 72.0372 77.0991 75.6988 77.0991 79.492H79.411C79.411 70.0656 76.1252 61.1454 70.0995 54.0341L79.5 34.5742ZM17.9929 55.8828V60.2656L21.7728 61.64L25.7207 67.9023L24.1637 71.906L18.5004 70.1636L14.498 74.3262L3.18122 74.2663C4.30218 66.3399 7.93341 59.2103 13.2438 53.7103L17.9929 55.8828ZM12.0562 51.5927C11.8712 51.7777 11.6898 51.9655 11.5089 52.1536L3.72018 35.6183L12.3818 31.2415L19.2196 45.9107C16.6509 47.5034 14.2468 49.4021 12.0562 51.5927ZM34.3299 40.4339C32.4441 40.7015 30.591 41.1039 28.7815 41.6353V2.81574H41.882V14.2209H34.3299V40.4339ZM49.7423 41.2545C46.5823 40.4515 43.3009 40.0365 39.9556 40.0365C38.8431 40.0365 37.7382 40.0849 36.6419 40.1755V16.5327H49.7423V41.2545ZM60.7168 45.9263L67.767 31.2355L76.4304 35.6134L68.4277 52.1799C68.2385 51.9829 68.0482 51.7865 67.8546 51.5927C65.6714 49.4094 63.2758 47.5159 60.7168 45.9263ZM74.7145 66.4004L69.4996 68.2884L68.1738 73.5913L61.3863 73.8426L56.5125 66.075L49.5056 65.2964L43.6811 57.8463L47.2473 52.2423L63.7471 50.9915C68.6176 55.0642 72.4315 60.3591 74.7145 66.4004Z" stroke="#56973D" stroke-width="0.4" mask="url(#path-1-outside-1)"/>
<path d="M68.3668 36.6756L69.4095 34.6112L72.9879 36.4184L71.9453 38.4829L68.3668 36.6756Z" stroke="#56973D" stroke-width="0.4" mask="url(#path-1-outside-1)"/>
<path d="M66.2809 40.8027L67.3235 38.7382L70.9019 40.5454L69.8592 42.6099L66.2809 40.8027Z" stroke="#56973D" stroke-width="0.4" mask="url(#path-1-outside-1)"/>
<path d="M64.2674 44.7899L65.3101 42.7254L68.8886 44.5327L67.8459 46.5971L64.2674 44.7899Z" stroke="#56973D" stroke-width="0.4" mask="url(#path-1-outside-1)"/>
<path d="M60.7505 23.0398V25.3518H66.2657V19.8365H63.9538V21.3129L59.4343 16.7934L57.7996 18.4282L62.4112 23.0398H60.7505Z" stroke="#56973D" stroke-width="0.4" mask="url(#path-1-outside-1)"/>
<path d="M18.6961 23.0398H17.0354L21.6471 18.4282L20.0123 16.7934L15.4928 21.3129V19.8365H13.1809V25.3518H18.6961V23.0398Z" stroke="#56973D" stroke-width="0.4" mask="url(#path-1-outside-1)"/>
<path d="M37.4289 48.3603L28.0325 47.6087L25.226 53.0214L31.8143 64.1175L37.8015 63.1197L35.0279 57.2461L38.4456 55.6797L37.4289 48.3603ZM31.9387 56.1186L34.4053 61.3419L32.9946 61.577L27.8696 52.9454L29.3785 50.0355L35.3943 50.5169L35.9189 54.2945L31.9387 56.1186Z" stroke="#56973D" stroke-width="0.4" mask="url(#path-1-outside-1)"/>
</svg>
