<svg width="79" height="80" viewBox="0 0 79 80" fill="none" xmlns="http://www.w3.org/2000/svg">
<path d="M78.6572 17.5398C68.566 6.71042 54.2942 0.5 39.5 0.5C24.7058 0.5 10.4328 6.71042 0.342747 17.5398C0.122319 17.7755 0 18.0864 0 18.4088L0.00127414 78.2258C0.00127414 78.9292 0.572094 79.5 1.27543 79.5H77.7246C78.4279 79.5 78.9987 78.9292 78.9987 78.2258L79 18.4088C79 18.0864 78.8777 17.7755 78.6572 17.5398ZM74.6704 17.1346H4.3283C13.7647 8.14898 26.417 3.04839 39.5 3.04839C52.583 3.04839 65.2353 8.14898 74.6704 17.1346ZM12.7428 29.8065V25.9839C12.7428 25.2818 13.3149 24.7097 14.017 24.7097H64.9831C65.6851 24.7097 66.2572 25.2818 66.2572 25.9839V29.8065H12.7428ZM63.7089 32.3548V34.9032H15.2911V32.3548H63.7089ZM44.5966 61.6613H30.5809V47.6452C30.5809 46.9418 30.0101 46.371 29.3068 46.371H15.2911V42.5484H63.7089V76.9516H45.8708V62.9355C45.8708 62.2321 45.2999 61.6613 44.5966 61.6613ZM35.6775 64.2097H38.2258V66.7581H35.6775V64.2097ZM20.3877 64.2097H22.936V66.7581H20.3877V64.2097ZM15.2911 61.6613V48.9194H17.8394V52.7419C17.8394 53.4453 18.4102 54.0161 19.1136 54.0161H24.2102C24.9135 54.0161 25.4843 53.4453 25.4843 52.7419V48.9194H28.0326V61.6613H15.2911ZM63.7089 40H15.2911V37.4516H63.7089V40ZM20.3877 48.9194H22.936V51.4677H20.3877V48.9194ZM15.2911 64.2097H17.8394V68.0323C17.8394 68.7356 18.4102 69.3064 19.1136 69.3064H24.2102C24.9135 69.3064 25.4843 68.7356 25.4843 68.0323V64.2097H28.0326V76.9516H15.2911V64.2097ZM30.5809 76.9516V64.2097H33.1292V68.0323C33.1292 68.7356 33.7001 69.3064 34.4034 69.3064H39.5C40.2033 69.3064 40.7742 68.7356 40.7742 68.0323V64.2097H43.3225V76.9516H30.5809ZM66.2572 76.9516V32.3548H67.5314C68.2347 32.3548 68.8055 31.784 68.8055 31.0806V25.9839C68.8055 23.8764 67.0905 22.1613 64.9831 22.1613H14.017C11.9095 22.1613 10.1945 23.8764 10.1945 25.9839V31.0806C10.1945 31.784 10.7653 32.3548 11.4686 32.3548H12.7428V76.9516H2.54958L2.54831 19.6817H76.4517V42.5471H70.0797C69.3763 42.5471 68.8055 43.118 68.8055 43.8213V56.5632C68.8055 57.2666 69.3763 57.8374 70.0797 57.8374H76.4504V76.9503H66.2572V76.9516ZM76.4504 51.4677V55.2903H71.3538V45.0968H76.4517V48.9194H73.9034V51.4677H76.4504Z" fill="#56973D"/>
<path d="M26.7585 11.9677H52.2416V14.5161H26.7585V11.9677Z" fill="#56973D"/>
<path d="M26.7585 6.87097H52.2416V9.41935H26.7585V6.87097Z" fill="#56973D"/>
<path d="M17.8395 71.8548H25.4844V74.4032H17.8395V71.8548Z" fill="#56973D"/>
<path d="M17.8395 56.5645H25.4844V59.1129H17.8395V56.5645Z" fill="#56973D"/>
<path d="M33.1293 71.8548H40.7742V74.4032H33.1293V71.8548Z" fill="#56973D"/>
<path d="M6.3721 43.8226H8.92041V46.371H6.3721V43.8226Z" fill="#56973D"/>
<path d="M6.3721 48.9194H8.92041V51.4677H6.3721V48.9194Z" fill="#56973D"/>
<path d="M6.3721 54.0161H8.92041V56.5645H6.3721V54.0161Z" fill="#56973D"/>
</svg>
