<svg width="68" height="48" viewBox="0 0 68 48" fill="none" xmlns="http://www.w3.org/2000/svg">
<path d="M55.0507 15.3464H50.7696L52.0595 1.04513C52.0619 1.01922 52.0623 0.993697 52.0624 0.968175C52.0624 0.965995 52.0627 0.963943 52.0627 0.961762C52.0627 0.962147 52.0627 0.961378 52.0627 0.961762C52.0627 0.572517 51.8195 0.228417 51.4621 0.0792603C51.4591 0.0779778 51.4562 0.076439 51.4531 0.0751565C51.4309 0.0661789 51.4079 0.0584833 51.3848 0.0510447C51.3762 0.0483514 51.368 0.0450166 51.3593 0.0424516C51.3405 0.0369368 51.3211 0.0325763 51.3018 0.0280874C51.2883 0.0250094 51.2753 0.0212903 51.2616 0.0187253C51.2447 0.015519 51.2272 0.0134673 51.2099 0.0110305C51.1937 0.00872193 51.1778 0.00602825 51.1614 0.00461747C51.1586 0.00436097 51.1561 0.00384755 51.1533 0.00359104C51.1358 0.00205202 51.1185 0.0023086 51.1011 0.00166734C51.0895 0.00128258 51.078 0 51.0663 0H51.0539C51.0528 0 51.0517 0 51.0508 0H30.6811C30.1313 0 29.685 0.430927 29.685 0.96189C29.685 1.49157 30.1313 1.92378 30.6811 1.92378H49.9806L47.9982 23.903C47.998 23.9046 47.998 23.9063 47.9977 23.908L47.4975 29.4537H12.8853L13.4642 23.6826H20.0545C20.6047 23.6826 21.0506 23.252 21.0506 22.7208C21.0506 22.1895 20.6047 21.7589 20.0545 21.7589H13.6573L14.8797 9.57556H25.3686C25.9189 9.57556 26.3647 9.14489 26.3647 8.61367C26.3647 8.08245 25.9189 7.65178 25.3686 7.65178H15.0728L15.6476 1.92378H26.6967C27.2453 1.92378 27.6928 1.49157 27.6928 0.96189C27.6928 0.430927 27.2453 0 26.6967 0H14.7436C14.7441 0 14.743 0 14.7436 0C14.2757 -0.000128252 13.8683 0.318066 13.7702 0.758997C13.7695 0.762203 13.7683 0.765281 13.7677 0.768487C13.7626 0.79247 13.7593 0.816966 13.756 0.841591C13.755 0.849414 13.7533 0.856853 13.7525 0.864676C13.7524 0.866215 13.752 0.867625 13.7519 0.869164L13.0713 7.65178H0.996098C0.445853 7.65178 0 8.08245 0 8.61367C0 9.14489 0.445853 9.57556 0.996098 9.57556H12.8782L11.6558 21.7589H8.10186C7.55162 21.7589 7.10576 22.1895 7.10576 22.7208C7.10576 23.252 7.55162 23.6826 8.10186 23.6826H11.4628L10.7972 30.316C10.797 30.317 10.797 30.318 10.7969 30.3189L9.76773 40.5764C9.7676 40.5775 9.76747 40.5788 9.76733 40.5798L9.76694 40.5836C9.76561 40.5969 9.76574 40.61 9.76495 40.6233C9.76402 40.641 9.76216 40.6583 9.76216 40.6763C9.76216 40.6771 9.76229 40.6778 9.76229 40.6787C9.76229 40.7035 9.76415 40.7279 9.76601 40.7522C9.7668 40.76 9.76654 40.768 9.76747 40.7757C9.77012 40.8006 9.77451 40.8251 9.77916 40.8494C9.78048 40.8566 9.78115 40.8639 9.78261 40.871C9.78646 40.8895 9.79191 40.9073 9.79695 40.9254C9.80041 40.9381 9.80319 40.951 9.80718 40.9635C9.80838 40.9669 9.80997 40.9702 9.81103 40.9738C9.85924 41.117 9.94105 41.2455 10.0478 41.3504C10.0498 41.3523 10.0514 41.3545 10.0534 41.3563C10.064 41.3666 10.0756 41.3758 10.0868 41.3855C10.1554 41.4463 10.233 41.4979 10.3178 41.5383C10.3355 41.5467 10.3529 41.5556 10.371 41.5629C10.3764 41.5652 10.3823 41.5667 10.3878 41.5688C10.4128 41.5784 10.4379 41.5877 10.4638 41.5955C10.4662 41.5961 10.4685 41.5965 10.4708 41.5973C10.5003 41.6057 10.5301 41.6132 10.5605 41.6192C10.5645 41.62 10.5686 41.6202 10.5724 41.621C10.6014 41.6263 10.6305 41.6307 10.6601 41.6336C10.6594 41.6334 10.6608 41.6336 10.6601 41.6336C10.6928 41.6366 10.727 41.6384 10.7592 41.6384C10.7587 41.6384 10.7596 41.6384 10.7592 41.6384L15.195 41.6383C15.6847 45.2233 18.8676 48 22.7118 48C26.5558 48 29.7387 45.2233 30.2284 41.6383H46.2057C46.6955 45.2233 49.8782 48 53.7223 48C57.5663 48 60.7495 45.2233 61.2393 41.6383H65.6747C65.674 41.6383 65.6754 41.6383 65.6747 41.6383C65.7079 41.6383 65.7427 41.6365 65.7751 41.6334C65.781 41.6329 65.7865 41.6318 65.7924 41.6311C65.8183 41.6282 65.844 41.6247 65.8693 41.6198C65.8802 41.6178 65.8907 41.615 65.9014 41.6125C65.9209 41.6082 65.9406 41.6036 65.9597 41.598C65.9727 41.5943 65.9854 41.59 65.9981 41.5857C66.0145 41.5803 66.0308 41.5747 66.0469 41.5684C66.0607 41.5632 66.0738 41.5574 66.0872 41.5516C66.1018 41.5451 66.1164 41.5384 66.1307 41.5314C66.1442 41.5247 66.1572 41.5178 66.1702 41.5106C66.1839 41.5029 66.1975 41.4949 66.2109 41.4867C66.2234 41.479 66.2358 41.4712 66.2478 41.463C66.2613 41.4539 66.2742 41.4443 66.2874 41.4345C66.2983 41.4262 66.3093 41.418 66.3199 41.4093C66.3336 41.3981 66.3465 41.3864 66.3595 41.3745C66.3685 41.3662 66.378 41.358 66.3867 41.3492C66.4005 41.3356 66.4137 41.3213 66.4268 41.3068C66.4339 41.299 66.4412 41.2914 66.448 41.2834C66.4626 41.266 66.4758 41.248 66.4891 41.23C66.4936 41.2237 66.4987 41.2178 66.5031 41.2114C66.5193 41.1879 66.5345 41.1638 66.5486 41.1389C66.5497 41.1374 66.5508 41.136 66.5514 41.1343C66.5664 41.1076 66.5802 41.0803 66.5926 41.0521C66.596 41.044 66.5987 41.0357 66.602 41.0276C66.6101 41.0077 66.6181 40.9878 66.6249 40.9672C66.6292 40.9538 66.6324 40.9401 66.6363 40.9266C66.6407 40.9106 66.6453 40.8947 66.649 40.8784C66.6524 40.8639 66.6545 40.8491 66.657 40.8343C66.6593 40.8214 66.6622 40.8087 66.6639 40.7954C66.7061 40.4687 67.4862 34.4255 67.8345 30.518C67.8349 30.5142 67.8351 30.5104 67.8354 30.5067C67.9357 29.3802 68 28.4317 68 27.851C68 20.956 62.191 15.3464 55.0507 15.3464ZM50.5961 17.2704H54.6712L54.1507 23.0413H50.0756L50.5961 17.2704ZM22.7121 46.0761C19.6286 46.0761 17.12 43.6537 17.12 40.6762C17.12 37.6987 19.6287 35.2762 22.7121 35.2762C25.7955 35.2762 28.3041 37.6987 28.3041 40.6762C28.3041 43.6537 25.7955 46.0761 22.7121 46.0761ZM53.7223 46.0761C50.639 46.0761 48.1305 43.6537 48.1305 40.6762C48.1305 37.6987 50.6391 35.2762 53.7223 35.2762C56.8059 35.2762 59.3144 37.6987 59.3144 40.6762C59.3144 43.6537 56.8059 46.0761 53.7223 46.0761ZM64.7946 39.7139H61.2396C60.75 36.1286 57.567 33.3518 53.7226 33.3518C49.8785 33.3518 46.6955 36.1287 46.2059 39.7139H30.2288C29.7392 36.1286 26.5564 33.3518 22.7121 33.3518C18.8678 33.3518 15.6847 36.1287 15.1951 39.7139H11.8557L12.6923 31.377H48.4103C48.4098 31.377 48.4109 31.377 48.4103 31.377C48.4437 31.377 48.4782 31.3757 48.5109 31.3725C48.517 31.372 48.523 31.3707 48.5291 31.3699C48.5551 31.367 48.581 31.3634 48.6065 31.3585C48.6175 31.3563 48.6283 31.3534 48.6392 31.3508C48.6591 31.3462 48.679 31.3417 48.6984 31.3361C48.7117 31.3322 48.7243 31.3276 48.7372 31.3233C48.7539 31.3176 48.7707 31.3121 48.7869 31.3057C48.8008 31.3002 48.8142 31.294 48.8278 31.2879C48.8425 31.2813 48.8573 31.2748 48.8715 31.2676C48.885 31.2607 48.8983 31.2532 48.9117 31.2458C48.9254 31.2381 48.9389 31.2303 48.9522 31.2221C48.9651 31.214 48.9773 31.2055 48.9897 31.1971C49.0028 31.1881 49.0156 31.1788 49.0283 31.1692C49.0397 31.1604 49.051 31.1513 49.0622 31.1419C49.0748 31.1314 49.0872 31.1206 49.0991 31.1095C49.1092 31.1001 49.1193 31.0905 49.1291 31.0806C49.1411 31.0686 49.1526 31.0561 49.1641 31.0434C49.173 31.0334 49.1817 31.0234 49.1902 31.0131C49.2012 30.9997 49.2117 30.9858 49.2221 30.9718C49.2299 30.9613 49.2375 30.9508 49.2449 30.94C49.2546 30.9255 49.2639 30.9107 49.2728 30.8955C49.2796 30.8843 49.2865 30.873 49.2926 30.8614C49.301 30.8463 49.3082 30.8309 49.3157 30.8154C49.3216 30.8029 49.3276 30.7908 49.3329 30.7779C49.3394 30.7628 49.3448 30.7473 49.3505 30.7318C49.3554 30.718 49.3606 30.7043 49.365 30.6902C49.3694 30.6753 49.373 30.6601 49.377 30.6449C49.3808 30.6297 49.3851 30.6145 49.3881 30.599C49.3912 30.5839 49.393 30.5685 49.3954 30.5531C49.3978 30.5372 49.4006 30.5216 49.4022 30.5054C49.4025 30.5031 49.403 30.5009 49.4031 30.4986L49.9024 24.9645H55.0505C58.1024 24.9645 59.4789 26.4915 60.9359 28.1082C62.1383 29.4422 63.4806 30.9306 65.7624 31.2936C65.4726 34.2524 65.0041 38.0507 64.7946 39.7139ZM65.9326 29.366C64.4524 29.0746 63.5417 28.0698 62.4385 26.8457C61.0587 25.315 59.3742 23.447 56.1451 23.099L56.6604 17.3856C61.9416 18.1398 66.0078 22.545 66.0078 27.8512C66.0078 28.2117 65.9799 28.7355 65.9326 29.366Z" fill="white"/>
<path d="M22.7121 37.1491C20.6982 37.1491 19.0597 38.7312 19.0597 40.676C19.0597 42.6209 20.6982 44.203 22.7121 44.203C24.7259 44.203 26.3644 42.6209 26.3644 40.676C26.3644 38.7314 24.7259 37.1491 22.7121 37.1491ZM22.7121 42.2792C21.7966 42.2792 21.0519 41.5601 21.0519 40.676C21.0519 39.792 21.7966 39.0729 22.7121 39.0729C23.6276 39.0729 24.3723 39.792 24.3723 40.676C24.3723 41.5601 23.6274 42.2792 22.7121 42.2792Z" fill="white"/>
<path d="M53.7223 37.1491C51.7085 37.1491 50.07 38.7312 50.07 40.676C50.07 42.6209 51.7085 44.203 53.7223 44.203C55.7362 44.203 57.3747 42.6209 57.3747 40.676C57.3747 38.7314 55.7362 37.1491 53.7223 37.1491ZM53.7223 42.2792C52.8069 42.2792 52.0622 41.5601 52.0622 40.676C52.0622 39.792 52.8069 39.0729 53.7223 39.0729C54.6378 39.0729 55.3825 39.792 55.3825 40.676C55.3825 41.5601 54.6378 42.2792 53.7223 42.2792Z" fill="white"/>
<path d="M9.42972 15.3466H4.56C4.00976 15.3466 3.5639 15.7773 3.5639 16.3085C3.5639 16.8398 4.00976 17.2704 4.56 17.2704H9.42972C9.97997 17.2704 10.4258 16.8398 10.4258 16.3085C10.4258 15.7773 9.97997 15.3466 9.42972 15.3466Z" fill="white"/>
</svg>
