<svg width="11" height="10" viewBox="0 0 11 10" fill="none" xmlns="http://www.w3.org/2000/svg">
<path fill-rule="evenodd" clip-rule="evenodd" d="M3.43927 0.0598978C3.57232 -0.0155047 3.73458 -0.019971 3.87164 0.047996L7.31891 1.75737L10.3143 0.0598978C10.4561 -0.0204925 10.6304 -0.0199322 10.7717 0.061396C10.913 0.142724 11 0.292514 11 0.454546V7.72727C11 7.89039 10.9119 8.04099 10.7691 8.12192L7.56073 9.9401C7.42768 10.0155 7.26543 10.02 7.12836 9.952L3.68109 8.24263L0.685731 9.9401C0.543875 10.0205 0.369596 10.0199 0.228285 9.9386C0.0869746 9.85728 0 9.70749 0 9.54545V2.27273C0 2.10961 0.0881308 1.95901 0.230936 1.87808L3.43927 0.0598978ZM3.68109 0.969904L0.916667 2.53651V8.76218L3.43927 7.33262C3.57232 7.25722 3.73458 7.25276 3.87164 7.32072L7.31891 9.0301L10.0833 7.46349V1.23782L7.56073 2.66738C7.42768 2.74278 7.26543 2.74724 7.12836 2.67928L3.68109 0.969904Z" fill="#999999"/>
<path fill-rule="evenodd" clip-rule="evenodd" d="M3.66667 1.6705e-07C3.9198 1.6705e-07 4.125 0.203507 4.125 0.454546V7.72727C4.125 7.97831 3.9198 8.18182 3.66667 8.18182C3.41354 8.18182 3.20833 7.97831 3.20833 7.72727V0.454546C3.20833 0.203507 3.41354 1.6705e-07 3.66667 1.6705e-07Z" fill="#999999"/>
<path fill-rule="evenodd" clip-rule="evenodd" d="M7.33333 1.81818C7.58646 1.81818 7.79167 2.02169 7.79167 2.27273V9.54545C7.79167 9.79649 7.58646 10 7.33333 10C7.0802 10 6.875 9.79649 6.875 9.54545V2.27273C6.875 2.02169 7.0802 1.81818 7.33333 1.81818Z" fill="#999999"/>
</svg>
