<svg width="9" height="11" viewBox="0 0 9 11" fill="none" xmlns="http://www.w3.org/2000/svg">
<path fill-rule="evenodd" clip-rule="evenodd" d="M0.439342 0.439346C0.720647 0.158042 1.10218 0 1.5 0H5C5.13261 0 5.25979 0.0526856 5.35355 0.146454L8.85355 3.64645C8.94732 3.74022 9 3.86739 9 4V9.5C9 9.89783 8.84197 10.2793 8.56066 10.5607C8.27936 10.842 7.89783 11 7.5 11H1.5C1.10217 11 0.720647 10.842 0.439342 10.5607C0.158038 10.2793 0 9.89783 0 9.5V1.5C0 1.10218 0.158038 0.720651 0.439342 0.439346ZM1.5 1C1.36739 1 1.24022 1.05269 1.14645 1.14645C1.05268 1.24022 1 1.36739 1 1.5V9.5C1 9.63261 1.05268 9.75978 1.14645 9.85355C1.24022 9.94732 1.36739 10 1.5 10H7.5C7.63261 10 7.75979 9.94732 7.85355 9.85355C7.94732 9.75978 8 9.63261 8 9.5V4.20711L4.7929 1H1.5Z" fill="black"/>
<path fill-rule="evenodd" clip-rule="evenodd" d="M5 0C5.27614 0 5.5 0.223858 5.5 0.5V3.5H8.5C8.77614 3.5 9 3.72386 9 4C9 4.27614 8.77614 4.5 8.5 4.5H5C4.72386 4.5 4.5 4.27614 4.5 4V0.5C4.5 0.223858 4.72386 0 5 0Z" fill="black"/>
</svg>
