<svg width="10" height="11" viewBox="0 0 10 11" fill="none" xmlns="http://www.w3.org/2000/svg">
<path fill-rule="evenodd" clip-rule="evenodd" d="M1.5 2C1.22386 2 1 2.22386 1 2.5V9.5C1 9.77614 1.22386 10 1.5 10H8.5C8.77614 10 9 9.77614 9 9.5V2.5C9 2.22386 8.77614 2 8.5 2H1.5ZM0 2.5C0 1.67157 0.671573 1 1.5 1H8.5C9.32843 1 10 1.67157 10 2.5V9.5C10 10.3284 9.32843 11 8.5 11H1.5C0.671573 11 0 10.3284 0 9.5V2.5Z" fill="#282828"/>
<path fill-rule="evenodd" clip-rule="evenodd" d="M7 0C7.27614 0 7.5 0.223858 7.5 0.5V2.5C7.5 2.77614 7.27614 3 7 3C6.72386 3 6.5 2.77614 6.5 2.5V0.5C6.5 0.223858 6.72386 0 7 0Z" fill="#282828"/>
<path fill-rule="evenodd" clip-rule="evenodd" d="M3 0C3.27614 0 3.5 0.223858 3.5 0.5V2.5C3.5 2.77614 3.27614 3 3 3C2.72386 3 2.5 2.77614 2.5 2.5V0.5C2.5 0.223858 2.72386 0 3 0Z" fill="#282828"/>
<path fill-rule="evenodd" clip-rule="evenodd" d="M0 4.5C0 4.22386 0.223858 4 0.5 4H9.5C9.77614 4 10 4.22386 10 4.5C10 4.77614 9.77614 5 9.5 5H0.5C0.223858 5 0 4.77614 0 4.5Z" fill="#282828"/>
</svg>
