<svg width="11" height="10" viewBox="0 0 11 10" fill="none" xmlns="http://www.w3.org/2000/svg">
<path fill-rule="evenodd" clip-rule="evenodd" d="M4.75 0.999998C2.817 0.999998 1.25 2.567 1.25 4.49999C1.25 6.43298 2.817 7.99998 4.75 7.99998C6.68299 7.99998 8.24999 6.43298 8.24999 4.49999C8.24999 2.567 6.68299 0.999998 4.75 0.999998ZM0.25 4.49999C0.25 2.01471 2.26472 0 4.75 0C7.23528 0 9.24999 2.01471 9.24999 4.49999C9.24999 6.98527 7.23528 8.99998 4.75 8.99998C2.26472 8.99998 0.25 6.98527 0.25 4.49999Z" fill="#282828"/>
<path fill-rule="evenodd" clip-rule="evenodd" d="M7.22145 6.97142C7.41671 6.77616 7.73329 6.77616 7.92855 6.97142L10.1036 9.1464C10.2988 9.34166 10.2988 9.65829 10.1036 9.85355C9.90829 10.0488 9.59171 10.0488 9.39645 9.85355L7.22145 7.67851C7.02618 7.48325 7.02618 7.16668 7.22145 6.97142Z" fill="#282828"/>
</svg>
