<svg width="101" height="109" viewBox="0 0 101 109" fill="none" xmlns="http://www.w3.org/2000/svg">
<path d="M50.5 -3.13333H46.6154V8.46667H50.5V-3.13333Z" fill="#D8D8D8"/>
<path d="M95.1731 60.6667V41.3333C95.1731 40.2656 94.3034 39.4 93.2308 39.4H85.4615V29.7333C85.4615 28.6656 84.5919 27.8 83.5192 27.8H71.5352C70.2844 20.2107 65.3065 13.7454 58.2692 10.5701V4.6H54.3846V11.85C54.3841 12.6465 54.8746 13.3619 55.6199 13.6519C65.6031 17.5202 70.5458 28.7121 66.6593 38.6491C66.5605 38.9014 66.4565 39.1518 66.3473 39.4H53.025C55.0278 37.1249 54.7983 33.6645 52.5127 31.671C52.1527 31.3569 51.7528 31.091 51.3235 30.8798L47.538 28.9948C46.7183 28.5873 46.3859 27.5958 46.7953 26.7799C47.0752 26.2219 47.6475 25.8686 48.2741 25.8667H48.8413C49.7568 25.8676 50.499 26.6064 50.5 27.5177V27.8H54.3846V27.5177C54.3756 25.1156 52.8038 22.9961 50.5 22.2803V20.0667H46.6154V22.2803C43.7022 23.1822 42.0752 26.264 42.9813 29.1637C43.429 30.5966 44.4458 31.7851 45.7957 32.4535L49.5813 34.3385C50.4009 34.746 50.7333 35.7375 50.324 36.5534C50.0433 37.1126 49.4694 37.4662 48.8413 37.4667H48.2741C47.3586 37.4657 46.6164 36.7269 46.6154 35.8156V35.5333H42.7308V35.8156C42.7354 37.1344 43.218 38.4072 44.0904 39.4H30.7681C29.6872 36.964 29.1307 34.3296 29.1346 31.6667C29.1489 24.1131 33.5665 17.2546 40.4563 14.0888C40.7982 13.9341 41.1451 13.7879 41.4974 13.6499C42.2413 13.3597 42.7308 12.6453 42.7308 11.85V0.733333H38.8462V10.5721H38.8345C31.8376 13.7913 26.8837 20.2358 25.5918 27.8H7.76923C3.47843 27.8 0 31.2624 0 35.5333V101.267C0 105.538 3.47843 109 7.76923 109H93.2308C94.3034 109 95.1731 108.134 95.1731 107.067V87.7333C98.3912 87.7333 101 85.1366 101 81.9333V66.4667C101 63.2634 98.3912 60.6667 95.1731 60.6667ZM71.8654 31.6667H81.5769V39.4H70.5058C71.4031 36.9193 71.863 34.3032 71.8654 31.6667ZM7.76923 105.133C5.62371 105.133 3.88462 103.402 3.88462 101.267V42.1917C5.06044 42.8875 6.40136 43.2587 7.76923 43.2667V105.133ZM3.88462 35.5333C3.88462 33.3977 5.62371 31.6667 7.76923 31.6667H25.25C25.2524 34.3032 25.7123 36.9193 26.6096 39.4H7.76923C5.62371 39.4 3.88462 37.6689 3.88462 35.5333ZM91.2885 105.133H11.6538V43.2667H91.2885V60.6667H66.0385C58.5295 60.6667 52.4423 66.7257 52.4423 74.2C52.4423 81.6743 58.5295 87.7333 66.0385 87.7333H91.2885V105.133ZM97.1154 81.9333C97.1154 83.001 96.2457 83.8667 95.1731 83.8667H66.0385C60.675 83.8667 56.3269 79.5387 56.3269 74.2C56.3269 68.8613 60.675 64.5333 66.0385 64.5333H95.1731C96.2457 64.5333 97.1154 65.399 97.1154 66.4667V81.9333Z" fill="#D8D8D8"/>
<path d="M66.0385 68.4C62.8203 68.4 60.2115 70.9967 60.2115 74.2C60.2115 77.4033 62.8203 80 66.0385 80C69.2566 80 71.8654 77.4033 71.8654 74.2C71.8654 70.9967 69.2566 68.4 66.0385 68.4ZM66.0385 76.1333C64.9658 76.1333 64.0962 75.2677 64.0962 74.2C64.0962 73.1323 64.9658 72.2667 66.0385 72.2667C67.1111 72.2667 67.9808 73.1323 67.9808 74.2C67.9808 75.2677 67.1111 76.1333 66.0385 76.1333Z" fill="#D8D8D8"/>
<path d="M58.2692 -3.13333H54.3846V0.733333H58.2692V-3.13333Z" fill="#D8D8D8"/>
<path d="M42.7308 -7H38.8462V-3.13333H42.7308V-7Z" fill="#D8D8D8"/>
<path d="M62.1538 29.7333H58.2692V33.6H62.1538V29.7333Z" fill="#D8D8D8"/>
<path d="M38.8462 29.7333H34.9615V33.6H38.8462V29.7333Z" fill="#D8D8D8"/>
</svg>
