<svg width="91" height="109" viewBox="0 0 91 109" fill="none" xmlns="http://www.w3.org/2000/svg">
<path d="M7.27816 18.0884C8.53063 19.9392 10.5951 20.9528 12.6998 20.9528C13.815 20.9528 14.9416 20.6683 15.9651 20.0731L16.5872 19.7113C19.5422 17.9926 20.6728 14.2441 19.161 11.1773L15.7069 4.17044C14.9096 2.55346 13.4628 1.32753 11.7375 0.80689C10.0119 0.28625 8.12862 0.507375 6.57084 1.4134L5.02416 2.31285C3.46616 3.2191 2.34255 4.74681 1.94122 6.50426C1.54011 8.26193 1.88935 10.1263 2.89971 11.6194L7.27816 18.0884ZM5.25337 7.26075C5.4486 6.40548 5.97382 5.69158 6.73187 5.25046L8.27833 4.35101C8.76459 4.06803 9.30114 3.92416 9.84494 3.92416C10.1489 3.92416 10.4553 3.96925 10.7565 4.0601C11.5964 4.31363 12.2722 4.88638 12.6602 5.67323L16.1143 12.6801C16.8393 14.151 16.2971 15.9487 14.8797 16.773L14.2574 17.135C12.84 17.9595 11.0102 17.541 10.0909 16.1832L5.71313 9.71374C5.22143 8.98738 5.05813 8.11602 5.25337 7.26075Z" fill="#D8D8D8"/>
<path d="M31.6285 7.79498C31.8724 11.1991 34.7302 13.8587 38.1399 13.8587H38.1599L38.8799 13.8567C42.298 13.8462 45.1506 11.1656 45.3742 7.75352L45.8849 -0.0424924C46.0029 -1.8414 45.3626 -3.62671 44.1287 -4.94077C42.8991 -6.2503 41.1658 -7 39.3705 -7C39.3641 -7 39.3573 -7 39.351 -7L37.5622 -6.99456C35.7598 -6.98913 34.0231 -6.2281 32.7969 -4.90656C31.5707 -3.58502 30.9415 -1.79586 31.0704 0.00236702L31.6285 7.79498ZM35.2871 -2.59472C35.8837 -3.2377 36.6954 -3.59341 37.5726 -3.59612L39.3612 -3.60156H39.3709C40.2442 -3.60156 41.0544 -3.25107 41.6525 -2.61398C42.2532 -1.97462 42.5521 -1.14019 42.4948 -0.26475L41.9841 7.53104C41.8768 9.1675 40.5088 10.453 38.8697 10.458L38.1497 10.46C36.5047 10.4648 35.1342 9.18766 35.0172 7.55188L34.4591 -0.240508C34.3963 -1.11549 34.6903 -1.95151 35.2871 -2.59472Z" fill="#D8D8D8"/>
<path d="M60.487 19.5778C60.487 19.578 60.487 19.578 60.487 19.5778L61.1116 19.936C62.1263 20.5181 63.2401 20.796 64.3425 20.796C66.4612 20.796 68.5374 19.769 69.7865 17.899L74.1256 11.4032C75.1269 9.90405 75.465 8.03786 75.053 6.28245C74.6413 4.52727 73.5081 3.00636 71.9447 2.10985L70.3926 1.21969C68.8292 0.322953 66.9443 0.113383 65.2221 0.644445C63.4999 1.17573 62.0606 2.4105 61.2731 4.03223L57.8615 11.0597C56.3683 14.1356 57.5216 17.8772 60.487 19.5778ZM60.9175 12.5444L64.3291 5.5169C64.7123 4.72756 65.385 4.1505 66.223 3.89199C67.0617 3.63348 67.9418 3.73159 68.7028 4.16772L70.2547 5.05788C71.0154 5.49424 71.545 6.20497 71.7454 7.05911C71.9458 7.91325 71.788 8.78551 71.3008 9.51482L66.9618 16.0106C66.0511 17.374 64.2235 17.8032 62.8012 16.9875L62.1768 16.6293C60.7544 15.8139 60.2014 14.0196 60.9175 12.5444Z" fill="#D8D8D8"/>
<path d="M88.7106 75.4552C88.7106 74.3015 89.2508 72.8105 89.7731 71.3687C90.6793 68.867 91.7066 66.0311 90.3284 63.6479C88.9061 61.1881 85.8796 60.6638 83.2093 60.2014C81.7437 59.9476 80.228 59.6851 79.3024 59.1495C78.5695 58.7246 77.7802 57.8358 77.001 56.8992V52.305C77.001 48.7795 74.1348 45.9114 70.6118 45.9114H70.5668C72.7519 43.723 73.9555 40.8153 73.9555 37.7228C73.9555 32.9464 71.2157 28.8438 66.8055 27.0156C62.3938 25.1871 57.5553 26.1486 54.1775 29.526L48.687 35.0181V27.943C48.687 22.326 44.1172 17.7567 38.5003 17.7567C32.8852 17.7567 28.3174 22.3263 28.3174 27.943V35.0192L22.8265 29.5257C18.9744 25.6721 13.0479 25.0196 8.4149 27.9393C7.62106 28.4396 7.38302 29.4888 7.88311 30.2827C8.38319 31.0765 9.43205 31.3151 10.2257 30.8146C12.9999 29.0665 17.2293 28.733 20.4241 31.9286L34.4002 45.9114H14.6336C12.4468 45.9114 10.3912 45.0598 8.84522 43.5137C7.29809 41.9658 6.44605 39.9098 6.44605 37.7234C6.44605 36.8353 6.57492 35.978 6.82881 35.1755C7.11192 34.2808 6.61636 33.3259 5.72219 33.0424C4.82734 32.7592 3.87315 33.2549 3.59005 34.1494C3.23084 35.2843 3.04874 36.4866 3.04874 37.7232C3.04874 40.8147 4.25252 43.7224 6.43812 45.9112H6.39146C2.8671 45.9112 0 48.7795 0 52.3048V62.0809C0 64.5301 1.38542 66.6609 3.41316 67.7335V97.3162C3.41316 103.759 8.65271 109 15.0931 109H61.9057C68.2294 109 73.3922 103.95 73.5811 97.6716C74.7106 96.7928 75.6768 95.6194 76.5802 94.5211C77.4927 93.4116 78.4365 92.2643 79.3028 91.7629C80.0684 91.3191 81.2262 91.066 82.3631 90.8589C83.286 90.6908 83.898 89.8061 83.73 88.8828C83.5619 87.9596 82.6775 87.3472 81.7546 87.5155C80.0906 87.8187 78.7473 88.1569 77.6003 88.8221C76.2036 89.6303 75.0616 91.0189 73.9571 92.3619C72.6224 93.9846 71.2424 95.6625 69.8898 95.6625C68.539 95.6625 67.1595 93.985 65.8255 92.3631C64.7209 91.0198 63.5785 89.6307 62.1818 88.8226C60.7293 87.9818 58.9095 87.6664 57.1497 87.3617C55.1192 87.0101 53.0197 86.6464 52.3919 85.5612C51.8066 84.5491 52.5158 82.5928 53.2016 80.7008C53.8244 78.9827 54.4683 77.2065 54.4683 75.4556C54.4683 73.7047 53.8244 71.9283 53.2016 70.2105C52.5158 68.3184 51.8066 66.3623 52.3916 65.3507C53.0197 64.2659 55.1201 63.9021 57.1513 63.5504C58.9104 63.2457 60.7293 62.9308 62.1824 62.0907C63.5787 61.2816 64.7205 59.8928 65.8248 58.5497C67.159 56.9269 68.5388 55.2487 69.89 55.2487C71.2428 55.2487 72.623 56.9273 73.958 58.5509C75.0621 59.8935 76.2038 61.2821 77.6006 62.0914C79.0517 62.931 80.8708 63.2459 82.6299 63.5507C84.6608 63.9023 86.761 64.2659 87.3877 65.35C87.9734 66.3625 87.2645 68.3191 86.5792 70.2114C85.957 71.9292 85.3136 73.7052 85.3136 75.4556C85.3136 77.206 85.957 78.9823 86.5792 80.6999C87.2645 82.5921 87.9734 84.5487 87.3866 85.5632C87.3189 85.6811 87.2383 85.7855 87.1406 85.8834C86.4773 86.547 86.4773 87.6229 87.1406 88.2863C87.804 88.9499 88.8796 88.9499 89.5428 88.2863C89.8494 87.9795 90.1142 87.6345 90.3284 87.2627C91.7068 84.8795 90.6795 82.0436 89.7733 79.5419C89.2506 78.0998 88.7106 76.6088 88.7106 75.4552ZM56.5792 31.9293C59.4329 29.0765 63.061 29.1422 65.5048 30.1551C67.9477 31.1679 70.5582 33.6875 70.5582 37.7228C70.5582 39.9098 69.7066 41.966 68.1613 43.5119C66.6173 45.0532 64.5703 45.9044 62.3953 45.9114H42.602L56.5792 31.9293ZM31.7145 27.943C31.7145 24.2001 34.7585 21.1551 38.5001 21.1551C42.2437 21.1551 45.2895 24.2001 45.2895 27.943V38.4165L38.5007 45.2075L31.7143 38.4179V27.943H31.7145ZM56.5696 90.7098C58.0359 90.9638 59.552 91.2264 60.4799 91.7636C61.3449 92.2643 62.2889 93.4118 63.2016 94.5218C64.9513 96.6494 66.9344 99.0607 69.8896 99.0607C69.9292 99.0607 69.9679 99.0587 70.0071 99.0578C69.2047 102.793 65.8778 105.602 61.9057 105.602H15.0931C10.526 105.602 6.81046 101.885 6.81046 97.3162V68.4725H49.0738C49.3146 69.4571 49.6693 70.4359 50.0074 71.3684C50.5301 72.8105 51.0705 74.3015 51.0705 75.4552C51.0705 76.6088 50.5299 78.0998 50.0074 79.5419C49.1006 82.0436 48.0725 84.8792 49.4509 87.2629C50.8746 89.7234 53.9003 90.2474 56.5696 90.7098ZM69.8896 51.8496C66.9339 51.8496 64.9504 54.262 63.2005 56.3904C62.2878 57.5003 61.3442 58.6481 60.4806 59.1488C59.5529 59.6851 58.0373 59.9474 56.5715 60.2014C53.9014 60.6638 50.8753 61.1878 49.4512 63.6476C49.1848 64.108 49.0093 64.5856 48.9042 65.0741H6.39146C4.74037 65.0741 3.39731 63.7315 3.39731 62.0812V52.305C3.39731 50.6534 4.7406 49.3098 6.39146 49.3098H70.6118C72.2616 49.3098 73.6037 50.6536 73.6037 52.305V53.2563C72.5395 52.423 71.3303 51.8496 69.8896 51.8496Z" fill="#D8D8D8"/>
<path d="M65.4869 86.051C65.7016 86.1412 65.9245 86.1838 66.1435 86.1838C66.8073 86.1838 67.4376 85.7923 67.7105 85.1416L75.4528 66.6876C75.8158 65.8224 75.4088 64.8264 74.5439 64.4632C73.6792 64.1003 72.6833 64.5072 72.3202 65.3725L64.578 83.8264C64.2147 84.6919 64.6217 85.6879 65.4869 86.051Z" fill="#D8D8D8"/>
<path d="M68.563 69.1468C68.563 66.0172 66.2665 63.4709 63.4435 63.4709C60.6206 63.4709 58.324 66.017 58.324 69.1468C58.324 72.2765 60.6206 74.8226 63.4435 74.8226C66.2665 74.8226 68.563 72.2765 68.563 69.1468ZM63.4435 71.4242C62.51 71.4242 61.7213 70.3813 61.7213 69.1468C61.7213 67.9122 62.51 66.8693 63.4435 66.8693C64.3771 66.8693 65.1657 67.9122 65.1657 69.1468C65.1657 70.3813 64.3769 71.4242 63.4435 71.4242Z" fill="#D8D8D8"/>
<path d="M76.3368 87.4399C79.1597 87.4399 81.4563 84.8938 81.4563 81.764C81.4563 78.6343 79.1597 76.0882 76.3368 76.0882C73.5138 76.0882 71.2172 78.6343 71.2172 81.764C71.2172 84.8938 73.5138 87.4399 76.3368 87.4399ZM76.3368 79.4866C77.2703 79.4866 78.059 80.5295 78.059 81.764C78.059 82.9986 77.2703 84.0414 76.3368 84.0414C75.4032 84.0414 74.6145 82.9986 74.6145 81.764C74.6145 80.5295 75.4032 79.4866 76.3368 79.4866Z" fill="#D8D8D8"/>
</svg>
