<svg width="118" height="109" viewBox="0 0 118 109" fill="none" xmlns="http://www.w3.org/2000/svg">
<path d="M110.133 16.5932H94.4V0.864407C94.4 -3.47896 90.8779 -7 86.5333 -7H15.7333C11.3887 -7 7.86667 -3.47896 7.86667 0.864407V95.2373H1.96667C0.880575 95.2373 0 96.1176 0 97.2034V101.136C0 105.479 3.52205 109 7.86667 109H74.7333C79.0779 109 82.6 105.479 82.6 101.136V79.5085H98.3333C102.678 79.5085 106.2 75.9874 106.2 71.6441V53.9492H116.033C117.119 53.9492 118 53.0688 118 51.983V24.4576C118 20.1143 114.478 16.5932 110.133 16.5932ZM7.86667 105.068C5.69424 105.068 3.93333 103.307 3.93333 101.136V99.1695H66.8667V101.136C66.8645 102.517 67.229 103.874 67.9228 105.068H7.86667ZM78.6667 0.864407V101.136C78.6667 103.307 76.9058 105.068 74.7333 105.068C72.5609 105.068 70.8 103.307 70.8 101.136V97.2034C70.8 96.1176 69.9194 95.2373 68.8333 95.2373H11.8V0.864407C11.8 -1.3074 13.5609 -3.0678 15.7333 -3.0678H79.7601C79.0524 -1.87757 78.6748 -0.52022 78.6667 0.864407ZM82.6 75.5763V0.864407C82.6 -1.3074 84.3609 -3.0678 86.5333 -3.0678C88.7058 -3.0678 90.4667 -1.3074 90.4667 0.864407V71.6441C90.4748 73.0287 90.8524 74.386 91.5601 75.5763H82.6ZM102.267 24.4576V71.6441C102.267 73.8159 100.506 75.5763 98.3333 75.5763C96.1609 75.5763 94.4 73.8159 94.4 71.6441V20.5254H103.36C102.652 21.7157 102.275 23.073 102.267 24.4576ZM114.067 50.0169H106.2V24.4576C106.2 22.2858 107.961 20.5254 110.133 20.5254C112.306 20.5254 114.067 22.2858 114.067 24.4576V50.0169Z" fill="#D8D8D8"/>
<path d="M64.9 46.0847H19.6667V50.0169H64.9V46.0847Z" fill="#D8D8D8"/>
<path d="M72.7667 38.2203H31.4667V42.1525H72.7667V38.2203Z" fill="#D8D8D8"/>
<path d="M50.8796 19.1386C50.4263 17.6815 49.3968 16.4728 48.0299 15.793L44.1969 13.8761C43.367 13.4617 43.0304 12.4533 43.4449 11.6237C43.7291 11.055 44.3102 10.6954 44.9462 10.6949H45.5205C46.4475 10.6959 47.199 11.4472 47.2 12.374V12.661H51.1333V12.374C51.1242 9.93108 49.5327 7.77575 47.2 7.0478V4.79661H43.2667V7.0478C40.3169 7.96498 38.6696 11.0989 39.587 14.0479C40.0404 15.505 41.0699 16.7136 42.4367 17.3934L46.2698 19.3104C47.0997 19.7247 47.4362 20.7331 47.0218 21.5628C46.7376 22.1315 46.1564 22.491 45.5205 22.4915H44.9462C44.0192 22.4905 43.2677 21.7392 43.2667 20.8125V20.5254H39.3333V20.8125C39.3424 23.2554 40.934 25.4107 43.2667 26.1386V28.3898H47.2V26.1386C50.1498 25.2215 51.7971 22.0875 50.8796 19.1386Z" fill="#D8D8D8"/>
<path d="M27.5333 38.2203H23.6V42.1525H27.5333V38.2203Z" fill="#D8D8D8"/>
<path d="M64.9 63.7797H19.6667V67.7119H64.9V63.7797Z" fill="#D8D8D8"/>
<path d="M72.7667 55.9153H31.4667V59.8475H72.7667V55.9153Z" fill="#D8D8D8"/>
<path d="M27.5333 55.9153H23.6V59.8475H27.5333V55.9153Z" fill="#D8D8D8"/>
<path d="M64.9 81.4746H19.6667V85.4068H64.9V81.4746Z" fill="#D8D8D8"/>
<path d="M72.7667 73.6102H31.4667V77.5424H72.7667V73.6102Z" fill="#D8D8D8"/>
<path d="M27.5333 73.6102H23.6V77.5424H27.5333V73.6102Z" fill="#D8D8D8"/>
</svg>
