<svg width="116" height="109" viewBox="0 0 116 109" fill="none" xmlns="http://www.w3.org/2000/svg">
<path d="M54.1333 4.6H67.6667V20.0667C67.6667 20.5794 67.8704 21.0712 68.2329 21.4337C68.5955 21.7963 69.0872 22 69.6 22H85.0667C85.5794 22 86.0712 21.7963 86.4337 21.4337C86.7963 21.0712 87 20.5794 87 20.0667V4.6H100.533V23.9333H104.4V2.66667C104.4 2.15391 104.196 1.66216 103.834 1.29959C103.471 0.937023 102.979 0.733333 102.467 0.733333H1.93333C1.42058 0.733333 0.92883 0.937023 0.56626 1.29959C0.20369 1.66216 0 2.15391 0 2.66667V103.2C0 103.713 0.20369 104.204 0.56626 104.567C0.92883 104.93 1.42058 105.133 1.93333 105.133H61.8667V101.267H54.1333V54.8667H61.8667V51H54.1333V4.6ZM83.1333 18.1333H71.5333V4.6H83.1333V18.1333ZM21.2667 4.6H32.8667V18.1333H21.2667V4.6ZM17.4 4.6V20.0667C17.4 20.5794 17.6037 21.0712 17.9663 21.4337C18.3288 21.7963 18.8206 22 19.3333 22H34.8C35.3128 22 35.8045 21.7963 36.1671 21.4337C36.5296 21.0712 36.7333 20.5794 36.7333 20.0667V4.6H50.2667V51H3.86667V4.6H17.4ZM21.2667 54.8667H32.8667V68.4H21.2667V54.8667ZM50.2667 101.267H3.86667V54.8667H17.4V70.3333C17.4 70.8461 17.6037 71.3378 17.9663 71.7004C18.3288 72.063 18.8206 72.2667 19.3333 72.2667H34.8C35.3128 72.2667 35.8045 72.063 36.1671 71.7004C36.5296 71.3378 36.7333 70.8461 36.7333 70.3333V54.8667H50.2667V101.267Z" fill="#D8D8D8"/>
<path d="M42.5333 43.2667H46.4V47.1333H42.5333V43.2667Z" fill="#D8D8D8"/>
<path d="M34.8 43.2667H38.6667V47.1333H34.8V43.2667Z" fill="#D8D8D8"/>
<path d="M42.5333 93.5333H46.4V97.4H42.5333V93.5333Z" fill="#D8D8D8"/>
<path d="M34.8 93.5333H38.6667V97.4H34.8V93.5333Z" fill="#D8D8D8"/>
<path d="M17.4 -7H75.4V-3.13333H17.4V-7Z" fill="#D8D8D8"/>
<path d="M79.2667 -7H83.1333V-3.13333H79.2667V-7Z" fill="#D8D8D8"/>
<path d="M108.267 27.8H73.4667C71.4164 27.8023 69.4507 28.6178 68.0009 30.0676C66.5511 31.5174 65.7356 33.483 65.7333 35.5333V101.267C65.7356 103.317 66.5511 105.283 68.0009 106.732C69.4507 108.182 71.4164 108.998 73.4667 109H108.267C110.317 108.998 112.283 108.182 113.732 106.732C115.182 105.283 115.998 103.317 116 101.267V35.5333C115.998 33.483 115.182 31.5174 113.732 30.0676C112.283 28.6178 110.317 27.8023 108.267 27.8ZM112.133 101.267C112.132 102.292 111.724 103.275 110.999 103.999C110.275 104.724 109.292 105.132 108.267 105.133H73.4667C72.4415 105.132 71.4587 104.724 70.7339 103.999C70.009 103.275 69.6012 102.292 69.6 101.267V35.5333C69.6012 34.5082 70.009 33.5254 70.7339 32.8005C71.4587 32.0757 72.4415 31.6679 73.4667 31.6667H108.267C109.292 31.6679 110.275 32.0757 110.999 32.8005C111.724 33.5254 112.132 34.5082 112.133 35.5333V101.267Z" fill="#D8D8D8"/>
<path d="M85.0667 35.5333H88.9333V39.4H85.0667V35.5333Z" fill="#D8D8D8"/>
<path d="M92.8 35.5333H96.6667V39.4H92.8V35.5333Z" fill="#D8D8D8"/>
<path d="M88.9333 97.4H92.8V101.267H88.9333V97.4Z" fill="#D8D8D8"/>
<path d="M90.8667 61.7994L87.37 58.3024L84.6358 61.0367L89.4995 65.9004C89.6791 66.08 89.8922 66.2224 90.1268 66.3196C90.3614 66.4167 90.6128 66.4667 90.8667 66.4667C91.1206 66.4667 91.372 66.4167 91.6065 66.3196C91.8411 66.2224 92.0542 66.08 92.2338 65.9004L107.7 50.4338L104.966 47.6996L90.8667 61.7994Z" fill="#D8D8D8"/>
<path d="M90.8667 74.2C94.4547 74.196 97.8946 72.7688 100.432 70.2317C102.969 67.6946 104.396 64.2547 104.4 60.6667H100.533C100.532 62.7932 99.8297 64.8599 98.5345 66.5465C97.2393 68.2331 95.4239 69.4452 93.3697 69.9951C91.3156 70.5449 89.1373 70.4017 87.1728 69.5877C85.2083 68.7736 83.5672 67.3342 82.504 65.4926C81.4408 63.6509 81.0148 61.51 81.2922 59.4017C81.5695 57.2933 82.5347 55.3354 84.038 53.8314C85.5414 52.3274 87.4989 51.3614 89.6071 51.0831C91.7153 50.8048 93.8565 51.2298 95.6986 52.2922L97.6348 48.9451C95.8371 47.9077 93.8248 47.2976 91.7537 47.1622C89.6825 47.0267 87.608 47.3695 85.6905 48.1639C83.773 48.9583 82.0639 50.1832 80.6954 51.7437C79.3269 53.3042 78.3357 55.1586 77.7984 57.1635C77.2611 59.1683 77.1922 61.2698 77.5969 63.3056C78.0016 65.3413 78.8692 67.2567 80.1324 68.9035C81.3957 70.5504 83.0208 71.8846 84.8821 72.803C86.7435 73.7214 88.7911 74.1994 90.8667 74.2Z" fill="#D8D8D8"/>
<path d="M75.4 80H79.2667V83.8667H75.4V80Z" fill="#D8D8D8"/>
<path d="M83.1333 80H106.333V83.8667H83.1333V80Z" fill="#D8D8D8"/>
<path d="M75.4 87.7333H106.333V91.6H75.4V87.7333Z" fill="#D8D8D8"/>
</svg>
