<svg width="116" height="109" viewBox="0 0 116 109" fill="none" xmlns="http://www.w3.org/2000/svg">
<path d="M69.4958 94.2576C69.0744 93.8362 68.4898 93.5938 67.894 93.5938C67.2981 93.5938 66.7136 93.8362 66.2922 94.2576C65.871 94.679 65.6284 95.2635 65.6284 95.8594C65.6284 96.4552 65.8708 97.0398 66.2922 97.4612C66.7136 97.8826 67.2981 98.125 67.894 98.125C68.4898 98.125 69.0744 97.8826 69.4958 97.4612C69.917 97.0398 70.1596 96.4552 70.1596 95.8594C70.1596 95.2635 69.9172 94.679 69.4958 94.2576Z" fill="#D8D8D8"/>
<path d="M115.995 35.2482C115.971 34.7836 115.806 34.3223 115.489 33.9342C115.372 33.7903 115.239 33.6668 115.097 33.5597C115.085 33.5504 115.075 33.5409 115.062 33.5314L103.766 25.3577V-0.203125C103.766 -3.95092 100.717 -7 96.9688 -7H19.0312C15.2835 -7 12.2344 -3.95092 12.2344 -0.203125V25.3574L0.937516 33.5318C0.32557 33.9747 0.00271875 34.6664 0.00226562 35.3681L0 35.3672V97.6719C0 103.918 5.0818 109 11.3281 109H104.672C110.918 109 116 103.918 116 97.6719V35.3672C116 35.323 115.998 35.284 115.995 35.2482ZM103.766 30.9506L110.019 35.4757L103.766 40.5815V30.9506ZM16.7656 -0.203125C16.7656 -1.45239 17.782 -2.46875 19.0312 -2.46875H96.9688C98.218 -2.46875 99.2344 -1.45239 99.2344 -0.203125V44.2811L71.5786 66.8612L64.6408 61.8412C60.6687 58.9671 55.3311 58.9673 51.3595 61.8412L44.4214 66.8614L16.7656 44.2813V-0.203125ZM12.2344 30.9506V40.5815L5.98057 35.4755L12.2344 30.9506ZM4.53125 40.1418L40.6231 69.6098L4.53125 95.725V40.1418ZM104.672 104.469H11.3281C8.69751 104.469 6.41285 102.966 5.28344 100.774L54.0157 65.5122C56.3987 63.7879 59.6013 63.7879 61.9843 65.5122L100.794 93.5938H78.1641C76.913 93.5938 75.8984 94.6081 75.8984 95.8594C75.8984 97.1107 76.913 98.125 78.1641 98.125H107.056L110.717 100.774C109.587 102.966 107.302 104.469 104.672 104.469ZM111.469 95.725L75.3769 69.6096L111.469 40.1418V95.725Z" fill="#D8D8D8"/>
<path d="M78.9246 48.7344H46.7528C45.5017 48.7344 44.4871 49.7487 44.4871 51C44.4871 52.2513 45.5017 53.2656 46.7528 53.2656H78.9246C80.1757 53.2656 81.1903 52.2513 81.1903 51C81.1903 49.7487 80.1759 48.7344 78.9246 48.7344Z" fill="#D8D8D8"/>
<path d="M38.6765 36.7107C38.2551 36.2893 37.6726 36.0469 37.0747 36.0469C36.4788 36.0469 35.8943 36.2893 35.4729 36.7107C35.0517 37.1321 34.8091 37.7166 34.8091 38.3125C34.8091 38.9106 35.0515 39.4929 35.4729 39.9143C35.8943 40.3357 36.4788 40.5781 37.0747 40.5781C37.6705 40.5781 38.2551 40.3357 38.6765 39.9143C39.1002 39.4929 39.3403 38.9084 39.3403 38.3125C39.3403 37.7166 39.1002 37.1321 38.6765 36.7107Z" fill="#D8D8D8"/>
<path d="M38.6765 49.3982C38.2551 48.9768 37.6705 48.7344 37.0747 48.7344C36.4788 48.7344 35.8943 48.9768 35.4729 49.3982C35.0517 49.8196 34.8091 50.4041 34.8091 51C34.8091 51.5959 35.0515 52.1804 35.4729 52.6018C35.8943 53.0232 36.4788 53.2656 37.0747 53.2656C37.6705 53.2656 38.2551 53.0232 38.6765 52.6018C39.1002 52.1804 39.3403 51.5959 39.3403 51C39.3403 50.4041 39.1002 49.8196 38.6765 49.3982Z" fill="#D8D8D8"/>
<path d="M78.9246 36.0469H46.7528C45.5017 36.0469 44.4871 37.0612 44.4871 38.3125C44.4871 39.5638 45.5017 40.5781 46.7528 40.5781H78.9246C80.1757 40.5781 81.1903 39.5638 81.1903 38.3125C81.1903 37.0612 80.1759 36.0469 78.9246 36.0469Z" fill="#D8D8D8"/>
<path d="M38.676 23.7107C38.2546 23.2893 37.6721 23.0469 37.0742 23.0469C36.4784 23.0469 35.8938 23.2893 35.4724 23.7107C35.0512 24.1321 34.8086 24.7166 34.8086 25.3125C34.8086 25.9106 35.051 26.4929 35.4724 26.9143C35.8938 27.3357 36.4784 27.5781 37.0742 27.5781C37.6701 27.5781 38.2546 27.3357 38.676 26.9143C39.0997 26.4929 39.3398 25.9084 39.3398 25.3125C39.3398 24.7166 39.0997 24.1321 38.676 23.7107Z" fill="#D8D8D8"/>
<path d="M78.9242 23.0469H46.7523C45.5012 23.0469 44.4867 24.0612 44.4867 25.3125C44.4867 26.5638 45.5012 27.5781 46.7523 27.5781H78.9242C80.1752 27.5781 81.1898 26.5638 81.1898 25.3125C81.1898 24.0612 80.1755 23.0469 78.9242 23.0469Z" fill="#D8D8D8"/>
<path d="M38.676 10.7107C38.2546 10.2893 37.6721 10.0469 37.0742 10.0469C36.4784 10.0469 35.8938 10.2893 35.4724 10.7107C35.0512 11.1321 34.8086 11.7166 34.8086 12.3125C34.8086 12.9106 35.051 13.4929 35.4724 13.9143C35.8938 14.3357 36.4784 14.5781 37.0742 14.5781C37.6701 14.5781 38.2546 14.3357 38.676 13.9143C39.0997 13.4929 39.3398 12.9084 39.3398 12.3125C39.3398 11.7166 39.0997 11.1321 38.676 10.7107Z" fill="#D8D8D8"/>
<path d="M78.9242 10.0469H46.7523C45.5012 10.0469 44.4867 11.0612 44.4867 12.3125C44.4867 13.5638 45.5012 14.5781 46.7523 14.5781H78.9242C80.1752 14.5781 81.1898 13.5638 81.1898 12.3125C81.1898 11.0612 80.1755 10.0469 78.9242 10.0469Z" fill="#D8D8D8"/>
</svg>
