<svg width="116" height="109" viewBox="0 0 116 109" fill="none" xmlns="http://www.w3.org/2000/svg">
<path d="M5.80279 35.2885V35.5333C5.8097 41.6842 8.25613 47.5812 12.6054 51.9306C16.9546 56.2799 22.8515 58.7264 29.0022 58.7333H32.8688C39.0195 58.7264 44.9164 56.2799 49.2656 51.9306C53.6148 47.5812 56.0613 41.6842 56.0682 35.5333V35.2885C57.7288 34.8604 59.2 33.8925 60.2505 32.5369C61.3009 31.1813 61.871 29.515 61.871 27.8C61.871 26.085 61.3009 24.4187 60.2505 23.0631C59.2 21.7075 57.7288 20.7396 56.0682 20.3115V10.6127C56.063 5.94309 54.2058 1.46625 50.904 -1.83565C47.6021 -5.13754 43.1254 -6.99482 38.456 -7H23.415C18.7455 -6.99482 14.2688 -5.13754 10.967 -1.83565C7.6652 1.46625 5.80797 5.94309 5.80279 10.6127V20.3115C4.14215 20.7396 2.67092 21.7075 1.62048 23.0631C0.570046 24.4187 0 26.085 0 27.8C0 29.515 0.570046 31.1813 1.62048 32.5369C2.67092 33.8925 4.14215 34.8604 5.80279 35.2885ZM58.0015 27.8C58.0006 28.4779 57.8215 29.1436 57.4822 29.7304C57.1428 30.3172 56.6552 30.8045 56.0682 31.1435V24.4565C56.6552 24.7955 57.1428 25.2828 57.4822 25.8696C57.8215 26.4564 58.0006 27.1221 58.0015 27.8ZM23.415 -3.13333H38.456C42.1003 -3.12918 45.5941 -1.67961 48.171 0.897369C50.7479 3.47434 52.1975 6.96828 52.2016 10.6127V18.1333H50.2683C48.9076 18.1404 47.561 17.8564 46.319 17.3004C45.0769 16.7445 43.9681 15.9293 43.0668 14.9097C41.4788 13.1395 40.6009 10.8449 40.6019 8.46667C40.6019 7.95391 40.3982 7.46216 40.0357 7.09959C39.6731 6.73702 39.1814 6.53333 38.6686 6.53333C38.1559 6.53333 37.6641 6.73702 37.3016 7.09959C36.939 7.46216 36.7353 7.95391 36.7353 8.46667C36.7307 11.029 35.7108 13.485 33.899 15.2969C32.0872 17.1087 29.6312 18.1287 27.0689 18.1333V12.3333C27.0689 11.8206 26.8652 11.3288 26.5027 10.9663C26.1401 10.6037 25.6484 10.4 25.1356 10.4C24.6229 10.4 24.1312 10.6037 23.7686 10.9663C23.406 11.3288 23.2023 11.8206 23.2023 12.3333C23.2006 13.871 22.5889 15.3453 21.5016 16.4326C20.4143 17.5199 18.9402 18.1315 17.4025 18.1333H9.66936V10.6127C9.67351 6.96828 11.123 3.47434 13.7 0.897369C16.2769 -1.67961 19.7707 -3.12918 23.415 -3.13333ZM7.73607 23.9333C8.24881 23.9333 8.74055 23.7296 9.10311 23.3671C9.46567 23.0045 9.66936 22.5128 9.66936 22H17.4025C19.4951 22.0023 21.5314 21.3219 23.2023 20.0621V20.0667C23.2023 20.5794 23.406 21.0712 23.7686 21.4337C24.1312 21.7963 24.6229 22 25.1356 22H27.0689C29.4023 21.99 31.6941 21.382 33.7256 20.2341C35.7571 19.0862 37.4604 17.4367 38.673 15.4431C39.8782 17.4414 41.5788 19.0948 43.6101 20.2435C45.6414 21.3922 47.9347 21.9972 50.2683 22H52.2016V35.5333C52.1958 40.6591 50.1571 45.5732 46.5327 49.1976C42.9084 52.8221 37.9944 54.8608 32.8688 54.8667H29.0022C23.8766 54.8608 18.9626 52.8221 15.3382 49.1976C11.7139 45.5732 9.67518 40.6591 9.66936 35.5333V33.6C9.66936 33.0872 9.46567 32.5955 9.10311 32.2329C8.74055 31.8704 8.24881 31.6667 7.73607 31.6667C6.7106 31.6667 5.72712 31.2593 5.002 30.5341C4.27687 29.809 3.8695 28.8255 3.8695 27.8C3.8695 26.7745 4.27687 25.791 5.002 25.0659C5.72712 24.3407 6.7106 23.9333 7.73607 23.9333Z" fill="#D8D8D8"/>
<path d="M70.4018 -1.2H108.267V29.7333H65.7346V33.6H110.2C110.713 33.6 111.205 33.3963 111.567 33.0337C111.93 32.6712 112.133 32.1794 112.133 31.6667V-3.13333C112.133 -3.64609 111.93 -4.13784 111.567 -4.50041C111.205 -4.86298 110.713 -5.06667 110.2 -5.06667H69.6012C69.3473 -5.06668 69.0959 -5.01668 68.8613 -4.91952C68.6268 -4.82237 68.4136 -4.67997 68.2341 -4.50044L58.5677 5.16623L61.3018 7.90044L70.4018 -1.2Z" fill="#D8D8D8"/>
<path d="M69.6012 4.6H73.4677V8.46667H69.6012V4.6Z" fill="#D8D8D8"/>
<path d="M77.3343 4.6H102.467V8.46667H77.3343V4.6Z" fill="#D8D8D8"/>
<path d="M65.7346 12.3333H102.467V16.2H65.7346V12.3333Z" fill="#D8D8D8"/>
<path d="M65.7346 20.0667H98.6004V23.9333H65.7346V20.0667Z" fill="#D8D8D8"/>
<path d="M32.8688 41.3333H34.8021C35.8271 41.332 36.8098 40.9242 37.5346 40.1993C38.2595 39.4745 38.6673 38.4918 38.6686 37.4667V29.7333H48.335C48.8478 29.7333 49.3395 29.5296 49.7021 29.1671C50.0646 28.8045 50.2683 28.3128 50.2683 27.8C50.2683 27.2872 50.0646 26.7955 49.7021 26.4329C49.3395 26.0704 48.8478 25.8667 48.335 25.8667H38.6686C37.6436 25.868 36.6609 26.2758 35.936 27.0007C35.2112 27.7255 34.8034 28.7082 34.8021 29.7333V37.4667H32.8688C32.356 37.4667 31.8643 37.6704 31.5017 38.0329C31.1392 38.3955 30.9355 38.8872 30.9355 39.4C30.9355 39.9128 31.1392 40.4045 31.5017 40.7671C31.8643 41.1296 32.356 41.3333 32.8688 41.3333Z" fill="#D8D8D8"/>
<path d="M21.2691 29.7333H29.0022C29.5149 29.7333 30.0067 29.5296 30.3692 29.1671C30.7318 28.8045 30.9355 28.3128 30.9355 27.8C30.9355 27.2872 30.7318 26.7955 30.3692 26.4329C30.0067 26.0704 29.5149 25.8667 29.0022 25.8667H21.2691C20.7563 25.8667 20.2646 26.0704 19.902 26.4329C19.5395 26.7955 19.3358 27.2872 19.3358 27.8C19.3358 28.3128 19.5395 28.8045 19.902 29.1671C20.2646 29.5296 20.7563 29.7333 21.2691 29.7333Z" fill="#D8D8D8"/>
<path d="M32.8688 47.1333H29.0022C28.4895 47.1333 27.9977 47.337 27.6352 47.6996C27.2726 48.0622 27.0689 48.5539 27.0689 49.0667C27.0689 49.5794 27.2726 50.0712 27.6352 50.4337C27.9977 50.7963 28.4895 51 29.0022 51H32.8688C33.3815 51 33.8732 50.7963 34.2358 50.4337C34.5984 50.0712 34.8021 49.5794 34.8021 49.0667C34.8021 48.5539 34.5984 48.0622 34.2358 47.6996C33.8732 47.337 33.3815 47.1333 32.8688 47.1333Z" fill="#D8D8D8"/>
<path d="M25.1356 35.5333C26.2034 35.5333 27.0689 34.6677 27.0689 33.6C27.0689 32.5322 26.2034 31.6667 25.1356 31.6667C24.0679 31.6667 23.2023 32.5322 23.2023 33.6C23.2023 34.6677 24.0679 35.5333 25.1356 35.5333Z" fill="#D8D8D8"/>
<path d="M44.4685 35.5333C45.5362 35.5333 46.4018 34.6677 46.4018 33.6C46.4018 32.5322 45.5362 31.6667 44.4685 31.6667C43.4008 31.6667 42.5352 32.5322 42.5352 33.6C42.5352 34.6677 43.4008 35.5333 44.4685 35.5333Z" fill="#D8D8D8"/>
<path d="M15.4692 60.6667V87.7333C15.4692 88.2461 15.6729 88.7378 16.0355 89.1004C16.398 89.463 16.8898 89.6667 17.4025 89.6667H98.6004C99.1132 89.6667 99.6049 89.463 99.9675 89.1004C100.33 88.7378 100.534 88.2461 100.534 87.7333V39.4H96.6672V85.8H19.3358V60.6667H15.4692Z" fill="#D8D8D8"/>
<path d="M114.067 93.5333H108.267V39.4H104.4V93.5333H75.401C75.1471 93.5333 74.8957 93.5833 74.6612 93.6805C74.4266 93.7776 74.2135 93.92 74.034 94.0996L70.7338 97.4H45.2691L41.969 94.0996C41.7895 93.92 41.5763 93.7776 41.3418 93.6805C41.1072 93.5833 40.8558 93.5333 40.6019 93.5333H11.6026V56.8H7.73607V93.5333H1.93622C1.42348 93.5333 0.931742 93.737 0.569181 94.0996C0.20662 94.4622 0.00293498 94.9539 0.00293498 95.4667V101.267C0.00523762 103.317 0.820716 105.283 2.27046 106.732C3.72021 108.182 5.68582 108.998 7.73607 109H108.267C110.317 108.998 112.283 108.182 113.732 106.732C115.182 105.283 115.998 103.317 116 101.267V95.4667C116 94.9539 115.796 94.4622 115.434 94.0996C115.071 93.737 114.579 93.5333 114.067 93.5333ZM112.133 101.267C112.132 102.292 111.724 103.275 111 103.999C110.275 104.724 109.292 105.132 108.267 105.133H7.73607C6.71097 105.132 5.7282 104.724 5.00334 103.999C4.27848 103.275 3.87072 102.292 3.8695 101.267V97.4H39.8013L43.1014 100.7C43.2809 100.88 43.4941 101.022 43.7286 101.12C43.9632 101.217 44.2146 101.267 44.4685 101.267H71.5345C71.7883 101.267 72.0397 101.217 72.2743 101.12C72.5089 101.022 72.722 100.88 72.9015 100.7L76.2016 97.4H112.133V101.267Z" fill="#D8D8D8"/>
<path d="M29.0022 70.3333V76.1333H25.1356V80H52.2016V76.1333H48.335V62.6H44.4685V76.1333H40.6019V66.4667H36.7353V76.1333H32.8688V70.3333H29.0022Z" fill="#D8D8D8"/>
<path d="M73.4677 39.4C70.4088 39.4 67.4186 40.3071 64.8751 42.0066C62.3317 43.7061 60.3494 46.1217 59.1788 48.9478C58.0082 51.774 57.7019 54.8838 58.2986 57.8841C58.8954 60.8843 60.3684 63.6402 62.5314 65.8032C64.6944 67.9663 67.4503 69.4394 70.4504 70.0361C73.4506 70.6329 76.5603 70.3266 79.3864 69.156C82.2125 67.9854 84.628 66.003 86.3275 63.4595C88.0269 60.916 88.934 57.9257 88.934 54.8667C88.9294 50.7661 87.2985 46.8347 84.399 43.9352C81.4995 41.0356 77.5682 39.4046 73.4677 39.4ZM75.401 59.5342L80.183 64.3158C78.7601 65.3319 77.125 66.0112 75.401 66.3026V59.5342ZM61.868 54.8667C61.8718 52.1266 62.844 49.476 64.6128 47.3834C66.3817 45.2907 68.8333 43.8907 71.5345 43.4308V66.3026C68.8333 65.8426 66.3817 64.4426 64.6128 62.35C62.844 60.2573 61.8718 57.6068 61.868 54.8667ZM82.9167 61.5821L75.401 54.0663V43.4308C77.338 43.7565 79.1605 44.5692 80.6971 45.7927C82.2337 47.0161 83.4342 48.6102 84.1856 50.425C84.937 52.2398 85.2148 54.2159 84.9928 56.1675C84.7709 58.1192 84.0564 59.9824 82.9167 61.5821Z" fill="#D8D8D8"/>
<path d="M58.0015 76.1333H61.868V80H58.0015V76.1333Z" fill="#D8D8D8"/>
<path d="M65.7346 76.1333H90.8673V80H65.7346V76.1333Z" fill="#D8D8D8"/>
</svg>
