<svg width="107" height="109" viewBox="0 0 107 109" fill="none" xmlns="http://www.w3.org/2000/svg">
<path d="M99.3571 23.9333V18.1333C99.3571 17.0656 98.5016 16.2 97.4464 16.2H93.625V10.4H103.179C104.234 10.4 105.089 9.53435 105.089 8.46667V0.733334C105.089 -3.53764 101.667 -7 97.4464 -7H36.3036C32.0826 -7 28.6607 -3.53764 28.6607 0.733334V14.2667H1.91071C0.855522 14.2667 0 15.1323 0 16.2V107.067C0 108.134 0.855522 109 1.91071 109H70.6964C71.7516 109 72.6071 108.134 72.6071 107.067V78.0667H84.0714V91.6C84.0755 91.8313 84.1206 92.0599 84.2052 92.2747H84.1918L89.9239 107.741C90.2925 108.742 91.393 109.251 92.3818 108.877C92.9013 108.681 93.3112 108.267 93.5046 107.741L99.2368 92.2747H99.2234C99.3079 92.0599 99.3531 91.8313 99.3571 91.6V27.8C101.468 27.8 103.179 29.5311 103.179 31.6667V56.8H107V31.6667C107 27.3957 103.578 23.9333 99.3571 23.9333ZM93.625 0.733334C93.625 -1.40227 95.3358 -3.13333 97.4464 -3.13333C99.5571 -3.13333 101.268 -1.40227 101.268 0.733334V6.53333H93.625V0.733334ZM68.7857 105.133H3.82143V18.1333H68.7857V105.133ZM84.0714 18.1333V74.2H72.6071V16.2C72.6071 15.1323 71.7516 14.2667 70.6964 14.2667H32.4821V0.733334C32.4821 -1.40227 34.1929 -3.13333 36.3036 -3.13333H90.8659C90.1783 -1.96294 89.8115 -0.628216 89.8036 0.733334V16.2H85.9821C84.927 16.2 84.0714 17.0656 84.0714 18.1333ZM91.7143 101.561L88.7393 93.5333H94.6893L91.7143 101.561ZM95.5357 89.6667H87.8929V35.5333H95.5357V89.6667ZM95.5357 31.6667H87.8929V27.8H95.5357V31.6667ZM95.5357 23.9333H87.8929V20.0667H95.5357V23.9333Z" fill="#D8D8D8"/>
<path d="M61.1428 23.9333H11.4643C10.4091 23.9333 9.55357 24.799 9.55357 25.8667V37.4667C9.55357 38.5344 10.4091 39.4 11.4643 39.4H61.1428C62.198 39.4 63.0536 38.5344 63.0536 37.4667V25.8667C63.0536 24.799 62.198 23.9333 61.1428 23.9333ZM59.2321 35.5333H13.375V27.8H59.2321V35.5333Z" fill="#D8D8D8"/>
<path d="M22.9286 45.2H11.4643C10.4091 45.2 9.55357 46.0656 9.55357 47.1333V58.7333C9.55357 59.801 10.4091 60.6667 11.4643 60.6667H22.9286C23.9838 60.6667 24.8393 59.801 24.8393 58.7333V47.1333C24.8393 46.0656 23.9838 45.2 22.9286 45.2ZM21.0179 56.8H13.375V49.0667H21.0179V56.8Z" fill="#D8D8D8"/>
<path d="M42.0357 45.2H30.5714C29.5162 45.2 28.6607 46.0656 28.6607 47.1333V58.7333C28.6607 59.801 29.5162 60.6667 30.5714 60.6667H42.0357C43.0909 60.6667 43.9464 59.801 43.9464 58.7333V47.1333C43.9464 46.0656 43.0909 45.2 42.0357 45.2ZM40.125 56.8H32.4821V49.0667H40.125V56.8Z" fill="#D8D8D8"/>
<path d="M61.1429 45.2H49.6786C48.6234 45.2 47.7679 46.0656 47.7679 47.1333V58.7333C47.7679 59.801 48.6234 60.6667 49.6786 60.6667H61.1429C62.198 60.6667 63.0536 59.801 63.0536 58.7333V47.1333C63.0536 46.0656 62.198 45.2 61.1429 45.2ZM59.2321 56.8H51.5893V49.0667H59.2321V56.8Z" fill="#D8D8D8"/>
<path d="M22.9286 64.5333H11.4643C10.4091 64.5333 9.55357 65.399 9.55357 66.4667V78.0667C9.55357 79.1344 10.4091 80 11.4643 80H22.9286C23.9838 80 24.8393 79.1344 24.8393 78.0667V66.4667C24.8393 65.399 23.9838 64.5333 22.9286 64.5333ZM21.0179 76.1333H13.375V68.4H21.0179V76.1333Z" fill="#D8D8D8"/>
<path d="M42.0357 64.5333H30.5714C29.5162 64.5333 28.6607 65.399 28.6607 66.4667V78.0667C28.6607 79.1344 29.5162 80 30.5714 80H42.0357C43.0909 80 43.9464 79.1344 43.9464 78.0667V66.4667C43.9464 65.399 43.0909 64.5333 42.0357 64.5333ZM40.125 76.1333H32.4821V68.4H40.125V76.1333Z" fill="#D8D8D8"/>
<path d="M22.9286 83.8667H11.4643C10.4091 83.8667 9.55357 84.7323 9.55357 85.8V97.4C9.55357 98.4677 10.4091 99.3333 11.4643 99.3333H22.9286C23.9838 99.3333 24.8393 98.4677 24.8393 97.4V85.8C24.8393 84.7323 23.9838 83.8667 22.9286 83.8667ZM21.0179 95.4667H13.375V87.7333H21.0179V95.4667Z" fill="#D8D8D8"/>
<path d="M42.0357 83.8667H30.5714C29.5162 83.8667 28.6607 84.7323 28.6607 85.8V97.4C28.6607 98.4677 29.5162 99.3333 30.5714 99.3333H42.0357C43.0909 99.3333 43.9464 98.4677 43.9464 97.4V85.8C43.9464 84.7323 43.0909 83.8667 42.0357 83.8667ZM40.125 95.4667H32.4821V87.7333H40.125V95.4667Z" fill="#D8D8D8"/>
<path d="M61.1429 64.5333H49.6786C48.6234 64.5333 47.7679 65.399 47.7679 66.4667V97.4C47.7679 98.4677 48.6234 99.3333 49.6786 99.3333H61.1429C62.198 99.3333 63.0536 98.4677 63.0536 97.4V66.4667C63.0536 65.399 62.198 64.5333 61.1429 64.5333ZM59.2321 95.4667H51.5893V68.4H59.2321V95.4667Z" fill="#D8D8D8"/>
</svg>
