<svg width="124" height="109" viewBox="0 0 124 109" fill="none" xmlns="http://www.w3.org/2000/svg">
<path d="M118.833 51.0464C115.885 51.1352 113.567 53.6005 113.656 56.5531C113.658 56.6245 113.661 56.6959 113.667 56.7673V57.2558H110.083C107.541 46.9248 101.869 37.6349 93.8453 30.6613C98.604 14.2035 89.1402 -3.00172 72.7071 -7.76763C56.274 -12.5335 39.0946 -3.05554 34.3359 13.4022C33.9685 14.6726 33.6828 15.9651 33.48 17.2719C23.932 14.5916 15.8245 14.7882 11.5196 17.9198C9.46895 19.3213 8.24962 21.6531 8.26667 24.1394C8.26667 29.9617 11.7945 35.6039 14.4543 39.0418C12.2112 42.7712 10.5434 46.8184 9.50667 51.0464H8.26667C3.70114 51.0464 0 54.7531 0 59.3255V71.7441C0 76.3165 3.70114 80.0232 8.26667 80.0232H11.4638C14.7147 86.4848 20.1836 91.5555 26.8667 94.3046V102.791C26.8667 103.934 27.792 104.86 28.9333 104.86H37.2V106.93C37.2 108.073 38.1253 109 39.2667 109H55.8C56.9413 109 57.8667 108.073 57.8667 106.93V96.5814H64.0667V102.791C64.0667 103.934 64.992 104.86 66.1333 104.86H74.4V106.93C74.4 108.073 75.3253 109 76.4667 109H93C94.1413 109 95.0667 108.073 95.0667 106.93V94.5116C104.883 90.4776 111.376 80.9981 111.6 70.374C111.636 67.3676 111.413 64.3636 110.935 61.3953H113.667V65.5348H117.8V61.3953H118.833C121.687 61.3953 124 59.0787 124 56.2209C124 53.363 121.687 51.0464 118.833 51.0464ZM45.4413 2.67022C50.4471 -2.15001 57.1224 -4.84071 64.0667 -4.83735C78.8978 -4.84459 90.9266 7.19086 90.9339 22.0443C90.9372 28.999 88.2505 35.6843 83.4375 40.6976H77.097C87.3872 33.4932 89.8974 19.2985 82.7039 8.99286C75.5103 -1.31279 61.3369 -3.82678 51.0467 3.37757C40.7565 10.5819 38.2462 24.7767 45.4398 35.0823C46.9658 37.2685 48.8638 39.1691 51.0467 40.6976H44.6958C34.4165 29.9904 34.7502 12.965 45.4413 2.67022ZM64.0667 40.6976C53.7943 40.6976 45.4667 32.3575 45.4667 22.0697C45.4667 11.7816 53.7943 3.44173 64.0667 3.44173C74.3393 3.44173 82.6667 11.7816 82.6667 22.0697C82.6543 32.3523 74.3339 40.6849 64.0667 40.6976ZM12.4 24.1394C12.3917 22.9798 12.9756 21.8963 13.9479 21.2666C16.2081 19.9326 18.818 19.3138 21.4355 19.4907C25.3962 19.5942 29.3224 20.2576 33.0977 21.4611C33.0977 21.6681 33.0667 21.8751 33.0667 22.0697V22.1318C26.6778 25.1635 21.1239 29.7105 16.8867 35.3783C14.331 32.1489 12.7717 28.243 12.4 24.1394ZM37.2 100.721H31V95.6707C33.03 96.1806 35.1083 96.4732 37.2 96.5441V100.721ZM74.4 100.721H68.2V96.5814H74.4V100.721ZM107.467 70.3201C107.288 78.6621 102.515 86.2204 95.0667 89.9581V88.3023H90.9333V104.86H78.5333V86.2325H74.4V92.4418H57.8667V88.3023H53.7333V104.86H41.3333V86.2325H37.2V92.4046C27.3975 91.9999 18.6672 86.0763 14.6568 77.109C14.3241 76.3636 13.5852 75.8837 12.7699 75.8837H8.26667C5.98377 75.8837 4.13333 74.0305 4.13333 71.7441V59.3255C4.13333 57.0392 5.98377 55.186 8.26667 55.186H11.16C12.1422 55.1862 12.989 54.4939 13.1853 53.5302C14.1559 48.7599 16.0061 44.2128 18.6413 40.1222C18.6661 40.087 18.7075 40.0725 18.7302 40.0373C22.3939 34.3631 27.4551 29.7299 33.4263 26.5838C34.1659 31.7125 36.1938 36.5689 39.3204 40.6976H35.1333V44.8371H93V40.6976H88.8129C90.194 38.8762 91.3673 36.9058 92.3118 34.8236C102.16 43.9689 107.669 56.8713 107.467 70.3201ZM118.833 57.2558H117.8V56.7673C117.8 56.0035 118.071 55.186 118.833 55.186C119.404 55.186 119.867 55.6494 119.867 56.2209C119.867 56.7924 119.404 57.2558 118.833 57.2558Z" fill="#D8D8D8"/>
<path d="M70.0001 24.7492C69.5237 23.2153 68.4418 21.9429 67.0055 21.2273L62.9775 19.2113C62.1044 18.7774 61.7479 17.7167 62.1811 16.8422C62.4795 16.2399 63.0935 15.8593 63.7649 15.8604H64.3684C65.3426 15.8614 66.1323 16.6523 66.1333 17.6279V17.9301H70.2667V17.6279C70.2571 15.0562 68.5847 12.7873 66.1333 12.0209V9.65104H62V12.0209C58.9003 12.9865 57.1692 16.2857 58.1333 19.3901C58.6096 20.924 59.6915 22.1964 61.1279 22.9121L65.1558 24.928C66.029 25.3619 66.3855 26.4226 65.9522 27.2971C65.6539 27.8994 65.0398 28.2803 64.3684 28.279H63.7649C62.7908 28.2779 62.001 27.487 62 26.5114V26.2092H57.8667V26.5114C57.8762 29.0831 59.5487 31.3521 62 32.1184V34.4883H66.1333V32.1184C69.2331 31.1528 70.9642 27.8534 70.0001 24.7492Z" fill="#D8D8D8"/>
<path d="M12.4 59.3255H8.26667V63.4651H12.4V59.3255Z" fill="#D8D8D8"/>
<path d="M53.7333 19.9999H49.6V24.1394H53.7333V19.9999Z" fill="#D8D8D8"/>
<path d="M78.5333 19.9999H74.4V24.1394H78.5333V19.9999Z" fill="#D8D8D8"/>
<path d="M26.8667 44.8371H22.7333V48.9767H26.8667V44.8371Z" fill="#D8D8D8"/>
</svg>
