<svg width="119" height="109" viewBox="0 0 119 109" fill="none" xmlns="http://www.w3.org/2000/svg">
<path d="M119 18.1958C119 14.1111 115.672 10.7881 111.581 10.7881H45.1596C44.1969 10.7881 43.4164 11.5674 43.4164 12.5286C43.4164 13.4899 44.1969 14.2692 45.1596 14.2692H111.581C113.75 14.2692 115.514 16.0306 115.514 18.1958C115.514 19.2452 115.105 20.2315 114.361 20.9744C113.62 21.7163 112.632 22.125 111.581 22.125H27.9534C25.7849 22.125 24.0208 20.3624 24.0208 18.196C24.0208 17.148 24.4296 16.1626 25.172 15.4212C25.916 14.6783 26.9038 14.2694 27.9534 14.2694H38.1869C39.1496 14.2694 39.9301 13.4901 39.9301 12.5289C39.9301 11.5676 39.1496 10.7884 38.1869 10.7884H31.2066L28.4875 -3.60251C28.0087 -6.15064 25.7754 -8 23.1766 -8H5.40404C2.42439 -8.00046 0 -5.57975 0 -2.60461C0 0.37052 2.42439 2.79124 5.40404 2.79124H18.6979L21.08 15.3994C20.7225 16.2754 20.5342 17.2209 20.5342 18.1956C20.5342 20.1774 21.3189 21.9788 22.5921 23.3097C22.6081 23.4373 22.627 23.5638 22.6518 23.6882L34.6471 84.5317C35.8838 90.8148 41.4366 95.375 47.8508 95.375H48.1864C47.1356 96.795 46.513 98.5492 46.513 100.447C46.513 105.163 50.3558 109 55.0793 109C59.8028 109 63.6457 105.163 63.6457 100.447C63.6457 98.5494 63.023 96.7952 61.9723 95.375H81.5378C80.487 96.795 79.8643 98.5492 79.8643 100.447C79.8643 105.163 83.7072 109 88.4307 109C93.1542 109 96.9971 105.163 96.9971 100.447C96.9971 98.5494 96.3744 96.7952 95.3236 95.375H101.42C104.399 95.375 106.823 92.9545 106.823 89.9793C106.823 87.0028 104.399 84.5814 101.42 84.5814H98.7886C97.8257 84.5814 97.0454 85.3607 97.0454 86.3219C97.0454 87.2832 97.8257 88.0624 98.7886 88.0624H101.42C102.477 88.0624 103.337 88.9225 103.337 89.9793C103.337 91.035 102.477 91.8939 101.42 91.8939H88.4667C88.4547 91.8939 47.851 91.8939 47.851 91.8939C43.0987 91.8939 38.9844 88.5154 38.0681 83.8599L26.5568 25.4721C27.0095 25.5587 27.476 25.6055 27.9534 25.6055H30.4914L37.881 63.0913C38.5281 66.3507 41.412 68.7167 44.7382 68.7167H95.4373C98.819 68.7167 101.712 66.3045 102.317 62.9801L109.094 25.6058H111.581C112.069 25.6058 112.549 25.5587 113.017 25.4677L106.092 63.664C105.158 68.8109 100.678 72.5465 95.4371 72.5465H44.7389C43.8998 72.5465 43.0457 72.4439 42.2001 72.2418C41.6226 72.104 41.0148 72.2682 40.5867 72.6788C40.1586 73.0893 39.9689 73.6892 40.0835 74.2705L41.8292 83.1219C42.394 85.9847 44.9267 88.0627 47.8508 88.0627H91.8531C92.8161 88.0627 93.5963 87.2834 93.5963 86.3222C93.5963 85.3609 92.8161 84.5816 91.8531 84.5816H47.851C46.5876 84.5816 45.4938 83.6847 45.25 82.4491L43.9793 76.0067C44.2331 76.0206 44.4865 76.0275 44.7389 76.0275H95.4371C102.365 76.0275 108.288 71.0886 109.522 64.2839L116.897 23.6042C116.914 23.5074 116.929 23.4109 116.941 23.3152C118.269 21.9307 119 20.1201 119 18.1958ZM60.1596 100.447C60.1596 103.244 57.8807 105.519 55.0796 105.519C52.2784 105.519 49.9995 103.244 49.9995 100.447C49.9995 97.662 52.2591 95.3947 55.0438 95.3752H55.1154C57.9 95.3947 60.1596 97.6618 60.1596 100.447ZM93.511 100.447C93.511 103.244 91.2319 105.519 88.4309 105.519C85.63 105.519 83.3509 103.244 83.3509 100.447C83.3509 97.662 85.6107 95.3947 88.3951 95.3752H88.4667C91.2512 95.3947 93.511 97.6618 93.511 100.447ZM5.40404 -0.689574C4.34652 -0.689574 3.48633 -1.5487 3.48633 -2.60438C3.48633 -3.66007 4.34675 -4.51919 5.40404 -4.51919H23.1766C24.0987 -4.51919 24.8912 -3.86382 25.0611 -2.95898L27.6598 10.7956C26.3355 10.8468 25.0727 11.2444 23.975 11.9441L21.856 0.728603C21.7008 -0.0936193 20.9812 -0.68911 20.1431 -0.68911H5.40404V-0.689574ZM90.5534 51.8605H100.79L100.096 55.6904H90.261L90.5534 51.8605ZM90.8191 48.3795L91.3311 41.6692H102.638L101.421 48.3795H90.8191ZM91.5968 38.1881L91.8892 34.3585H103.964L103.269 38.1881H91.5968ZM86.0363 65.2358H82.189L85.2133 25.6058H89.0606L86.0363 65.2358ZM48.0388 38.1881H36.5244L35.7697 34.3585H47.7211L48.0388 38.1881ZM48.3277 41.6692L48.8846 48.3795H38.5348L38.063 45.985C38.0561 45.9467 38.0479 45.9086 38.0386 45.871L37.2105 41.6694H48.3277V41.6692ZM39.221 51.8605H49.1735L49.4912 55.6904H39.9756L39.221 51.8605ZM50.493 25.6058H54.3407L57.6274 65.2358H53.7817L50.493 25.6058ZM79.4209 55.6904H60.3342L60.0164 51.8605H79.713L79.4209 55.6904ZM79.9787 48.3795H59.7278L59.1714 41.6692H80.491L79.9787 48.3795ZM80.7566 38.1881H58.8827L58.565 34.3585H81.0488L80.7566 38.1881ZM81.3144 30.8775H58.2763L57.8391 25.6058H81.7167L81.3144 30.8775ZM60.6228 59.1714H79.1552L78.6925 65.2358H61.1258L60.6228 59.1714ZM46.9945 25.6058L47.432 30.8775H35.0834L34.0445 25.6058H46.9945ZM41.3011 62.4169L40.6615 59.1714H49.7801L50.2833 65.2358H44.738C43.0708 65.2358 41.6251 64.0493 41.3011 62.4169ZM95.4373 65.2358H89.5326L89.9954 59.1714H99.4645L98.8864 62.3591C98.5834 64.0261 97.1328 65.2358 95.4373 65.2358ZM104.595 30.8775H92.1546L92.5569 25.6058H105.551L104.595 30.8775Z" fill="#D8D8D8"/>
</svg>
