<svg width="35" height="33" viewBox="0 0 35 33" fill="none" xmlns="http://www.w3.org/2000/svg">
<path d="M15.0723 0.214621C14.9746 0.122483 14.8433 0.0712494 14.7068 0.0720052H3.22328C1.44595 0.0720052 0 1.52134 0 3.30803V29.7594C0 31.5461 1.44595 32.9722 3.22328 32.9722H21.6869C23.4642 32.9722 24.9468 31.5461 24.9468 29.7594V9.78405C24.9399 9.64719 24.8774 9.5185 24.7729 9.42596L15.0723 0.214621ZM14.9681 1.56087L23.4994 9.6469H16.2829C15.5771 9.6469 14.9681 9.05268 14.9681 8.3247V1.56087ZM23.9043 29.76C23.9043 30.9911 22.8893 31.9649 21.6869 31.9649H3.22328C2.02084 31.9643 1.04255 30.9904 1.04255 29.7594V3.30803C1.04255 2.07712 2.02084 1.07989 3.22328 1.07989H13.9255V8.3247C13.9255 9.60846 15.0022 10.6548 16.2829 10.6548H23.9043V29.76Z" fill="white"/>
<path d="M4.50331 21.0936C4.50331 21.2272 4.55823 21.3554 4.65599 21.4499C4.75375 21.5444 4.88633 21.5975 5.02458 21.5975H19.4352C19.5037 21.5975 19.5714 21.5845 19.6347 21.5592C19.6979 21.5338 19.7554 21.4967 19.8038 21.4499C19.8522 21.4031 19.8906 21.3476 19.9168 21.2864C19.943 21.2253 19.9565 21.1598 19.9565 21.0936C19.9565 21.0274 19.943 20.9619 19.9168 20.9007C19.8906 20.8396 19.8522 20.784 19.8038 20.7372C19.7554 20.6904 19.6979 20.6533 19.6347 20.628C19.5714 20.6027 19.5037 20.5896 19.4352 20.5896H5.02458C4.88633 20.5896 4.75375 20.6427 4.65599 20.7372C4.55823 20.8318 4.50331 20.9599 4.50331 21.0936Z" fill="white"/>
<path d="M5.02458 16.1262H12.6803C12.8185 16.1262 12.9511 16.0731 13.0489 15.9786C13.1466 15.884 13.2016 15.7559 13.2016 15.6222C13.2016 15.4886 13.1466 15.3604 13.0489 15.2659C12.9511 15.1714 12.8185 15.1183 12.6803 15.1183H5.02458C4.88633 15.1183 4.75375 15.1714 4.65599 15.2659C4.55823 15.3604 4.50331 15.4886 4.50331 15.6222C4.50331 15.7559 4.55823 15.884 4.65599 15.9786C4.75375 16.0731 4.88633 16.1262 5.02458 16.1262Z" fill="white"/>
<path d="M19.4352 26.061H5.02458C4.88633 26.061 4.75375 26.1141 4.65599 26.2086C4.55823 26.3031 4.50331 26.4313 4.50331 26.565C4.50331 26.6986 4.55823 26.8268 4.65599 26.9213C4.75375 27.0158 4.88633 27.0689 5.02458 27.0689H19.4352C19.5735 27.0689 19.706 27.0158 19.8038 26.9213C19.9016 26.8268 19.9565 26.6986 19.9565 26.565C19.9565 26.4313 19.9016 26.3031 19.8038 26.2086C19.706 26.1141 19.5735 26.061 19.4352 26.061Z" fill="white"/>
<path d="M34.4787 3.23964H34.3346L34.3408 2.10491C34.345 1.82273 34.2904 1.54262 34.1804 1.28123C34.0704 1.01984 33.9072 0.782487 33.7004 0.58329C33.5097 0.397586 33.2828 0.250386 33.0327 0.150251C32.7827 0.0501165 32.5146 -0.000952925 32.2439 1.34629e-05H32.229C31.0807 1.34629e-05 30.1596 0.922443 30.1596 2.07244V3.20213L27.7625 3.16765H27.759C27.6916 3.16948 27.6251 3.18421 27.5636 3.21099C27.502 3.23776 27.4466 3.27606 27.4004 3.32365C27.3041 3.42292 27.252 3.55477 27.2553 3.69081V13.3288C27.2553 13.4624 27.3102 13.5906 27.408 13.6851C27.5058 13.7796 27.6383 13.8327 27.7766 13.8327C27.9148 13.8327 28.0474 13.7796 28.1452 13.6851C28.243 13.5906 28.2979 13.4624 28.2979 13.3288V4.19807L29.4894 4.20577V27.8334C29.4875 27.9064 29.5023 27.9789 29.5326 28.0457L31.7693 32.7083C31.8109 32.7954 31.8774 32.8691 31.9611 32.9208C32.0447 32.9725 32.1418 33 32.2411 33C32.3403 33 32.4375 32.9725 32.5211 32.9208C32.6047 32.8691 32.6712 32.7954 32.7129 32.7083L34.9518 28.0457C34.9837 27.9792 35.0002 27.9067 35 27.8334V3.71263C35 3.43402 34.7666 3.23964 34.4787 3.23964ZM31.2021 2.07244C31.2021 1.47433 31.6589 1.0079 32.2366 1.0079H32.2441C32.3773 1.00588 32.5095 1.02963 32.633 1.07775C32.7566 1.12587 32.8689 1.19738 32.9634 1.28809C33.0725 1.39605 33.1583 1.52388 33.2158 1.66417C33.2734 1.80445 33.3015 1.95439 33.2986 2.10527L33.2919 3.23964H31.2021V2.07244ZM32.2395 31.3268L30.8169 28.3647H33.6616L32.2395 31.3268ZM33.9574 27.3569H30.5319V15.7662H33.9574V27.3569ZM33.9574 14.7583H30.5319V13.5345H33.9574V14.7583ZM33.9574 12.5266H30.5319V4.24752H33.9574V12.5266Z" fill="white"/>
</svg>
