<svg width="39" height="39" viewBox="0 0 39 39" fill="none" xmlns="http://www.w3.org/2000/svg">
<path d="M1.85016 31.2778V38.4702C1.85016 38.7766 2.12441 38.9996 2.43461 38.9996H9.87701C9.94921 39.0024 10.0212 38.9908 10.0888 38.9654C10.1563 38.9401 10.218 38.9015 10.2702 38.8521C10.3223 38.8027 10.3638 38.7434 10.3922 38.6778C10.4206 38.6122 10.4354 38.5415 10.4355 38.4702V36.5995C10.4787 36.4757 10.5602 36.3686 10.6686 36.2934C10.7769 36.2182 10.9066 36.1786 11.039 36.1805C11.3699 36.1818 11.7495 36.1835 12.1091 36.1852C12.1607 36.2435 12.2242 36.2904 12.2953 36.3229C12.3665 36.3555 12.4438 36.3729 12.5222 36.374L15.8695 36.4247H15.889C16.3338 36.4239 16.7606 36.2505 17.0774 35.942C17.3941 35.6334 17.5756 35.2143 17.5828 34.7749C17.5886 34.5553 17.55 34.3368 17.4693 34.1321C17.3886 33.9274 17.2674 33.7407 17.1128 33.5829C16.8086 33.2816 16.4021 33.1027 15.9719 33.0808V31.6277H17.8475C17.9974 31.6314 18.146 31.5983 18.2799 31.5316C18.4138 31.4649 18.529 31.3665 18.6152 31.2452C18.7014 31.1239 18.7559 30.9835 18.7739 30.8364C18.7919 30.6893 18.7729 30.54 18.7185 30.4019L17.1548 26.3631C17.1536 25.9103 17.1499 24.8636 17.1412 24.725C17.0165 22.4793 16.0256 20.3661 14.3722 18.82C12.7189 17.2739 10.5287 16.4124 8.25205 16.4127C8.21859 16.4127 8.18481 16.4127 8.15135 16.4132C8.07459 16.414 7.99818 16.4158 7.92211 16.4186C6.5392 16.4664 5.19141 16.8615 4.0059 17.5665C2.82039 18.2716 1.83625 19.2634 1.14632 20.4484C0.43365 21.6452 0.0402268 23.0011 0.00292469 24.3891C-0.0343775 25.7771 0.285663 27.1518 0.93305 28.3842C1.17705 28.9828 1.76992 30.5858 1.85016 31.2778ZM16.2977 34.3557C16.4044 34.471 16.4624 34.6223 16.4596 34.7785C16.458 34.9282 16.398 35.0715 16.2921 35.1786C16.1862 35.2857 16.0425 35.3483 15.891 35.3533H15.8847L13.101 35.2805L13.1171 34.1643H15.8954C15.9719 34.1685 16.0468 34.1876 16.1158 34.2204C16.1848 34.2533 16.2466 34.2993 16.2977 34.3557ZM8.10867 17.5239C8.10867 17.5239 8.14261 17.5231 8.15569 17.5229C8.18537 17.5229 8.21883 17.5224 8.24836 17.5224C10.2396 17.5177 12.1565 18.2692 13.6026 19.6216C15.0487 20.9739 15.9133 22.8236 16.0177 24.7881C16.0232 24.8893 16.029 25.7289 16.0307 26.4674C16.0311 26.5295 16.0438 26.5909 16.0681 26.6482L17.5702 30.518H15.3885C15.0782 30.518 14.8486 30.7982 14.8486 31.1046V33.0545H12.5635C12.4148 33.0572 12.2729 33.117 12.168 33.2212C12.0632 33.3255 12.0036 33.466 12.0019 33.613L11.9943 34.1301L10.3942 34.1233C10.1004 34.1209 9.80999 34.0614 9.53951 33.948C9.26903 33.8347 9.02382 33.6698 8.81791 33.4627C8.612 33.2557 8.44943 33.0106 8.33949 32.7414C8.22955 32.4723 8.17439 32.1843 8.17719 31.8941L8.18337 31.2441C8.86337 31.098 9.47339 30.7291 9.91431 30.1972C10.3552 29.6653 10.6011 29.0018 10.6121 28.3144L10.6163 28.0041C10.6215 27.6033 10.546 27.2055 10.3942 26.8337C10.2424 26.462 10.0174 26.1237 9.73219 25.8386C9.29709 25.3891 8.72848 25.088 8.10867 24.979V17.5239ZM8.93639 26.6142C9.11683 26.7955 9.25895 27.0105 9.35446 27.2466C9.44998 27.4827 9.49699 27.7352 9.49276 27.9894L9.48875 28.2985C9.48073 28.8053 9.27153 29.2886 8.90622 29.6445C8.5409 30.0003 8.04872 30.2002 7.53569 30.2009H7.5174C7.25998 30.2006 7.00525 30.1491 6.76838 30.0495C6.53151 29.95 6.31734 29.8043 6.1386 29.6213C5.95824 29.4401 5.81616 29.2253 5.72066 28.9894C5.62516 28.7534 5.57813 28.5011 5.58232 28.247L5.58649 27.9369C5.59169 27.5556 5.71113 27.1844 5.92974 26.8701C6.14834 26.5558 6.4563 26.3125 6.81474 26.171C7.17318 26.0295 7.56602 25.9961 7.94368 26.075C8.32133 26.1538 8.66686 26.3415 8.93663 26.6142H8.93639ZM2.1082 21.0064C2.62409 20.1271 3.3276 19.3694 4.16984 18.7859C5.01207 18.2024 5.97284 17.807 6.98534 17.6274V24.9713C6.28079 25.0931 5.64175 25.4551 5.17944 25.9942C4.71714 26.5334 4.46084 27.2156 4.45514 27.9222V28.2326C4.44609 28.9645 4.70433 29.6751 5.18255 30.2343C5.66076 30.7934 6.32691 31.1636 7.05892 31.2769L7.05363 31.8845C7.04539 32.7501 7.3798 33.5847 7.98555 34.2102C8.59129 34.8358 9.42043 35.2028 10.2962 35.233C10.0585 35.3417 9.84851 35.5016 9.6815 35.7009C9.5145 35.9002 9.39474 36.1339 9.331 36.3848C9.31923 36.429 9.31301 36.4745 9.31247 36.5202V37.8899H2.97348V31.2501C2.97348 31.2329 2.98407 31.2158 2.98247 31.1987C2.89068 30.2253 2.06464 28.1742 1.97004 27.9436C1.96322 27.927 1.95848 27.9107 1.95022 27.8949C1.38204 26.828 1.09836 25.6357 1.12595 24.4305C1.15353 23.2252 1.49147 22.0468 2.10788 21.0064H2.1082Z" fill="black"/>
<path d="M29.7848 4.91465H32.5221C32.6711 4.91465 32.814 4.85619 32.9193 4.75213C33.0246 4.64807 33.0838 4.50694 33.0838 4.35978C33.0838 4.21262 33.0246 4.07148 32.9193 3.96743C32.814 3.86337 32.6711 3.80491 32.5221 3.80491H29.7848C29.6359 3.80491 29.493 3.86337 29.3877 3.96743C29.2824 4.07148 29.2232 4.21262 29.2232 4.35978C29.2232 4.50694 29.2824 4.64807 29.3877 4.75213C29.493 4.85619 29.6359 4.91465 29.7848 4.91465Z" fill="black"/>
<path d="M24.792 4.91465H27.9834C28.1324 4.91465 28.2753 4.85619 28.3806 4.75213C28.4859 4.64807 28.5451 4.50694 28.5451 4.35978C28.5451 4.21262 28.4859 4.07148 28.3806 3.96743C28.2753 3.86337 28.1324 3.80491 27.9834 3.80491H24.792C24.643 3.80491 24.5002 3.86337 24.3948 3.96743C24.2895 4.07148 24.2303 4.21262 24.2303 4.35978C24.2303 4.50694 24.2895 4.64807 24.3948 4.75213C24.5002 4.85619 24.643 4.91465 24.792 4.91465Z" fill="black"/>
<path d="M35.7303 3.80491H34.7253C34.5763 3.80491 34.4335 3.86337 34.3281 3.96743C34.2228 4.07148 34.1636 4.21262 34.1636 4.35978C34.1636 4.50694 34.2228 4.64807 34.3281 4.75213C34.4335 4.85619 34.5763 4.91465 34.7253 4.91465H35.7303C35.8792 4.91465 36.0221 4.85619 36.1274 4.75213C36.2327 4.64807 36.2919 4.50694 36.2919 4.35978C36.2919 4.21262 36.2327 4.07148 36.1274 3.96743C36.0221 3.86337 35.8792 3.80491 35.7303 3.80491Z" fill="black"/>
<path d="M23.6687 8.00607H28.9009C29.0498 8.00607 29.1927 7.94762 29.298 7.84356C29.4033 7.7395 29.4625 7.59836 29.4625 7.4512C29.4625 7.30404 29.4033 7.16291 29.298 7.05885C29.1927 6.95479 29.0498 6.89633 28.9009 6.89633H23.6687C23.5197 6.89633 23.3769 6.95479 23.2715 7.05885C23.1662 7.16291 23.107 7.30404 23.107 7.4512C23.107 7.59836 23.1662 7.7395 23.2715 7.84356C23.3769 7.94762 23.5197 8.00607 23.6687 8.00607Z" fill="black"/>
<path d="M35.7303 6.89633H30.8424C30.6935 6.89633 30.5506 6.95479 30.4453 7.05885C30.34 7.16291 30.2808 7.30404 30.2808 7.4512C30.2808 7.59836 30.34 7.7395 30.4453 7.84356C30.5506 7.94762 30.6935 8.00607 30.8424 8.00607H35.7303C35.8792 8.00607 36.0221 7.94762 36.1274 7.84356C36.2327 7.7395 36.2919 7.59836 36.2919 7.4512C36.2919 7.30404 36.2327 7.16291 36.1274 7.05885C36.0221 6.95479 35.8792 6.89633 35.7303 6.89633Z" fill="black"/>
<path d="M35.7303 9.98776H23.6185C23.4696 9.98776 23.3267 10.0462 23.2214 10.1503C23.116 10.2543 23.0569 10.3955 23.0569 10.5426C23.0569 10.6898 23.116 10.8309 23.2214 10.935C23.3267 11.039 23.4696 11.0975 23.6185 11.0975H35.7303C35.8792 11.0975 36.0221 11.039 36.1274 10.935C36.2327 10.8309 36.2919 10.6898 36.2919 10.5426C36.2919 10.3955 36.2327 10.2543 36.1274 10.1503C36.0221 10.0462 35.8792 9.98776 35.7303 9.98776Z" fill="black"/>
<path d="M36.6024 7.6451e-05H12.9275C11.6054 7.6451e-05 10.5158 1.03721 10.5158 2.3433V14.5759C10.5189 15.2073 10.7739 15.812 11.2253 16.2589C11.6768 16.7058 12.2884 16.9589 12.9275 16.9633H18.0581V19.348C18.0599 19.4536 18.0917 19.5565 18.1499 19.6451C18.2081 19.7336 18.2902 19.8043 18.3871 19.8489C18.4641 19.8845 18.5482 19.9029 18.6333 19.9029C18.7618 19.9064 18.8876 19.8659 18.9894 19.7884L22.5307 16.9633H36.6024C37.24 16.9583 37.8498 16.7046 38.2989 16.2574C38.748 15.8103 39 15.2058 39 14.5759V2.3433C38.9991 2.03367 38.9364 1.72727 38.8152 1.4417C38.6941 1.15613 38.5171 0.897021 38.2943 0.679269C38.0715 0.461518 37.8073 0.289416 37.5169 0.172857C37.2266 0.0562973 36.9158 -0.00242109 36.6024 7.6451e-05ZM37.8767 14.5759C37.8771 14.9117 37.7436 15.234 37.505 15.4732C37.2665 15.7123 36.9422 15.849 36.6024 15.8535H22.3317C22.201 15.8501 22.0731 15.8905 21.9686 15.9681L19.1814 18.184V16.3897C19.1831 16.3188 19.1703 16.2483 19.1436 16.1825C19.1169 16.1166 19.077 16.0568 19.0262 16.0067C18.9755 15.9565 18.9149 15.9171 18.8482 15.8908C18.7816 15.8645 18.7102 15.8518 18.6384 15.8535H12.9275C12.5862 15.8495 12.2602 15.7134 12.0193 15.4745C11.7784 15.2357 11.6419 14.9131 11.6391 14.5759V2.3433C11.6414 2.17864 11.6766 2.01604 11.7426 1.86485C11.8087 1.71365 11.9043 1.57682 12.024 1.46222C12.1437 1.34762 12.2851 1.2575 12.4402 1.19702C12.5952 1.13655 12.7608 1.10691 12.9275 1.10982H36.6024C36.7683 1.10716 36.9331 1.13707 37.0872 1.1978C37.2414 1.25853 37.3818 1.34888 37.5003 1.46362C37.6188 1.57835 37.7131 1.71518 37.7777 1.86619C37.8424 2.01719 37.876 2.17936 37.8767 2.3433V14.5759Z" fill="black"/>
<path d="M24.8656 13.0792H22.312C22.1631 13.0792 22.0202 13.1376 21.9149 13.2417C21.8095 13.3458 21.7504 13.4869 21.7504 13.6341C21.7504 13.7812 21.8095 13.9223 21.9149 14.0264C22.0202 14.1305 22.1631 14.1889 22.312 14.1889H24.8656C25.0145 14.1889 25.1574 14.1305 25.2627 14.0264C25.3681 13.9223 25.4272 13.7812 25.4272 13.6341C25.4272 13.4869 25.3681 13.3458 25.2627 13.2417C25.1574 13.1376 25.0145 13.0792 24.8656 13.0792Z" fill="black"/>
<path d="M20.4137 13.0792H13.8118C13.6629 13.0792 13.52 13.1376 13.4147 13.2417C13.3094 13.3458 13.2502 13.4869 13.2502 13.6341C13.2502 13.7812 13.3094 13.9223 13.4147 14.0264C13.52 14.1305 13.6629 14.1889 13.8118 14.1889H20.4137C20.5626 14.1889 20.7055 14.1305 20.8108 14.0264C20.9162 13.9223 20.9753 13.7812 20.9753 13.6341C20.9753 13.4869 20.9162 13.3458 20.8108 13.2417C20.7055 13.1376 20.5626 13.0792 20.4137 13.0792Z" fill="black"/>
<path d="M35.7303 13.0792H26.7478C26.5988 13.0792 26.456 13.1376 26.3506 13.2417C26.2453 13.3458 26.1861 13.4869 26.1861 13.6341C26.1861 13.7812 26.2453 13.9223 26.3506 14.0264C26.456 14.1305 26.5988 14.1889 26.7478 14.1889H35.7303C35.8792 14.1889 36.0221 14.1305 36.1274 14.0264C36.2327 13.9223 36.2919 13.7812 36.2919 13.6341C36.2919 13.4869 36.2327 13.3458 36.1274 13.2417C36.0221 13.1376 35.8792 13.0792 35.7303 13.0792Z" fill="black"/>
<path d="M13.5279 10.3012L17.5695 12.6056C17.6551 12.6543 17.7522 12.6799 17.851 12.6799C17.9497 12.6799 18.0468 12.6543 18.1324 12.6056L22.1814 10.3012C22.2679 10.253 22.3401 10.1833 22.391 10.099C22.4418 10.0147 22.4694 9.91876 22.4711 9.82066V5.2119C22.4694 5.11383 22.4418 5.0179 22.3911 4.93361C22.3403 4.84932 22.2681 4.77961 22.1816 4.73138L18.1371 2.427C18.0513 2.37828 17.9541 2.35264 17.8552 2.35264C17.7563 2.35264 17.6591 2.37828 17.5733 2.427L13.5293 4.73138C13.4434 4.7798 13.3717 4.84966 13.3216 4.93398C13.2715 5.0183 13.2447 5.11413 13.2438 5.2119V9.82066C13.2445 9.91831 13.271 10.0141 13.3209 10.0984C13.3707 10.1827 13.4421 10.2527 13.5279 10.3012ZM21.3478 9.50058L18.379 11.1642V7.8366L21.3478 6.17262V9.50058ZM20.7685 5.21222L17.852 6.87525L16.9156 6.34146L19.8321 4.67772L20.7685 5.21222ZM17.852 3.54824L18.7088 4.037L15.7923 5.70051L14.9354 5.21174L17.852 3.54824ZM14.3672 6.17262L17.2557 7.83636V11.1639L14.3672 9.50034V6.17262Z" fill="black"/>
</svg>
