<svg width="44" height="41" viewBox="0 0 44 41" fill="none" xmlns="http://www.w3.org/2000/svg">
<path d="M4.68465 2.7265C4.53952 2.7265 4.39764 2.76903 4.27696 2.84871C4.15627 2.92839 4.06221 3.04165 4.00665 3.17416C3.95109 3.30668 3.93654 3.45249 3.96483 3.59318C3.99312 3.73387 4.06298 3.8631 4.16558 3.96456C4.26818 4.06601 4.39892 4.13511 4.54126 4.16314C4.6836 4.19117 4.83115 4.17685 4.96526 4.12201C5.09937 4.06717 5.21401 3.97426 5.2947 3.85503C5.37538 3.7358 5.41848 3.5956 5.41856 3.45216C5.41844 3.2598 5.34109 3.07535 5.20349 2.9393C5.06589 2.80324 4.87929 2.72671 4.68465 2.7265Z" fill="black"/>
<path d="M7.61119 2.7265C7.46604 2.7265 7.32415 2.76904 7.20346 2.84874C7.08277 2.92843 6.9887 3.04171 6.93315 3.17425C6.87761 3.30678 6.86307 3.45261 6.89139 3.59331C6.91971 3.73401 6.98961 3.86324 7.09225 3.96468C7.19488 4.06612 7.32565 4.1352 7.46801 4.16318C7.61038 4.19117 7.75794 4.17681 7.89204 4.12191C8.02615 4.06701 8.14077 3.97405 8.22141 3.85477C8.30205 3.73549 8.34509 3.59526 8.34509 3.45181C8.34488 3.25951 8.26749 3.07515 8.1299 2.93917C7.99232 2.8032 7.80577 2.72671 7.61119 2.7265Z" fill="black"/>
<path d="M10.5377 2.7265C10.3926 2.7265 10.2507 2.76904 10.13 2.84874C10.0093 2.92843 9.91524 3.04171 9.85969 3.17425C9.80415 3.30678 9.78961 3.45261 9.81793 3.59331C9.84625 3.73401 9.91615 3.86324 10.0188 3.96468C10.1214 4.06612 10.2522 4.1352 10.3946 4.16318C10.5369 4.19117 10.6845 4.17681 10.8186 4.12191C10.9527 4.06701 11.0673 3.97405 11.1479 3.85477C11.2286 3.73549 11.2716 3.59526 11.2716 3.45181C11.2714 3.25951 11.194 3.07515 11.0564 2.93917C10.9189 2.8032 10.7323 2.72671 10.5377 2.7265Z" fill="black"/>
<path d="M13.4468 24.276C13.3905 24.2336 13.3263 24.2026 13.2579 24.1847C13.1895 24.1669 13.1182 24.1625 13.0481 24.1718C12.978 24.1812 12.9104 24.2041 12.8492 24.2393C12.7881 24.2745 12.7345 24.3212 12.6917 24.3768C12.5489 24.5618 12.3918 24.7355 12.2217 24.8963C12.1695 24.9444 12.1275 25.0022 12.0982 25.0665C12.0688 25.1307 12.0526 25.2 12.0506 25.2705C12.0485 25.341 12.0607 25.4111 12.0863 25.4769C12.1119 25.5427 12.1505 25.6028 12.1998 25.6537C12.249 25.7047 12.3081 25.7454 12.3734 25.7737C12.4388 25.8019 12.5092 25.817 12.5805 25.8181C12.6518 25.8193 12.7226 25.8064 12.7889 25.7803C12.8551 25.7541 12.9154 25.7153 12.9664 25.6659C13.1771 25.4667 13.3718 25.2515 13.5487 25.0222C13.6353 24.9099 13.6732 24.7682 13.6541 24.6283C13.635 24.4883 13.5604 24.3616 13.4468 24.276Z" fill="black"/>
<path d="M9.12327 27.1895C9.66598 27.1899 10.2058 27.1118 10.7257 26.9578C10.794 26.9381 10.8577 26.9053 10.9131 26.8612C10.9685 26.8171 11.0145 26.7626 11.0485 26.7008C11.0824 26.639 11.1037 26.5712 11.111 26.5012C11.1183 26.4313 11.1116 26.3606 11.0911 26.2933C11.0706 26.226 11.0368 26.1633 10.9917 26.1089C10.9466 26.0545 10.8911 26.0095 10.8283 25.9765C10.7655 25.9435 10.6967 25.923 10.6258 25.9164C10.555 25.9098 10.4836 25.9171 10.4156 25.9379C9.46623 26.2194 8.44919 26.1816 7.5239 25.8304C6.59862 25.4792 5.81741 24.8345 5.30273 23.9973C4.78805 23.1601 4.569 22.1779 4.67991 21.2045C4.79083 20.231 5.22544 19.3215 5.91563 18.6184C6.60581 17.9154 7.51254 17.4585 8.49368 17.3195C9.47482 17.1805 10.4749 17.3672 11.3372 17.8502C12.1994 18.3333 12.8751 19.0855 13.2583 19.989C13.6415 20.8924 13.7105 21.8959 13.4546 22.8422C13.4177 22.9787 13.4371 23.124 13.5086 23.2463C13.5801 23.3685 13.6978 23.4577 13.8359 23.4942C13.9739 23.5307 14.121 23.5115 14.2447 23.4408C14.3684 23.3701 14.4587 23.2538 14.4956 23.1173C14.7967 22.0081 14.7387 20.8335 14.3297 19.7585C13.9206 18.6835 13.1812 17.7622 12.2151 17.1238C11.249 16.4855 10.1049 16.1623 8.94345 16.1996C7.78198 16.2369 6.6615 16.6328 5.7394 17.3317C4.8173 18.0307 4.13989 18.9975 3.80233 20.0965C3.46476 21.1954 3.484 22.3713 3.85734 23.4589C4.23068 24.5465 4.93936 25.4912 5.88385 26.1603C6.82834 26.8294 7.96118 27.1893 9.12327 27.1895Z" fill="black"/>
<path d="M11.4676 21.2684L8.59805 19.1416C8.51668 19.0823 8.42038 19.0462 8.31967 19.0374C8.21896 19.0285 8.11773 19.0472 8.02704 19.0914C7.93675 19.1352 7.86051 19.203 7.80675 19.287C7.75299 19.3711 7.72381 19.4682 7.72245 19.5676V23.8213C7.72381 23.9207 7.75299 24.0178 7.80675 24.1019C7.86051 24.1859 7.93675 24.2537 8.02704 24.2976C8.10305 24.3345 8.18665 24.3538 8.27137 24.3537C8.38848 24.3538 8.50246 24.3164 8.59634 24.2472L11.4669 22.1205C11.5339 22.0709 11.5883 22.0067 11.6257 21.9328C11.6632 21.8589 11.6827 21.7773 11.6828 21.6947C11.6829 21.612 11.6635 21.5305 11.6261 21.4565C11.5888 21.3825 11.5345 21.3182 11.4677 21.2685L11.4676 21.2684ZM8.8 22.7564V20.6325L10.233 21.6944L8.8 22.7564Z" fill="black"/>
<path d="M2.96327 17.636C3.10616 17.636 3.2432 17.5799 3.34424 17.4801C3.44528 17.3802 3.50204 17.2448 3.50204 17.1036V10.3043C3.50204 10.1631 3.44528 10.0277 3.34424 9.9278C3.2432 9.82794 3.10616 9.77184 2.96327 9.77184C2.82037 9.77184 2.68333 9.82794 2.58229 9.9278C2.48125 10.0277 2.42449 10.1631 2.42449 10.3043V17.1036C2.42449 17.2448 2.48125 17.3802 2.58229 17.4801C2.68333 17.5799 2.82037 17.636 2.96327 17.636Z" fill="black"/>
<path d="M2.96327 9.26076C3.10616 9.26076 3.2432 9.20467 3.34424 9.10481C3.44528 9.00495 3.50204 8.86952 3.50204 8.7283V8.44431C3.50204 8.30309 3.44528 8.16766 3.34424 8.0678C3.2432 7.96795 3.10616 7.91185 2.96327 7.91185C2.82037 7.91185 2.68333 7.96795 2.58229 8.0678C2.48125 8.16766 2.42449 8.30309 2.42449 8.44431V8.7283C2.42449 8.86952 2.48125 9.00495 2.58229 9.10481C2.68333 9.20467 2.82037 9.26076 2.96327 9.26076Z" fill="black"/>
<path d="M35.5606 34.9654H33.6987C33.5558 34.9654 33.4188 35.0215 33.3177 35.1213C33.2167 35.2212 33.1599 35.3566 33.1599 35.4978C33.1599 35.6391 33.2167 35.7745 33.3177 35.8743C33.4188 35.9742 33.5558 36.0303 33.6987 36.0303H35.5606C35.7035 36.0303 35.8406 35.9742 35.9416 35.8743C36.0426 35.7745 36.0994 35.6391 36.0994 35.4978C36.0994 35.3566 36.0426 35.2212 35.9416 35.1213C35.8406 35.0215 35.7035 34.9654 35.5606 34.9654Z" fill="black"/>
<path d="M31.8168 34.9654H23.4374C23.2945 34.9654 23.1574 35.0215 23.0564 35.1213C22.9554 35.2212 22.8986 35.3566 22.8986 35.4978C22.8986 35.6391 22.9554 35.7745 23.0564 35.8743C23.1574 35.9742 23.2945 36.0303 23.4374 36.0303H31.8168C31.9597 36.0303 32.0968 35.9742 32.1978 35.8743C32.2989 35.7745 32.3556 35.6391 32.3556 35.4978C32.3556 35.3566 32.2989 35.2212 32.1978 35.1213C32.0968 35.0215 31.9597 34.9654 31.8168 34.9654Z" fill="black"/>
<path d="M35.5606 32.303H27.4582C27.3154 32.303 27.1783 32.3591 27.0773 32.459C26.9762 32.5588 26.9195 32.6943 26.9195 32.8355C26.9195 32.9767 26.9762 33.1122 27.0773 33.212C27.1783 33.3119 27.3154 33.368 27.4582 33.368H35.5606C35.7035 33.368 35.8406 33.3119 35.9416 33.212C36.0426 33.1122 36.0994 32.9767 36.0994 32.8355C36.0994 32.6943 36.0426 32.5588 35.9416 32.459C35.8406 32.3591 35.7035 32.303 35.5606 32.303Z" fill="black"/>
<path d="M23.4374 33.368H25.5765C25.7194 33.368 25.8564 33.3119 25.9575 33.212C26.0585 33.1122 26.1153 32.9767 26.1153 32.8355C26.1153 32.6943 26.0585 32.5588 25.9575 32.459C25.8564 32.3591 25.7194 32.303 25.5765 32.303H23.4374C23.2945 32.303 23.1574 32.3591 23.0564 32.459C22.9554 32.5588 22.8986 32.6943 22.8986 32.8355C22.8986 32.9767 22.9554 33.1122 23.0564 33.212C23.1574 33.3119 23.2945 33.368 23.4374 33.368Z" fill="black"/>
<path d="M36.939 24.8743L36.4571 23.7531V22.4674C36.4562 22.3584 36.4221 22.2522 36.3591 22.1626C36.2962 22.0731 36.2074 22.0044 36.1043 21.9655L29.3094 19.4921C29.1895 19.4479 29.0576 19.4473 28.9374 19.4904L22.1428 21.9593C22.0402 21.9966 21.9515 22.0639 21.8885 22.1522C21.8255 22.2405 21.7912 22.3456 21.7901 22.4536C21.7872 22.5609 21.8177 22.6664 21.8774 22.756C21.9372 22.8456 22.0233 22.9149 22.1242 22.9546L23.9755 23.6704V27.4621C23.9773 27.5714 24.0126 27.6776 24.0768 27.7666C24.1409 27.8557 24.2308 27.9234 24.3347 27.9609C27.4125 29.0969 30.8017 29.0969 33.8795 27.9609C33.9803 27.922 34.0664 27.8531 34.1259 27.7638C34.1854 27.6744 34.2154 27.569 34.2117 27.4621V23.6704L35.3791 23.237V23.756L34.9014 24.8496C34.7439 25.2096 34.6622 25.5975 34.6612 25.9897V27.5569C34.6612 27.8509 34.9111 28.132 35.209 28.132H36.5974C36.7487 28.1239 36.8916 28.0605 36.9983 27.9543C37.1051 27.8481 37.1682 27.7065 37.1755 27.5569V25.9688C37.1691 25.5923 37.0888 25.2206 36.939 24.8743ZM33.1347 27.0865C30.5147 27.9683 27.6731 27.9683 25.0531 27.0865V26.8579C26.3618 27.2585 27.7238 27.4633 29.0939 27.4656C30.4644 27.4699 31.8275 27.265 33.1347 26.8579V27.0865ZM33.1347 25.7385C30.5147 26.6204 27.673 26.6204 25.0531 25.7385V24.0853L28.9188 25.5697C28.9827 25.5937 29.0505 25.606 29.1188 25.606C29.1798 25.606 29.2402 25.5936 29.2962 25.5697L33.1347 24.0853V25.7385ZM29.1234 24.5024L23.8503 22.4729L29.1234 20.556L34.3963 22.4729L29.1234 24.5024ZM36.098 27.0671H35.7388V25.9897C35.74 25.7414 35.7923 25.4959 35.8926 25.2682L35.9054 25.2435L35.9398 25.2761C36.0373 25.4948 36.091 25.73 36.098 25.9688V27.0671Z" fill="black"/>
<path d="M39.8844 0H4.11562C3.02399 0.00232478 1.97781 0.432248 1.20635 1.19555C0.434898 1.95886 0.00109071 2.99328 0 4.07213V32.6703C0.00118697 33.7489 0.435094 34.783 1.20659 35.546C1.97809 36.3089 3.02421 36.7384 4.11562 36.7403H16.4327V38.4619C16.4327 39.135 16.7032 39.7806 17.1849 40.2566C17.6665 40.7326 18.3197 41 19.0008 41H37.84C38.5211 41 39.1743 40.7326 39.656 40.2566C40.1376 39.7806 40.4082 39.135 40.4082 38.4619V36.7008C42.4078 36.437 44 34.7306 44 32.6703V4.07213C43.9989 2.99328 43.5651 1.95886 42.7936 1.19555C42.0222 0.432248 40.976 0.00232478 39.8844 0ZM15.2653 3.95606V1.06494H26.6694V3.95606C26.6694 4.99135 25.8612 5.85714 24.814 5.85714H14.5356C14.9643 5.32468 15.2653 4.66912 15.2653 3.95606ZM1.07755 4.07213C1.07831 3.27562 1.39848 2.51187 1.96793 1.94821C2.53738 1.38455 3.30967 1.06693 4.11562 1.06494H14.1878V3.95606C14.1878 4.99135 13.2926 5.85714 12.2449 5.85714H1.07755V4.07213ZM39.3306 38.4568C39.3322 38.6497 39.2952 38.841 39.2218 39.0198C39.1485 39.1985 39.0402 39.3612 38.9031 39.4985C38.766 39.6358 38.6029 39.745 38.423 39.82C38.2432 39.8949 38.0502 39.934 37.855 39.9351H20.2041V13.3117H37.855C38.0475 13.3073 38.239 13.341 38.4181 13.4109C38.5972 13.4808 38.7604 13.5855 38.8979 13.7187C39.0354 13.8519 39.1446 14.011 39.2189 14.1866C39.2932 14.3622 39.3312 14.5507 39.3306 14.741V38.4568ZM42.9224 32.6703C42.9235 33.3768 42.6717 34.061 42.2116 34.6018C41.7515 35.1426 41.1127 35.5052 40.4082 35.6255V14.7848C40.4082 14.1117 40.1376 13.4661 39.656 12.9901C39.1743 12.5142 38.5211 12.2468 37.84 12.2468H19.0008C18.3197 12.2468 17.6665 12.5142 17.1849 12.9901C16.7032 13.4661 16.4327 14.1117 16.4327 14.7848V17.4827C16.4327 17.6239 16.4894 17.7593 16.5905 17.8592C16.6915 17.9591 16.8285 18.0152 16.9714 18.0152C17.1143 18.0152 17.2514 17.9591 17.3524 17.8592C17.4534 17.7593 17.5102 17.6239 17.5102 17.4827V14.741C17.5102 14.3619 17.6626 13.9984 17.9338 13.7303C18.205 13.4623 18.5729 13.3117 18.9565 13.3117H19.1265V39.9351H19.0112C18.6135 39.9339 18.2324 39.7773 17.9511 39.4993C17.6699 39.2214 17.5114 38.8447 17.5102 38.4516V21.21C17.5102 21.0687 17.4534 20.9333 17.3524 20.8334C17.2514 20.7336 17.1143 20.6775 16.9714 20.6775C16.8285 20.6775 16.6915 20.7336 16.5905 20.8334C16.4894 20.9333 16.4327 21.0687 16.4327 21.21V35.6753H4.11822C3.31251 35.673 2.54048 35.3556 1.97076 34.7926C1.40104 34.2295 1.07992 33.4665 1.07755 32.6703V6.92208H42.9224V32.6703ZM42.9224 5.85714H27.1047C27.5328 5.31485 27.7595 4.64375 27.7469 3.95606V1.06494H39.8844C40.6903 1.06695 41.4626 1.38458 42.032 1.94824C42.6015 2.51189 42.9217 3.27563 42.9224 4.07213V5.85714Z" fill="black"/>
</svg>
