<svg width="36" height="43" viewBox="0 0 36 43" fill="none" xmlns="http://www.w3.org/2000/svg">
<path d="M31.4416 3.09037H29.4811V0.693219C29.4811 0.509366 29.4093 0.333043 29.2816 0.203039C29.1539 0.0730356 28.9806 0 28.8 0C28.6194 0 28.4461 0.0730356 28.3184 0.203039C28.1907 0.333043 28.1189 0.509366 28.1189 0.693219V3.09037H7.88109V0.693219C7.88109 0.509366 7.80933 0.333043 7.6816 0.203039C7.55388 0.0730356 7.38064 0 7.20001 0C7.01937 0 6.84614 0.0730356 6.71841 0.203039C6.59068 0.333043 6.51893 0.509366 6.51893 0.693219V3.09037H4.55839C3.34603 3.09559 2.18522 3.59009 1.33065 4.46537C0.476069 5.34065 -0.00247495 6.52523 9.62665e-06 7.7592V38.3659C-0.000567899 38.9751 0.116984 39.5784 0.345926 40.1413C0.574868 40.7041 0.9107 41.2155 1.33417 41.646C1.75764 42.0765 2.26043 42.4177 2.8137 42.65C3.36698 42.8824 3.95987 43.0013 4.55839 43H31.4416C32.0401 43.0013 32.633 42.8824 33.1863 42.65C33.7396 42.4177 34.2424 42.0765 34.6658 41.646C35.0893 41.2155 35.4251 40.7041 35.6541 40.1413C35.883 39.5784 36.0006 38.9751 36 38.3659V7.7592C36.0025 6.52523 35.5239 5.34065 34.6694 4.46537C33.8148 3.59009 32.654 3.09559 31.4416 3.09037ZM34.6378 38.3659C34.6386 38.7931 34.5564 39.2162 34.396 39.6109C34.2356 40.0057 34.0001 40.3643 33.7031 40.6661C33.406 40.9679 33.0534 41.2069 32.6653 41.3695C32.2772 41.5321 31.8613 41.6151 31.4416 41.6135H4.55839C4.13869 41.6151 3.72285 41.5321 3.33475 41.3695C2.94665 41.2069 2.59395 40.9679 2.29693 40.6661C1.99991 40.3643 1.76442 40.0057 1.604 39.6109C1.44358 39.2162 1.3614 38.7931 1.36217 38.3659V7.7592C1.35927 6.89281 1.69417 6.06063 2.29338 5.44526C2.89259 4.8299 3.70717 4.4816 4.55839 4.47681H6.51893V6.32374C6.51893 6.5076 6.59068 6.68392 6.71841 6.81392C6.84614 6.94393 7.01937 7.01696 7.20001 7.01696C7.38064 7.01696 7.55388 6.94393 7.6816 6.81392C7.80933 6.68392 7.88109 6.5076 7.88109 6.32374V4.47681H28.1189V6.32374C28.1189 6.5076 28.1907 6.68392 28.3184 6.81392C28.4461 6.94393 28.6194 7.01696 28.8 7.01696C28.9806 7.01696 29.1539 6.94393 29.2816 6.81392C29.4093 6.68392 29.4811 6.5076 29.4811 6.32374V4.47681H31.4416C32.2928 4.4816 33.1074 4.8299 33.7066 5.44526C34.3058 6.06063 34.6407 6.89281 34.6378 7.7592V38.3659Z" fill="black"/>
<path d="M12.2618 20.9101L8.46925 24.601L6.61622 22.7144C6.55298 22.65 6.47789 22.599 6.39525 22.5641C6.31262 22.5293 6.22405 22.5114 6.1346 22.5114C6.04516 22.5114 5.95659 22.5293 5.87395 22.5641C5.79131 22.599 5.71623 22.65 5.65298 22.7144C5.58973 22.7788 5.53956 22.8552 5.50533 22.9393C5.4711 23.0234 5.45349 23.1136 5.45349 23.2046C5.45349 23.2957 5.4711 23.3858 5.50533 23.4699C5.53956 23.554 5.58973 23.6305 5.65298 23.6948L7.97731 26.0606C8.10317 26.1887 8.27331 26.2616 8.45131 26.2636C8.6293 26.2657 8.801 26.1967 8.92966 26.0715L13.2036 21.9122C13.3342 21.7851 13.4098 21.6104 13.4139 21.4266C13.4179 21.2428 13.3501 21.0648 13.2252 20.932C13.1004 20.7991 12.9288 20.7221 12.7482 20.718C12.5676 20.7138 12.3928 20.7829 12.2622 20.91L12.2618 20.9101Z" fill="black"/>
<path d="M29.8658 22.7976H18.6766C18.496 22.7976 18.3227 22.8706 18.195 23.0006C18.0673 23.1306 17.9955 23.307 17.9955 23.4908C17.9955 23.6747 18.0673 23.851 18.195 23.981C18.3227 24.111 18.496 24.184 18.6766 24.184H29.8658C30.0464 24.184 30.2197 24.111 30.3474 23.981C30.4751 23.851 30.5469 23.6747 30.5469 23.4908C30.5469 23.307 30.4751 23.1306 30.3474 23.0006C30.2197 22.8706 30.0464 22.7976 29.8658 22.7976Z" fill="black"/>
<path d="M12.2618 11.0069L8.46925 14.6978L6.61622 12.8113C6.55298 12.7469 6.47789 12.6958 6.39525 12.661C6.31262 12.6262 6.22405 12.6082 6.1346 12.6082C6.04516 12.6082 5.95659 12.6262 5.87395 12.661C5.79131 12.6958 5.71623 12.7469 5.65298 12.8113C5.58973 12.8757 5.53956 12.9521 5.50533 13.0362C5.4711 13.1203 5.45349 13.2105 5.45349 13.3015C5.45349 13.3925 5.4711 13.4827 5.50533 13.5668C5.53956 13.6509 5.58973 13.7273 5.65298 13.7917L7.97731 16.1575C8.10317 16.2856 8.27331 16.3585 8.45131 16.3605C8.6293 16.3625 8.801 16.2936 8.92966 16.1683L13.2036 12.009C13.3342 11.882 13.4098 11.7073 13.4139 11.5235C13.4179 11.3397 13.3501 11.1617 13.2252 11.0288C13.1004 10.8959 12.9288 10.8189 12.7482 10.8148C12.5676 10.8107 12.3928 10.8798 12.2622 11.0068L12.2618 11.0069Z" fill="black"/>
<path d="M29.8658 12.8945H18.6766C18.496 12.8945 18.3227 12.9675 18.195 13.0975C18.0673 13.2275 17.9955 13.4038 17.9955 13.5877C17.9955 13.7715 18.0673 13.9479 18.195 14.0779C18.3227 14.2079 18.496 14.2809 18.6766 14.2809H29.8658C30.0464 14.2809 30.2197 14.2079 30.3474 14.0779C30.4751 13.9479 30.5469 13.7715 30.5469 13.5877C30.5469 13.4038 30.4751 13.2275 30.3474 13.0975C30.2197 12.9675 30.0464 12.8945 29.8658 12.8945Z" fill="black"/>
<path d="M12.2618 30.8132L8.46925 34.5041L6.61622 32.6175C6.55298 32.5532 6.47789 32.5021 6.39525 32.4673C6.31262 32.4324 6.22405 32.4145 6.1346 32.4145C6.04516 32.4145 5.95659 32.4324 5.87395 32.4673C5.79131 32.5021 5.71623 32.5532 5.65298 32.6175C5.58973 32.6819 5.53956 32.7583 5.50533 32.8425C5.4711 32.9266 5.45349 33.0167 5.45349 33.1077C5.45349 33.1988 5.4711 33.2889 5.50533 33.373C5.53956 33.4572 5.58973 33.5336 5.65298 33.598L7.97731 35.9637C8.10317 36.0918 8.27331 36.1647 8.45131 36.1668C8.6293 36.1688 8.801 36.0998 8.92966 35.9746L13.2036 31.8153C13.3342 31.6882 13.4098 31.5136 13.4139 31.3297C13.4179 31.1459 13.3501 30.968 13.2252 30.8351C13.1004 30.7022 12.9288 30.6252 12.7482 30.6211C12.5676 30.617 12.3928 30.686 12.2622 30.8131L12.2618 30.8132Z" fill="black"/>
<path d="M29.8658 32.7007H18.6766C18.496 32.7007 18.3227 32.7738 18.195 32.9038C18.0673 33.0338 17.9955 33.2101 17.9955 33.394C17.9955 33.5778 18.0673 33.7541 18.195 33.8841C18.3227 34.0141 18.496 34.0872 18.6766 34.0872H29.8658C30.0464 34.0872 30.2197 34.0141 30.3474 33.8841C30.4751 33.7541 30.5469 33.5778 30.5469 33.394C30.5469 33.2101 30.4751 33.0338 30.3474 32.9038C30.2197 32.7738 30.0464 32.7007 29.8658 32.7007Z" fill="black"/>
</svg>
