<svg width="36" height="40" viewBox="0 0 36 40" fill="none" xmlns="http://www.w3.org/2000/svg">
<path d="M12.4202 26.6005C12.5643 26.6005 12.7025 26.5404 12.8044 26.4336C12.9063 26.3267 12.9635 26.1817 12.9635 26.0305V19.4352C12.9635 19.284 12.9063 19.1391 12.8044 19.0322C12.7025 18.9253 12.5643 18.8652 12.4202 18.8652H8.6166C8.47249 18.8652 8.33428 18.9253 8.23238 19.0322C8.13048 19.1391 8.07323 19.284 8.07323 19.4352V26.0305C8.07323 26.1817 8.13048 26.3267 8.23238 26.4336C8.33428 26.5404 8.47249 26.6005 8.6166 26.6005H12.4202ZM9.15996 20.0052H11.9544V25.3791H9.15996V20.0052Z" fill="white"/>
<path d="M5.12352 25.9491V14.7126C5.12352 14.5615 5.06627 14.4165 4.96437 14.3096C4.86247 14.2027 4.72426 14.1427 4.58015 14.1427H0.776576C0.632465 14.1427 0.494258 14.2027 0.392357 14.3096C0.290455 14.4165 0.233208 14.5615 0.233208 14.7126V25.9491C0.233208 26.1003 0.290455 26.2452 0.392357 26.3521C0.494258 26.459 0.632465 26.5191 0.776576 26.5191H4.58015C4.72426 26.5191 4.86247 26.459 4.96437 26.3521C5.06627 26.2452 5.12352 26.1003 5.12352 25.9491ZM4.11441 25.3791H1.31994V15.2826H4.11441V25.3791Z" fill="white"/>
<path d="M2.71143 11.4313C3.12494 11.4312 3.53293 11.3318 3.90412 11.1406C4.2753 10.9495 4.59982 10.6717 4.85277 10.3285L7.94127 12.5841C7.84869 12.9748 7.83627 13.3817 7.90483 13.7779C7.97339 14.174 8.12137 14.5504 8.33897 14.882C8.55657 15.2137 8.83883 15.4931 9.16709 15.7018C9.49534 15.9105 9.8621 16.0437 10.2431 16.0926C10.6241 16.1415 11.0106 16.1049 11.3772 15.9854C11.7437 15.8659 12.0818 15.666 12.3692 15.3992C12.6566 15.1323 12.8867 14.8044 13.0443 14.4373C13.2019 14.0702 13.2833 13.6721 13.2833 13.2695C13.283 13.1538 13.2761 13.0382 13.2625 12.9234L16.5235 10.0386C16.9603 10.4943 17.5321 10.7803 18.1446 10.8494C18.7572 10.9186 19.3739 10.7668 19.8931 10.419C20.4124 10.0712 20.8032 9.54826 21.0012 8.93629C21.1991 8.32432 21.1924 7.65987 20.9821 7.05245L23.924 4.22354C24.2445 4.82797 24.764 5.28909 25.3854 5.52052C26.0067 5.75194 26.6871 5.73779 27.2992 5.48071C27.9113 5.22363 28.413 4.74126 28.7104 4.12399C29.0077 3.50671 29.0803 2.79689 28.9145 2.12751C28.7487 1.45813 28.3559 0.875122 27.8098 0.487728C27.2636 0.100334 26.6015 -0.0648659 25.9475 0.0230799C25.2935 0.111026 24.6925 0.446083 24.2572 0.965474C23.8218 1.48486 23.5819 2.15295 23.5825 2.84455C23.5825 2.89715 23.584 2.94934 23.5868 3.00121L20.3988 6.06665C19.9651 5.58572 19.3849 5.2787 18.7585 5.19859C18.132 5.11847 17.4986 5.27029 16.9674 5.62783C16.4363 5.98538 16.0409 6.52621 15.8493 7.15698C15.6578 7.78774 15.6822 8.46886 15.9184 9.08275L12.8767 11.7736C12.6459 11.3816 12.3276 11.0544 11.9494 10.8201C11.5712 10.5859 11.1443 10.4517 10.7056 10.4291C10.2668 10.4065 9.82946 10.4962 9.43115 10.6904C9.03285 10.8846 8.68557 11.1776 8.41928 11.544L5.3376 9.29339C5.47794 8.71904 5.44364 8.11305 5.2395 7.56015C5.03535 7.00726 4.67157 6.53512 4.19903 6.20976C3.7265 5.8844 3.16883 5.72209 2.60403 5.74554C2.03922 5.76899 1.49553 5.97702 1.04898 6.34054C0.602437 6.70405 0.275369 7.20487 0.11352 7.77296C-0.0483285 8.34105 -0.0368632 8.948 0.146312 9.50891C0.329488 10.0698 0.675214 10.5567 1.13514 10.9013C1.59506 11.246 2.14619 11.4313 2.71143 11.4313ZM26.294 1.14068C26.6152 1.14066 26.9293 1.24058 27.1964 1.42779C27.4636 1.61501 27.6718 1.88111 27.7947 2.19245C27.9177 2.50379 27.9499 2.84639 27.8872 3.17691C27.8245 3.50743 27.6698 3.81104 27.4427 4.04934C27.2155 4.28764 26.9261 4.44993 26.611 4.51568C26.2959 4.58143 25.9693 4.54769 25.6725 4.41873C25.3756 4.28977 25.1219 4.07138 24.9435 3.79118C24.765 3.51098 24.6697 3.18155 24.6697 2.84455C24.6702 2.39283 24.8415 1.95975 25.146 1.64033C25.4505 1.32091 25.8633 1.14122 26.294 1.14068ZM18.4332 6.31833C18.7544 6.31833 19.0685 6.41826 19.3356 6.60549C19.6027 6.79271 19.8109 7.05882 19.9339 7.37016C20.0568 7.6815 20.089 8.0241 20.0263 8.35461C19.9636 8.68513 19.8089 8.98873 19.5818 9.22703C19.3546 9.46532 19.0651 9.62759 18.7501 9.69334C18.435 9.75908 18.1084 9.72534 17.8115 9.59638C17.5147 9.46742 17.261 9.24903 17.0826 8.96883C16.9041 8.68863 16.8088 8.3592 16.8088 8.02221C16.8093 7.57047 16.9806 7.13738 17.2851 6.81796C17.5896 6.49853 18.0025 6.31885 18.4332 6.31833ZM10.5723 11.5656C10.8935 11.5656 11.2076 11.6655 11.4747 11.8527C11.7419 12.0399 11.9501 12.306 12.073 12.6174C12.196 12.9287 12.2282 13.2713 12.1655 13.6018C12.1028 13.9324 11.9481 14.236 11.721 14.4743C11.4938 14.7126 11.2044 14.8749 10.8893 14.9406C10.5742 15.0064 10.2476 14.9726 9.95073 14.8437C9.65392 14.7147 9.40022 14.4963 9.22173 14.2161C9.04324 13.9359 8.94797 13.6065 8.94797 13.2695C8.94847 12.8178 9.11975 12.3847 9.42425 12.0653C9.72876 11.7458 10.1416 11.5661 10.5723 11.5656ZM2.71143 6.88325C3.03269 6.88325 3.34675 6.98318 3.61387 7.1704C3.88099 7.35762 4.08919 7.62372 4.21214 7.93506C4.33508 8.2464 4.36725 8.58899 4.30458 8.9195C4.24191 9.25002 4.08722 9.55362 3.86005 9.79191C3.63289 10.0302 3.34346 10.1925 3.02837 10.2582C2.71328 10.324 2.38668 10.2903 2.08987 10.1613C1.79305 10.0324 1.53936 9.81399 1.36086 9.5338C1.18237 9.25361 1.08709 8.9242 1.08707 8.5872C1.08756 8.13546 1.25886 7.70237 1.56338 7.38293C1.86789 7.06349 2.28077 6.88379 2.71143 6.88325Z" fill="white"/>
<path d="M28.7212 20.0845V8.94303C28.7212 8.62824 28.5136 8.36158 28.2135 8.36158H24.3743C24.229 8.36423 24.0906 8.4267 23.989 8.5355C23.8873 8.64429 23.8305 8.79068 23.8309 8.94303V20.1277C22.7831 20.4419 21.7881 20.9244 20.8812 21.5581V14.1002C20.8812 13.7854 20.6529 13.4913 20.3527 13.4913H16.5136C16.2135 13.4913 15.9909 13.7854 15.9909 14.1002V25.9881C15.9893 26.0598 16.0019 26.131 16.0279 26.1973C16.0538 26.2636 16.0925 26.3236 16.1416 26.3734C16.1907 26.4233 16.2491 26.462 16.3131 26.487C16.3771 26.5121 16.4454 26.523 16.5136 26.5191H17.2594C16.9086 27.5984 16.7276 28.7305 16.7238 29.8709C16.7238 35.4508 21.0515 40 26.371 40C31.6905 40 36 35.4653 36 29.8854C36 25.1692 32.9129 21.2013 28.7212 20.0845ZM24.9176 9.50151H27.6345V19.8631C27.2099 19.8005 26.7816 19.7697 26.3528 19.771C25.8723 19.7707 25.3925 19.8093 24.9176 19.8866V9.50151ZM17.0776 25.3791V14.6312H19.7944V22.4723C18.9487 23.3099 18.2457 24.293 17.7159 25.3791H17.0776ZM26.3708 38.8697C24.6778 38.8697 23.0227 38.3431 21.6149 37.3564C20.2072 36.3698 19.11 34.9674 18.462 33.3266C17.8141 31.6859 17.6446 29.8804 17.9748 28.1386C18.3051 26.3968 19.1204 24.7968 20.3175 23.541C21.5147 22.2852 23.04 21.4299 24.7005 21.0834C26.3611 20.7369 28.0823 20.9147 29.6465 21.5943C31.2107 22.2739 32.5477 23.4248 33.4883 24.9014C34.429 26.378 34.9311 28.1141 34.9311 29.89C34.9286 32.2707 34.0259 34.5531 32.4211 36.2365C30.8163 37.92 28.6404 38.8669 26.3708 38.8697Z" fill="white"/>
<path d="M31.3107 26.5761L26.6479 23.7555C26.5649 23.7054 26.4707 23.6791 26.3749 23.6791C26.2791 23.6791 26.1849 23.7054 26.1019 23.7555L21.4539 26.5761C21.3725 26.6266 21.3053 26.699 21.2592 26.7857C21.2131 26.8724 21.1898 26.9704 21.1917 27.0697V32.7109C21.1896 32.81 21.2126 32.9079 21.2584 32.9947C21.3043 33.0814 21.3712 33.1538 21.4525 33.2045L26.1046 36.0251C26.1864 36.0751 26.2795 36.1014 26.3742 36.1014C26.4689 36.1014 26.562 36.0751 26.6438 36.0251L31.3114 33.2045C31.3953 33.155 31.4654 33.0835 31.5148 32.9969C31.5642 32.9103 31.5913 32.8117 31.5933 32.7109V27.0697C31.5911 26.9687 31.564 26.8701 31.5144 26.7836C31.4649 26.697 31.3947 26.6255 31.3107 26.5761ZM26.3708 24.9069L27.5668 25.6316L23.9961 27.7938L22.8001 27.0695L26.3708 24.9069ZM25.8491 34.5443L22.2784 32.3816V28.0564L25.8491 30.2188V34.5443ZM26.3708 29.2317L25.0831 28.4519L28.6538 26.2896L29.9415 27.0695L26.3708 29.2317ZM30.5066 32.3816L26.9359 34.5441V30.219L30.5066 28.0565V32.3816Z" fill="white"/>
</svg>
