<svg width="42" height="42" viewBox="0 0 42 42" fill="none" xmlns="http://www.w3.org/2000/svg">
<path d="M6.55533 42H37.0766C37.1641 41.9999 37.2507 41.982 37.3311 41.9474C38.6222 41.7672 39.8049 41.1299 40.6624 40.1522C41.5199 39.1745 41.9948 37.9219 42 36.624V23.8645C41.9939 23.708 41.9283 23.5597 41.8166 23.4494C41.7049 23.3391 41.5554 23.2751 41.3981 23.2703H32.3077V0.567584C32.3077 0.417056 32.2476 0.272693 32.1407 0.166253C32.0338 0.0598135 31.8888 1.65233e-05 31.7376 1.65233e-05H0.601873C0.447323 -0.00112904 0.298327 0.0573308 0.186122 0.16314C0.073917 0.26895 0.00721515 0.413893 0 0.567584V35.5058C0 39.0865 2.95815 42 6.55533 42ZM32.3077 24.4054H40.8597V36.624C40.8597 37.753 40.4092 38.8357 39.6073 39.634C38.8054 40.4323 37.7178 40.8808 36.5837 40.8808C35.4496 40.8808 34.362 40.4323 33.5601 39.634C32.7582 38.8357 32.3077 37.753 32.3077 36.624V24.4054ZM1.14027 1.13515H31.1674V36.624C31.1676 37.4425 31.3558 38.2502 31.7176 38.9852C32.0794 39.7202 32.6052 40.3632 33.2549 40.8649H6.55533C3.58701 40.8649 1.14027 38.4607 1.14027 35.5058V1.13515Z" fill="black"/>
<path d="M37.1538 28.1261C37.3051 28.1261 37.4501 28.0663 37.557 27.9599C37.6639 27.8534 37.724 27.7091 37.724 27.5585V26.9626C37.724 26.8121 37.6639 26.6677 37.557 26.5613C37.4501 26.4548 37.3051 26.395 37.1538 26.395C37.0026 26.395 36.8576 26.4548 36.7507 26.5613C36.6438 26.6677 36.5837 26.8121 36.5837 26.9626V27.5585C36.5837 27.7091 36.6438 27.8534 36.7507 27.9599C36.8576 28.0663 37.0026 28.1261 37.1538 28.1261Z" fill="black"/>
<path d="M37.1538 36.2612C37.3051 36.2612 37.4501 36.2014 37.557 36.095C37.6639 35.9886 37.724 35.8442 37.724 35.6937V29.7342C37.724 29.5837 37.6639 29.4393 37.557 29.3329C37.4501 29.2264 37.3051 29.1666 37.1538 29.1666C37.0026 29.1666 36.8576 29.2264 36.7507 29.3329C36.6438 29.4393 36.5837 29.5837 36.5837 29.7342V35.6937C36.5837 35.8442 36.6438 35.9886 36.7507 36.095C36.8576 36.2014 37.0026 36.2612 37.1538 36.2612Z" fill="black"/>
<path d="M4.76928 14.3784H26.2167C26.368 14.3784 26.513 14.3186 26.6199 14.2122C26.7268 14.1057 26.7869 13.9614 26.7869 13.8108C26.7869 13.6603 26.7268 13.5159 26.6199 13.4095C26.513 13.3031 26.368 13.2433 26.2167 13.2433H4.76928C4.61807 13.2433 4.47305 13.3031 4.36613 13.4095C4.25921 13.5159 4.19914 13.6603 4.19914 13.8108C4.19914 13.9614 4.25921 14.1057 4.36613 14.2122C4.47305 14.3186 4.61807 14.3784 4.76928 14.3784Z" fill="black"/>
<path d="M4.76928 23.8378H12.733C12.8842 23.8378 13.0293 23.778 13.1362 23.6716C13.2431 23.5652 13.3032 23.4208 13.3032 23.2703C13.3032 23.1197 13.2431 22.9754 13.1362 22.8689C13.0293 22.7625 12.8842 22.7027 12.733 22.7027H4.76928C4.61807 22.7027 4.47305 22.7625 4.36613 22.8689C4.25921 22.9754 4.19914 23.1197 4.19914 23.2703C4.19914 23.4208 4.25921 23.5652 4.36613 23.6716C4.47305 23.778 4.61807 23.8378 4.76928 23.8378Z" fill="black"/>
<path d="M4.76928 36.7027H12.7072C12.8584 36.7027 13.0034 36.6429 13.1103 36.5365C13.2173 36.43 13.2773 36.2857 13.2773 36.1351C13.2773 35.9846 13.2173 35.8402 13.1103 35.7338C13.0034 35.6274 12.8584 35.5676 12.7072 35.5676H4.76928C4.61807 35.5676 4.47305 35.6274 4.36613 35.7338C4.25921 35.8402 4.19914 35.9846 4.19914 36.1351C4.19914 36.2857 4.25921 36.43 4.36613 36.5365C4.47305 36.6429 4.61807 36.7027 4.76928 36.7027Z" fill="black"/>
<path d="M4.76928 28.7568H12.7072C12.8584 28.7568 13.0034 28.697 13.1103 28.5905C13.2173 28.4841 13.2773 28.3397 13.2773 28.1892C13.2773 28.0387 13.2173 27.8943 13.1103 27.7879C13.0034 27.6814 12.8584 27.6216 12.7072 27.6216H4.76928C4.61807 27.6216 4.47305 27.6814 4.36613 27.7879C4.25921 27.8943 4.19914 28.0387 4.19914 28.1892C4.19914 28.3397 4.25921 28.4841 4.36613 28.5905C4.47305 28.697 4.61807 28.7568 4.76928 28.7568Z" fill="black"/>
<path d="M4.76928 32.7297H12.7072C12.8584 32.7297 13.0034 32.6699 13.1103 32.5635C13.2173 32.4571 13.2773 32.3127 13.2773 32.1622C13.2773 32.0116 13.2173 31.8673 13.1103 31.7608C13.0034 31.6544 12.8584 31.5946 12.7072 31.5946H4.76928C4.61807 31.5946 4.47305 31.6544 4.36613 31.7608C4.25921 31.8673 4.19914 32.0116 4.19914 32.1622C4.19914 32.3127 4.25921 32.4571 4.36613 32.5635C4.47305 32.6699 4.61807 32.7297 4.76928 32.7297Z" fill="black"/>
<path d="M4.76928 18.9189H26.2167C26.368 18.9189 26.513 18.8591 26.6199 18.7527C26.7268 18.6463 26.7869 18.5019 26.7869 18.3514C26.7869 18.2008 26.7268 18.0565 26.6199 17.95C26.513 17.8436 26.368 17.7838 26.2167 17.7838H4.76928C4.61807 17.7838 4.47305 17.8436 4.36613 17.95C4.25921 18.0565 4.19914 18.2008 4.19914 18.3514C4.19914 18.5019 4.25921 18.6463 4.36613 18.7527C4.47305 18.8591 4.61807 18.9189 4.76928 18.9189Z" fill="black"/>
<path d="M5.36878 9.81449C5.6357 9.81449 5.8914 9.70561 5.8914 9.48757V7.1717L7.21383 9.52843C7.34382 9.7669 7.57235 9.81449 7.81865 9.81449C8.08557 9.81449 8.36199 9.70561 8.36199 9.48757V5.15542C8.36199 4.93066 8.10629 4.83531 7.83937 4.83531C7.57245 4.83531 7.31674 4.93076 7.31674 5.15542V7.47128L6.1988 5.36656C5.93882 4.86937 5.77909 4.83531 5.39596 4.83531C5.12913 4.83541 4.84615 4.93785 4.84615 5.16232V9.48785C4.84615 9.70542 5.10195 9.81449 5.36878 9.81449Z" fill="black"/>
<path d="M9.84254 9.83785H12.2783C12.5042 9.83785 12.6 9.58963 12.6 9.37169C12.6 9.11969 12.4836 8.8919 12.2783 8.8919H10.4525V7.75677H11.471C11.6968 7.75677 11.7926 7.5218 11.7926 7.3379C11.7926 7.12034 11.6763 6.90542 11.471 6.90542H10.4525V5.77028H12.2783C12.4836 5.77028 12.6 5.5425 12.6 5.2905C12.6 5.07293 12.5042 4.82434 12.2783 4.82434H9.84254C9.60992 4.82434 9.40724 4.94438 9.40724 5.16232V9.48785C9.40724 9.70542 9.60992 9.83785 9.84254 9.83785Z" fill="black"/>
<path d="M14.3649 9.50119C14.4401 9.73957 14.7544 9.85544 15.0695 9.85544C15.3775 9.85544 15.7062 9.73957 15.7606 9.50119L16.1164 7.88684L16.4723 9.50119C16.527 9.73957 16.8554 9.85544 17.1633 9.85544C17.4781 9.85544 17.786 9.73957 17.8681 9.50119L19.2296 5.34631C19.2386 5.3176 19.2432 5.28773 19.2433 5.25768C19.2433 5.02611 18.8602 4.83541 18.5523 4.83541C18.388 4.83541 18.2512 4.88989 18.2102 5.03292L17.1706 8.52715L16.6301 6.22491C16.5891 6.04101 16.3496 5.94566 16.117 5.94566C15.8844 5.94566 15.6449 6.04101 15.6039 6.22491L15.0633 8.52715L14.0227 5.03292C13.9816 4.88989 13.8448 4.83541 13.6806 4.83541C13.3727 4.83541 12.9895 5.02611 12.9895 5.25768C12.9896 5.28773 12.9942 5.3176 13.0032 5.34631L14.3649 9.50119Z" fill="black"/>
<path d="M21.2954 8.92908C20.6588 8.92908 20.4538 8.42499 20.1323 8.42499C19.8723 8.42499 19.6666 8.76553 19.6666 8.99719C19.6666 9.4467 20.4192 9.88269 21.3156 9.88269C22.3077 9.88269 23.026 9.35135 23.026 8.3705C23.026 6.65408 20.8569 6.78339 20.8569 6.10231C20.8569 5.89118 21.0554 5.69357 21.5411 5.69357C22.1017 5.69357 22.2322 5.95247 22.4785 5.95247C22.7795 5.95247 22.9027 5.57778 22.9027 5.39389C22.9027 4.86265 21.9038 4.79454 21.5411 4.79454C20.6859 4.79454 19.7895 5.18238 19.7895 6.20447C19.7895 7.7983 21.9585 7.65527 21.9585 8.47947C21.9592 8.80677 21.6101 8.92908 21.2954 8.92908Z" fill="black"/>
<path d="M26.1905 22.6081H16.3785C16.2182 22.6086 16.0647 22.6722 15.9514 22.785C15.8381 22.8978 15.7742 23.0506 15.7738 23.2101V25.7297C15.7738 25.8803 15.8338 26.0246 15.9407 26.1311C16.0477 26.2375 16.1927 26.2973 16.3439 26.2973C16.4951 26.2973 16.6401 26.2375 16.747 26.1311C16.854 26.0246 16.914 25.8803 16.914 25.7297V23.7432H25.6561V35.5676H16.914V29.5135C16.914 29.363 16.854 29.2186 16.747 29.1122C16.6401 29.0057 16.4951 28.946 16.3439 28.946C16.1927 28.946 16.0477 29.0057 15.9407 29.1122C15.8338 29.2186 15.7738 29.363 15.7738 29.5135V36.127C15.7741 36.2796 15.8351 36.4258 15.9435 36.5337C16.0519 36.6416 16.1988 36.7024 16.3521 36.7027H26.2167C26.3703 36.7023 26.5175 36.6414 26.6262 36.5333C26.7348 36.4251 26.796 36.2786 26.7964 36.1257V23.2113C26.7959 23.0514 26.732 22.8983 26.6184 22.7853C26.5049 22.6723 26.3511 22.6086 26.1905 22.6081Z" fill="black"/>
</svg>
