<svg width="43" height="46" viewBox="0 0 43 46" fill="none" xmlns="http://www.w3.org/2000/svg">
<path d="M4.54775 19.1035H13.497C13.6454 19.1035 13.7878 19.0444 13.8927 18.9392C13.9977 18.834 14.0567 18.6913 14.0567 18.5425C14.0567 18.3937 13.9977 18.251 13.8927 18.1458C13.7878 18.0406 13.6454 17.9815 13.497 17.9815H4.54775C4.3993 17.9815 4.25694 18.0406 4.15197 18.1458C4.047 18.251 3.98804 18.3937 3.98804 18.5425C3.98804 18.6913 4.047 18.834 4.15197 18.9392C4.25694 19.0444 4.3993 19.1035 4.54775 19.1035Z" fill="white"/>
<path d="M20.3204 27.0071H25.4C25.5484 27.0071 25.6908 26.948 25.7958 26.8428C25.9007 26.7376 25.9597 26.5949 25.9597 26.4462C25.9597 26.2974 25.9007 26.1547 25.7958 26.0495C25.6908 25.9443 25.5484 25.8852 25.4 25.8852H20.3204C20.172 25.8852 20.0296 25.9443 19.9246 26.0495C19.8197 26.1547 19.7607 26.2974 19.7607 26.4462C19.7607 26.5949 19.8197 26.7376 19.9246 26.8428C20.0296 26.948 20.172 27.0071 20.3204 27.0071Z" fill="white"/>
<path d="M4.54775 23.8149H13.497C13.6454 23.8149 13.7878 23.7558 13.8927 23.6506C13.9977 23.5454 14.0567 23.4027 14.0567 23.2539C14.0567 23.1052 13.9977 22.9625 13.8927 22.8573C13.7878 22.7521 13.6454 22.693 13.497 22.693H4.54775C4.3993 22.693 4.25694 22.7521 4.15197 22.8573C4.047 22.9625 3.98804 23.1052 3.98804 23.2539C3.98804 23.4027 4.047 23.5454 4.15197 23.6506C4.25694 23.7558 4.3993 23.8149 4.54775 23.8149Z" fill="white"/>
<path d="M4.54775 28.5264H13.497C13.6454 28.5264 13.7878 28.4673 13.8927 28.3621C13.9977 28.2568 14.0567 28.1142 14.0567 27.9654C14.0567 27.8166 13.9977 27.6739 13.8927 27.5687C13.7878 27.4635 13.6454 27.4044 13.497 27.4044H4.54775C4.3993 27.4044 4.25694 27.4635 4.15197 27.5687C4.047 27.6739 3.98804 27.8166 3.98804 27.9654C3.98804 28.1142 4.047 28.2568 4.15197 28.3621C4.25694 28.4673 4.3993 28.5264 4.54775 28.5264Z" fill="white"/>
<path d="M4.54775 33.2378H13.497C13.6454 33.2378 13.7878 33.1787 13.8927 33.0735C13.9977 32.9683 14.0567 32.8256 14.0567 32.6768C14.0567 32.528 13.9977 32.3854 13.8927 32.2802C13.7878 32.175 13.6454 32.1159 13.497 32.1159H4.54775C4.3993 32.1159 4.25694 32.175 4.15197 32.2802C4.047 32.3854 3.98804 32.528 3.98804 32.6768C3.98804 32.8256 4.047 32.9683 4.15197 33.0735C4.25694 33.1787 4.3993 33.2378 4.54775 33.2378Z" fill="white"/>
<path d="M4.54775 37.9493H13.497C13.6454 37.9493 13.7878 37.8902 13.8927 37.785C13.9977 37.6798 14.0567 37.5372 14.0567 37.3884C14.0567 37.2396 13.9977 37.0969 13.8927 36.9917C13.7878 36.8865 13.6454 36.8274 13.497 36.8274H4.54775C4.3993 36.8274 4.25694 36.8865 4.15197 36.9917C4.047 37.0969 3.98804 37.2396 3.98804 37.3884C3.98804 37.5372 4.047 37.6798 4.15197 37.785C4.25694 37.8902 4.3993 37.9493 4.54775 37.9493Z" fill="white"/>
<path d="M20.3204 31.6236H25.4C25.5484 31.6236 25.6908 31.5645 25.7958 31.4593C25.9007 31.3541 25.9597 31.2114 25.9597 31.0626C25.9597 30.9138 25.9007 30.7712 25.7958 30.666C25.6908 30.5608 25.5484 30.5016 25.4 30.5016H20.3204C20.172 30.5016 20.0296 30.5608 19.9246 30.666C19.8197 30.7712 19.7607 30.9138 19.7607 31.0626C19.7607 31.2114 19.8197 31.3541 19.9246 31.4593C20.0296 31.5645 20.172 31.6236 20.3204 31.6236Z" fill="white"/>
<path d="M20.7685 35.1182H20.3207C20.1722 35.1182 20.0299 35.1773 19.9249 35.2825C19.8199 35.3877 19.761 35.5304 19.761 35.6792C19.761 35.8279 19.8199 35.9706 19.9249 36.0758C20.0299 36.181 20.1722 36.2401 20.3207 36.2401H20.7685C20.9169 36.2401 21.0593 36.181 21.1642 36.0758C21.2692 35.9706 21.3282 35.8279 21.3282 35.6792C21.3282 35.5304 21.2692 35.3877 21.1642 35.2825C21.0593 35.1773 20.9169 35.1182 20.7685 35.1182Z" fill="white"/>
<path d="M20.3204 22.3907H25.4C25.5484 22.3907 25.6908 22.3316 25.7958 22.2264C25.9007 22.1212 25.9597 21.9785 25.9597 21.8297C25.9597 21.6809 25.9007 21.5382 25.7958 21.433C25.6908 21.3278 25.5484 21.2687 25.4 21.2687H20.3204C20.172 21.2687 20.0296 21.3278 19.9246 21.433C19.8197 21.5382 19.7607 21.6809 19.7607 21.8297C19.7607 21.9785 19.8197 22.1212 19.9246 22.2264C20.0296 22.3316 20.172 22.3907 20.3204 22.3907Z" fill="white"/>
<path d="M20.3204 17.7742H25.4C25.5484 17.7742 25.6908 17.7151 25.7958 17.6099C25.9007 17.5047 25.9597 17.362 25.9597 17.2133C25.9597 17.0645 25.9007 16.9218 25.7958 16.8166C25.6908 16.7114 25.5484 16.6523 25.4 16.6523H20.3204C20.172 16.6523 20.0296 16.7114 19.9246 16.8166C19.8197 16.9218 19.7607 17.0645 19.7607 17.2133C19.7607 17.362 19.8197 17.5047 19.9246 17.6099C20.0296 17.7151 20.172 17.7742 20.3204 17.7742Z" fill="white"/>
<path d="M4.54775 14.392H13.497C13.6454 14.392 13.7878 14.3329 13.8927 14.2277C13.9977 14.1225 14.0567 13.9798 14.0567 13.831C14.0567 13.6823 13.9977 13.5396 13.8927 13.4344C13.7878 13.3292 13.6454 13.2701 13.497 13.2701H4.54775C4.3993 13.2701 4.25694 13.3292 4.15197 13.4344C4.047 13.5396 3.98804 13.6823 3.98804 13.831C3.98804 13.9798 4.047 14.1225 4.15197 14.2277C4.25694 14.3329 4.3993 14.392 4.54775 14.392Z" fill="white"/>
<path d="M37.622 32.4603H35.8816C35.7024 32.4601 35.5307 32.3887 35.404 32.2617C35.2773 32.1347 35.206 31.9626 35.2058 31.783C35.2057 31.7206 35.1952 31.6586 35.1747 31.5997V30.187C35.686 29.7491 36.0965 29.2053 36.378 28.5931C36.6594 27.9808 36.8052 27.3147 36.8051 26.6406V23.8303C36.8037 22.5909 36.3118 21.4027 35.4374 20.5263C34.563 19.6499 33.3775 19.1569 32.1409 19.1555H32.0901C31.2461 19.1547 30.4178 19.3849 29.6946 19.8211V12.5422C29.6946 12.3934 29.6357 12.2507 29.5307 12.1455C29.4257 12.0403 29.2834 11.9812 29.1349 11.9812H18.0448V8.53618C18.0448 8.3874 17.9858 8.24471 17.8809 8.13951C17.7759 8.03431 17.6335 7.9752 17.4851 7.9752H15.6603V3.88092C15.6603 3.73214 15.6014 3.58946 15.4964 3.48425C15.3914 3.37905 15.2491 3.31995 15.1006 3.31995H9.63039V0.560976C9.63039 0.412196 9.57142 0.269509 9.46645 0.164306C9.36149 0.0591026 9.21912 0 9.07068 0C8.92223 0 8.77987 0.0591026 8.6749 0.164306C8.56994 0.269509 8.51097 0.412196 8.51097 0.560976V3.31995H2.94408C2.79564 3.31995 2.65327 3.37905 2.54831 3.48425C2.44334 3.58946 2.38437 3.73214 2.38437 3.88092V7.9752H0.559711C0.411267 7.9752 0.268902 8.03431 0.163936 8.13951C0.0589693 8.24471 0 8.3874 0 8.53618V41.9649C0 42.1137 0.0589693 42.2564 0.163936 42.3616C0.268902 42.4668 0.411267 42.5259 0.559711 42.5259H21.231V45.439C21.231 45.5878 21.2899 45.7305 21.3949 45.8357C21.4999 45.9409 21.6422 46 21.7907 46H42.4403C42.5887 46 42.7311 45.9409 42.8361 45.8357C42.941 45.7305 43 45.5878 43 45.439V37.8504C42.9984 36.4214 42.4313 35.0513 41.423 34.0408C40.4148 33.0303 39.0479 32.4619 37.622 32.4603ZM3.50379 4.4419H14.5409V7.9752H3.50379V4.4419ZM16.9254 41.4039H1.11942V9.09715H16.9254V41.4039ZM32.1409 20.2775C33.0807 20.2786 33.9817 20.6532 34.6463 21.3193C35.3108 21.9853 35.6846 22.8884 35.6857 23.8303V26.6406C35.6846 27.5826 35.3108 28.4856 34.6463 29.1517C33.9817 29.8178 33.0807 30.1924 32.1409 30.1935H32.0901C31.1503 30.1924 30.2493 29.8178 29.5847 29.1517C28.9201 28.4856 28.5463 27.5826 28.5453 26.6406V23.8303C28.5463 22.8884 28.9201 21.9853 29.5847 21.3193C30.2493 20.6532 31.1503 20.2786 32.0901 20.2775H32.1409ZM32.0681 35.6519H32.2903L33.2657 41.2751L32.0996 42.6401L30.9692 41.2844L32.0681 35.6519ZM31.5224 33.5822H32.7086L32.3846 34.5299H31.8464L31.5224 33.5822ZM30.99 32.4603L30.1849 31.5539V30.9062C30.7837 31.1763 31.433 31.3158 32.0897 31.3154H32.1405C32.8007 31.3158 33.4534 31.1748 34.0549 30.9019V31.7049L33.2671 32.4603H30.99ZM18.0448 41.4039V13.1032H28.5752V20.7625C27.8337 21.6116 27.4252 22.7019 27.4258 23.8303V26.6406C27.4258 27.3169 27.5725 27.985 27.8556 28.5988C28.1388 29.2126 28.5517 29.7573 29.0658 30.1953V31.6538C29.0556 31.6962 29.0503 31.7396 29.0502 31.7832C29.05 31.9628 28.9788 32.1349 28.8521 32.2619C28.7254 32.3889 28.5536 32.4603 28.3745 32.4605H26.6089C25.1831 32.4621 23.8161 33.0305 22.8079 34.041C21.7997 35.0515 21.2326 36.4216 21.231 37.8506V41.4041L18.0448 41.4039ZM41.8806 44.878H22.3504V37.8504C22.3516 36.7188 22.8007 35.6339 23.599 34.8337C24.3974 34.0335 25.4799 33.5835 26.6089 33.5822H28.3745C28.658 33.582 28.9374 33.5143 29.1897 33.3848C29.4421 33.2553 29.6602 33.0676 29.8261 32.8372L30.2459 33.3099L30.989 35.3362L29.8193 41.3316C29.8033 41.4135 29.8057 41.498 29.8265 41.5789C29.8472 41.6598 29.8857 41.735 29.9391 41.799L31.6649 43.8688C31.7171 43.9313 31.7822 43.9817 31.8558 44.0165C31.9294 44.0512 32.0097 44.0695 32.091 44.07H32.0944C32.1752 44.0699 32.255 44.0524 32.3284 44.0185C32.4018 43.9846 32.467 43.9352 32.5195 43.8736L34.2876 41.8039C34.3412 41.7411 34.3803 41.6673 34.4022 41.5876C34.424 41.5079 34.428 41.4244 34.4138 41.343L33.3434 35.1732L33.9777 33.332L34.4566 32.8729C34.6178 33.0854 34.8243 33.2593 35.061 33.3818C35.2977 33.5043 35.5587 33.5724 35.825 33.581C35.8354 33.5817 35.8461 33.582 35.8568 33.582H37.6223C38.7514 33.5832 39.8338 34.0332 40.6322 34.8334C41.4306 35.6336 41.8796 36.7185 41.8809 37.8501L41.8806 44.878Z" fill="white"/>
<path d="M38.896 37.6615H36.2454C36.097 37.6615 35.9546 37.7206 35.8496 37.8258C35.7447 37.931 35.6857 38.0737 35.6857 38.2224C35.6857 38.3712 35.7447 38.5139 35.8496 38.6191C35.9546 38.7243 36.097 38.7834 36.2454 38.7834H38.896C39.0445 38.7834 39.1868 38.7243 39.2918 38.6191C39.3968 38.5139 39.4557 38.3712 39.4557 38.2224C39.4557 38.0737 39.3968 37.931 39.2918 37.8258C39.1868 37.7206 39.0445 37.6615 38.896 37.6615Z" fill="white"/>
</svg>
