<svg width="39" height="32" viewBox="0 0 39 32" fill="none" xmlns="http://www.w3.org/2000/svg">
<path d="M0.721996 2.08925L5.10539 1.20911C5.85857 1.05879 6.64278 1.20288 7.28601 1.60977C7.92923 2.01666 8.37896 2.65314 8.53653 3.37958L12.9943 24.0564C12.0462 24.3666 11.2429 24.9914 10.7275 25.8196C10.212 26.6478 10.0178 27.6256 10.1795 28.579C10.3411 29.5324 10.8481 30.3995 11.6102 31.0259C12.3723 31.6524 13.3401 31.9976 14.3412 32C14.6334 31.9999 14.9248 31.9708 15.2109 31.9131C16.1997 31.7145 17.0822 31.1809 17.6987 30.4089C18.3152 29.6368 18.6249 28.6773 18.5718 27.704L38.5209 23.6988C38.598 23.6839 38.6713 23.6545 38.7366 23.6121C38.8019 23.5697 38.8578 23.5153 38.9012 23.452C38.9446 23.3887 38.9745 23.3177 38.9893 23.2431C39.0041 23.1686 39.0035 23.092 38.9875 23.0176C38.9715 22.9433 38.9404 22.8728 38.896 22.8101C38.8516 22.7475 38.7947 22.6939 38.7288 22.6525C38.6628 22.6112 38.589 22.5828 38.5117 22.5691C38.4343 22.5554 38.3549 22.5566 38.278 22.5726L18.3406 26.5755C18.0416 25.7477 17.474 25.035 16.7221 24.5431C15.9702 24.0511 15.074 23.8061 14.1665 23.8444L9.70363 3.14547C9.59417 2.6376 9.38211 2.15551 9.07956 1.72674C8.77701 1.29796 8.3899 0.930891 7.94033 0.646496C7.49076 0.362101 6.98754 0.16595 6.4594 0.069243C5.93127 -0.0274636 5.38856 -0.0228309 4.86228 0.0828765L0.479141 0.963011C0.402006 0.977901 0.328688 1.00738 0.263414 1.04974C0.19814 1.0921 0.142201 1.14652 0.0988223 1.20984C0.0554435 1.27317 0.0254826 1.34415 0.0106672 1.4187C-0.00414823 1.49325 -0.00352531 1.56989 0.0125001 1.64421C0.0285254 1.71853 0.0596363 1.78905 0.104039 1.85171C0.148442 1.91437 0.205258 1.96793 0.271213 2.0093C0.337167 2.05067 0.410955 2.07903 0.488323 2.09275C0.565691 2.10648 0.645108 2.10528 0.721996 2.08925ZM14.3563 24.9898C15.1365 24.9899 15.887 25.2791 16.4527 25.7977C17.0184 26.3162 17.3562 27.0246 17.3964 27.7765C17.4365 28.5285 17.176 29.2666 16.6685 29.8385C16.1611 30.4105 15.4454 30.7726 14.6693 30.8501C13.8932 30.9276 13.1159 30.7146 12.4978 30.2551C11.8797 29.7956 11.468 29.1246 11.3477 28.3807C11.2274 27.6367 11.4077 26.8766 11.8514 26.2573C12.295 25.6379 12.9682 25.2065 13.7319 25.0522C13.9372 25.0108 14.1465 24.9899 14.3563 24.9898Z" fill="white"/>
<path d="M14.6903 11.1742C14.7062 11.2482 14.737 11.3184 14.781 11.3809C14.825 11.4434 14.8814 11.4969 14.9469 11.5384C15.0124 11.5798 15.0857 11.6083 15.1627 11.6224C15.2396 11.6364 15.3187 11.6356 15.3953 11.6201L16.8478 11.3285L19.6745 24.4384C19.7067 24.5877 19.7991 24.7186 19.9313 24.8022C20.0635 24.8859 20.2247 24.9154 20.3795 24.8843L38.0132 21.344C38.1679 21.3129 38.3036 21.2238 38.3902 21.0962C38.4769 20.9686 38.5075 20.813 38.4753 20.6637L35.6487 7.55379L37.0707 7.26824C37.2255 7.23716 37.3611 7.14803 37.4478 7.02045C37.5344 6.89287 37.565 6.7373 37.5328 6.58795L36.7128 2.7845C36.6806 2.63515 36.5882 2.50427 36.456 2.42064C36.3238 2.33701 36.1626 2.30748 36.0078 2.33855L14.3324 6.69042C14.1777 6.7215 14.042 6.81063 13.9554 6.93821C13.8687 7.06579 13.8381 7.22136 13.8703 7.37071L14.6903 11.1742ZM37.1868 20.3352L20.7202 23.6413L18.0149 11.0938L22.8841 10.116L24.3147 16.7527C24.3362 16.8526 24.3848 16.9451 24.4556 17.0209C24.5264 17.0967 24.6168 17.1529 24.7175 17.1838C24.8183 17.2148 24.9257 17.2193 25.0289 17.197C25.132 17.1746 25.2271 17.1262 25.3045 17.0567L27.4418 15.1355L30.2672 16.0641C30.3667 16.0968 30.4734 16.1035 30.5765 16.0836C30.6796 16.0636 30.7754 16.0177 30.8542 15.9506C30.9329 15.8834 30.9919 15.7973 31.025 15.701C31.0582 15.6047 31.0644 15.5017 31.0429 15.4024L29.6119 8.76573L34.4811 7.78789L37.1868 20.3352ZM24.0512 9.88227L28.4451 9L29.6634 14.6503L27.4888 13.9358C27.3869 13.9023 27.2774 13.896 27.172 13.9177C27.0666 13.9394 26.9693 13.9883 26.8904 14.0591L25.2664 15.5188L24.0512 9.88227ZM35.6671 3.58197L36.2444 6.25918L15.7363 10.3767L15.1591 7.69956L35.6671 3.58197Z" fill="white"/>
</svg>
