<svg width="38" height="34" viewBox="0 0 38 34" fill="none" xmlns="http://www.w3.org/2000/svg">
<path d="M35.6858 14.6501H33.7698C33.6606 14.2708 33.4258 13.9359 33.1008 13.6961C32.7758 13.4562 32.3783 13.3245 31.9685 13.3208H29.9231V8.51849C29.9254 8.42865 29.9028 8.33984 29.8575 8.26117C29.8123 8.1825 29.7461 8.11679 29.6657 8.07078L15.2367 0.0692885C15.1554 0.0239059 15.063 0 14.9689 0C14.8749 0 14.7825 0.0239059 14.7012 0.0692885L0.267695 8.07078C0.186027 8.11623 0.118281 8.18155 0.0712839 8.26015C0.0242872 8.33875 -0.000299201 8.42786 2.74803e-06 8.51849V24.5216C5.14915e-06 24.6123 0.0248865 24.7014 0.0721463 24.78C0.119406 24.8586 0.187379 24.9239 0.269233 24.9693L14.7042 32.9707C14.786 33.0161 14.8789 33.04 14.9734 33.04C15.0703 33.0401 15.1657 33.0162 15.2503 32.9707L22.8462 28.7642V31.8051C22.8454 32.0946 22.9044 32.3814 23.0198 32.6489C23.1353 32.9163 23.3048 33.1591 23.5187 33.3633C23.7325 33.5674 23.9864 33.7288 24.2656 33.838C24.5449 33.9473 24.8439 34.0023 25.1455 33.9999H35.6858C35.9882 34.0026 36.288 33.9479 36.5682 33.8389C36.8484 33.7299 37.1034 33.5687 37.3185 33.3647C37.5336 33.1607 37.7045 32.9179 37.8215 32.6503C37.9384 32.3826 37.9991 32.0954 38 31.8051V16.8792C37.9996 16.2894 37.756 15.7237 37.3223 15.306C36.8886 14.8882 36.3002 14.6524 35.6858 14.6501ZM31.9876 14.3547C32.1949 14.3547 32.3937 14.4338 32.5403 14.5745C32.6869 14.7153 32.7692 14.9061 32.7692 15.1052V15.1552C32.7692 15.3543 32.6869 15.5451 32.5403 15.6859C32.3937 15.8266 32.1949 15.9057 31.9876 15.9057H28.8585C28.6512 15.9057 28.4524 15.8266 28.3059 15.6859C28.1593 15.5451 28.0769 15.3543 28.0769 15.1552V15.1052C28.0769 14.9061 28.1593 14.7153 28.3059 14.5745C28.4524 14.4338 28.6512 14.3547 28.8585 14.3547H31.9876ZM14.9734 1.11395L20.9714 4.43872L7.61431 11.8427L1.61639 8.51797L14.9734 1.11395ZM14.4615 31.6276L1.07693 24.223V9.41279L14.4615 16.8173V31.6276ZM14.9734 15.9219L8.69123 12.4396L22.0483 5.03568L28.3308 8.51797L14.9734 15.9219ZM22.8462 16.8792V27.5704L15.5385 31.6276V16.8173L28.8462 9.41279V13.3208H28.8628C28.453 13.3245 28.0555 13.4562 27.7305 13.696C27.4055 13.9359 27.1707 14.2708 27.0615 14.6501H25.1455C24.5327 14.653 23.9462 14.8894 23.515 15.3075C23.0838 15.7255 22.8432 16.2909 22.8462 16.8792ZM36.9231 31.8051C36.9223 31.9596 36.8896 32.1125 36.8268 32.2548C36.764 32.3971 36.6724 32.526 36.5573 32.634C36.4422 32.742 36.3059 32.8269 36.1563 32.8839C36.0067 32.9409 35.8468 32.9688 35.6858 32.9659H25.1455C24.9853 32.9685 24.8262 32.9404 24.6776 32.8831C24.5289 32.8259 24.3937 32.7407 24.2798 32.6325C24.1659 32.5244 24.0757 32.3955 24.0145 32.2534C23.9532 32.1113 23.9221 31.9589 23.9231 31.8051V16.8792C23.9215 16.7236 23.9518 16.5693 24.0124 16.425C24.073 16.2807 24.1626 16.1493 24.2761 16.0383C24.3897 15.9273 24.5249 15.8388 24.6741 15.7781C24.8232 15.7173 24.9834 15.6854 25.1455 15.6841H27.0825C27.198 16.05 27.4339 16.3702 27.7549 16.5965C28.0759 16.8229 28.4646 16.9433 28.8628 16.9396H31.9685C32.3667 16.9433 32.7554 16.8229 33.0764 16.5965C33.3974 16.3702 33.6332 16.05 33.7487 15.6841H35.6858C36.0146 15.6861 36.3293 15.8129 36.5611 16.0368C36.7929 16.2607 36.923 16.5635 36.9231 16.8792V31.8051Z" fill="#fff"/>
<path d="M25.7653 22.1094H26.3289C26.4717 22.1094 26.6087 22.0549 26.7097 21.958C26.8107 21.861 26.8674 21.7295 26.8674 21.5924C26.8674 21.4553 26.8107 21.3238 26.7097 21.2269C26.6087 21.1299 26.4717 21.0754 26.3289 21.0754H26.3077V19.6722H27.7929C27.8267 19.7762 27.895 19.8666 27.9875 19.9297C28.08 19.9927 28.1914 20.0249 28.3048 20.0213C28.4478 20.0217 28.5851 19.9676 28.6866 19.8709C28.788 19.7742 28.8454 19.6428 28.8462 19.5055V19.1577C28.8449 19.0197 28.7871 18.8878 28.6852 18.7906C28.5833 18.6933 28.4455 18.6386 28.3018 18.6383H25.7653C25.6947 18.6386 25.6248 18.6523 25.5597 18.6786C25.4946 18.7049 25.4355 18.7433 25.3859 18.7915C25.3362 18.8398 25.297 18.897 25.2703 18.9598C25.2437 19.0226 25.2303 19.0899 25.2308 19.1577V21.593C25.2303 21.6607 25.2439 21.7277 25.2705 21.7904C25.2972 21.853 25.3365 21.91 25.3862 21.9579C25.4359 22.0059 25.4949 22.044 25.56 22.07C25.6251 22.096 25.6948 22.1094 25.7653 22.1094Z" fill="#fff"/>
<path d="M25.7692 26.8361H28.3077C28.4505 26.8361 28.5875 26.7816 28.6884 26.6846C28.7894 26.5877 28.8462 26.4562 28.8462 26.3191V23.8819C28.8462 23.7448 28.7894 23.6133 28.6884 23.5163C28.5875 23.4194 28.4505 23.3649 28.3077 23.3649H25.7692C25.6264 23.3649 25.4895 23.4194 25.3885 23.5163C25.2875 23.6133 25.2308 23.7448 25.2308 23.8819V26.3191C25.2308 26.4562 25.2875 26.5877 25.3885 26.6846C25.4895 26.7816 25.6264 26.8361 25.7692 26.8361ZM26.3077 24.3989H27.7692V25.8021H26.3077V24.3989Z" fill="#fff"/>
<path d="M26.329 30.5288H26.3077V29.1255H27.7638C27.7666 29.2615 27.8247 29.391 27.9258 29.4862C28.0269 29.5815 28.1628 29.6349 28.3044 29.635C28.4461 29.6352 28.5821 29.582 28.6834 29.487C28.7847 29.3919 28.8431 29.2625 28.8462 29.1266V28.6284C28.8456 28.4887 28.7885 28.3546 28.687 28.2544C28.5854 28.1542 28.4474 28.0959 28.3018 28.0916H25.7653C25.6208 28.0962 25.484 28.155 25.3841 28.2554C25.2841 28.3557 25.2291 28.4896 25.2308 28.6284V31.0638C25.2307 31.1305 25.2446 31.1966 25.2716 31.2581C25.2986 31.3196 25.3383 31.3753 25.3881 31.4218C25.438 31.4683 25.497 31.5048 25.5618 31.529C25.6266 31.5532 25.6958 31.5647 25.7653 31.5627H26.329C26.4718 31.5627 26.6088 31.5083 26.7098 31.4113C26.8107 31.3143 26.8675 31.1829 26.8675 31.0457C26.8675 30.9086 26.8107 30.7771 26.7098 30.6802C26.6088 30.5832 26.4718 30.5288 26.329 30.5288Z" fill="#fff"/>
<path d="M27.9647 20.7868L27.485 20.3262C27.435 20.2782 27.3756 20.2401 27.3103 20.2141C27.245 20.1881 27.1749 20.1748 27.1042 20.1748C27.0335 20.1748 26.9635 20.1881 26.8982 20.2141C26.8328 20.2401 26.7735 20.2782 26.7235 20.3262C26.6735 20.3742 26.6338 20.4312 26.6067 20.4939C26.5797 20.5567 26.5657 20.6239 26.5657 20.6918C26.5657 20.7597 26.5797 20.8269 26.6067 20.8896C26.6338 20.9523 26.6735 21.0093 26.7235 21.0574L27.584 21.8835C27.634 21.9315 27.6934 21.9696 27.7587 21.9956C27.824 22.0215 27.8941 22.0349 27.9648 22.0349C28.0355 22.0349 28.1055 22.0215 28.1708 21.9956C28.2362 21.9696 28.2955 21.9315 28.3455 21.8835L30.3034 20.0038C30.4044 19.9068 30.4611 19.7753 30.4611 19.6382C30.4611 19.5011 30.4044 19.3696 30.3034 19.2726C30.2024 19.1756 30.0654 19.1212 29.9226 19.1212C29.7798 19.1212 29.6428 19.1756 29.5418 19.2726L27.9647 20.7868Z" fill="#fff"/>
<path d="M29.5416 28.8184L27.9647 30.3324L27.485 29.8718C27.435 29.8238 27.3756 29.7857 27.3103 29.7597C27.245 29.7337 27.1749 29.7203 27.1042 29.7203C27.0335 29.7203 26.9635 29.7337 26.8982 29.7597C26.8328 29.7857 26.7735 29.8238 26.7235 29.8718C26.6735 29.9198 26.6338 29.9768 26.6067 30.0395C26.5797 30.1022 26.5657 30.1694 26.5657 30.2373C26.5657 30.3052 26.5797 30.3725 26.6067 30.4352C26.6338 30.4979 26.6735 30.5549 26.7235 30.6029L27.584 31.429C27.634 31.4771 27.6934 31.5151 27.7587 31.5411C27.824 31.5671 27.8941 31.5805 27.9648 31.5805C28.0355 31.5805 28.1055 31.5671 28.1708 31.5411C28.2362 31.5151 28.2955 31.4771 28.3455 31.429L30.3034 29.5493C30.4044 29.4524 30.4611 29.3209 30.4611 29.1837C30.4611 29.0466 30.4044 28.9151 30.3034 28.8182C30.2024 28.7212 30.0654 28.6667 29.9226 28.6667C29.7798 28.6667 29.6428 28.7212 29.5418 28.8182L29.5416 28.8184Z" fill="#fff"/>
<path d="M35.0659 19.8938H31.6839C31.5411 19.8938 31.4042 19.9482 31.3032 20.0452C31.2022 20.1422 31.1455 20.2736 31.1455 20.4108C31.1455 20.5479 31.2022 20.6794 31.3032 20.7763C31.4042 20.8733 31.5411 20.9277 31.6839 20.9277H35.0659C35.2087 20.9277 35.3457 20.8733 35.4467 20.7763C35.5477 20.6794 35.6044 20.5479 35.6044 20.4108C35.6044 20.2736 35.5477 20.1422 35.4467 20.0452C35.3457 19.9482 35.2087 19.8938 35.0659 19.8938Z" fill="#fff"/>
<path d="M35.0659 24.6204H31.6839C31.5411 24.6204 31.4042 24.6749 31.3032 24.7719C31.2022 24.8688 31.1455 25.0003 31.1455 25.1374C31.1455 25.2745 31.2022 25.406 31.3032 25.503C31.4042 25.5999 31.5411 25.6544 31.6839 25.6544H35.0659C35.2087 25.6544 35.3457 25.5999 35.4467 25.503C35.5477 25.406 35.6044 25.2745 35.6044 25.1374C35.6044 25.0003 35.5477 24.8688 35.4467 24.7719C35.3457 24.6749 35.2087 24.6204 35.0659 24.6204Z" fill="#fff"/>
<path d="M35.0659 29.3471H31.6839C31.5411 29.3471 31.4042 29.4016 31.3032 29.4985C31.2022 29.5955 31.1455 29.727 31.1455 29.8641C31.1455 30.0012 31.2022 30.1327 31.3032 30.2296C31.4042 30.3266 31.5411 30.3811 31.6839 30.3811H35.0659C35.2087 30.3811 35.3457 30.3266 35.4467 30.2296C35.5477 30.1327 35.6044 30.0012 35.6044 29.8641C35.6044 29.727 35.5477 29.5955 35.4467 29.4985C35.3457 29.4016 35.2087 29.3471 35.0659 29.3471Z" fill="#fff"/>
</svg>
