<svg width="26" height="32" viewBox="0 0 26 32" fill="none" xmlns="http://www.w3.org/2000/svg">
<path d="M6.89185 11.7635C7.10586 11.5018 7.4861 11.4639 7.74573 11.6801C8.00682 11.8976 8.04652 12.2907 7.83453 12.5584C7.82726 12.5677 7.81835 12.5783 7.81053 12.5871C7.68997 12.7228 7.52452 12.7916 7.35846 12.7916C7.21188 12.7916 7.06481 12.7379 6.9478 12.6291C6.7038 12.4021 6.68072 12.0192 6.89185 11.7635Z" fill="white"/>
<path d="M11.7153 24.1541C11.4739 24.1697 11.2344 24.1774 10.9965 24.1774C8.26559 24.1773 5.78012 23.1606 3.93653 21.2741C3.45148 20.7778 2.97669 19.7915 3.46944 17.9124C3.80846 16.6199 4.55717 15.0878 5.63464 13.4815C5.82556 13.1969 6.20568 13.1246 6.48375 13.32C6.76188 13.5153 6.83255 13.9044 6.64163 14.189C5.64166 15.6798 4.95275 17.0793 4.64933 18.2363C4.38286 19.2529 4.43649 20.0178 4.80049 20.3902C5.35022 20.9529 6.71889 20.7851 8.46128 19.9417C9.76423 19.3111 11.1775 18.3602 12.584 17.178C11.7554 16.1411 11.6936 14.6729 12.3982 13.5716L9.21963 10.3189C8.94022 10.4639 8.63399 10.5368 8.32764 10.5368C7.82323 10.5368 7.31882 10.3403 6.93485 9.94744C6.16696 9.1615 6.16696 7.88281 6.93485 7.09694C7.70279 6.31113 8.95243 6.31106 9.72038 7.09694C10.3375 7.72856 10.4583 8.67838 10.0833 9.435L13.2616 12.6875C13.7435 12.3634 14.3071 12.1891 14.8971 12.1891C15.5922 12.1891 16.2508 12.4306 16.7819 12.8744C17.9215 11.4489 18.8388 10.0179 19.4491 8.69738C20.2733 6.91412 20.4372 5.51369 19.8875 4.95113C19.0652 4.10956 16.1783 4.85031 12.4479 7.88062C12.1837 8.09519 11.7995 8.05006 11.5899 7.77969C11.3801 7.50931 11.4243 7.11619 11.6884 6.90156C13.5199 5.41381 15.3076 4.335 16.8581 3.78175C19.0723 2.99163 20.1969 3.5005 20.7506 4.06675L20.7511 4.06719C22.7552 6.11812 23.7547 8.94512 23.5654 12.0274C23.378 15.0802 22.0436 18.0213 19.8081 20.3091C19.4116 20.7148 18.9946 21.0909 18.5609 21.4373C18.5625 21.442 18.5645 21.4465 18.566 21.4513L20.2662 26.9953H21.7202C24.0801 26.9953 26 28.9601 26 31.375C26 31.7201 25.7265 32 25.3893 32H8.66624C8.32899 32 8.0555 31.7201 8.0555 31.375C8.0555 28.96 9.97542 26.9953 12.3352 26.9953H14.3376V23.6762C13.4825 23.9349 12.6038 24.097 11.7153 24.1541ZM8.85667 7.98069C8.71082 7.83138 8.5193 7.75675 8.32764 7.75675C8.13605 7.75675 7.94446 7.83137 7.79862 7.98062C7.50693 8.27913 7.50693 8.76488 7.79862 9.06338C8.09025 9.36188 8.56504 9.36188 8.85667 9.06338C9.14842 8.76494 9.14842 8.27919 8.85667 7.98069ZM14.8971 13.4389C14.426 13.4389 13.983 13.6266 13.6498 13.9673L13.6493 13.9679L13.6487 13.9685C13.0106 14.6221 12.9653 15.6553 13.5118 16.3633C13.9338 15.9769 14.3529 15.5715 14.7658 15.149C15.1916 14.7133 15.5995 14.2708 15.9877 13.8252C15.6779 13.5751 15.2979 13.4389 14.8971 13.4389ZM17.5135 22.1937C16.8872 22.6004 16.2333 22.9484 15.5592 23.2341V26.9953H18.9861L17.5135 22.1937ZM12.3353 28.2453C10.8581 28.2453 9.62205 29.3226 9.33836 30.75H24.7174C24.4336 29.3226 23.1976 28.2453 21.7204 28.2453H12.3353ZM18.9444 19.4251C20.9694 17.3528 22.1777 14.6978 22.3465 11.949C22.4584 10.1251 22.1017 8.40675 21.3261 6.93144C21.1977 7.62263 20.9404 8.39425 20.5533 9.23175C19.5567 11.3881 17.8081 13.8034 15.6295 16.0329C13.4508 18.2624 11.0906 20.0519 8.98352 21.0717C8.16671 21.4671 7.41404 21.7301 6.73959 21.8617C10.4185 23.877 15.4519 22.9993 18.9444 19.4251Z" fill="white"/>
<path d="M8.31836 3.33656C8.65561 3.33656 8.9291 3.61637 8.9291 3.96156C8.9291 4.30675 8.65561 4.58656 8.31836 4.58656C6.20294 4.58656 4.48193 6.34775 4.48193 8.51256C4.48193 8.85775 4.20844 9.13756 3.87118 9.13756C3.53393 9.13756 3.26044 8.85775 3.26044 8.51256C3.26038 5.6585 5.52941 3.33656 8.31836 3.33656Z" fill="white"/>
<path d="M8.31836 0C8.65561 0 8.9291 0.279813 8.9291 0.625C8.9291 0.970187 8.65561 1.25 8.31836 1.25C4.40516 1.25 1.22148 4.50794 1.22148 8.51256C1.22148 8.85775 0.947994 9.13756 0.610743 9.13756C0.273491 9.13756 0 8.85775 0 8.51256C0 3.81875 3.73157 0 8.31836 0Z" fill="white"/>
</svg>
