<svg width="34" height="34" viewBox="0 0 34 34" fill="none" xmlns="http://www.w3.org/2000/svg">
<path d="M29.1852 8.10156V8.20156H29.2852H33.0039C33.4988 8.20156 33.9 8.60277 33.9 9.09766V33.0039C33.9 33.4988 33.4988 33.9 33.0039 33.9H0.996094C0.501213 33.9 0.1 33.4988 0.1 33.0039V12.418C0.1 11.9231 0.501213 11.5219 0.996094 11.5219H4.71484H4.81484V11.4219V0.996094C4.81484 0.501213 5.21606 0.1 5.71094 0.1H28.2891C28.7839 0.1 29.1852 0.501213 29.1852 0.996094V8.10156ZM32.1078 10.0938V9.99375H32.0078H29.2852H29.1852V10.0938V16.7344V16.8344H29.2852H32.0078H32.1078V16.7344V10.0938ZM27.393 1.99219V1.89219H27.293H6.70703H6.60703V1.99219V16.7344V16.8344H6.70703H27.293H27.393V16.7344V1.99219ZM4.81484 13.4141V13.3141H4.71484H1.99219H1.89219V13.4141V16.7344V16.8344H1.99219H4.71484H4.81484V16.7344V13.4141ZM32.0078 32.1078H32.1078V32.0078V18.7266V18.6266H32.0078H1.99219H1.89219V18.7266V32.0078V32.1078H1.99219H32.0078ZM15.3591 8.79047L15.2991 8.87376L15.3839 8.9316C16.4989 9.69146 17.232 10.9707 17.232 12.418V13.7461C17.232 14.241 16.8308 14.6422 16.3359 14.6422H9.69531C9.20043 14.6422 8.79922 14.241 8.79922 13.7461V12.418C8.79922 10.9707 9.53238 9.69146 10.6473 8.9316L10.7322 8.87376L10.6721 8.79047C10.3297 8.31574 10.1273 7.73402 10.1273 7.10547C10.1273 5.51296 11.4231 4.21719 13.0156 4.21719C14.6081 4.21719 15.9039 5.51296 15.9039 7.10547C15.9039 7.73402 15.7015 8.31574 15.3591 8.79047ZM15.3398 12.85H15.4398V12.75V12.418C15.4398 11.0812 14.3524 9.99375 13.0156 9.99375C11.6788 9.99375 10.5914 11.0812 10.5914 12.418V12.75V12.85H10.6914H15.3398ZM13.0156 6.00938C12.4112 6.00938 11.9195 6.50099 11.9195 7.10547C11.9195 7.70994 12.4112 8.20156 13.0156 8.20156C13.6201 8.20156 14.1117 7.70994 14.1117 7.10547C14.1117 6.50099 13.6201 6.00938 13.0156 6.00938ZM24.3047 6.00938H19.6562C19.1614 6.00938 18.7602 5.60816 18.7602 5.11328C18.7602 4.6184 19.1614 4.21719 19.6562 4.21719H24.3047C24.7996 4.21719 25.2008 4.6184 25.2008 5.11328C25.2008 5.60816 24.7996 6.00938 24.3047 6.00938ZM24.3047 9.99375H19.6562C19.1614 9.99375 18.7602 9.59254 18.7602 9.09766C18.7602 8.60277 19.1614 8.20156 19.6562 8.20156H24.3047C24.7996 8.20156 25.2008 8.60277 25.2008 9.09766C25.2008 9.59254 24.7996 9.99375 24.3047 9.99375ZM24.3047 13.9781H19.6562C19.1614 13.9781 18.7602 13.5769 18.7602 13.082C18.7602 12.5871 19.1614 12.1859 19.6562 12.1859H24.3047C24.7996 12.1859 25.2008 12.5871 25.2008 13.082C25.2008 13.5769 24.7996 13.9781 24.3047 13.9781Z" fill="#606060" stroke="#F5F5F5" stroke-width="0.2"/>
</svg>
