<svg width="24" height="22" viewBox="0 0 24 22" fill="none" xmlns="http://www.w3.org/2000/svg">
<path d="M0.255249 8.68934L11.6316 0.123857C11.851 -0.0412857 12.149 -0.0412857 12.3683 0.123857L23.7447 8.68934C24.0226 8.89859 24.083 9.29983 23.8795 9.58557C23.676 9.87132 23.2858 9.93331 23.008 9.72416L12 1.43598L0.992029 9.72411C0.881029 9.80774 0.752029 9.84799 0.624155 9.84799C0.432156 9.84799 0.242687 9.75713 0.120531 9.58553C-0.0830002 9.29983 -0.022625 8.89859 0.255249 8.68934Z" fill="#606060"/>
<path d="M3.26973 9.8693C3.61407 9.8693 3.8933 10.1564 3.8933 10.5105V20.7174H8.88183V15.1459C8.88183 13.3778 10.2807 11.9394 11.9999 11.9394C13.7192 11.9394 15.1181 13.3779 15.1181 15.1459V20.7175H20.1066V10.5106C20.1066 10.1564 20.3859 9.86934 20.7302 9.86934C21.0746 9.86934 21.3538 10.1564 21.3538 10.5106V21.3588C21.3538 21.7129 21.0746 22 20.7302 22H14.4945C14.1666 22 13.8982 21.7395 13.8734 21.4087C13.8719 21.3937 13.8709 21.3773 13.8709 21.3588V15.1459C13.8709 14.085 13.0316 13.2219 11.9999 13.2219C10.9683 13.2219 10.129 14.0851 10.129 15.1459V21.3588C10.129 21.3772 10.128 21.3933 10.1265 21.4081C10.102 21.7391 9.83353 22 9.50541 22H3.26968C2.92529 22 2.6461 21.7129 2.6461 21.3588V10.5106C2.64615 10.1564 2.92534 9.8693 3.26973 9.8693Z" fill="#606060"/>
</svg>
