<svg width="27" height="35" viewBox="0 0 27 35" fill="none" xmlns="http://www.w3.org/2000/svg">
<path d="M23.5636 4.58566H20.4545V3.16912C20.4545 2.71081 19.9637 2.50252 19.5137 2.50252H17.1001C16.5274 0.835971 15.0955 0.00269765 13.4592 0.00269765C11.8408 -0.0592655 10.3688 0.951364 9.81826 2.50252H7.44554C6.99554 2.50252 6.54553 2.71081 6.54553 3.16912V4.58566H3.43638C1.59392 4.60567 0.0866024 6.08593 0 7.96038V31.8336C0 33.6668 1.63636 35 3.43638 35H23.5636C25.3636 35 27 33.6668 27 31.8336V7.96046C26.9134 6.08593 25.4061 4.60567 23.5636 4.58566ZM8.18182 4.16906H10.4318C10.8246 4.12026 11.1401 3.81594 11.2091 3.41912C11.4514 2.34462 12.377 1.57331 13.4592 1.54428C14.5313 1.57738 15.443 2.35108 15.6682 3.41912C15.7416 3.82966 16.0779 4.13788 16.4864 4.16906H18.8183V7.50215H8.18182V4.16906ZM25.3636 31.8337C25.3636 32.7503 24.4636 33.3335 23.5636 33.3335H3.43638C2.53637 33.3335 1.63636 32.7503 1.63636 31.8337V7.96046C1.71983 7.00637 2.49597 6.26975 3.43638 6.25228H6.54545V8.37713C6.58868 8.84397 6.98567 9.19318 7.44546 9.16878H19.5136C19.9818 9.19486 20.3913 8.85043 20.4545 8.37713V6.2522H23.5635C24.5039 6.26975 25.2801 7.00629 25.3636 7.96038V31.8337H25.3636Z" fill="white"/>
<path d="M10.35 18.6263C10.0431 18.2969 9.53371 18.2783 9.20452 18.5847L6.58633 21.1262L5.48179 19.9595C5.17493 19.6301 4.66549 19.6116 4.33631 19.9179C4.01942 20.256 4.01942 20.788 4.33631 21.1262L6.01355 22.876C6.15872 23.0416 6.36841 23.1331 6.58625 23.126C6.80205 23.1229 7.00791 23.0331 7.15895 22.876L10.3499 19.7929C10.6662 19.4974 10.6873 18.9966 10.3971 18.6745C10.3822 18.6577 10.3665 18.6416 10.35 18.6263Z" fill="white"/>
<path d="M22.0909 20.4178H12.6819C12.23 20.4178 11.8637 20.7909 11.8637 21.2511C11.8637 21.7113 12.23 22.0844 12.6819 22.0844H22.0909C22.5428 22.0844 22.9091 21.7113 22.9091 21.2511C22.9091 20.7909 22.5428 20.4178 22.0909 20.4178Z" fill="white"/>
<path d="M10.35 11.9602C10.0431 11.6307 9.53371 11.6121 9.20452 11.9185L6.58633 14.46L5.48179 13.2934C5.17493 12.9639 4.66549 12.9453 4.33631 13.2517C4.01942 13.5899 4.01942 14.1218 4.33631 14.46L6.01355 16.2099C6.15872 16.3754 6.36841 16.467 6.58625 16.4599C6.80205 16.4567 7.00791 16.3669 7.15895 16.2099L10.3499 13.1268C10.6662 12.8312 10.6873 12.3304 10.3971 12.0083C10.3822 11.9915 10.3665 11.9755 10.35 11.9602Z" fill="white"/>
<path d="M22.0909 13.7517H12.6819C12.23 13.7517 11.8637 14.1247 11.8637 14.5849C11.8637 15.0452 12.23 15.4182 12.6819 15.4182H22.0909C22.5428 15.4182 22.9091 15.0452 22.9091 14.5849C22.9091 14.1247 22.5428 13.7517 22.0909 13.7517Z" fill="white"/>
<path d="M10.35 25.2924C10.0431 24.963 9.53371 24.9445 9.20452 25.2508L6.58633 27.7923L5.48179 26.6256C5.17493 26.2962 4.66549 26.2777 4.33631 26.584C4.01942 26.9221 4.01942 27.4541 4.33631 27.7923L6.01355 29.5421C6.15872 29.7077 6.36841 29.7992 6.58625 29.7921C6.80205 29.789 7.00791 29.6992 7.15895 29.5421L10.3499 26.4591C10.6662 26.1635 10.6873 25.6627 10.3971 25.3406C10.3822 25.3239 10.3665 25.3078 10.35 25.2924Z" fill="white"/>
<path d="M22.0909 27.084H12.6819C12.23 27.084 11.8637 27.4571 11.8637 27.9173C11.8637 28.3775 12.23 28.7506 12.6819 28.7506H22.0909C22.5428 28.7506 22.9091 28.3775 22.9091 27.9173C22.9091 27.4571 22.5428 27.084 22.0909 27.084Z" fill="white"/>
</svg>
