<svg width="33" height="33" viewBox="0 0 33 33" fill="none" xmlns="http://www.w3.org/2000/svg">
<path d="M32.3555 0H6.31641C5.9605 0 5.67188 0.288557 5.67188 0.644531V3.48047H3.48047C3.12456 3.48047 2.83594 3.76909 2.83594 4.125V7.60547H0.644531C0.288557 7.60547 0 7.89409 0 8.25V29.5195C0 31.4386 1.56138 33 3.48047 33H29.5195C31.4386 33 33 31.4386 33 29.5195V0.644531C33 0.288557 32.7114 0 32.3555 0ZM31.7109 29.5195C31.7109 30.7279 30.7279 31.7109 29.5195 31.7109H6.18183C6.66845 31.1122 6.96094 30.3495 6.96094 29.5195V20.8186C6.96094 20.4626 6.67232 20.174 6.31641 20.174C5.9605 20.174 5.67188 20.4626 5.67188 20.8186V29.5195C5.67188 30.7279 4.68884 31.7109 3.48047 31.7109C2.2721 31.7109 1.28906 30.7279 1.28906 29.5195V8.89453H2.83594V28.875C2.83594 29.2309 3.12456 29.5195 3.48047 29.5195C3.83638 29.5195 4.125 29.2309 4.125 28.875V4.76953H5.67188V15.0178C5.67188 15.3737 5.9605 15.6623 6.31641 15.6623C6.67232 15.6623 6.96094 15.3737 6.96094 15.0178V1.28906H31.7109V29.5195Z" fill="#606060"/>
<path d="M9.41016 10.1836H29.2617C29.6176 10.1836 29.9062 9.89504 29.9062 9.53906V4.89844C29.9062 4.54253 29.6176 4.25391 29.2617 4.25391H9.41016C9.05418 4.25391 8.76562 4.54253 8.76562 4.89844V9.53906C8.76562 9.89504 9.05418 10.1836 9.41016 10.1836ZM10.0547 5.54297H28.6172V8.89453H10.0547V5.54297Z" fill="#606060"/>
<path d="M9.41016 25.6523H19.3359C19.6918 25.6523 19.9805 25.3637 19.9805 25.0078V12.6328C19.9805 12.2768 19.6918 11.9883 19.3359 11.9883H9.41016C9.05418 11.9883 8.76562 12.2768 8.76562 12.6328V25.0078C8.76562 25.3637 9.05418 25.6523 9.41016 25.6523ZM10.0547 13.2773H18.6914V24.3633H10.0547V13.2773Z" fill="#606060"/>
<path d="M29.2617 11.9883H22.4297C22.0738 11.9883 21.7852 12.2768 21.7852 12.6328C21.7852 12.9888 22.0738 13.2773 22.4297 13.2773H29.2617C29.6176 13.2773 29.9062 12.9888 29.9062 12.6328C29.9062 12.2768 29.6176 11.9883 29.2617 11.9883Z" fill="#606060"/>
<path d="M29.2617 15.082H22.4297C22.0738 15.082 21.7852 15.3706 21.7852 15.7266C21.7852 16.0825 22.0738 16.3711 22.4297 16.3711H29.2617C29.6176 16.3711 29.9062 16.0825 29.9062 15.7266C29.9062 15.3706 29.6176 15.082 29.2617 15.082Z" fill="#606060"/>
<path d="M29.2617 18.1758H22.4297C22.0738 18.1758 21.7852 18.4644 21.7852 18.8203C21.7852 19.1762 22.0738 19.4648 22.4297 19.4648H29.2617C29.6176 19.4648 29.9062 19.1762 29.9062 18.8203C29.9062 18.4644 29.6176 18.1758 29.2617 18.1758Z" fill="#606060"/>
<path d="M29.2617 21.2695H22.4297C22.0738 21.2695 21.7852 21.5582 21.7852 21.9141C21.7852 22.27 22.0738 22.5586 22.4297 22.5586H29.2617C29.6176 22.5586 29.9062 22.27 29.9062 21.9141C29.9062 21.5582 29.6176 21.2695 29.2617 21.2695Z" fill="#606060"/>
<path d="M29.2617 24.3633H22.4297C22.0738 24.3633 21.7852 24.6519 21.7852 25.0078C21.7852 25.3637 22.0738 25.6523 22.4297 25.6523H29.2617C29.6176 25.6523 29.9062 25.3637 29.9062 25.0078C29.9062 24.6519 29.6176 24.3633 29.2617 24.3633Z" fill="#606060"/>
<path d="M9.41016 28.7461H29.2617C29.6176 28.7461 29.9062 28.4575 29.9062 28.1016C29.9062 27.7457 29.6176 27.457 29.2617 27.457H9.41016C9.05418 27.457 8.76562 27.7457 8.76562 28.1016C8.76562 28.4575 9.05418 28.7461 9.41016 28.7461Z" fill="#606060"/>
<path d="M6.34863 17.2734C6.17912 17.2734 6.01283 17.3423 5.89295 17.4623C5.77307 17.5822 5.7041 17.7485 5.7041 17.918C5.7041 18.0881 5.773 18.2538 5.89295 18.3736C6.01283 18.4941 6.17912 18.5625 6.34863 18.5625C6.51814 18.5625 6.68443 18.4942 6.80425 18.3736C6.92413 18.2538 6.99316 18.0875 6.99316 17.918C6.99316 17.7485 6.9242 17.5822 6.80425 17.4623C6.68443 17.3423 6.51814 17.2734 6.34863 17.2734Z" fill="#606060"/>
</svg>
