<svg width="72" height="70" viewBox="0 0 72 70" fill="none" xmlns="http://www.w3.org/2000/svg">
<path d="M59.8355 10.4558C53.7075 4.32776 45.5011 0.725355 36.8424 0.362385C28.1837 -0.000583619 19.7045 2.90237 13.0851 8.49602C6.46577 14.0897 2.18918 21.9658 1.10282 30.5638C0.0164586 39.1617 2.19959 47.8541 7.21962 54.9184C12.2397 61.9827 19.7303 66.9034 28.2071 68.7056C36.684 70.5077 45.5286 69.0597 52.9882 64.6485C60.4479 60.2373 65.9783 53.1848 68.4835 44.8885C70.9888 36.5922 70.2861 27.6575 66.5147 19.8548L63.0931 21.5087C66.4498 28.4534 67.0752 36.4058 64.8454 43.7899C62.6156 51.174 57.6933 57.4511 51.0538 61.3773C44.4144 65.3035 36.5423 66.5923 28.9974 64.9883C21.4526 63.3843 14.7856 59.0046 10.3175 52.717C5.84939 46.4294 3.90629 38.6928 4.87321 31.0402C5.84013 23.3876 9.6465 16.3774 15.5381 11.3988C21.4297 6.42013 28.9765 3.83636 36.6832 4.15942C44.3899 4.48248 51.694 7.6888 57.1483 13.143L59.8355 10.4558Z" fill="#56973D"/>
<path d="M13.1812 28.6421L16.6321 25.1913L36.2534 44.8125L32.8025 48.2634L13.1812 28.6421Z" fill="#56973D"/>
<path d="M68.1238 6.64243L71.3266 9.84518L32.9316 48.2402L29.7289 45.0374L68.1238 6.64243Z" fill="#56973D"/>
</svg>
