<svg width="32" height="34" viewBox="0 0 32 34" fill="none" xmlns="http://www.w3.org/2000/svg">
<path d="M7.69172 13.8789H5.63563C5.37743 13.8789 5.12978 13.9843 4.94743 14.1718C4.76509 14.3592 4.66313 14.6134 4.66397 14.8782L4.67828 22.4448C4.67828 22.995 5.11333 23.4409 5.64994 23.4409C6.18656 23.4409 6.6216 22.995 6.6216 22.4448V20.1474C7.01888 20.1453 7.4433 20.1435 7.69172 20.1435C9.399 20.1435 10.788 18.7384 10.788 17.0112C10.788 15.2841 9.399 13.8789 7.69172 13.8789ZM7.69172 18.1514C7.4411 18.1514 7.01513 18.1531 6.61629 18.1553C6.61422 17.7312 6.61241 17.2745 6.61241 17.0112C6.61241 16.7859 6.6113 16.3144 6.61014 15.8711H7.69166C8.31663 15.8711 8.84463 16.3932 8.84463 17.0112C8.84463 17.6293 8.3167 18.1514 7.69172 18.1514Z" fill="#56973D"/>
<path d="M15.9566 13.8789H13.9271C13.6691 13.8789 13.4217 13.9841 13.2394 14.1713C13.0571 14.3585 12.9549 14.6124 12.9555 14.8769C12.9555 14.8769 12.9699 22.1979 12.97 22.2244C12.9709 22.4887 13.0742 22.7417 13.2571 22.9278C13.4392 23.1131 13.6852 23.217 13.9416 23.217H13.9453C14.0067 23.2167 15.4543 23.211 16.033 23.2007C18.2285 23.1614 19.8221 21.2046 19.8221 18.5479C19.822 15.7553 18.2686 13.8789 15.9566 13.8789ZM15.999 21.2088C15.7474 21.2133 15.3144 21.217 14.9101 21.2197C14.9073 20.3544 14.902 16.7702 14.9005 15.8711H15.9566C17.7401 15.8711 17.8787 17.92 17.8787 18.548C17.8787 19.8557 17.2975 21.1856 15.999 21.2088Z" fill="#56973D"/>
<path d="M26.2259 15.7942C26.7626 15.7942 27.1976 15.3482 27.1976 14.7981C27.1976 14.248 26.7626 13.802 26.2259 13.802H23.2551C22.7184 13.802 22.2834 14.248 22.2834 14.7981V22.3125C22.2834 22.8626 22.7184 23.3086 23.2551 23.3086C23.7917 23.3086 24.2267 22.8626 24.2267 22.3125V19.4803H25.99C26.5266 19.4803 26.9616 19.0343 26.9616 18.4842C26.9616 17.9341 26.5266 17.4881 25.99 17.4881H24.2267V15.7942H26.2259Z" fill="#56973D"/>
<path d="M29.085 9.62891H28.3725V9.34475C28.3725 8.06431 27.8992 6.84741 27.0399 5.91813L23.0039 1.55384C22.0907 0.566379 20.8056 0 19.4782 0H6.54251C4.93519 0 3.62753 1.34054 3.62753 2.98828V9.62891H2.91498C1.30766 9.62891 0 10.9694 0 12.6172V24.5703C0 26.2181 1.30766 27.5586 2.91498 27.5586H3.62753V31.0117C3.62753 32.6595 4.93519 34 6.54251 34H25.4575C27.0648 34 28.3725 32.6595 28.3725 31.0117V27.5586H29.085C30.6923 27.5586 32 26.2181 32 24.5703V12.6172C32 10.9694 30.6923 9.62891 29.085 9.62891ZM5.57085 2.98828C5.57085 2.43904 6.00674 1.99219 6.54251 1.99219H19.4782C20.2747 1.99219 21.0457 2.33199 21.5937 2.92453L25.6296 7.28882C26.1452 7.84636 26.4291 8.5765 26.4291 9.34475V9.62891H5.57085V2.98828ZM26.4291 31.0117C26.4291 31.561 25.9933 32.0078 25.4575 32.0078H6.54251C6.00674 32.0078 5.57085 31.561 5.57085 31.0117V27.5586H26.4291V31.0117ZM30.0567 24.5703C30.0567 25.1196 29.6208 25.5664 29.085 25.5664H2.91498C2.37921 25.5664 1.94332 25.1196 1.94332 24.5703V12.6172C1.94332 12.0679 2.37921 11.6211 2.91498 11.6211H29.085C29.6208 11.6211 30.0567 12.0679 30.0567 12.6172V24.5703Z" fill="#56973D"/>
</svg>
