<svg width="21" height="18" viewBox="0 0 21 18" fill="none" xmlns="http://www.w3.org/2000/svg">
<path fill-rule="evenodd" clip-rule="evenodd" d="M12.757 0.440445C13.4803 0.149654 14.2555 0 15.0384 0C15.8213 0 16.5966 0.149654 17.3198 0.440445C18.043 0.731182 18.7 1.1573 19.2534 1.69444C19.807 2.23142 20.2464 2.86924 20.5461 3.57091C20.8458 4.2727 21 5.02493 21 5.78459C21 6.54425 20.8458 7.29647 20.5461 7.99827C20.2464 8.7 19.8072 9.33757 19.2535 9.87457L11.1481 17.7394C10.79 18.0869 10.2095 18.0869 9.8514 17.7394L1.74596 9.87457C0.628045 8.78984 0 7.31863 0 5.78459C0 4.25055 0.628045 2.77934 1.74596 1.69461C2.86388 0.609876 4.3801 0.000488719 5.96108 0.000488719C7.54205 0.000488719 9.05827 0.609876 10.1762 1.69461L10.4998 2.00858L10.8232 1.69477C11.3766 1.15755 12.0338 0.731209 12.757 0.440445ZM15.0384 1.77937C14.4964 1.77937 13.9597 1.88302 13.459 2.08433C12.9583 2.28565 12.5033 2.58071 12.1202 2.95268L11.1481 3.89591C10.79 4.24335 10.2095 4.24335 9.8514 3.89591L8.87949 2.95279C8.10548 2.20175 7.05569 1.77986 5.96108 1.77986C4.86646 1.77986 3.81668 2.20175 3.04266 2.95279C2.26865 3.70382 1.83381 4.72247 1.83381 5.78459C1.83381 6.84671 2.26865 7.86536 3.04266 8.61639L10.4998 15.8521L17.9568 8.61639C18.3402 8.2446 18.6444 7.80296 18.8519 7.3171C19.0594 6.83124 19.1662 6.3105 19.1662 5.78459C19.1662 5.25867 19.0594 4.73793 18.8519 4.25207C18.6444 3.76621 18.3403 3.32474 17.957 2.95295C17.5738 2.58098 17.1186 2.28565 16.6179 2.08433C16.1171 1.88302 15.5804 1.77937 15.0384 1.77937Z" fill="#282828"/>
</svg>
