<svg width="21" height="22" viewBox="0 0 21 22" fill="none" xmlns="http://www.w3.org/2000/svg">
<path d="M10.4983 0C8.4843 0 6.84563 1.59642 6.84563 3.55911V10.0983L6.23384 9.50227C5.5441 8.82999 4.62674 8.45957 3.65084 8.45957C2.67526 8.45957 1.75824 8.82999 1.06816 9.50227C-0.356055 10.8898 -0.356055 13.1476 1.06816 14.5351L7.50478 20.807C8.29419 21.5761 9.3441 22 10.4604 22C11.5775 22 12.627 21.5761 13.4164 20.807L16.0215 18.2688C16.2682 18.0285 16.2682 17.6388 16.0215 17.3988C15.7748 17.1585 15.3752 17.1582 15.1285 17.3988L12.5234 19.937C11.9725 20.4738 11.2397 20.7695 10.4604 20.7695C9.68157 20.7695 8.94874 20.4738 8.3978 19.937L1.96118 13.6651C1.02968 12.7573 1.02968 11.2801 1.96118 10.3723C2.41246 9.9323 3.01273 9.69005 3.65084 9.69005C4.28927 9.69005 4.88922 9.9323 5.34049 10.3723L7.03048 12.0187C7.21073 12.1946 7.48242 12.2471 7.71858 12.152C7.95474 12.0568 8.10835 11.8325 8.10835 11.5835V3.55879C8.10835 2.27511 9.1803 1.23048 10.4979 1.23048C11.8159 1.23048 12.8875 2.27479 12.8875 3.55879V11.5105C12.8875 11.7594 13.0415 11.9837 13.2776 12.0789C13.5138 12.1744 13.7852 12.1215 13.9657 11.9456L15.662 10.2928C16.1116 9.85475 16.7096 9.61346 17.3454 9.61346C17.9812 9.61346 18.5788 9.85475 19.0294 10.2938L19.0416 10.3053C19.9698 11.2099 19.9695 12.6813 19.0413 13.5859L17.1447 15.4342C16.8981 15.6746 16.8981 16.0639 17.1447 16.3042C17.3914 16.5445 17.7914 16.5445 18.0378 16.3042L19.9346 14.4559C21.3552 13.0716 21.3552 10.8196 19.934 9.43466L19.9218 9.4228C19.2334 8.75245 18.3187 8.38298 17.3454 8.38298C16.3718 8.38298 15.4571 8.75245 14.7686 9.4228L14.1506 10.0252V3.55879C14.1509 1.59642 12.5122 0 10.4983 0Z" fill="#282828"/>
</svg>
