<svg width="22" height="18" viewBox="0 0 22 18" fill="none" xmlns="http://www.w3.org/2000/svg">
<path fill-rule="evenodd" clip-rule="evenodd" d="M3.66667 9.9C4.17293 9.9 4.58333 10.3029 4.58333 10.8V17.1C4.58333 17.5971 4.17293 18 3.66667 18C3.16041 18 2.75 17.5971 2.75 17.1V10.8C2.75 10.3029 3.16041 9.9 3.66667 9.9Z" fill="#282828"/>
<path fill-rule="evenodd" clip-rule="evenodd" d="M3.66667 0C4.17293 0 4.58333 0.402944 4.58333 0.9V7.2C4.58333 7.69706 4.17293 8.1 3.66667 8.1C3.16041 8.1 2.75 7.69706 2.75 7.2V0.9C2.75 0.402944 3.16041 0 3.66667 0Z" fill="#282828"/>
<path fill-rule="evenodd" clip-rule="evenodd" d="M11 8.1C11.5063 8.1 11.9167 8.50294 11.9167 9V17.1C11.9167 17.5971 11.5063 18 11 18C10.4937 18 10.0833 17.5971 10.0833 17.1V9C10.0833 8.50294 10.4937 8.1 11 8.1Z" fill="#282828"/>
<path fill-rule="evenodd" clip-rule="evenodd" d="M11 0C11.5063 0 11.9167 0.402944 11.9167 0.9V5.4C11.9167 5.89706 11.5063 6.3 11 6.3C10.4937 6.3 10.0833 5.89706 10.0833 5.4V0.9C10.0833 0.402944 10.4937 0 11 0Z" fill="#282828"/>
<path fill-rule="evenodd" clip-rule="evenodd" d="M18.3333 11.7C18.8396 11.7 19.25 12.1029 19.25 12.6V17.1C19.25 17.5971 18.8396 18 18.3333 18C17.8271 18 17.4167 17.5971 17.4167 17.1V12.6C17.4167 12.1029 17.8271 11.7 18.3333 11.7Z" fill="#282828"/>
<path fill-rule="evenodd" clip-rule="evenodd" d="M18.3333 0C18.8396 0 19.25 0.402944 19.25 0.9V9C19.25 9.49706 18.8396 9.9 18.3333 9.9C17.8271 9.9 17.4167 9.49706 17.4167 9V0.9C17.4167 0.402944 17.8271 0 18.3333 0Z" fill="#282828"/>
<path fill-rule="evenodd" clip-rule="evenodd" d="M0 10.8C0 10.3029 0.410406 9.9 0.916667 9.9H6.41667C6.92293 9.9 7.33333 10.3029 7.33333 10.8C7.33333 11.2971 6.92293 11.7 6.41667 11.7H0.916667C0.410406 11.7 0 11.2971 0 10.8Z" fill="#282828"/>
<path fill-rule="evenodd" clip-rule="evenodd" d="M7.33333 5.4C7.33333 4.90294 7.74374 4.5 8.25 4.5H13.75C14.2563 4.5 14.6667 4.90294 14.6667 5.4C14.6667 5.89706 14.2563 6.3 13.75 6.3H8.25C7.74374 6.3 7.33333 5.89706 7.33333 5.4Z" fill="#282828"/>
<path fill-rule="evenodd" clip-rule="evenodd" d="M14.6667 12.6C14.6667 12.1029 15.0771 11.7 15.5833 11.7H21.0833C21.5896 11.7 22 12.1029 22 12.6C22 13.0971 21.5896 13.5 21.0833 13.5H15.5833C15.0771 13.5 14.6667 13.0971 14.6667 12.6Z" fill="#282828"/>
</svg>
