<svg width="17" height="18" viewBox="0 0 17 18" fill="none" xmlns="http://www.w3.org/2000/svg">
<path d="M12.5546 13.1133H9.51957C9.13857 13.1133 8.82973 13.4281 8.82973 13.8164C8.82973 14.2047 9.13857 14.5195 9.51957 14.5195H12.5546C12.9356 14.5195 13.2445 14.2047 13.2445 13.8164C13.2445 13.4281 12.9356 13.1133 12.5546 13.1133Z" fill="#282828"/>
<path d="M12.5546 8.85938H9.51957C9.13857 8.85938 8.82973 9.17416 8.82973 9.5625C8.82973 9.95084 9.13857 10.2656 9.51957 10.2656H12.5546C12.9356 10.2656 13.2445 9.95084 13.2445 9.5625C13.2445 9.17416 12.9356 8.85938 12.5546 8.85938Z" fill="#282828"/>
<path d="M16.3102 12.375C16.6912 12.375 17 12.0602 17 11.6719V2.8125C17 1.26169 15.7621 0 14.2406 0H2.75938C1.23786 0 0 1.26169 0 2.8125V15.1875C0 16.7383 1.23786 18 2.75938 18H14.2406C15.7621 18 17 16.7383 17 15.1875C17 14.7992 16.6912 14.4844 16.3102 14.4844C15.9292 14.4844 15.6203 14.7992 15.6203 15.1875C15.6203 15.9629 15.0014 16.5938 14.2406 16.5938H2.75938C1.99862 16.5938 1.37969 15.9629 1.37969 15.1875V2.8125C1.37969 2.03709 1.99862 1.40625 2.75938 1.40625H14.2406C15.0014 1.40625 15.6203 2.03709 15.6203 2.8125V11.6719C15.6203 12.0602 15.9292 12.375 16.3102 12.375Z" fill="#282828"/>
<path d="M6.99288 2.7978C6.69921 2.55052 6.26437 2.59263 6.02172 2.89202L4.53148 4.73045L3.94346 4.11497C3.67769 3.83678 3.24092 3.83084 2.96795 4.10175C2.69501 4.37266 2.68918 4.81781 2.95498 5.09604L3.69498 5.87064C3.70108 5.87704 3.70729 5.88329 3.71364 5.88945C3.93725 6.10639 4.23571 6.22705 4.54272 6.22705C4.56908 6.22698 4.5956 6.2261 4.62209 6.22427C4.95477 6.20167 5.26544 6.03756 5.47539 5.77378L7.08532 3.7877C7.328 3.48831 7.28661 3.04513 6.99288 2.7978Z" fill="#282828"/>
<path d="M6.99288 11.3716C6.69921 11.1243 6.26437 11.1664 6.02172 11.4658L4.53107 13.3047L3.94211 12.6917C3.67552 12.4142 3.23878 12.4096 2.96657 12.6812C2.69436 12.9529 2.6898 13.3981 2.95633 13.6756L3.69632 14.4458C3.70198 14.4517 3.70774 14.4575 3.7136 14.4632C3.93721 14.6801 4.23571 14.8008 4.54272 14.8008C4.56911 14.8007 4.5956 14.7999 4.62209 14.7981C4.95473 14.7755 5.2654 14.6114 5.47539 14.3476L7.08532 12.3615C7.328 12.0621 7.28661 11.6189 6.99288 11.3716Z" fill="#282828"/>
<path d="M12.5546 4.53516H9.51957C9.13857 4.53516 8.82973 4.84995 8.82973 5.23828C8.82973 5.62662 9.13857 5.94141 9.51957 5.94141H12.5546C12.9356 5.94141 13.2445 5.62662 13.2445 5.23828C13.2445 4.84995 12.9356 4.53516 12.5546 4.53516Z" fill="#282828"/>
<path d="M6.99288 7.11766C6.69921 6.87034 6.26437 6.91253 6.02172 7.21188L4.53107 9.0508L3.94211 8.43775C3.67552 8.16029 3.23878 8.15565 2.96657 8.42734C2.69436 8.69903 2.6898 9.14421 2.95633 9.42166L3.69632 10.1919C3.70198 10.1978 3.70774 10.2036 3.7136 10.2093C3.93721 10.4262 4.23571 10.5469 4.54272 10.5469C4.56911 10.5468 4.5956 10.546 4.62209 10.5442C4.95473 10.5216 5.2654 10.3575 5.47539 10.0937L7.08532 8.10756C7.328 7.80817 7.28661 7.36499 6.99288 7.11766Z" fill="#282828"/>
</svg>
