<svg width="34" height="34" viewBox="0 0 34 34" fill="none" xmlns="http://www.w3.org/2000/svg">
<path d="M29.0195 8.56641H28.0898V4.98047C28.0898 2.23424 25.8556 0 23.1094 0H10.8906C8.14439 0 5.91016 2.23424 5.91016 4.98047V8.56641H4.98047C2.23424 8.56641 0 10.8006 0 13.5469V21.5156C0 24.2619 2.23424 26.4961 4.98047 26.4961H5.91016V31.0117C5.91016 32.6595 7.2507 34 8.89844 34H25.1016C26.7493 34 28.0898 32.6595 28.0898 31.0117V26.4961H29.0195C31.7658 26.4961 34 24.2619 34 21.5156V13.5469C34 10.8006 31.7658 8.56641 29.0195 8.56641ZM7.90234 4.98047C7.90234 3.33273 9.24289 1.99219 10.8906 1.99219H23.1094C24.7571 1.99219 26.0977 3.33273 26.0977 4.98047V8.56641H7.90234V4.98047ZM26.0977 31.0117C26.0977 31.561 25.6508 32.0078 25.1016 32.0078H8.89844C8.34919 32.0078 7.90234 31.561 7.90234 31.0117V21.1836H26.0977V31.0117ZM32.0078 21.5156C32.0078 23.1634 30.6673 24.5039 29.0195 24.5039H28.0898V21.1836H28.6875C29.2376 21.1836 29.6836 20.7376 29.6836 20.1875C29.6836 19.6374 29.2376 19.1914 28.6875 19.1914H5.3125C4.76239 19.1914 4.31641 19.6374 4.31641 20.1875C4.31641 20.7376 4.76239 21.1836 5.3125 21.1836H5.91016V24.5039H4.98047C3.33273 24.5039 1.99219 23.1634 1.99219 21.5156V13.5469C1.99219 11.8991 3.33273 10.5586 4.98047 10.5586H29.0195C30.6673 10.5586 32.0078 11.8991 32.0078 13.5469V21.5156Z" fill="black"/>
<path d="M19.6562 23.4414H14.3438C13.7936 23.4414 13.3477 23.8874 13.3477 24.4375C13.3477 24.9876 13.7936 25.4336 14.3438 25.4336H19.6562C20.2064 25.4336 20.6523 24.9876 20.6523 24.4375C20.6523 23.8874 20.2064 23.4414 19.6562 23.4414Z" fill="black"/>
<path d="M19.6562 27.6914H14.3438C13.7936 27.6914 13.3477 28.1374 13.3477 28.6875C13.3477 29.2376 13.7936 29.6836 14.3438 29.6836H19.6562C20.2064 29.6836 20.6523 29.2376 20.6523 28.6875C20.6523 28.1374 20.2064 27.6914 19.6562 27.6914Z" fill="black"/>
<path d="M8.5 12.8164H5.3125C4.76239 12.8164 4.31641 13.2624 4.31641 13.8125C4.31641 14.3626 4.76239 14.8086 5.3125 14.8086H8.5C9.05011 14.8086 9.49609 14.3626 9.49609 13.8125C9.49609 13.2624 9.05011 12.8164 8.5 12.8164Z" fill="black"/>
</svg>
