<svg width="80" height="94" viewBox="0 0 80 94" fill="none" xmlns="http://www.w3.org/2000/svg">
<path d="M53.574 70.282C50.1517 67.617 47.9442 63.4618 47.9442 58.7988C47.9442 50.7744 54.4733 44.2461 62.4976 44.2461C70.522 44.2461 77.0503 50.7744 77.0503 58.7988C77.0503 63.4618 74.8429 67.617 71.4213 70.282C76.2507 73.1549 80 78.581 80 85.3467V91.2461C80 92.7672 78.7672 94 77.2461 94H47.7485C46.2281 94 44.9946 92.7672 44.9946 91.2461V85.3467C44.9946 78.5824 48.7432 73.1557 53.574 70.282ZM71.5425 58.7988C71.5425 53.8116 67.4848 49.7539 62.4969 49.7539C57.5098 49.7539 53.4521 53.8116 53.4521 58.7988C53.4521 63.7866 57.5098 67.8443 62.4969 67.8443C67.4848 67.8443 71.5425 63.7866 71.5425 58.7988ZM50.5024 88.4922H74.4922V85.3467C74.4922 78.7216 69.1321 73.3522 62.4976 73.3522C55.8725 73.3522 50.5031 78.7122 50.5031 85.3467V88.4922H50.5024Z" fill="#C4C4C4"/>
<path d="M-2.39702 0H33C39.4086 0 44.603 5.18509 44.603 11.603V64.6982C44.603 66.9508 42.0198 68.2682 40.1967 66.9013L29.1323 58.603H-2.39702C-8.80559 58.603 -14 53.4179 -14 47V11.603C-14 5.19441 -8.81491 0 -2.39702 0ZM-8.49219 47C-8.49219 50.3692 -5.76768 53.0952 -2.39702 53.0952H30.0503C30.6463 53.0952 31.2257 53.2888 31.7027 53.646L39.0952 59.1903V11.603C39.0952 8.23375 36.3707 5.50781 33 5.50781H-2.39702C-5.76625 5.50781 -8.49219 8.23232 -8.49219 11.603V47Z" fill="#C4C4C4"/>
<path d="M0.552673 14.7485H30.0503C31.5714 14.7485 32.8042 15.982 32.8042 17.5024C32.8042 19.0235 31.5714 20.2563 30.0503 20.2563H0.552673C-0.967712 20.2563 -2.20123 19.0235 -2.20123 17.5024C-2.20123 15.982 -0.96843 14.7485 0.552673 14.7485Z" fill="#C4C4C4"/>
<path d="M0.552673 26.5479H30.0503C31.5714 26.5479 32.8042 27.7807 32.8042 29.3018C32.8042 30.8222 31.5714 32.0558 30.0503 32.0558H0.552673C-0.967712 32.0558 -2.20123 30.8222 -2.20123 29.3018C-2.20123 27.7807 -0.96843 26.5479 0.552673 26.5479Z" fill="#C4C4C4"/>
<path d="M15.3018 38.3467H30.0503C31.5714 38.3467 32.8042 39.5795 32.8042 41.1006C32.8042 42.6217 31.5714 43.8545 30.0503 43.8545H15.3018C13.7807 43.8545 12.5479 42.6217 12.5479 41.1006C12.5479 39.5795 13.7807 38.3467 15.3018 38.3467Z" fill="#C4C4C4"/>
</svg>
