<svg width="84" height="92" viewBox="0 0 84 92" fill="none" xmlns="http://www.w3.org/2000/svg">
<path d="M63.7908 31.5653C63.7908 33.0541 62.5842 34.2607 61.0955 34.2607C59.6074 34.2607 58.4001 33.0541 58.4001 31.5653C58.4001 30.0766 59.6074 28.87 61.0955 28.87C62.5842 28.87 63.7908 30.0766 63.7908 31.5653Z" fill="#C4C4C4"/>
<path d="M61.0927 8.6608C56.4243 8.6608 52.6263 12.4588 52.6263 17.1272V17.13C52.6263 18.6187 53.8336 19.8239 55.3216 19.8239C56.8103 19.8239 58.0169 18.6159 58.0169 17.1272C58.0169 15.4314 59.3969 14.0514 61.0955 14.0514C61.9181 14.0514 62.6902 14.3715 63.2735 14.9555C63.8546 15.5352 64.174 16.308 64.174 17.13C64.174 18.8279 62.7934 20.2085 61.0955 20.2085C59.6074 20.2085 58.4001 21.4158 58.4001 22.9038C58.4001 24.3926 59.6074 25.5992 61.0955 25.5992C65.7659 25.5992 69.5646 21.7997 69.5646 17.13C69.5646 14.8663 68.683 12.7396 67.0848 11.1434C65.4866 9.54239 63.3598 8.6608 61.0927 8.6608Z" fill="#C4C4C4"/>
<path d="M-5.30469 42.9214H23.5653C25.0534 42.9214 26.2607 41.7149 26.2607 40.2261V34.4523C26.2607 26.5432 21.2512 21.5028 17.2026 19.334C19.2311 17.2816 20.4861 14.4634 20.4861 11.3561C20.4861 5.09442 15.3924 0 9.12997 0C2.86829 0 -2.22614 5.09442 -2.22614 11.3561C-2.22614 14.4634 -0.97113 17.2816 1.05737 19.334C-2.98279 21.4986 -8 26.5418 -8 34.4523V40.2261C-8 41.7149 -6.79343 42.9214 -5.30469 42.9214ZM3.16449 11.3561C3.16449 8.06699 5.84085 5.39062 9.12997 5.39062C12.4198 5.39062 15.0955 8.06699 15.0955 11.3561C15.0955 14.6459 12.4198 17.3216 9.12997 17.3216C5.84085 17.3216 3.16449 14.6459 3.16449 11.3561ZM-2.60938 34.4523C-2.60938 27.9681 2.63666 22.7122 9.12997 22.7122C15.6142 22.7122 20.8693 27.959 20.8693 34.4523V37.5308H-2.60938V34.4523Z" fill="#C4C4C4"/>
<path d="M74.9426 68.4125C76.9711 66.3601 78.2261 63.542 78.2261 60.4354C78.2261 54.173 73.1317 49.0786 66.87 49.0786C60.6083 49.0786 55.5139 54.173 55.5139 60.4354C55.5139 63.542 56.7689 66.3601 58.7974 68.4125C54.7566 70.5772 49.7393 75.6204 49.7393 83.5308V89.3047C49.7393 90.7934 50.9466 92 52.4347 92H81.3047C82.7934 92 84 90.7934 84 89.3047V83.5308C84 75.6218 78.9905 70.5814 74.9426 68.4125ZM60.9045 60.4347C60.9045 57.1455 63.5802 54.4692 66.87 54.4692C70.1591 54.4692 72.8355 57.1455 72.8355 60.4347C72.8355 63.7245 70.1591 66.4001 66.87 66.4001C63.5802 66.4001 60.9045 63.7245 60.9045 60.4347ZM78.6094 86.6094H55.13V83.5308C55.13 77.0466 60.376 71.7915 66.8693 71.7915C73.3535 71.7915 78.6094 77.0375 78.6094 83.5308V86.6094Z" fill="#C4C4C4"/>
<path d="M72.6439 0H49.5477C43.2755 0 38.1916 5.07477 38.1916 11.3561V27.78L30.0699 38.6089C28.7405 40.382 30.0074 42.9214 32.2261 42.9214H72.6439C78.9056 42.9214 84 37.827 84 31.5653V11.3561C84 5.09442 78.9056 0 72.6439 0ZM78.6094 31.5653C78.6094 34.8545 75.933 37.5308 72.6439 37.5308H37.6168L43.0432 30.2956C43.3934 29.8288 43.5822 29.2617 43.5822 28.6784V11.3561C43.5822 8.05856 46.2488 5.39062 49.5477 5.39062H72.6439C75.933 5.39062 78.6094 8.06699 78.6094 11.3561V31.5653Z" fill="#C4C4C4"/>
<path d="M43.7739 49.0786H3.35611C-2.90558 49.0786 -8 54.173 -8 60.4347V80.6439C-8 86.9056 -2.90558 92 3.35611 92H26.4523C32.7245 92 37.8084 86.9252 37.8084 80.6439V64.22L45.9301 53.3911C46.5429 52.5747 46.6411 51.4819 46.1849 50.5687C45.728 49.6555 44.7951 49.0786 43.7739 49.0786ZM32.9568 61.7044C32.6066 62.1712 32.4178 62.7383 32.4178 63.3216V80.6439C32.4178 82.2372 31.7973 83.7358 30.6721 84.8616C29.5435 85.9889 28.0456 86.6094 26.4523 86.6094H3.35611C0.0669861 86.6094 -2.60938 83.933 -2.60938 80.6439V60.4347C-2.60938 57.1455 0.0669861 54.4692 3.35611 54.4692H38.3832L32.9568 61.7044Z" fill="#C4C4C4"/>
<path d="M6.24304 67.4607H23.5653C25.0534 67.4607 26.2607 66.2542 26.2607 64.7654C26.2607 63.2767 25.0534 62.0701 23.5653 62.0701H6.24304C4.755 62.0701 3.54773 63.2767 3.54773 64.7654C3.54773 66.2542 4.7543 67.4607 6.24304 67.4607Z" fill="#C4C4C4"/>
<path d="M6.24304 79.0085H14.9045C16.3926 79.0085 17.5999 77.8019 17.5999 76.3131C17.5999 74.8244 16.3926 73.6178 14.9045 73.6178H6.24304C4.755 73.6178 3.54773 74.8244 3.54773 76.3131C3.54773 77.8019 4.7543 79.0085 6.24304 79.0085Z" fill="#C4C4C4"/>
</svg>
