<svg width="81" height="92" viewBox="0 0 81 92" fill="none" xmlns="http://www.w3.org/2000/svg">
<path d="M40.0613 14.0697L33.2648 23.1313L29.6886 19.5551C27.1645 17.0303 23.3581 20.8487 25.8765 23.3664L31.6504 29.141C32.9377 30.4276 34.8391 30.0163 35.713 28.8518L44.3738 17.3041C46.5118 14.4529 42.2028 11.215 40.0613 14.0697Z" fill="#C4C4C4"/>
<path d="M71.087 35.7038C76.5534 35.7038 81 31.2572 81 25.7908C81 20.325 76.5534 15.8785 71.087 15.8785C65.6213 15.8785 61.1747 20.325 61.1747 25.7908C61.1747 31.2572 65.6213 35.7038 71.087 35.7038ZM71.087 21.2691C73.5809 21.2691 75.6094 23.2976 75.6094 25.7908C75.6094 28.2846 73.5809 30.3131 71.087 30.3131C68.5938 30.3131 66.5653 28.2846 66.5653 25.7908C66.5653 23.2976 68.5938 21.2691 71.087 21.2691Z" fill="#C4C4C4"/>
<path d="M-1.08701 35.7038C4.37872 35.7038 8.82529 31.2572 8.82529 25.7908C8.82529 20.325 4.37872 15.8785 -1.08701 15.8785C-6.55344 15.8785 -11 20.325 -11 25.7908C-11 31.2572 -6.55344 35.7038 -1.08701 35.7038ZM-1.08701 21.2691C1.40616 21.2691 3.43466 23.2976 3.43466 25.7908C3.43466 28.2846 1.40616 30.3131 -1.08701 30.3131C-3.58087 30.3131 -5.60938 28.2846 -5.60938 25.7908C-5.60938 23.2976 -3.58087 21.2691 -1.08701 21.2691Z" fill="#C4C4C4"/>
<path d="M35 0C23.1666 0 13.5393 9.62732 13.5393 21.4607C13.5393 33.2941 23.1666 42.9214 35 42.9214C46.8334 42.9214 56.4607 33.2941 56.4607 21.4607C56.4607 9.62732 46.8334 0 35 0ZM35 37.5308C26.1392 37.5308 18.9299 30.3216 18.9299 21.4607C18.9299 12.5992 26.1392 5.39062 35 5.39062C43.8608 5.39062 51.0701 12.5999 51.0701 21.4607C51.0701 30.3216 43.8608 37.5308 35 37.5308Z" fill="#C4C4C4"/>
<path d="M71.087 37.5308C65.6122 37.5308 61.1747 41.9598 61.1747 47.4431V57.7393H49.243V51.7739C49.243 50.2858 48.0365 49.0786 46.5477 49.0786H23.4523C21.9635 49.0786 20.757 50.2858 20.757 51.7739V57.7393H8.82529V47.4431C8.82529 41.9683 4.39627 37.5308 -1.08701 37.5308C-6.55344 37.5308 -11 41.9774 -11 47.4431V61.8785C-11 68.9361 -5.25842 74.6784 1.79993 74.6784H9.97571V89.3047C9.97571 90.7934 11.1823 92 12.671 92H58.087V91.8996C59.2248 91.5838 60.0608 90.5428 60.0608 89.3047V74.6784H68.2001C75.2577 74.6784 81 68.9361 81 61.8785V47.4438C81 41.9774 76.5534 37.5308 71.087 37.5308ZM1.79993 69.2878C-2.28586 69.2878 -5.60938 65.9636 -5.60938 61.8785V47.4431C-5.60938 44.95 -3.58087 42.9214 -1.08701 42.9214C1.41107 42.9214 3.43466 44.9422 3.43466 47.4431V60.4347C3.43466 61.9234 4.64194 63.13 6.12997 63.13H20.757V86.6094H15.3663V71.9831C15.3663 70.4944 14.1591 69.2878 12.671 69.2878H1.79993ZM43.8524 86.6094H26.1476V54.4692H43.8524V86.6094ZM75.6094 61.8785C75.6094 65.9636 72.2859 69.2871 68.2001 69.2871H57.3655C55.8767 69.2871 54.6702 70.4944 54.6702 71.9824V86.6094H49.243V63.13H63.87C65.3581 63.13 66.5653 61.9234 66.5653 60.4347V47.4431C66.5653 44.945 68.5868 42.9214 71.087 42.9214C73.5809 42.9214 75.6094 44.95 75.6094 47.4431V61.8785Z" fill="#C4C4C4"/>
</svg>
