<svg width="18" height="22" viewBox="0 0 18 22" fill="none" xmlns="http://www.w3.org/2000/svg">
<path fill-rule="evenodd" clip-rule="evenodd" d="M9.9 18.3333C9.9 17.8271 10.3029 17.4167 10.8 17.4167H17.1C17.5971 17.4167 18 17.8271 18 18.3333C18 18.8396 17.5971 19.25 17.1 19.25H10.8C10.3029 19.25 9.9 18.8396 9.9 18.3333Z" fill="white"/>
<path fill-rule="evenodd" clip-rule="evenodd" d="M0 18.3333C0 17.8271 0.402944 17.4167 0.9 17.4167H7.2C7.69706 17.4167 8.1 17.8271 8.1 18.3333C8.1 18.8396 7.69706 19.25 7.2 19.25H0.9C0.402944 19.25 0 18.8396 0 18.3333Z" fill="white"/>
<path fill-rule="evenodd" clip-rule="evenodd" d="M8.1 11C8.1 10.4937 8.50294 10.0833 9 10.0833L17.1 10.0833C17.5971 10.0833 18 10.4937 18 11C18 11.5063 17.5971 11.9167 17.1 11.9167L9 11.9167C8.50294 11.9167 8.1 11.5063 8.1 11Z" fill="white"/>
<path fill-rule="evenodd" clip-rule="evenodd" d="M0 11C0 10.4937 0.402944 10.0833 0.9 10.0833H5.4C5.89706 10.0833 6.3 10.4937 6.3 11C6.3 11.5063 5.89706 11.9167 5.4 11.9167H0.9C0.402944 11.9167 0 11.5063 0 11Z" fill="white"/>
<path fill-rule="evenodd" clip-rule="evenodd" d="M11.7 3.66667C11.7 3.16041 12.1029 2.75 12.6 2.75H17.1C17.5971 2.75 18 3.16041 18 3.66667C18 4.17293 17.5971 4.58333 17.1 4.58333H12.6C12.1029 4.58333 11.7 4.17293 11.7 3.66667Z" fill="white"/>
<path fill-rule="evenodd" clip-rule="evenodd" d="M0 3.66667C0 3.16041 0.402944 2.75 0.9 2.75H9C9.49706 2.75 9.9 3.16041 9.9 3.66667C9.9 4.17293 9.49706 4.58333 9 4.58333H0.9C0.402944 4.58333 0 4.17293 0 3.66667Z" fill="white"/>
<path fill-rule="evenodd" clip-rule="evenodd" d="M10.8 22C10.3029 22 9.9 21.5896 9.9 21.0833V15.5833C9.9 15.0771 10.3029 14.6667 10.8 14.6667C11.2971 14.6667 11.7 15.0771 11.7 15.5833V21.0833C11.7 21.5896 11.2971 22 10.8 22Z" fill="white"/>
<path fill-rule="evenodd" clip-rule="evenodd" d="M5.4 14.6667C4.90294 14.6667 4.5 14.2563 4.5 13.75V8.25C4.5 7.74374 4.90294 7.33333 5.4 7.33333C5.89706 7.33333 6.3 7.74374 6.3 8.25V13.75C6.3 14.2563 5.89706 14.6667 5.4 14.6667Z" fill="white"/>
<path fill-rule="evenodd" clip-rule="evenodd" d="M12.6 7.33333C12.1029 7.33333 11.7 6.92293 11.7 6.41667V0.916666C11.7 0.410406 12.1029 0 12.6 0C13.0971 0 13.5 0.410406 13.5 0.916666V6.41667C13.5 6.92293 13.0971 7.33333 12.6 7.33333Z" fill="white"/>
</svg>
