<svg width="13" height="13" viewBox="0 0 13 13" fill="none" xmlns="http://www.w3.org/2000/svg">
<path d="M10.7691 13C10.7121 13 10.6551 13 10.5981 13C8.7748 12.7739 6.95147 12.1522 5.41303 11.1913C3.98855 10.2869 2.735 9.04348 1.82333 7.63043C0.797708 6.10435 0.170938 4.29563 0 2.48694C0 2.03476 0.113957 1.58258 0.398853 1.24345C0.683749 0.90432 1.0826 0.678247 1.53844 0.621725C1.59542 0.621725 1.6524 0.621725 1.70938 0.621725H3.41876C4.27344 0.621725 5.01418 1.24345 5.12813 2.09128C5.18511 2.59997 5.29907 3.10869 5.47 3.56086C5.69792 4.1826 5.52699 4.86087 5.07115 5.36957L4.6723 5.76519C5.35605 6.78258 6.21074 7.68695 7.29335 8.36521L7.6922 7.96955C8.14804 7.51738 8.88876 7.34781 9.51554 7.57389C9.97137 7.74346 10.4842 7.85652 10.997 7.91304C11.8517 8.02609 12.4785 8.76087 12.4785 9.6087V11.3043C12.4785 11.7565 12.3075 12.2087 11.9656 12.4913C11.6238 12.7739 11.2249 13 10.7691 13ZM3.41876 1.75216H1.70938C1.53844 1.75216 1.3675 1.86522 1.25354 1.97826C1.19656 2.0913 1.13959 2.20432 1.13959 2.37389C1.31052 4.01302 1.88031 5.59563 2.79198 7.00867C3.64667 8.30867 4.72927 9.43912 6.0398 10.2304C7.46428 11.1348 9.0597 11.7 10.7121 11.8696C10.94 11.8696 11.054 11.813 11.1679 11.7C11.2819 11.5869 11.3389 11.4739 11.3389 11.3043V9.6087C11.3389 9.32609 11.111 9.1 10.8261 9.04348C10.2563 8.98696 9.68647 8.81736 9.11668 8.59128C8.88877 8.53475 8.66084 8.53476 8.48991 8.70433L7.74917 9.4391C7.57824 9.60867 7.29334 9.6652 7.06542 9.55215C5.52699 8.70433 4.27344 7.46087 3.41876 5.93478C3.36178 5.7087 3.41876 5.42608 3.5897 5.25651L4.33042 4.52174C4.44438 4.4087 4.50136 4.12609 4.44438 3.95652C4.21647 3.3913 4.10251 2.82609 3.98855 2.26087C3.98855 1.97826 3.70365 1.75216 3.41876 1.75216ZM10.1993 5.70868C9.91439 5.70868 9.68647 5.53912 9.62949 5.25651C9.45855 4.35217 8.71783 3.6739 7.80616 3.44781C7.52126 3.39129 7.29334 3.10867 7.35032 2.76954C7.4073 2.48694 7.69219 2.26086 8.03407 2.31738C9.40157 2.59999 10.4842 3.61738 10.7121 4.97391C10.7691 5.25651 10.5981 5.59565 10.2563 5.65217C10.2563 5.65217 10.2563 5.70868 10.1993 5.70868ZM12.4785 5.65217C12.1936 5.65217 11.9656 5.42607 11.9087 5.14346C11.6807 3.05216 10.0284 1.41304 7.86314 1.13043C7.57824 1.07391 7.35032 0.791284 7.35032 0.508675C7.35032 0.226066 7.6922 0 7.9771 0C10.6551 0.282609 12.7064 2.31738 12.9913 4.97391C13.0483 5.25651 12.8203 5.53911 12.4785 5.59563C12.5354 5.65215 12.4785 5.65217 12.4785 5.65217Z" fill="black"/>
</svg>
