<svg width="13" height="13" viewBox="0 0 13 13" fill="none" xmlns="http://www.w3.org/2000/svg">
<path fill-rule="evenodd" clip-rule="evenodd" d="M6.19141 1.18697C3.3937 1.18697 1.12571 3.4013 1.12571 6.13281C1.12571 8.86433 3.3937 11.0787 6.19141 11.0787C8.98911 11.0787 11.2571 8.86433 11.2571 6.13281C11.2571 3.4013 8.98911 1.18697 6.19141 1.18697ZM0 6.13281C0 2.79429 2.77199 0.0878906 6.19141 0.0878906C9.61083 0.0878906 12.3828 2.79429 12.3828 6.13281C12.3828 9.47133 9.61083 12.1777 6.19141 12.1777C2.77199 12.1777 0 9.47133 0 6.13281Z" fill="white"/>
<path fill-rule="evenodd" clip-rule="evenodd" d="M6.19141 2.28604C6.50226 2.28604 6.75426 2.53208 6.75426 2.83558V5.79317L8.69455 6.74037C8.97258 6.8761 9.08528 7.20619 8.94626 7.47765C8.80724 7.74911 8.46915 7.85914 8.19111 7.72341L5.93969 6.62433C5.749 6.53125 5.62855 6.34096 5.62855 6.13281V2.83558C5.62855 2.53208 5.88055 2.28604 6.19141 2.28604Z" fill="white"/>
</svg>
