<svg width="40" height="48" viewBox="0 0 40 48" fill="none" xmlns="http://www.w3.org/2000/svg">
<mask id="path-1-inside-1" fill="white">
<path fill-rule="evenodd" clip-rule="evenodd" d="M12 20.0002C12 15.5819 15.5817 12.0001 20 12.0001C24.4183 12.0001 28 15.5819 28 20.0002C28 24.4185 24.4183 28.0002 20 28.0002C15.5817 28.0002 12 24.4185 12 20.0002ZM16 20.0002C16 17.791 17.7909 16.0001 20 16.0001C22.2091 16.0001 24 17.791 24 20.0002C24 22.2093 22.2091 24.0002 20 24.0002C17.7909 24.0002 16 22.2093 16 20.0002Z"/>
<path fill-rule="evenodd" clip-rule="evenodd" d="M18.8895 47.6637L18.8838 47.66L18.8705 47.651L18.8246 47.62C18.7857 47.5936 18.7302 47.5556 18.6591 47.5064C18.5171 47.408 18.3129 47.2646 18.0556 47.0788C17.5411 46.7072 16.8127 46.1649 15.9417 45.4712C14.2027 44.0865 11.8788 42.086 9.5481 39.6258C4.96853 34.7918 0 27.8041 0 20.0002C1.19209e-07 14.6958 2.10715 9.60872 5.85788 5.85796C9.60861 2.1072 14.6957 0 20 0C25.3043 0 30.3914 2.1072 34.1422 5.85796C37.8929 9.60872 40 14.6958 40 20.0002C40 27.8041 35.0315 34.7918 30.4519 39.6258C28.1212 42.086 25.7973 44.0865 24.0583 45.4712C23.1873 46.1649 22.4589 46.7072 21.9444 47.0788C21.6871 47.2646 21.4829 47.408 21.3409 47.5064C21.2698 47.5556 21.2143 47.5936 21.1754 47.62L21.1295 47.651L21.1162 47.66L21.112 47.6628C20.4402 48.1106 19.5613 48.1116 18.8895 47.6637ZM8.68631 8.68635C11.6869 5.68575 15.7565 4.00003 20 4.00003C24.2435 4.00003 28.3131 5.68575 31.3137 8.68635C34.3143 11.687 36 15.7567 36 20.0002C36 26.1963 31.9685 32.2088 27.5481 36.8748C25.3788 39.1647 23.2027 41.0393 21.5667 42.342C20.9578 42.8269 20.426 43.2308 20 43.5455C19.574 43.2308 19.0422 42.8269 18.4333 42.342C16.7973 41.0393 14.6212 39.1647 12.4519 36.8748C8.03147 32.2088 4 26.1963 4 20.0002C4 15.7567 5.68573 11.687 8.68631 8.68635Z"/>
</mask>
<path fill-rule="evenodd" clip-rule="evenodd" d="M12 20.0002C12 15.5819 15.5817 12.0001 20 12.0001C24.4183 12.0001 28 15.5819 28 20.0002C28 24.4185 24.4183 28.0002 20 28.0002C15.5817 28.0002 12 24.4185 12 20.0002ZM16 20.0002C16 17.791 17.7909 16.0001 20 16.0001C22.2091 16.0001 24 17.791 24 20.0002C24 22.2093 22.2091 24.0002 20 24.0002C17.7909 24.0002 16 22.2093 16 20.0002Z" fill="white"/>
<path fill-rule="evenodd" clip-rule="evenodd" d="M18.8895 47.6637L18.8838 47.66L18.8705 47.651L18.8246 47.62C18.7857 47.5936 18.7302 47.5556 18.6591 47.5064C18.5171 47.408 18.3129 47.2646 18.0556 47.0788C17.5411 46.7072 16.8127 46.1649 15.9417 45.4712C14.2027 44.0865 11.8788 42.086 9.5481 39.6258C4.96853 34.7918 0 27.8041 0 20.0002C1.19209e-07 14.6958 2.10715 9.60872 5.85788 5.85796C9.60861 2.1072 14.6957 0 20 0C25.3043 0 30.3914 2.1072 34.1422 5.85796C37.8929 9.60872 40 14.6958 40 20.0002C40 27.8041 35.0315 34.7918 30.4519 39.6258C28.1212 42.086 25.7973 44.0865 24.0583 45.4712C23.1873 46.1649 22.4589 46.7072 21.9444 47.0788C21.6871 47.2646 21.4829 47.408 21.3409 47.5064C21.2698 47.5556 21.2143 47.5936 21.1754 47.62L21.1295 47.651L21.1162 47.66L21.112 47.6628C20.4402 48.1106 19.5613 48.1116 18.8895 47.6637ZM8.68631 8.68635C11.6869 5.68575 15.7565 4.00003 20 4.00003C24.2435 4.00003 28.3131 5.68575 31.3137 8.68635C34.3143 11.687 36 15.7567 36 20.0002C36 26.1963 31.9685 32.2088 27.5481 36.8748C25.3788 39.1647 23.2027 41.0393 21.5667 42.342C20.9578 42.8269 20.426 43.2308 20 43.5455C19.574 43.2308 19.0422 42.8269 18.4333 42.342C16.7973 41.0393 14.6212 39.1647 12.4519 36.8748C8.03147 32.2088 4 26.1963 4 20.0002C4 15.7567 5.68573 11.687 8.68631 8.68635Z" fill="white"/>
<path d="M12.4519 36.8748L11.7259 37.5626H11.7259L12.4519 36.8748ZM18.4333 42.342L17.8104 43.1243L17.8104 43.1243L18.4333 42.342ZM20 43.5455L19.4057 44.3498C19.7589 44.6108 20.2411 44.6108 20.5943 44.3498L20 43.5455ZM21.5667 42.342L22.1896 43.1243L22.1896 43.1243L21.5667 42.342ZM27.5481 36.8748L28.2741 37.5626L27.5481 36.8748ZM18.8895 47.6637L19.4442 46.8317L19.4422 46.8303L18.8895 47.6637ZM18.8838 47.66L18.3282 48.4914L18.3312 48.4934L18.8838 47.66ZM18.8705 47.651L18.3102 48.4794L18.3149 48.4825L18.8705 47.651ZM18.8246 47.62L18.2628 48.4473L18.2644 48.4483L18.8246 47.62ZM18.6591 47.5064L18.0898 48.3285L18.0898 48.3285L18.6591 47.5064ZM18.0556 47.0788L18.6411 46.2681L18.6411 46.2681L18.0556 47.0788ZM15.9417 45.4712L16.5646 44.6889L16.5646 44.6889L15.9417 45.4712ZM9.5481 39.6258L10.2741 38.9381H10.2741L9.5481 39.6258ZM0 20.0002H-1H0ZM5.85788 5.85796L6.56499 6.56506L5.85788 5.85796ZM34.1422 5.85796L34.8493 5.15086L34.1422 5.85796ZM30.4519 39.6258L29.7259 38.9381L30.4519 39.6258ZM24.0583 45.4712L23.4354 44.6889H23.4354L24.0583 45.4712ZM21.9444 47.0788L21.3589 46.2681L21.3589 46.2681L21.9444 47.0788ZM21.3409 47.5064L21.9102 48.3285L21.9102 48.3285L21.3409 47.5064ZM21.1754 47.62L21.7357 48.4483L21.7373 48.4473L21.1754 47.62ZM21.1295 47.651L21.6851 48.4825L21.6898 48.4793L21.1295 47.651ZM21.1162 47.66L21.6681 48.4939L21.6718 48.4914L21.1162 47.66ZM21.112 47.6628L20.56 46.8289L20.5573 46.8307L21.112 47.6628ZM20 3.00003C15.4913 3.00003 11.1673 4.7911 7.9792 7.97925L9.39342 9.39346C12.2065 6.58039 16.0218 5.00003 20 5.00003V3.00003ZM7.9792 7.97925C4.79108 11.1674 3 15.4915 3 20.0002H5C5 16.0219 6.58037 12.2065 9.39342 9.39346L7.9792 7.97925ZM3 20.0002C3 26.5983 7.26572 32.8545 11.7259 37.5626L13.1779 36.1871C8.79723 31.563 5 25.7944 5 20.0002H3ZM11.7259 37.5626C13.9356 39.895 16.1487 41.801 17.8104 43.1243L19.0563 41.5598C17.446 40.2775 15.3068 38.4343 13.1779 36.1871L11.7259 37.5626ZM17.8104 43.1243C18.4295 43.6173 18.9709 44.0285 19.4057 44.3498L20.5943 42.7413C20.1772 42.433 19.6549 42.0365 19.0563 41.5598L17.8104 43.1243ZM20.5943 44.3498C21.0291 44.0285 21.5705 43.6173 22.1896 43.1243L20.9437 41.5598C20.3451 42.0365 19.8228 42.433 19.4057 42.7413L20.5943 44.3498ZM22.1896 43.1243C23.8513 41.801 26.0644 39.895 28.2741 37.5626L26.8221 36.1871C24.6932 38.4343 22.554 40.2775 20.9437 41.5598L22.1896 43.1243ZM28.2741 37.5626C32.7343 32.8545 37 26.5983 37 20.0002H35C35 25.7944 31.2028 31.563 26.8221 36.1871L28.2741 37.5626ZM37 20.0002C37 15.4915 35.209 11.1674 32.0208 7.97925L30.6066 9.39346C33.4197 12.2065 35 16.0219 35 20.0002H37ZM32.0208 7.97925C28.8327 4.7911 24.5087 3.00003 20 3.00003V5.00003C23.9782 5.00003 27.7936 6.58039 30.6066 9.39346L32.0208 7.97925ZM19.4422 46.8303L19.4365 46.8265L18.3312 48.4934L18.3369 48.4972L19.4422 46.8303ZM19.4394 46.8285L19.4261 46.8196L18.3149 48.4825L18.3282 48.4914L19.4394 46.8285ZM19.4308 46.8227L19.3849 46.7917L18.2644 48.4483L18.3102 48.4793L19.4308 46.8227ZM19.3865 46.7928C19.3502 46.7681 19.2971 46.7318 19.2285 46.6843L18.0898 48.3285C18.1632 48.3793 18.2213 48.4191 18.2628 48.4473L19.3865 46.7928ZM19.2285 46.6843C19.0916 46.5895 18.8929 46.4499 18.6411 46.2681L17.4701 47.8894C17.733 48.0793 17.9425 48.2265 18.0898 48.3285L19.2285 46.6843ZM18.6411 46.2681C18.1377 45.9045 17.422 45.3717 16.5646 44.6889L15.3187 46.2535C16.2035 46.958 16.9445 47.5098 17.4701 47.8894L18.6411 46.2681ZM16.5646 44.6889C14.8513 43.3247 12.5644 41.3557 10.2741 38.9381L8.82214 40.3136C11.1932 42.8163 13.554 44.8482 15.3187 46.2535L16.5646 44.6889ZM10.2741 38.9381C5.73425 34.146 1 27.4022 1 20.0002H-1C-1 28.2061 4.2028 35.4376 8.82214 40.3136L10.2741 38.9381ZM1 20.0002C1 14.961 3.00179 10.1283 6.56499 6.56506L5.15077 5.15086C1.21251 9.08915 -1 14.4306 -1 20.0002H1ZM6.56499 6.56506C10.1282 3.00184 14.9609 1 20 1V-1C14.4304 -1 9.08903 1.21256 5.15077 5.15086L6.56499 6.56506ZM20 1C25.0391 1 29.8718 3.00184 33.435 6.56506L34.8493 5.15086C30.911 1.21256 25.5696 -1 20 -1V1ZM33.435 6.56506C36.9982 10.1283 39 14.961 39 20.0002H41C41 14.4306 38.7875 9.08915 34.8493 5.15086L33.435 6.56506ZM39 20.0002C39 27.4022 34.2657 34.146 29.7259 38.9381L31.1779 40.3136C35.7972 35.4376 41 28.2061 41 20.0002H39ZM29.7259 38.9381C27.4356 41.3557 25.1487 43.3247 23.4354 44.6889L24.6813 46.2535C26.446 44.8482 28.8068 42.8163 31.1779 40.3136L29.7259 38.9381ZM23.4354 44.6889C22.578 45.3717 21.8623 45.9046 21.3589 46.2681L22.5299 47.8894C23.0555 47.5098 23.7965 46.958 24.6813 46.2535L23.4354 44.6889ZM21.3589 46.2681C21.1072 46.4499 20.9084 46.5895 20.7715 46.6843L21.9102 48.3285C22.0574 48.2265 22.267 48.0794 22.5299 47.8894L21.3589 46.2681ZM20.7715 46.6843C20.7028 46.7319 20.6497 46.7682 20.6135 46.7928L21.7373 48.4473C21.7789 48.419 21.8369 48.3792 21.9102 48.3285L20.7715 46.6843ZM20.6151 46.7917L20.5693 46.8227L21.6898 48.4793L21.7357 48.4483L20.6151 46.7917ZM20.574 46.8196L20.5606 46.8285L21.6718 48.4914L21.6851 48.4825L20.574 46.8196ZM20.5643 46.8261L20.56 46.8289L21.6639 48.4967L21.6681 48.4938L20.5643 46.8261ZM20.5573 46.8307C20.2205 47.0552 19.7793 47.0551 19.4442 46.8317L18.3348 48.4958C19.3434 49.1681 20.6598 49.166 21.6667 48.4948L20.5573 46.8307ZM20 15.0001C17.2386 15.0001 15 17.2387 15 20.0002H17C17 18.3433 18.3432 17.0001 20 17.0001V15.0001ZM15 20.0002C15 22.7616 17.2386 25.0002 20 25.0002V23.0002C18.3432 23.0002 17 21.657 17 20.0002H15ZM20 25.0002C22.7614 25.0002 25 22.7616 25 20.0002H23C23 21.657 21.6568 23.0002 20 23.0002V25.0002ZM25 20.0002C25 17.2387 22.7614 15.0001 20 15.0001V17.0001C21.6568 17.0001 23 18.3433 23 20.0002H25ZM13 20.0002C13 16.1341 16.134 13.0001 20 13.0001V11.0001C15.0294 11.0001 11 15.0296 11 20.0002H13ZM20 13.0001C23.866 13.0001 27 16.1341 27 20.0002H29C29 15.0296 24.9706 11.0001 20 11.0001V13.0001ZM27 20.0002C27 23.8662 23.866 27.0002 20 27.0002V29.0002C24.9706 29.0002 29 24.9708 29 20.0002H27ZM20 27.0002C16.134 27.0002 13 23.8662 13 20.0002H11C11 24.9708 15.0294 29.0002 20 29.0002V27.0002Z" fill="#61AD43" mask="url(#path-1-inside-1)"/>
</svg>
